<svg xmlns="http://www.w3.org/2000/svg" viewBox="0 0 195.34 196.69"><defs><style>.cls-1{fill:#ed6c64;}</style></defs><title>Asset 2</title><g id="Layer_2" data-name="Layer 2"><g id="Layer_1-2" data-name="Layer 1"><path class="cls-1" d="M194.57,98.51c0,.91.65.58.77.72C195.15,97.69,194.39,98.55,194.57,98.51Z"/><polygon class="cls-1" points="191.76 83.79 192.09 84 191.02 81.97 191.76 83.79"/><path class="cls-1" d="M190.32,77.6l-.17.46,1.18.88c-.43-1.45-1-3.11-1.53-4.62a21.23,21.23,0,0,1-1.19-4C187.83,71.92,190.24,75.07,190.32,77.6Z"/><path class="cls-1" d="M189,63.78c-.12-.28-.28-.67-.51-1.35-.26.6-1-1.38.51,1.69C189,64,189,63.89,189,63.78Z"/><path class="cls-1" d="M189,63.78c.58,1.38,0-1.05,0,0Z"/><path class="cls-1" d="M187.26,59.16c.08-.49-.59-2.12-.14-1.61-1.05-1.76-1.11-1.25-1.05,0Z"/><path class="cls-1" d="M184.5,56.23c.21.27.41.55.6.83C185.13,56.85,185.06,56.58,184.5,56.23Z"/><path class="cls-1" d="M185.63,57.9c-.39,0,.09.23.69,1l-1.22-1.8C185,57.4,184.71,57.59,185.63,57.9Z"/><path class="cls-1" d="M186.12,60.88c.79,1.67,1.29,2.33,1.44,2.12s-.06-1.28-.9-3C186.89,61.15,187.24,62.52,186.12,60.88Z"/><path class="cls-1" d="M187.22,70c0,.48.09,1,.09,1.46l.72,1.06a5.32,5.32,0,0,1-.39-1.54C187.52,70.42,187.38,69.93,187.22,70Z"/><path class="cls-1" d="M180.75,46.46c-.28,0-.21.91-.41,1.21.35.35.67.72,1,1.09C181.13,48,180.49,46.74,180.75,46.46Z"/><path class="cls-1" d="M180.34,47.67l-1.53-1.59C179.81,47.73,180.17,47.91,180.34,47.67Z"/><path class="cls-1" d="M185.47,59.29c-.86-1.15-1.69-2.3-2.62-3.38l.31.59C184,57.39,184.69,58.35,185.47,59.29Z"/><path class="cls-1" d="M177.27,40.21c-.66-.43-1.34-.85-2-1.24l.83.58C176.48,39.76,176.87,40,177.27,40.21Z"/><path class="cls-1" d="M172.54,35.29c1,.39-.2-1.48.67-.94a14.19,14.19,0,0,0-3.27-2.41A10,10,0,0,1,172.54,35.29Z"/><path class="cls-1" d="M168.2,30.91a18.2,18.2,0,0,0,1.74,1A8.77,8.77,0,0,0,168.2,30.91Z"/><path class="cls-1" d="M176.47,41.16l-.09,1.11.49.69A2.5,2.5,0,0,0,176.47,41.16Z"/><path class="cls-1" d="M176.38,42.3v0c-.51-.77-.87-1.29-1-1.52Z"/><path class="cls-1" d="M177,43.14l-.12-.18C176.86,43.07,176.87,43.12,177,43.14Z"/><path class="cls-1" d="M179.21,50.83c.86.53.44-.9,1.9.44C180.13,50.37,178.48,48.35,179.21,50.83Z"/><path class="cls-1" d="M178,46.49c.13-.14.14-.64.64-.22-.58-.59-1.14-1.2-1.74-1.77C177.26,45.15,177.6,45.83,178,46.49Z"/><polygon class="cls-1" points="176.04 43.72 176.87 44.5 176.43 43.78 176.04 43.72"/><path class="cls-1" d="M170.38,34.27a7.58,7.58,0,0,1-1.24-1c-.41-.36-.82-.76-1.26-1.19.82,1,1.64,2.1,2.48,3.07C170.64,35.15,171.32,35.32,170.38,34.27Z"/><path class="cls-1" d="M173.35,38.14l-.17-.15C173.22,38.14,173.27,38.23,173.35,38.14Z"/><path class="cls-1" d="M159.15,23.84l.06.22.12-.06Z"/><path class="cls-1" d="M170.4,35.41A3.88,3.88,0,0,0,172,36.86c-.54-.51-1.08-1.07-1.63-1.7C170.23,35.17,170.17,35.2,170.4,35.41Z"/><path class="cls-1" d="M165.6,28.73c.28.46.61.95.94,1.48C166.36,29.68,165.87,28.72,165.6,28.73Z"/><path class="cls-1" d="M173.13,37.61l.12.09C173.17,37.35,173.13,37.43,173.13,37.61Z"/><path class="cls-1" d="M173.18,38a1.81,1.81,0,0,1-.05-.38,6.36,6.36,0,0,0-1.14-.75A13.51,13.51,0,0,0,173.18,38Z"/><path class="cls-1" d="M162.41,26.94l.73.58a16.51,16.51,0,0,1-1.8-2.82c-1.39-.78-1.79-.8-2-.7,1.12,1,2.28,2,3.38,3.09Z"/><path class="cls-1" d="M166.14,30.42c-1-.05-2.83-1.31-2.39.16,1.94,1.84,1.74.92,3.09,1.86-3.14-3,1.15.64-.74-1.94.68.54,1.25,1.08,1.78,1.59-.49-.63-.94-1.26-1.34-1.88l0,.11h0c.07.2.07.28,0,.09l-.07-.06a.7.7,0,0,1-.33.05c-.78-1,0-.28.33-.05a.45.45,0,0,0,.11,0v0c-1.1-1-2.3-1.87-3.44-2.8A38.82,38.82,0,0,0,166.14,30.42Z"/><path class="cls-1" d="M176.72,49.66a.17.17,0,0,1,.07-.2C176.56,49.28,176.46,49.22,176.72,49.66Z"/><path class="cls-1" d="M176.39,45.43l.06-.2S176.38,45.27,176.39,45.43Z"/><path class="cls-1" d="M176.79,49.46c.49.4,1.56,1.54.85-.27l-.25-.2a13.46,13.46,0,0,1-1-3.56,6.15,6.15,0,0,0-.25,2.53,2.63,2.63,0,0,1,1.12,1.16C177.55,50,177,49.3,176.79,49.46Z"/><path class="cls-1" d="M168.84,36.48l.72,1.78.23-.31C171,39.61,171,39,171.42,39,170.6,38.13,169.71,37.31,168.84,36.48Z"/><path class="cls-1" d="M159.91,23c-.75-.21-1.56-.35-2.33-.51l1.48.77Z"/><path class="cls-1" d="M155.77,20c-.41-.15-.84-.28-1.26-.42l.73.84Z"/><path class="cls-1" d="M41.54,16.64l.81.34a8,8,0,0,1,2.3-1.35C43,16,41,16.13,41.54,16.64Z"/><path class="cls-1" d="M110.34,2.12A20.45,20.45,0,0,0,107,1.26C108.61,1.88,109.82,2.66,110.34,2.12Z"/><path class="cls-1" d="M10.63,146.43c.45.51.71.68.84.59C11,146.49,10.72,146.23,10.63,146.43Z"/><path class="cls-1" d="M107,1.26A6.12,6.12,0,0,0,103.1.94c.24.09.47.14.71.22A16.09,16.09,0,0,1,107,1.26Z"/><path class="cls-1" d="M192.63,114a7.43,7.43,0,0,0,.18-1.83C192.8,112.64,192.71,113.35,192.63,114Z"/><path class="cls-1" d="M138.91,10.16c.94.4.19,0,0,0Z"/><path class="cls-1" d="M142,14.91c-.23,0-.42,0-.52.13A.7.7,0,0,1,142,14.91Z"/><path class="cls-1" d="M140.14,11.14a9,9,0,0,0-1.07-.79A12.9,12.9,0,0,0,140.14,11.14Z"/><path class="cls-1" d="M140.11,10.74l.76.47C141,11.16,141,11,140.11,10.74Z"/><path class="cls-1" d="M138.91,10.16l-1.31-.55a13.42,13.42,0,0,1,1.47.74C138.91,10.23,138.85,10.16,138.91,10.16Z"/><path class="cls-1" d="M193,105.07c.11-1.45.08-2.85-.42-3.15l.15,1.77c-.6-1.2-1.29-.39-2.08.62l-.23.29q.15-2.67.15-5.37A93.91,93.91,0,0,0,161,30.7l.08.06.2-.33c-.84-.77-1.58-1.17-1.23-.61-.73-.67-1.46-1.32-2.2-2,1.71.69,2.06-1.7,1.41-3.8-.24.19-.38.35-2.39-.72.43.72,3.24,3.82,1.44,3.05a6.66,6.66,0,0,1-1.87-1.61,9.38,9.38,0,0,0-.72-1.26c.22.7-.7.36-1.69,0a3.11,3.11,0,0,0-2-.28c-1.17-.86-2.37-1.69-3.58-2.5v-1l-1.06.12,1,.84a93.53,93.53,0,0,0-11.33-6.45c.13,0,.16-.14,0-.33l-1.53-.55c-1.07-1.28,3.22.36,1.48-.8a29.57,29.57,0,0,1,3.55.88,14.66,14.66,0,0,1,1.9.75,12.68,12.68,0,0,1,1.89,1.2v1.18c.1-.29-1.46-1.55-2.37-1.7.67.11,1.54,1,2.47,1.82a8.22,8.22,0,0,0,1.42,1,2,2,0,0,0,1.42.33c-.49-.59-1-1.2-1.49-1.76,1.1.33,2.35.71,3.63,1.17a10.38,10.38,0,0,1,3.6,2.06c-.47-1.56-.58-.28-1.57-2.41.66,2.16-6.07-3.95-4.52-1.14a5.83,5.83,0,0,0-2-2.26,14.32,14.32,0,0,1-2.58-2.33c-.08.34.55,1-1.49-.22a2.91,2.91,0,0,1-.6,0l-.13-.09.1.09c-.12,0-.13,0,0,0a3,3,0,0,1,.85,1,8.83,8.83,0,0,1-3.05-.73,23.45,23.45,0,0,0-3-.89c-1.2-.72.69-.11.14-.75-.65-.09-1.31-.15-2-.19.12-.75-3-2.52.24-1.71L130.7,6.87a13.88,13.88,0,0,0-5.3-2.08c-1.33-.55-3.67-.18-2.33-.41-.77-.14-1.54-.29-2.32-.41l-2.33-.3V3.48a48.32,48.32,0,0,0-7.08-1,31.26,31.26,0,0,1-7.53-1.36c-.79,0-1.58.07-2.5.07A22.91,22.91,0,0,1,98,1.1l-.5-.66C96.54.5,95,.4,93.66.32s-2.6-.09-3,.3A4.86,4.86,0,0,0,88.1,0a17.17,17.17,0,0,0-1.74,0c-.62,0-1.26.15-1.91.25-1.3.22-2.64.44-3.86.71a26,26,0,0,1-3.23.59l0,.85a23.39,23.39,0,0,0-3.55.9c-.6.19-1.22.39-1.86.61s-1.3.52-2,.8l.38.67a19.67,19.67,0,0,1-4.57,1.36c-.9.2-1.86.4-2.83.63a26.19,26.19,0,0,0-2.86,1c.15-.37,1.15-.68,1.89-.79a10.55,10.55,0,0,0-3.68.88A26.47,26.47,0,0,0,55,10.37c-1.09.66-2.09,1.44-3.12,2a12.84,12.84,0,0,1-3.2,1.39,5.09,5.09,0,0,1-2.32,1.32,1,1,0,0,0,.22-.17l-.4.22c-.49.13-1,.27-1.51.46A10.21,10.21,0,0,0,46,15.3a22.13,22.13,0,0,0-2.71,2.06L42.35,17l-.24.18c-1.21.43-.62.85.27,1a6.7,6.7,0,0,0-1.1,1.34c-.77-.25-1.39.32-2,.91A3,3,0,0,1,37,21.48c-.13.53-1.3,1.6-2.38,2.73A6.92,6.92,0,0,0,32.8,27a8.24,8.24,0,0,0-2.87,2.75l-1.13-.33L28.18,31l-.56,1.57c-1.7.89-2.51,1.22-1.81-.66-.55,1-1,1.7-1.28,2.22s-.55.9-.77,1.24a15.85,15.85,0,0,0-1.6,3.12l-.4-.56C21,39,20.33,41.2,19.4,41.5a12.05,12.05,0,0,0-2.62,2.68,25.44,25.44,0,0,0-1.6,2.21c-.53.82-1.11,1.69-1.7,2.59C11.24,52.69,9,57,6.89,60.36c1.21-.29.62.43-.07,1.36S5.35,63.81,6,64.23c-.59.25-1.24,1.17-1.15-.15A35.75,35.75,0,0,1,3.2,68.63a6.67,6.67,0,0,0-.59,3.91c-.57.31-.42-1-.79-.69,0,.34,0,1.33-.34,1.66s-.21-.67-.23-1.34A10.52,10.52,0,0,0,.86,74.6a3.69,3.69,0,0,0,.32,1.51,3,3,0,0,0,1.61,1.38,6.67,6.67,0,0,0-.94,2.32A4.67,4.67,0,0,0,2.2,82c-.54.62-1.2,1.71-.91-.78-.09.34-.25,1-.45,1.89-.1.43-.21.9-.31,1.38s-.16,1-.23,1.48c-.27,2-.39,3.82.16,3.94a4.76,4.76,0,0,0-.13,2.33C.17,93.75.08,94.61.05,95.45S0,97.14,0,98.69l.2-.85c1.22,1.22.28,2.55.5,5l-.14-.07a15.23,15.23,0,0,0-.19,2.88,5.81,5.81,0,0,0,.17,1.19A4.75,4.75,0,0,1,.69,108c0,.29,0,.65,0,1.11s0,1-.07,1.75l.75-.39c.89.16.79,1.4.61,3a12.09,12.09,0,0,0,.32,5.15l.24-1.24c.42.82.14,2.13-.24,3.5s-.89,2.81-.72,3.71c0,.42-.41-.54-.65-1.05.31,4.89,1.18.33,2.37,3.67-.34.79-1.63-.4-1,1.93,0,.64,1,2.17,2,3.93a22.57,22.57,0,0,1,1.52,2.71,11.16,11.16,0,0,1,.53,1.38,5.75,5.75,0,0,1,.3,1.31c.1-.83.21-1.64,1.18-.28a35.75,35.75,0,0,1,1.43,4.43c.54,1.59,1.16,3.14,2.35,3.78.06.33,0,.49-.07.56.65.74,1.51,2,2.47,3.17a10.44,10.44,0,0,0,2.51,2.41c-.35.76,0,1.68.67,2.69a18.55,18.55,0,0,0,2.63,3c1,1,1.93,1.89,2.55,2.63s.86,1.36.37,1.76c.67.73,1.32,1.48,2,2.18L26.76,167l-.29.07a13,13,0,0,0,3.11,2.74,8.72,8.72,0,0,0,2.22,1c.54.7-.09.46-.24.51a24.09,24.09,0,0,0,4.18,3.84,20.48,20.48,0,0,0,4.63,2.13l-.09.95a5.08,5.08,0,0,1,1.52,1.06c.68.59,1.56,1.29,2.54,2.09.5.39,1,.8,1.57,1.21s1.16.76,1.76,1.12a16.41,16.41,0,0,0,3.83,1.78.84.84,0,0,1-.71,0c2.92,1,6,3.07,8.81,4.55s5.43,2.4,6.94,1.33c1.33.22,2.7.29,4,.44-4.86-1.63,1.09-1.05-.79-2.1a7.92,7.92,0,0,1,2.79,1.21c.65.43.74.79-.47.55l-.33-.25c-1.3,1.35,6,2,5.71,3a149.8,149.8,0,0,0,15,2.13l3.71.25c1.23,0,2.46,0,3.68.07s2.45,0,3.66-.08,2.43-.1,3.62-.26c-.41-.36-.81-.7-1.22-1.09,1.1-.08,2.2-.22,3.3-.33.9.17,1.3.8-1.08,1.05,1.35.53,3.9-1.08,3.9-1.39,4.68-.34-1.56,1.71-.15,1.49l1.91-.43-.46-.06c.74-.39,1.12-.71,1.66-1a6.36,6.36,0,0,1,1-.41,13.54,13.54,0,0,1,1.65-.43c1.81-.17,1.07.52,1.78.4,0,.09.26.07,1.08-.21,1.37-.32,2.74-.69,4.11-1l-1.89-.46c1.66-1,3.79-1.05,1.63-1.54,1.58.38,5.37-.68,8.86-2.12,1.75-.69,3.4-1.54,4.77-2.14a16.5,16.5,0,0,1,2.8-1.23,15.14,15.14,0,0,1,1.55-1.25c.52-.4,1.06-.79,1.64-1.16,1.14-.75,2.4-1.41,3.74-2.25-.77.25-1.72-.42.62-1.76.18,1.19,1.39.77,2.83-.06s3.2-1.92,4.55-2c-1.11.2.39-1.07,1.74-2.28s2.45-2.49.81-2c1.83-1.35.64.55,2.3-.2q1.36-1.56,3-3.11c.53-.51,1.11-1,1.68-1.53l1.72-1.61c.58-.54,1.2-1.07,1.78-1.64l1.72-1.77a32.76,32.76,0,0,0,3.22-3.89c-.17-.26-1.21.35-.67-1.05,1.14-.62,2.19-1.32,3.29-2a2.94,2.94,0,0,0,.19-1.6c0-.52.26-1.07,1.33-1.82-.39.15-1,.38-.57-.42,4.2-5.14,7.09-11.36,9.41-17.71s4.11-12.85,6.51-19.33c-.88,1.72-.72.5-.5-.87-.29.87-.7-.13-1.13,0,.6-1.79,1.23-3.6,1.78-5.43C192.77,108,192.87,106.51,193,105.07ZM156.53,26.46a6.6,6.6,0,0,1,.88,1.07c-.9-.76-1.81-1.52-2.74-2.25a4.44,4.44,0,0,1,.63.3A6,6,0,0,1,156.53,26.46Zm-2.48-1.7,0,0-.13-.1ZM128.36,6.55l-.08,0C126.81,5.74,127.33,6.05,128.36,6.55ZM111.31,4.78a27.36,27.36,0,0,1,3.19-.07c1.82.13,2.14.5,2.11.73s-.43.42-.11.4a16,16,0,0,0,3.79.6,13.59,13.59,0,0,0,2.39-.09,7.86,7.86,0,0,1,2.17,0,9.68,9.68,0,0,1,3,1.17c1.83,1.57-.49,1.72-.23,2.48a11.75,11.75,0,0,1-3.32-1.27,14.23,14.23,0,0,0-2.64-1.14l2.21,1.07a9.1,9.1,0,0,1-3.82-.82,3.56,3.56,0,0,0,.81.46,93.7,93.7,0,0,0-13.27-2.55,8.86,8.86,0,0,1,1.13-.45A13.9,13.9,0,0,1,111.31,4.78ZM92.49,4.44c-.1.23.22.51.47.69-.93,0-1.86.08-2.79.14A7.46,7.46,0,0,1,92.49,4.44ZM73.09,5.68c.19,0,1.57,0,3,0a16,16,0,0,1,3.67.44.86.86,0,0,1,.4.29q-1.71.3-3.39.66l-.33-1.22-.14,1.32c-1.12.24-2.22.5-3.32.78A3,3,0,0,1,73.09,5.68ZM56.2,11.47l1,.16c.89-.63,1.78-1.27,2.71-1.84-.58.84-1.57,2.29-2.68,3.79q-2.38,1.1-4.69,2.32A11.91,11.91,0,0,1,56.2,11.47ZM32.8,27a.72.72,0,0,0,0,.36C32.67,27.27,32.35,27.43,32.8,27Zm-4.22,6.86c-.55.57-1.1,1.15-1.64,1.74.18-.91.36-1.82.57-2.73C27.64,33.29,28.08,33.58,28.58,33.88ZM3.21,78.45c.28-.43.55,0,.84.76,0-.28,0-.55-.09-.76.27-.49.5-.66.7-.63-.15.62-.29,1.25-.42,1.88l-.19-.49q0,.45.09,1c-.06.29-.11.58-.17.88a16.44,16.44,0,0,0-1,1.38C3,81.1,3.08,79.77,3.21,78.45ZM119.7,193.77l-.7-.05C120.4,193.16,120.05,193.45,119.7,193.77Z"/><path class="cls-1" d="M147.92,15.19c.05-.15-.09-.5.21-.39-.58-.3-1.19-.57-1.79-.85A4.67,4.67,0,0,1,147.92,15.19Z"/><path class="cls-1" d="M148.13,14.8l.22.11A.89.89,0,0,0,148.13,14.8Z"/><path class="cls-1" d="M150.61,19.17a11.3,11.3,0,0,0-2-.92c-.23.68,1.06,1.15,2.34,1.95l-.21-.16C151.21,19.78,151.06,19.49,150.61,19.17Z"/><path class="cls-1" d="M152.42,21.17c.36-.2-.42-.39-1.15-.79A9.35,9.35,0,0,1,152.42,21.17Z"/><path class="cls-1" d="M135.64,9.28c.59.46.77-.6,1-.18.55-.22-.67-.49-1.54-.54-.44,0-.79,0-.79.12S134.69,9,135.64,9.28Z"/><path class="cls-1" d="M138.62,14.39l2,1.29c0-.14.34-.08.7,0C140,15,138.68,14.14,138.62,14.39Z"/><path class="cls-1" d="M143.06,16.54a12.84,12.84,0,0,0-1.73-.83A7.29,7.29,0,0,0,143.06,16.54Z"/><path class="cls-1" d="M113.3,6.42c.64-.09,1.61,0,1.27-.37L112,5.83C111.67,6.07,112.33,6.36,113.3,6.42Z"/><path class="cls-1" d="M194.44,104.86c.18-.67.29-1.35.43-2l-.6,1.3C194.34,104.37,194.38,104.61,194.44,104.86Z"/><path class="cls-1" d="M194.4,100.45l-1-1.22a3.28,3.28,0,0,1-.14,1.69Z"/></g></g></svg>