<?xml version="1.0" encoding="utf-8"?>
<!-- Generator: Adobe Illustrator 22.1.0, SVG Export Plug-In . SVG Version: 6.00 Build 0)  -->
<svg version="1.1" id="Layer_1" xmlns="http://www.w3.org/2000/svg" xmlns:xlink="http://www.w3.org/1999/xlink" x="0px" y="0px"
	 viewBox="0 0 237.4 370.5" style="enable-background:new 0 0 237.4 370.5;" xml:space="preserve">
<style type="text/css">
	.st0{fill:#EC6C64;}
</style>
<title>Asset 9</title>
<g id="Layer_2_1_">
	<g id="GRID">
		<path class="st0" d="M167.6,202.3c2.5,0,5,0.1,7.5,0.1c0.8-0.1,1.6-0.4,2.2-0.9c1.8-1.5,3.8-2.8,5.1-4.6c1.7-2.6,4.1-4.3,6.3-6.3
			c2-1.8,4-3.5,5.8-5.4c4.4-4.7,10.1-6.5,16-8.4c3.4-1.1,7.1-0.9,10.4,0.6c2.8,1.1,4.3,3.1,5.7,5.2c2.1,3.3,3.7,6.9,5.6,10.3
			c0.2,0.3,0.3,0.7,0.4,1c1.6,5.7,3.2,11.5,4.8,17.2c0.2,0.6,0.2,1.3,0.1,2c-1.4,6-3.8,11.4-8.8,15.2c-2.7,2-5.2,4.2-7.3,6.8
			c-1.6,1.9-3.6,3.6-5.7,4.9c-5.9,4-11.1,9.1-15.1,15.1c-2.7,3.9-5.6,7.6-8.5,11.3c-3.1,4.1-5,8.6-3.9,13.8c0.7,3.3,1.7,6.4,3,9.5
			c1.3,3.4,3,6.7,4.5,10.1c0.8,1.9,1.2,4,2,5.9c1.2,3.1,2.6,6.2,3.9,9.2c1.1,2.4,2.5,4.7,3.3,7.2c2.2,6.4,4.2,12.9,6.4,19.4
			c0.2,0.9,0.5,1.8,0.9,2.6c2.5,3.7,3.2,8.1,5,12.1c2.9,6.3-1.3,13.8-9.7,14c-2,0.1-3.9,0.1-5.9,0.2c-7.4,0.4-14.1-4.2-16.6-11.1
			c-0.6-1.6-1.4-3.2-2.3-4.7c-3.6-6.2-7.3-12.3-10.8-18.5c-1.3-2.3-2.3-4.8-3.4-7.2c-1.4-3.1-2.8-6.3-4.2-9.5
			c-1.2-2.6-3.2-4.4-5.4-6.2c-3.1-2.7-6.1-5.5-9-8.5c-5.5-5.8-12.1-6.5-19.4-5.1c-3.2,0.6-6.4,1-9.5,1.6c-1.3,0.1-2.5,0.5-3.7,1
			c-6.3,3.3-12.5,6.7-18.9,10c-3.8,1.9-7.7,3.6-11.6,5.4c-2.1,0.9-4.2,1.7-6.3,2.8c-6.6,3.5-13.8,5.1-21,6.6c-3.2,0.6-6.4,1-9.6,1.3
			c-4.9,0.6-9.8-0.8-13.6-3.9c-0.7-0.6-1.5-1.1-2.2-1.6c-2.7-1.4-4.2-4.4-3.9-7.4c0.4-7.3,2.1-14.3,4.1-21.3c0.6-2,0.4-4.1,0.7-6.1
			c0.5-3.6,1.3-7.1,3.8-10.1s5.5-4,9-4.1c3.9-0.1,7.8-0.2,11.7-0.1c2.5,0,5,0.4,7.5,0.6s4.8,0.4,7.2,0.5c0.8,0,1.6-0.2,2.3-0.6
			c2.9-1.6,5.9-3.2,8.8-4.8c3.3-1.8,5.8-4.7,7-8.3c0.5-1.4,0.6-2.9,0.1-4.3c-1.4-3-3.1-6-6.3-7.6c-3.4-1.8-7.1-2.9-10.9-3.2
			c-1.5,0-3-0.3-4.4-0.7c-3.2-1.1-6.3-0.6-9.5,0.2c-1.7,0.4-3.4,0.8-5.1,1c-10.7,1.6-21.4,3.3-32.1,4.8c-1.9,0.3-3.9,0.5-5.9,0.4
			c-3.9-0.2-6.9-2.5-9.7-4.9c-3-2.5-5-6.1-5.3-10.1c-0.4-5.6-1.5-11.2-2.1-16.8c-0.2-2.6-0.3-5.3-0.2-7.9c0.1-3.2,0.3-6.4,0.4-9.7
			c0.1-6,2.7-6.9,8.1-8.5c8,0.9,15.3-1.9,22.6-4.1c5.2-1.6,10.3-2.7,15.6-2c4.5,0.6,8.7-0.4,13.1-0.8c2-0.2,3.9-0.5,5.8-0.9
			c2.6-0.4,4-2.1,4.4-4.6c1.2-7-3.3-13.7-10.3-15.3c-1.8-0.4-3.6-0.9-5.3-1.5c-5.6-2-11.7-1.9-17.3,0.1c-3.5,1.2-6.8,2.6-10.5,3
			c-7.5,1.1-15.1-1.2-20.8-6.2c-1-0.9-2.1-1.8-3.2-2.7c-2.7-2.1-3.9-5.7-3-9c1.1-5.1,2.5-10,4.2-14.9c2.1-5.7,6.6-8.9,12.4-10.6
			c5.2-1.5,10.2-3.5,15.4-5.1c2.8-0.9,5.8-1.3,8.7-1.9c1.9-0.4,3.8-0.6,5.7-1c5-1.1,5-2.4,6-6.5c0.3-1,0.2-2.1,0.4-3.1
			c0.7-4.2-2.2-6.4-6-5.6c-3.1,0.6-6.2,1-9.3,2.3c-5.5,2.2-10.8-0.4-13.4-5.9C21.2,90.9,18,84.3,15,77.7c-1-2.2-1.7-4.6-2-7
			c-0.4-2.5,0.5-4.7,2-7c2.8-4.5,7-6.2,11.5-7.7c2.5-0.8,5.1-1.6,7.6-2.5c2.7-0.9,3.6-1.8,3.1-4.5c-0.8-4.2-1.9-8.3-3.3-12.3
			c-0.8-2.3-2.2-4.3-3.3-6.4c-1.7-3.2-1-5.4,1.5-7.9c3.1-3.1,7.1-4.2,11.1-5.4c1.4-0.4,2.8-0.3,4.1,0.1c4.8,1.5,9.8,2.8,13.5,6.7
			c0.9,0.9,2,1.6,3.1,2.2c1.7,1.1,2.2,0.9,3.3-0.9c1.9-3.4,3.9-6.8,5.7-10.3c3-5.7,7.7-9.9,12.9-13.2c3.2-2,7.3-2.1,10.6-0.3
			c7.1,3.6,14.2,7.1,21.2,10.9c1.8,1.1,3.3,2.5,4.4,4.3c1.1,1.4,1.1,3.4,0.1,4.8c-2.4,4.1-4.5,8.5-6.9,12.7c-1.8,3.1-3.7,6.1-5.8,9
			c-3.6,4.8-6.1,10.3-7.4,16.1c-1.1,5.4-0.7,11-2.2,16.3c-0.6,1.8-0.1,3.7,1.2,5.1c3-1.3,5.9-2.8,7.8-5.6c2.7-3.7,5.7-7.1,9.1-10.2
			c3.3-3,5.7-7,8.7-10.3c4.8-5.6,10.9-10,17.9-12.6c3.9-1.5,7.7-0.1,10.5,3.2c1.9,2.3,4,4.4,5.9,6.7c3.8,4.7,7,9.7,7.8,15.9
			c0.4,3.3,1,6.6,1.7,9.9c0.9,4.4-0.9,8.1-3.1,11.7c-1.2,1.7-2.6,3.3-4.2,4.5c-5.3,4.3-9.6,9.6-13.8,14.9c-0.8,1-1.6,1.9-2.5,2.9
			c-0.9,0.8-1.7,1.8-2.4,2.9c-1.4,3.4-4.4,5.5-6.4,8.4c-2.3,3.5-4.7,7.1-4.5,11.7c0.1,0.6,0.3,1.1,0.5,1.6c2.1,0.4,3.7-0.5,5.2-1.6
			c4.7-3.5,9.4-7.1,14.1-10.6c6.1-4.6,12.1-9.2,19.5-11.5c1.4-0.5,2.7-1.2,4-2c3.1-1.7,6.3-1.1,9.4-0.1c2,0.7,3.4,2,3.5,4.2
			c0.2,5.2,2.5,9.8,3.7,14.7c0.6,2.5,1.1,4.9,1.6,7.4c0.7,4,1.2,7.9,1.9,11.9c0.3,2.3-0.5,4.6-2.1,6.4c-1.7,2.1-3.5,4-5.2,6
			c-1.5,1.8-3.3,3.4-4.1,5.5c-1.8,4.4-5,8-7.4,12c-1.3,2.2-3.6,3.9-5.3,5.9c-3,3.4-4.5,7.7-5.8,12
			C166.2,198.1,166.5,200.4,167.6,202.3z M113.1,279.3c3.2-0.4,6.5-0.4,9.5-1.3c4.6-1.5,9.1-3.3,13.5-5.4c0.5-0.5,0.8-1.3,0.6-2
			c-0.8-2.1-4.6-4.2-7-4.1c-2.5,0.1-5.1,0.1-7.6,0.3c-1.2,0.1-2.4,0.5-3.4,1.3c-1.9,1.9-3.6,3.8-5.3,5.9
			C112.3,275.4,112.1,276.9,113.1,279.3z M59.3,218.1c0.8,0.7,1.7,1.4,2.6,2c5.4,2.7,11.2,3.5,17,3.8c4.9,0.3,9.9-0.4,14.7,1.1
			c0.2,0.1,0.6-0.3,1.1-0.6c-1.8-2.1-3.5-4.2-6.2-4.6c-5.4-0.8-9.8-3.7-14.6-5.8c-2.1-0.9-3.8-1.2-5.6,0.5c-1.6,1.7-3.8,2.7-6.1,2.8
			C61.3,217.6,60.3,217.8,59.3,218.1z M53.6,144.3c3.2,1.8,21.3,4.2,24.5,3.3c1.3-5.8-1.3-8.9-7.1-8.5c-0.5,0-0.9,0.1-1.4,0.1
			c-4.3,0.8-8.5,1.6-12.8,2.5C55.4,142.1,53.9,142.5,53.6,144.3z M150.7,167.9c-2.2,0-4.3,1-5.6,2.7c-4.9,5.9-7.8,13.2-8.1,20.8
			c0.1,0.9,0.5,1.6,1.1,2.2c1,0.7,1.8-0.1,2.2-1c1.2-2,2.2-4,3-6.2c1.7-5.4,2.8-10.9,6.2-15.6C150.1,169.9,150.5,168.9,150.7,167.9
			L150.7,167.9z M171.4,241.6c-0.4-0.4-0.8-0.7-1.2-1c-0.2-0.1-1,0.3-1.1,0.6c-0.5,1.7-0.9,3.5-1.3,5.2c-0.1,0.4,0.5,1.1,0.9,1.2
			c0.5,0.1,1.1-0.1,1.4-0.5C171.4,245.7,172.7,244.3,171.4,241.6L171.4,241.6z M207.3,360.9c2.1-2,2.2-2.3,1-4.5
			C206.4,358.5,206.4,358.5,207.3,360.9L207.3,360.9z M166.5,259.3l-3.9-0.8l1,3.2L166.5,259.3z M136,281.4
			c-0.1,0.2-0.2,0.5-0.3,0.7c0.8,0.6,1.6,1.3,3.4,0.3L136,281.4z"/>
	</g>
</g>
</svg>
