<?xml version="1.0" encoding="utf-8"?>
<!-- Generator: Adobe Illustrator 22.1.0, SVG Export Plug-In . SVG Version: 6.00 Build 0)  -->
<svg version="1.1" id="Layer_1" xmlns="http://www.w3.org/2000/svg" xmlns:xlink="http://www.w3.org/1999/xlink" x="0px" y="0px"
	 viewBox="0 0 89.5 260.4" style="enable-background:new 0 0 89.5 260.4;" xml:space="preserve">
<style type="text/css">
	.st0{fill:#EC6C64;}
</style>
<title>Asset 23</title>
<g id="Layer_2_1_">
	<g id="GRID">
		<path class="st0" d="M46.8,73.1c-0.3,1.9,0.5,3.4,1,5c0.9,3.1,1.9,6.1,3,9.2c1.2,3.3,0.5,6.6,1.7,10c1.3,3.8,4.6,7.6,5.8,11.4
			c0.9,2.8,1.6,5.5,2.3,8.3s1.4,5.6,2.1,8.4c0.9,4,1.7,8.1,2.6,12.1c1.1,5.1,2.1,10.3,3.2,15.4c1.2,5.6,2.5,11.3,3.7,16.9
			c1,4.5,1.8,9,2.7,13.5s1.7,9,2.5,13.5c0.9,5.3,1.7,10.6,2.5,16c0.3,2.2,0.8,4.4,1.2,6.6c0.4,2.4,0.8,4.8,1.3,7.2
			c0.8,3.7,1.6,7.4,2.4,11.1c1,4.5,1.8,9,2.8,13.5c0.5,2,1,3.9,1.7,5.8c0.5,1.4,0.4,2.4-0.6,3c-1.1,0.7-2.6,0.4-3.3-0.6
			c-0.5-0.7-0.8-1.5-0.9-2.3c-0.6-3.2-1.1-6.5-1.7-9.7c-0.6-3.4-1.4-6.8-2.1-10.2c-0.9-4.8-1.9-9.5-2.7-14.3
			c-1.3-7.7-2.5-15.4-3.8-23.1c-1-6-2.2-11.9-3.2-17.8c-0.5-2.8-1-5.7-1.6-8.5c-0.4-2-1-4.1-1.5-6.1c-0.9-4.4-1.8-8.8-2.7-13.1
			c-0.7-3.3-1.6-6.6-2.3-10s-1.2-6.7-1.9-10.1c-0.9-4-1.9-8-2.9-12s-1.9-7.8-2.9-11.7c-1.4-5.3-3.2-10.4-5.4-15.4
			c-1.1-2.6-2-5.3-2.9-8c-1.4-3.8-2.6-7.7-4.1-11.5c-1-2.6-2-3-4.7-2.7c-0.7,0.1-1.4,0.2-2.2,0.1c-2.2-0.4-4.6-0.1-6.8-0.9
			c-0.3-0.1-0.6-0.1-0.9,0.1c-0.8,0.8-1.5,0.4-2.3,0c-2.3-1.1-3.4-3.2-4.2-5.5c-2.9-0.5-5-2.2-6.8-4.3c-0.3-0.4-0.8-0.6-1.3-0.7
			c-0.9-0.1-1.7-0.4-2.2-1.1c-1.8-1.7-3.6-3.3-5.3-5c-0.3-0.3-0.6-0.6-0.8-0.9c-1.4-2-2.9-4-4.1-6.2c-1.6-2.8-1.5-5.8-0.8-8.8
			c0.3-1.2,0.6-2.3,0.9-3.4c0.4-0.9,0.1-1.9-0.6-2.5c-0.8-0.6-1.1-1.7-0.6-2.7c0.2-1,0.4-1.9,0.5-2.9c0.6-4.5,2.6-8.7,5.8-12
			c1.3-1.3,2.4-2.7,4.5-2.3c0.4-1.2,0.9-2.2,1.2-3.4c0.1-0.4,0-0.8-0.1-1.1C12,9,11.7,8.5,11.6,8c-0.4-1.5-0.4-1.7,1.1-2.2
			C15.3,5,18.2,4.8,21,5.2c1.2,0.3,2.4,0,3.3-0.7c2.1-1.6,4.7-2.5,7.3-2.7C33,1.6,34.5,1.4,35.9,1c4-0.9,8-1.6,12-0.2
			c1,0.2,1.9,0.5,2.7,0.9c1.2,0.7,2.1,1.7,2.7,3c0.7,1.4,1.9,2.5,3.4,3.1c1.6,0.9,3.4,1.3,5.1,2c1.3,0.6,2.6,1.2,4,1.8
			c2.4,0.9,3.5,2.9,4.4,5c0.9,2.3,1.4,4.6,1.5,7.1c0.1,2.6,0.8,5.2,1.8,7.6c0.6,1.7,1.2,3.5,1.6,5.3c0.1,0.4,0.3,0.9,0.5,1.3
			c0.9,1.7,0.7,3.7-0.5,5.2c-2.3,3.1-3.9,6.5-4.9,10.2c-1,3.4-3,6.2-4.9,9.2c-0.6,1-1.3,2-2,2.9c-1,1.3-2.3,2.3-3.9,2.8
			c-1.9,0.6-3.6,1.5-5.2,2.7c-1.8,1.2-3.9,1.9-6,2.2L46.8,73.1z M50.1,3.1c-0.2,0.5-0.6,0.9-0.5,1.3c0.1,1,1.8,2.3,3.2,2.4
			C51.7,5.7,51.8,4,50.1,3.1z M39.1,66.2c-0.8-1.6-2.4-2.8-4.2-3.2c-0.5,0.7-0.2,1,0.4,1.3L39.1,66.2z M14.1,38.5l0.7-0.1
			c-0.2-1.5-0.4-3-0.7-4.5c0-0.2-0.5-0.3-1.1-0.8L14.1,38.5z M31.5,3.6c-1.9-0.4-3.8,0.3-5,1.8L31.5,3.6z M16.3,6.9
			c-0.8-0.3-1.8-0.1-2.4,0.5c-0.2,0.2-0.1,0.7-0.2,1c0.4,0,0.8,0.2,1,0.1C15.3,8,15.8,7.4,16.3,6.9z M54.3,36.5
			c1.1-1.3,0.9-2-0.9-3.2C53.8,34.5,54,35.4,54.3,36.5z M30.9,57c-0.2-1.2-1.1-2.2-2.3-2.6C29.3,55.2,29.1,56.8,30.9,57z M61.5,65.3
			l-0.4-0.5c-1.1,0.4-2.1,1.3-2.5,2.5L61.5,65.3z M69.1,19.8c0.5-1.4,0.3-1.8-1.2-3.8C68.3,17.3,68.7,18.5,69.1,19.8z M42.1,1.4
			c1.2,0.9,1.2,0.9,2.6-0.1L42.1,1.4z M44.4,53.2c0-1.6-1.4-1.5-1.9-2.3C42.4,52.1,43.3,53.1,44.4,53.2L44.4,53.2z M52.8,70
			c-2.1-0.6-2.1-0.6-2.3,1L52.8,70z M44.7,40.4l-0.5,0.2l0.8,1.8l0.4-0.2C45.2,41.7,44.9,41.1,44.7,40.4z M24.7,17
			c-0.3,0.4-0.6,0.8-0.8,1.2c0,0,0.3,0.3,0.4,0.3C24.9,18.4,25.1,17.9,24.7,17z M42.2,11c-1.4-0.1-1.4-0.1-1.3,1L42.2,11z M41.1,47
			l-0.2,0.1l0.5,1.3l0.3-0.1L41.1,47z M27.6,26.3h-0.4l0.1,1.2h0.3L27.6,26.3z M56.9,40.5l-0.4-0.3c-0.5,0.1-1,0.3-0.9,1l0.5,0.4
			L56.9,40.5z M22.2,46.1l0.5-0.1l-0.3-1.1L22.1,45L22.2,46.1z M26.3,69.1L26,69.5l0.6,0.5l0.2-0.2L26.3,69.1z M63.9,61.2l0.2,0.2
			l0.6-0.9l-0.2-0.2L63.9,61.2z"/>
	</g>
</g>
</svg>
