<?xml version="1.0" encoding="utf-8"?>
<!-- Generator: Adobe Illustrator 22.1.0, SVG Export Plug-In . SVG Version: 6.00 Build 0)  -->
<svg version="1.1" id="Layer_1" xmlns="http://www.w3.org/2000/svg" xmlns:xlink="http://www.w3.org/1999/xlink" x="0px" y="0px"
	 viewBox="0 0 208.5 291.6" style="enable-background:new 0 0 208.5 291.6;" xml:space="preserve">
<style type="text/css">
	.st0{fill:#EC6C64;}
</style>
<title>Asset 18</title>
<g id="Layer_2_1_">
	<g id="GRID">
		<path class="st0" d="M72.8,80.9c-1.5,4.2-1.3,7.7-1.2,11c0.3,9,0.8,17.9,0.7,26.8c-0.1,7.4-2.1,14.4-7.2,20.2
			c-5.5,6.2-12.6,7.6-20.3,5.9c-3-0.6-4.5-3.2-5.5-5.8c-1.1-3.1-1.8-6.3-2.1-9.6c-0.2-3.4,0-6.9,0.6-10.3c2.1-12.5,4.6-24.8,9-36.8
			c2.3-6.2,3.6-12.7,5.5-19c0.5-1.8,0.4-3.4-0.8-4.6c-5.6-5.5-11.3-10.8-17-16.2c-0.2-0.2-0.5-0.1-1.4-0.2c-0.3,2.5-0.7,5-0.8,7.5
			c-0.2,7.6,0,15.2-1.7,22.6c-0.7,3.4-1.9,6.6-3.6,9.6c-2.8,5-8.8,7.1-15,5.9c-4.6-0.8-8-4.9-7.8-9.6c-0.2-7.3,0.4-14.6,1.8-21.7
			c1.2-5.7,2.4-11.3,3.6-16.9c0.3-1.6,0.5-3.2,0.8-4.8c0.8-3.9,1.6-7.8,2.4-12.1c-2.1-2.1-4.6-4.5-6.9-7C4.2,14,2.7,12,1.2,10
			C-0.5,7.7-0.5,5.5,2,3.5c2.2-0.6,4.2,0.4,6,1.7c3.7,2.8,7.4,5.8,11.1,8.6c0.6,0.5,1.3,1,2.3,1.7c1.1-0.8,2.1-1.6,3.1-2.5
			c8.2-8,18.4-12,29.7-12.9c7.9-0.6,15.6,1.1,23,3.9c5.3,1.9,10.2,4.8,14.5,8.5c4.2,3.6,4,7.1-0.1,11c-2.2,2.1-5,3.3-8,3.4
			c-3.7,0.4-7.3,1.7-10.3,3.8c-2,1.2-4.1,2.2-6.3,2.9c-5.5,2.1-11.4,3.4-17.3,3.7c-0.9,0.1-1.8,0.3-2.7,0.6c0.4,0.9,0.9,1.8,1.5,2.6
			c3.8,3.8,7.7,7.4,11.5,11.3c2,2,4.4,2.2,6.9,1.6c4.4-1.1,8.7-2.3,13.1-3.5c6-1.6,11.8-3.9,17.9-4.8c8.3-1.3,16.6,0,24.8,2.4
			c6.1,1.8,11.6,4.2,16.2,8.7c2.6,2.5,4.6,5.5,6,8.8c2.7,6.9,0.6,11.2-5.5,16c-1.9,1.4-4,2.4-6.3,3c-8,2.1-16,4-24,6
			c-2.9,0.6-5.8,0.2-8.5-1c-1.4-0.6-2.8-1.3-4.4,0.3c0.1,0.4,0,1,0.3,1.3c2.8,3.6,5.5,7.2,8.5,10.6c1.1,1.1,2.7,1.9,4.3,2
			c4.8,0.3,9.6,0.3,14.4,0.4c13.5,0.3,26.9,0.8,39.8,5.3c7,2.2,13.4,6,18.7,11c6.3,6.2,7.1,15.3,1.1,20.9c-3.1,3-7.4,4.5-11.7,4
			c-6.6-0.8-13.1-1.6-19.6-2.8c-3.7-0.8-7.4-1.9-11-3.3c-2.4-0.7-4.9-1.2-7.4-1.5c-2.5-0.3-4.8-1.7-7.3-2.5
			c-0.9-0.1-1.9-0.1-2.8,0.1c-0.1,0.6-0.1,1.3,0,1.9c2.8,6.9,5.6,13.8,8.5,20.6c1.3,2.9,4.1,4.7,7.2,4.7c3.8,0.3,7.7,0.4,11.5,0.2
			c6.9-0.3,13.6,0.2,20.1,2.9c0.7,0.4,1.5,0.7,2.3,0.8c6.6,0.3,12.1,3.6,17.6,6.6c3.3,1.7,6.2,4.1,8.5,7c2.3,2.9,4.9,5.4,6.9,8.6
			c3.3,5.2,2.6,10.4,0.5,15.3c-2.3,5-5,9.8-8,14.4c-5.4,8.5-17.2,8.8-24.3,2.7c-6-5.1-11.6-10.6-17.3-15.9c-1.1-1.2-2.1-2.4-3-3.8
			c-0.7-1.3-2.3-1.7-3.6-1c-0.6,0.3-1.1,1.8-1,2.7c0.2,5.2,1.8,10.3,4.6,14.7c1.9,2.9,2.7,6.6,3.9,9.9c2.1,6.1,4.1,12.2,6.3,18.3
			c0.6,1.2,1.3,2.4,2.2,3.4c2.2,3,3.3,6,2.3,10c-1.4,5.6-2.2,11.3-3.1,17c-0.5,3.8-2,7.4-4.3,10.5c-4.9,6-13.7,6.8-19.7,1.9
			c-0.2-0.1-0.4-0.3-0.5-0.5c-5.9-5.2-8.6-12-9.5-19.6c-0.6-4.8-1.5-9.5-1.1-14.4c0.7-7.6,1.3-15.3,2.2-22.9
			c0.5-4.2,1.5-8.4,2.2-12.5c1.1-6,0.4-11.7-3.1-17.2c-2,2.1-2.1,4.8-2.3,7.2c-0.4,8.3-1.8,16.4-4.2,24.4
			c-1.9,5.9-4.3,11.6-9.5,15.6c-6.2,4.7-13.8,4.7-18.7,1.1c-2.3-1.7-4.1-4-6.1-6.1c-4.9-5.1-4.6-11-2.3-16.9
			c2.1-5.5,4.7-10.9,7.1-16.2c3.6-7.7,7.5-15.3,10.9-23.1c1.6-3.9,2.9-7.9,4-12c0.4-1.5,0-3.3,0.3-4.8c0.6-3,2-5.8,4.2-8
			c2.5-2.4,3.2-5.2,1.8-8.6c-1.8-4.4-3.3-9-4.9-13.5c-0.3-0.7-0.7-1.4-1.5-3c-0.7,2.1-1.5,3.2-1.6,4.5c-0.7,9.4-2.7,18.8-5.8,27.7
			c-2.8,8-7.6,15-13.4,21.1c-4.4,4.7-10.4,5.8-16.8,5.1c-3.7-0.4-6.7-2.4-9.8-4c-2.5-1.4-3.4-4-3.2-7c0.7-12.3,5.1-23.7,10.8-34.6
			c2.2-4.2,4.3-8.6,6.2-13c2.9-6.7,5.7-13.5,8.2-20.4c1.7-4.6,2.9-9.4,4.1-14.2c0.1-0.9-0.2-1.9-0.8-2.6
			c-4.2-5.3-8.4-10.5-12.6-15.8C75.2,83,74,81.9,72.8,80.9z"/>
	</g>
</g>
</svg>
