<?xml version="1.0" encoding="utf-8"?>
<!-- Generator: Adobe Illustrator 22.1.0, SVG Export Plug-In . SVG Version: 6.00 Build 0)  -->
<svg version="1.1" id="Layer_1" xmlns="http://www.w3.org/2000/svg" xmlns:xlink="http://www.w3.org/1999/xlink" x="0px" y="0px"
	 viewBox="0 0 111.5 224.2" style="enable-background:new 0 0 111.5 224.2;" xml:space="preserve">
<style type="text/css">
	.st0{fill:#EC6C64;}
</style>
<title>Asset 17</title>
<g id="Layer_2_1_">
	<g id="GRID">
		<path class="st0" d="M62.9,224.1c-1.3-2-3.2-3.6-5.5-4.6c-2.3-1.3-4.4-2.9-6.2-4.8c-10.4-9.9-19.4-21-27-33.2
			c-2.6-4.3-4.6-8.8-4.8-13.9c0-0.6-0.1-1.2,0-1.8c0.2-2.8,0.9-3.6,3.7-3.7c2.4-0.2,4.8,0.4,6.9,1.6c8.7,5.6,14.7,13.6,20.1,22.1
			c3.9,6.2,7.7,12.4,10.4,19.2c0.6,1.1,1.2,2.2,1.8,3.3c0.3-0.9,0.5-1.7,0.6-2.6c0.2-4.1,0.5-8.3,0.6-12.4c0-2.8-0.3-5.6-0.7-8.4
			c-0.3-0.9-0.9-1.7-1.7-2.3c-6.6-6-13.3-11.9-19.8-18c-5.1-4.8-9.1-10.7-11.7-17.2c-0.2-0.5-0.5-1.1-0.6-1.7c0-0.5,0-1,0-1.5
			c3.3,0,6.3-1.3,9.6,0.7c4.6,2.7,8.4,6.3,12.4,9.8c3.3,2.9,6.5,6.1,9.7,9.1c0.7,0.6,1.3,1.2,2,1.8c1.2-2.6,1.2-10,0-13.7
			c-6-2.2-10.7-6.5-15.4-10.7c-1-0.9-2-1.6-3.2-2.2c-3.1-1.6-5-4.4-7.1-7c-3.7-4.8-7-9.9-10.8-14.7c-3.9-5.1-7-10.7-9.3-16.6
			c-0.8-2-1.1-4.3-1.8-6.4c-0.4-1.4-0.1-2.9,0.9-4c1-1.4,1.5-1.4,3-0.6c1.4,0.8,2.9,1.5,4.4,2c2.6,0.8,5,2.4,6.7,4.5
			c2.9,3.5,5.8,7.1,8.5,10.7c4,5.2,8.1,10.4,11.9,15.8c2.8,3.9,5.1,8,7.6,12.1c1.2,1.9,2.5,3.9,3.8,6c1.2-4.4-2.3-37.2-4.5-41.7
			c-2.4,1.2-3.8,0.2-5-2.1c-0.7-1.4-2.3-2.2-3.3-3.5c-2.4-2.8-4-6.2-4.7-9.8c-0.2-1.3-1.1-2.4-2.3-2.9c-1.8-0.9-3.3-2.2-5-3.3
			c-0.5-0.3-1.1-0.6-1.7-0.7c-6.3-1.9-12.2-4.5-17.2-8.8c-1.6-1.4-3.4-2.5-5.2-3.7c-0.2-0.2-0.6-0.4-0.8-0.3c-2.5,0.5-3.6-1.4-5-2.8
			c-0.8-0.8-1.4-1.8-0.4-3s2.9-1.6,3.8-1c2.4,1.7,4.9,3.3,6.4,5.9c2.1,3.6,5.3,5.8,8.9,7.6c2.5,1.2,4.9,2.9,8.2,3
			c-0.5-1.4-0.9-2.7-1.3-3.9s-1.3-2.4-1.4-3.7c-0.1-3.2-2.1-5.2-4.2-7.1c-3-2.8-6.4-5.3-10-7.4c-4.2-2.5-7.8-5.9-10.5-10
			c-4.7-0.3-5.9-1.4-6.6-6C0.2,35,0.1,34.4,0,33.7c-0.5-2.2,0.9-4.3,3-4.8c0.5-0.1,1-0.1,1.5,0c3.7,0.4,5.7,2.7,4.5,6.2
			c-1.3,4,0.4,6.7,2.9,9.2c1.7,1.8,3.5,3.3,5.6,4.6c4.2,2.3,8,5.2,11.4,8.5c0.4,0.4,0.9,0.6,1.5,0.5c-0.9-1.5-1.8-3.1-2.7-4.6
			c-1.5-2.4-3-4.8-4.5-7.2c-0.9-1.7-2.3-3.1-4-4c-1-0.5-1.8-1.9-2.4-3c-0.7-1.4-1-3,0.1-4.3s2.9-1.3,4.5-0.8
			c0.7,0.3,1.3,0.8,1.6,1.5c0.7,1.5,1,3.1,1,4.7c-0.2,2,0.3,4,1.5,5.7c1.7,2.5,3.4,5,5.3,7.8c1.6-2.4,2.9-4.5,4.4-6.7
			c-0.4-0.8-0.9-1.7-1.4-2.6c-2.1-3.7-4.2-7.4-6.3-11.1c-0.7-1.1-1.4-2.2-2.2-3.3s-1.4-1.7-2.8-1.3c-0.3,0.1-0.6,0.1-0.9,0
			c-4.4-0.6-6.5-3.7-4-8.4c1.7-3.1,4.2-4.6,7.7-4.3c0.8,0.1,1.5,0.4,2.1,0.9c2,1.8,2.1,2.7,0.9,5c-0.2,0.4-0.5,0.9-0.8,1.3
			c-1.4,2.1-1.7,4,0.1,6.2s3.1,5.4,4.7,8.2s3.2,5.2,4.9,8l2.9-1.6c-1.6-7.2-3-14.1-4.5-20.9c-1.3-5.4-2.7-10.8-4.2-16.2
			c-0.3-0.9-0.7-1.9-1.1-2.8c-0.6-1.2-0.1-2.5,1-3.2c1.5-1.1,3.8-1.5,5.1-0.6c1.7,1.1,1.7,3,1.5,4.6c-0.4,2.4-0.9,4.8-1.7,7.1
			c-0.4,1.3-0.5,2.8-0.1,4.1c1.9,7.7,3.7,15.4,5.5,23c0.2,1,0.6,1.9,1,3l7.4-1.7c0.6-2.7,0.3-6-1-10.2c-0.7,1.2-1.2,2.2-1.8,3.1
			c-0.6,1.1-1.9,1.4-2.9,0.9c-0.4-0.2-0.8-0.6-1-1.1c-0.3-0.4-0.5-0.9-0.5-1.4c-0.1-3.2,0.1-6.5,0.4-9.7c0.4-1.5,1.2-2.8,2.3-3.7
			c1.7-1.5,2.8-1.2,3.8,0.9c1.6,3.4,1.9,7,2.4,10.6c0.4,3.3,0.9,6.6,1.3,9.8c2.7,0.1,3.1,0,3-2.3c-0.1-4.4-0.4-8.9-0.8-13.3
			c-0.2-1.5-0.4-2.9-0.8-4.4c-3.4,0.6-4.5,0-5.7-3.1C48.4,16,48.1,15,48,14c-0.1-3,0-6,0-9.1c1-0.1,2.1-0.2,3.1-0.4
			c3.9-1,6.4,2.4,6.2,6.2c-0.1,1.5-0.5,3-0.7,4.5c-0.2,1-0.3,2-0.2,3c1.4,7,1.7,14,2,21.1c0,0.2,0.1,0.4,0.1,0.8l5.4,1.3
			c0.3-0.7,0.5-1.4,0.6-2c1.1-6.5,1.1-13.2,0-19.7c-0.2-1.3-0.4-2.5-1.9-3.2s-1.5-5.1-0.4-6.1c0.6-0.6,1.5-0.6,2.1-0.1
			c0.2,0.2,0.3,0.4,0.4,0.6c0.8,1.7,1.3,3.4,1.5,5.2c0.5,5.4,0.8,10.9,1,16.4c0.1,2.1-0.4,4.2-0.5,6.3c-0.1,0.9,0,1.8,0.2,2.7
			c0.4,1.1,1.5,1.8,2.6,1.6c1.3,0,1.7-0.9,1.8-2c0.3-2,0.6-4,0.8-6c0.5-5.9,1-11.7,1.5-17.6c0-1,0-1.9-0.1-2.9
			c-3.6-2.1-5-7.8-2.3-10.5c1.3-1.1,3-1.6,4.7-1.4c0.8,0.2,1.6,0,2.3-0.4c1-0.7,2.2-1.7,3.5-0.4c1.1,1,1.3,2.4,0.4,4.2
			c-1.4,2.7-3,5.1-6.3,5.9c-0.1,3.1,0,6-0.3,8.9c-0.6,6.4-1.5,12.9-2.2,19.3c-0.3,2.2,0.1,2.7,2.4,3.2c2.1,0.5,4.1,2,6.6,5
			c0.5-1.3,1-2.5,1.3-3.7c1.4-4.9,3-9.7,4.2-14.6c0.5-2,0.2-4.2,0.4-6.3c0.3-3.1,0.6-6.2,1-9.3c0.1-1.3,1.1-2.3,2.3-2.5
			c0.7-0.3,1.5-0.7,2.1-1.1c1.9-0.9,3.1-0.5,3.7,1.6c1,3,0,5.9-1.1,8.6s-2.5,5.3-5.3,6.8c-0.5,0.4-0.9,1-1,1.7
			c-2,6.9-4.1,13.8-5.9,20.8c-0.4,1.6-0.1,3.4-0.2,5.1c-0.3,4.6-0.7,9.2-1.1,14.1c3.7-1.8,6.3-5,9.4-7.5s5.9-5.5,9-8.4
			c-2.1-2.9-1.2-5.4,0.3-8c1.9-3.1,4.3-5.7,7.2-7.8c0.7-0.4,1.5-0.4,2.2-0.2c0.4,0.2,0.6,1.2,0.6,1.8c-0.1,0.9-0.3,1.8-0.8,2.6
			c-2.6,4.6-4.8,9.4-8.5,13.3c-3.2,3.3-6.6,6.5-10.1,9.6c-2.9,2.7-6,5.2-8.9,8c2.4-0.1,4.7-1.2,6.4-2.9c2.2-2.5,5-4.5,8.1-5.8
			c2.2-0.9,2.6-0.8,4.8,0.6c0,1.9-1.6,2.7-2.9,3.6c-4.9,3.3-10.3,5.7-16,7.3c-2.9,0.8-5.5,2.5-8.2,3.9c-0.4,0.2-0.8,0.6-1,1
			c-0.8,1.6-1.4,3.3-2.3,5.2c1.1,0.2,2.1,0.4,3.2,0.4c4.6,0,9.1-0.8,13.5-2.1c1.9-0.6,3.3-1.3,3.9-3.6c0.9-3.1,5.7-5.7,8.9-5.2
			c2.3,0.4,3.3,2.1,2.4,4.2c-1.4,3.5-4.4,5.1-8.3,4.6c-0.9-0.1-1.8-0.1-2.6,0.2c-2.4,1-4.8,2.1-7.1,3.1c-0.4,2.7-1.3,5.6-1,8.3
			c0.4,3.7-0.7,6.8-1.7,10.1c-0.6,2.4-1,5-1.1,7.5c-0.3,3.1-1.1,6.2-2.4,9.1c-1.3,3.2-2.5,6.4-3.9,9.6c-1.2,3-2.7,5.9-3.8,8.9
			c-1.1,2.5-1.5,5.3-1.2,8c0.2,1.4,0.3,3.1-1.5,3.9c-0.5,0.2-0.7,1.2-0.9,1.9c-0.8,2.4-1.4,4.9-1.9,7.4c-0.2,2-0.2,4,0,6
			c0.2,1.2,0.5,2.5,0.9,3.6c0.4-1.8,0.7-3,1.1-4.3c4.1-12.1,9.7-23.4,18.8-32.7c1.8-1.9,3.8-3.7,5.8-5.3c1.1-0.7,2.3-1.3,3.6-1.7
			c1.6,1.5,1.3,3,0.9,4.5c-2.2,7.5-4.9,14.8-8,22c-4.8,10.4-11.3,19.6-18.6,28.4c-1.5,1.8-2.9,3.7-4.1,5.6c-0.3,0.9-0.5,1.8-0.4,2.8
			c-0.5,6.1-1,12.1-1.2,18.3c2-4.9,4.2-9.5,8.1-13.2s8.4-5.9,12.9-8.5c1.7,1.6,2.7,3.2,1.7,5.5c-0.3,0.9-0.5,1.7-0.7,2.6
			c-0.2,1-0.5,1.9-1,2.8c-3.2,4.7-6.3,9.4-9.6,14c-2.3,3.2-5,6.1-7.5,9.1C67.7,223.6,65.3,224.5,62.9,224.1z M85.9,156.5
			c-0.6,0.3-1.2,0.8-1.7,1.3c-0.7,1.1-1.2,2.3-1.8,3.4c-2.2,3.7-4.4,7.3-6.6,11c3-2.6,4.9-6.1,6.9-9.4
			C83.9,160.8,84.9,158.6,85.9,156.5l1.3-2.6l-0.6-0.2L85.9,156.5z M81.9,88.1c-3.8,0-6.9,0-10,0.2c-0.9,0.2-1.7,0.7-2.2,1.4
			c-2.7,3.7-5.3,7.4-7.8,11.1c-0.4,0.6-0.5,1.3-0.5,2c0.4,4.2,0.9,8.4,1.3,12.7c0.6,5.2,1.1,10.4,1.6,15.7c0.2,2.4,0.5,4.7,0.8,7.1
			h0.6c0.9-3.8,2.4-7.5,2.7-11.3c0.9-10.2,3.2-20.3,7-29.8c0.9-1.9,2-3.7,3.3-5.4C79.8,90.4,80.8,89.2,81.9,88.1L81.9,88.1z
			 M25,173.1c-0.7,4.4,6.4,17.4,11.6,21.2L25,173.1z M94.4,16.5c-2,1.7-2.9,4.3-2.4,6.8c3.4-3.9,4.5-8,2.7-10.5
			C92.7,13.8,94.1,15.1,94.4,16.5z M24.2,164c-2.9,0.7-3.4,2.8-1.6,7C25.1,170,25.3,169.1,24.2,164z M26.8,165.2
			c0,3.9,0,3.9,2.2,5.5l2.8-1.4C29.9,166,29.8,166,26.8,165.2L26.8,165.2z M52.6,17.6c0.3-0.8,0.9-1.8,0.7-2.5
			c-0.3-2.1-0.6-4.2-2.5-5.9C49.6,12.3,50.4,14.9,52.6,17.6z M52.2,89.3c-0.6-1.5-1.1-3-1.8-4.4c-0.8-1.7-1.4-1.6-3,0.1
			C49.4,89.5,49.8,90,52.2,89.3z M78.8,106.8c0.8-2.9,1.6-5.7,1.3-8.7c-1.8,2.1-2.5,4.6-3.2,7.1C76.7,106.2,77.4,106.6,78.8,106.8z
			 M73,52.2c2.5,0.9,3.6-1,5.3-1.3c-0.5-2.5-1-4.6-3.9-5.5C76.5,49.2,76.5,49.2,73,52.2z M35,59c1.3-2.3,3-4.2,3.4-7.3
			c-2.1,0.9-3.6,2-4.1,3.5C33.9,56.3,34.7,57.7,35,59z M102,78.7c-2.4-1.7-3.5-1.1-5.2,2.9C99.6,82.3,100.7,80.4,102,78.7L102,78.7z
			 M46.8,202.7l0.7-0.5c-1.4-3.2-3.4-6-5.8-8.4l-0.7,0.5L46.8,202.7z M63,172.7l0.5-0.4c-0.4-3.1-2.4-4.8-5-5.8l-0.5,0.5L63,172.7z
			 M61.9,83.6c1.7-3.3,1.7-3.6-0.5-5.1l-1.1,4.4L61.9,83.6z M40,56.4c-0.6,2-2.7,3.4-1.8,5.9C41.2,60.2,41.7,58.4,40,56.4z
			 M50.3,68.7c1.6-1.3,3.4-2.6,2.4-5.3C50.8,64.5,49.8,66.6,50.3,68.7z M79.6,2.9c-3,3.3-3,3.3-2.3,5.2c1.9-0.5,2.1-2.3,2.8-3.7
			C80.2,4.3,79.8,3.7,79.6,2.9z M33.8,149.3c1.2,3.1,2,6.3,5,8.2L33.8,149.3z M19,93c-0.2,3.4,0,3.7,3.6,4.7
			C21.9,95.8,20.6,94.2,19,93z M46,24.2c-1.2,3.3-1.2,4.7-0.1,7C47.1,29.1,47,27,46,24.2L46,24.2z M52,141.2l0.5-0.5
			c-0.7-2.3-2.6-4.1-4.9-4.8L52,141.2z M48.9,53.5c1.2-1.5,2.7-2.8,2-5.3C48.9,49.6,49.2,51.6,48.9,53.5z M44,185.6
			c-0.6-2.4-1.6-4.6-4.1-5.6L44,185.6z M21.2,25.6l0.5-0.6l-1.1-3.3c-1.7,0.8-1.3,2.1-0.9,3.1C19.8,25.2,20.6,25.4,21.2,25.6
			L21.2,25.6z M63.4,43.4c-1.8-0.7-3.2-1-4.7-0.4C60.2,43.2,61.3,45.2,63.4,43.4L63.4,43.4z M45.2,126.3c0.2-2.1-1-3.2-2.8-4
			L45.2,126.3z M41.9,151.5c1,2.9,1,2.9,3,2.1L41.9,151.5z M65.7,154.5l0.7,0.1c0.4-1.2,1-2.5-0.7-3.6L65.7,154.5z M68.2,62.8
			c-2.5,0.4-2.5,0.4-1.8,2.3C67.1,64.2,67.6,63.5,68.2,62.8z M58.9,87.9H58l0.2,3.5H59L58.9,87.9z M54.8,45.4l0.6-0.1
			c0-0.8-0.1-1.6-0.3-2.4c-0.1-0.2-1.1,0-2.2,0L54.8,45.4z M63.9,57.7l-0.6-0.2c-1.2,1.7-1.2,1.7-0.9,4.2
			C63,59.9,63.4,58.8,63.9,57.7z M69,51.2c-2.1,0.7-2.1,0.7-1.8,1.7c0.1,0.3,0.5,0.5,1,0.9L69,51.2z M104.4,44.7
			c-1.2,1.1-1.7,1.9-1.4,3.4C104,47.1,105.1,46.7,104.4,44.7L104.4,44.7z M67.3,46.1l-0.8,0.1c-0.6,1.1-0.4,2,1.4,2.9
			C67.7,47.8,67.6,47,67.3,46.1L67.3,46.1z M60.9,216.2h1c0-0.7,0-1.4-0.2-2c0,0-0.7,0-1,0L60.9,216.2z M81.1,92.3
			c1.7,0.5,2.1,0,1.9-1.2c0-0.1-0.3-0.2-0.6-0.5L81.1,92.3z M56.4,60.7c0.1-0.8,0.3-1.6,0.5-3C55.2,58.7,55.1,59.6,56.4,60.7z
			 M53.5,207.5l-0.7,0.3L54,210l0.6-0.3L53.5,207.5z M86.1,193l-0.5-0.5l-1.3,1.8l0.4,0.3L86.1,193z M24.3,21.8l-0.7-0.1l0.1,1.4
			h0.4L24.3,21.8z M72.3,11.1c0.4-0.3,0.8-0.5,0.8-0.6c-0.1-0.3-0.2-0.7-0.3-1c-0.2,0.1-0.6,0.2-0.6,0.4
			C72.1,10.3,72.2,10.7,72.3,11.1L72.3,11.1z M92.5,139.2l-0.7-0.1l-0.3,1.7l0.5,0.1C92.1,140.3,92.3,139.8,92.5,139.2z M50.7,195.5
			l0.5-0.3l-1.1-1.5c0,0.4,0,0.8,0.1,1.1C50.3,195.1,50.5,195.3,50.7,195.5z"/>
	</g>
</g>
</svg>
