<?xml version="1.0" encoding="utf-8"?>
<!-- Generator: Adobe Illustrator 22.1.0, SVG Export Plug-In . SVG Version: 6.00 Build 0)  -->
<svg version="1.1" id="Layer_1" xmlns="http://www.w3.org/2000/svg" xmlns:xlink="http://www.w3.org/1999/xlink" x="0px" y="0px"
	 viewBox="0 0 275.4 419.6" style="enable-background:new 0 0 275.4 419.6;" xml:space="preserve">
<style type="text/css">
	.st0{fill:#EC6C64;}
</style>
<title>Asset 26</title>
<g id="Layer_2_1_">
	<g id="GRID">
		<path class="st0" d="M192.8,223.4c5.9,0.8,6.1,0.6,8-4.5c0.5-1.4,1.8-2.6,2.3-4c1-2.8,1.8-5.6,2.5-8.5c1-4.4,2.2-8.8,2-13.4
			c-0.1-2.2,0.8-4.5,1.2-6.8s1-4.5,1.5-6.7c0.2-1.8,1.3-3.4,3-4.2c2.4-1.1,4.9-2,7.4-2.7c1.9-0.4,3.8-0.6,5.7-0.7
			c6.4-0.6,12.6,0.6,18.9,1.4c1.3,0.3,2.6,1,3.6,1.9c1.8,1.5,3.5,3.1,5.1,4.7c0.6,0.6,1,1.3,1.3,2.1c0.4,0.8,0.5,1.6,0.9,2.3
			c2.6,4.2,2.7,8.8,2.3,13.5c-0.4,3.9-0.6,7.8-1.1,11.7c-0.5,3.3-2,6.3-4.3,8.7c-5.2,5.8-10.7,11.4-16.1,17
			c-0.5,0.4-0.9,0.9-1.3,1.4c-2.3,4.4-6.3,7.4-9.3,11.1c-2.2,2.8-4.5,5.6-6.6,8.5c-1.4,1.9-1.9,4.3-1.2,6.6c0.9,3.2,0.7,3.3-1.2,6.5
			c2.4,2.1,5.3,3.5,8.4,3.9c4.2,0.5,7.5-1.5,10.8-3.8s5.8-5.6,8.4-8.6c3.3-3.8,7.1-7.2,11.3-10.2c1.4-1.3,3.5-1.3,5,0
			c1.9,1.3,3.7,2.8,5.4,4.4c1.1,1.2,2.1,2.6,2.7,4.2c2.3,5,4.6,10,5.6,15.5c1,4.2,0.2,8.6-2.1,12.2c-4.2,6.6-7.9,13.4-11.9,20.2
			c-0.2,0.3-0.3,0.6-0.5,0.8c-3.1,2.1-4.5,5.5-6.5,8.5c-1.5,2.2-3.2,4.4-4.8,6.6c-2.8,3.8-3.8,8.1-4.5,12.7
			c-0.5,3.5-1.5,6.9-2.2,10.4c-1,4.9-1.1,9.7,1.3,14.5c1.5,2.9,2.1,6.2,3.4,9.2c1.8,4.4,3.9,8.6,5.8,12.9c1.6,3.5,3.4,7,5.1,10.5
			c0.3,0.7,0.7,1.3,1.1,1.9c2.4,3.5,4.3,7.3,5.5,11.4c0.3,1.2,0.5,2.5,0.6,3.7c0.2,1.5-0.7,3-2.1,3.5c-4.4,1.9-8.7,3.8-13.1,5.6
			c-1.2,0.6-2.7,0.1-3.3-1.1c0-0.1-0.1-0.2-0.1-0.3c-1.2-2.2-2.8-4.2-4.7-5.9c-1.6-1.6-2.6-3.8-4-5.7c-3.5-5-7-10-10.5-15
			c-1.5-2.3-3.1-4.5-4.9-6.6c-4.8-5.2-9.7-10.4-14.8-15.3c-2.5-2.6-5.3-4.8-8.4-6.7c-4.6-2.8-10.1-3.6-15.2-2.1
			c-3.2,0.9-6.6,1.4-9.7,2.5c-4.1,1.4-8,3.4-12,4.9c-7.7,3-15.4,5.9-23.2,8.7c-4.4,1.6-9,3-13.6,4.2c-4.8,1.2-9.2,0.1-12.5-4
			c-4.7-5.8-8.6-12.3-11.6-19.2c-0.7-1.9-1-3.9-0.7-5.9c0.3-2.9,2.6-5.3,5.5-5.7c3-0.6,6-1.4,9-1.7c4.2-0.5,7.7-2.9,11.5-4.3
			s6.4-4.3,9.5-6.6c1.5-1.1,2.8-2.7,1.9-4.9c-0.2-0.4,0.1-1,0.2-1.5c0.6-3-0.2-4.4-2.9-5.6c-5-2.2-10.4-2.6-15.8-3.3
			c-0.5,0-1.1,0.1-1.6,0.2c-7.7,1.6-15.4,2.3-23,4.4c-3.7,1.1-7.7,1-11.6,1.5c-2.2,0.3-4.4,0.6-6.5,1.1c-1.1,0.3-2.3,0-3.1-0.8
			c-3.2-2.6-5-6.4-5-10.5c-0.1-3.5-0.3-7-0.4-10.4c0-0.6,0.1-1.3,0.3-1.9c2.1-4.3,4.7-8.4,9.9-9.4c3.2-0.5,6.5-0.8,9.8-0.9
			c6.2-0.2,11.1-3,15-7.6c1.4-1.8,2.7-3.8,3.8-5.8c1.5-2.4,1-5.6-1.1-7.5c-1.4-1.3-3.1-2.2-4.8-2.9c-3.6-1.1-7.4-1.8-11-2.9
			c-2.6-0.8-5.1-2-7.7-2.9c-5.5-1.9-11-3.8-16.5-5.5c-2.2-0.6-4.6-0.5-6.9-0.8c-4.8-0.6-9.7-1-14.4-2c-6.5-1.3-12.9-3-18.4-7.3
			c-2.8-2-4.5-5.1-4.9-8.5c-0.7-6.3-0.3-12.7,1.1-18.9c0.7-3.6,2.5-6.9,4.1-10.3s4.8-3.7,8-4.3c0.9-0.2,2,0.1,2.8-0.1
			c2-0.6,4.2-0.5,6.2,0.1c2.4,0.5,5,0.5,7.4-0.1c2.9-0.6,6,0,9,0.3c2.5,0.2,4.8,0.6,7-1.1c1.5-1.2,1.9-2.2,0.6-3.7
			c-3.4-4.1-7.3-7.5-13.1-7.6c-1.1-0.1-2.3-0.4-3.4-0.8c-5.7-1.4-11.5-2-17.3-2.9c-1.9-0.3-3.7-1-5.5-1.4c-1.7-0.4-3.5-0.6-5.3-0.6
			c-1.5,0.2-3-0.4-4-1.5c-5-5.4-10.1-10.7-16.1-15c-0.7-0.6-1.2-1.5-1.2-2.4c-0.2-5-1.3-10,0.2-14.9c1-3.1,2.2-6.1,3.8-9
			c1.2-2.3,3.8-2.4,6.2-2.4c5.1-0.1,9.6,1.4,14.3,3.3c5.9,2.4,12.2,4.1,18.3,6c2.5,0.8,4.8-0.1,7-1.3c1.2-0.7,1.6-1.7,0.6-2.8
			c-0.6-0.7-1.3-1.3-2-1.9c-1.2-0.7-2.3-1.6-3.3-2.5c-1.7-1.9-3.4-3-6.1-2.4c-0.9,0-1.9-0.2-2.7-0.7c-5.5-2.2-10.3-5.7-15.4-8.8
			c-4.1-2.6-8.4-5-12.6-7.3s-7.2-5.8-8.1-10.7c-0.2-0.8-0.6-1.6-1.1-2.2c-1.1-1.6-1-3.8,0.1-5.3c3.5-5.5,8.8-9.5,15-11.5
			c0.8-0.3,1.7-0.4,2.5-0.2c5.8,1.1,11.7,2,17.4,3.5c6.2,1.7,12.3,3.9,18.4,5.9c1.8,0.6,3.6,1,5.4,1.5l0.5-0.6
			c-0.4-1.1-0.9-2.2-1.5-3.2c-1.3-1.9-2.7-3.6-4.3-5.2c-4.4-4.3-8.3-8.9-11.7-14c-2.1-3-4.7-5.7-7-8.6c-1.3-1.6-2.4-3.2-3.7-4.7
			c-2.7-3.1-5.5-6.1-8.1-9.3c-2.5-2.9-4.6-6-6.3-9.4c-0.7-1.4-1.6-2.7-2.6-3.9c-2.1-2.8-3.5-6.1-4-9.5c-0.2-1.6,0.6-3.2,2-4
			c5.3-3.8,11.6-6.3,18.1-7.2c4.5-0.6,8.3,1.1,12.2,2.7c4.9,2.1,9,5.5,12.8,9.2c0.6,0.7,1.1,1.5,1.6,2.4c1.4,2.1,2.5,4.4,4.8,5.8
			c0.6,0.6,1.2,1.2,1.5,2c2.6,3.9,5.2,7.9,7.9,11.8c0.9,1.2,1.9,2.2,3.1,3.1c1.5,1.3,2.7,0.9,3.4-1c2.4-6.4,4.3-12.9,5.8-19.5
			c1.3-6.6,0.7-13.2,1.7-19.7c0.8-5.6,1.7-11,5.4-15.6c3.1-4,7.5-5.1,12.1-5.5c1,0.1,2,0.5,2.8,1.2c3.3,3,7.6,4.7,12.1,4.8
			c0.7-0.1,1.5,0.1,2.1,0.5c1.7,1.2,3.7,2,5.8,2.4c1.7,0.3,2.8,1.8,2.6,3.5c-0.1,1.8-0.5,3.5-0.7,5.3c-0.5,6-1.6,11.9-3.4,17.6
			c-0.6,1.7-0.6,3.5-1,5.3c-1,4.3-2,8.5-2.9,12.8c-0.5,2.2-0.7,4.5-1.1,6.8s-0.9,4.6-1.3,6.8c-0.8,4.3,0.3,8.4,1.8,12.3
			c0.8,1.9,2.8,2.7,5,2.8c3.8,0.2,7.4-1.5,9.7-4.5c4.7-5.4,9.3-10.9,13.9-16.5c3.1-3.7,7-6.7,11.5-8.6c3.7-1.8,8.1-1.4,11.4,1.2
			c3.9,2.9,8.1,5.4,12,8.1c1,0.9,2,1.8,2.8,2.9c1,1.1,1.8,2.3,2.8,3.4c1.1,1,1.6,2.5,1.3,4c-0.9,5.9-3.8,10.9-6.8,15.9
			c-2.8,4.6-6.3,8.7-8.3,13.8c-1,2.2-2.7,4.1-4.8,5.3c-6.4,4-10.2,10-12.6,17c-0.7,2.2-1.1,4.4-1.9,6.6c-1.5,3.8,1.2,12.5,7.4,12.4
			c1.2,0,2.5-0.3,3.5-1c3.8-2.6,6.8-6,8.8-10.1c2.2-4.3,4.6-8.5,7.3-12.6c1.1-1.7,2.6-3,4.4-3.9c3.4-1.7,6.9-3.3,10.8-3.6
			c1-0.1,2-0.3,3-0.6c2.2-0.4,3.9,0.5,5.6,1.7s3.5,2.2,5.3,3.3c2.4,1.5,4.9,2.9,7.3,4.3c1,0.6,1.9,1.3,2.9,1.9
			c3.2,2.1,3.6,4.5,1.4,7.6c-0.6,0.9-1.2,1.8-1.6,2.7c-2.1,4.9-4.2,9.9-6.2,14.9c-0.6,1.4-0.8,3-1.5,4.5c-2.3,5-3.9,10.4-7.6,14.7
			c-1.3,1.2-2.4,2.6-3.5,3.9c-3.3,4.5-5.9,9.4-7.9,14.6c-1.3,3.6-3.6,6.9-5.5,10.3c-0.7,1.3-1.2,2.7-2,3.9c-2.1,3.3-1.4,6.6,0.4,9.5
			s2.1,6.1,3.1,9.2C191.9,220.1,192.4,221.9,192.8,223.4z M142,285.4c0.9,2.1-0.1,3.6-1.6,4.7c-1.5,0.9-3.1,1.7-4.7,2.3
			c-1.6,0.7-1.9,1.3-1.2,2.9c0.9,1.8,1.9,3.2,4.1,3.5c0.8,0.2,1.6,0.5,2.3,0.9c3.8,1.8,7.5,3.7,11.3,5.5c2.5,1.2,2.9,2.6,1.6,5.1
			c-0.5,0.8-0.8,1.7-0.8,2.6c0.6,4.6,3.2,8.2,6.6,11.1c0.9,0.6,1.9,0.8,2.9,0.6c4.4-1,8.4-2.3,9.4-7.7c1-5,1-9.8-1.3-14.1
			c-2.4-4.7-5-9.5-9.7-12.6c-0.4-0.3-0.7-0.8-0.9-1.3c-1.3-2.7-4.3-3.6-6.2-5.7c-0.3-0.3-0.7-0.4-1.2-0.4
			C149.1,283,145.4,282.7,142,285.4z M88.5,186.9c1.7-2.2,1.7-2.2,1.8-4.9c0.1-3.2,0.1-6.5,0.4-9.8c0.5-5.1-1.1-10.2-4.4-14
			c-1.8-2.2-4.9-2.9-6.8-1.9c-3,1.6-6.1,3.2-9.2,4.8c-0.4,0.2-0.7,0.4-1,0.7c-1.6,2.1-3.2,4.2-4.5,6.4c-1.1,1.7-0.6,3.9,1,5
			c0,0,0.1,0.1,0.1,0.1c2.2,1.5,4.5,2.9,6.7,4.5c3.7,2.6,7.6,4.9,11.5,7.2C85.6,185.7,87,186.4,88.5,186.9z M167.4,167.9
			c-3.2,1.4-6.5,2.5-8.8,5.4s-4.5,5.3-6.6,8.1c-1.3,1.5-2.1,3.4-2.2,5.5c-0.1,0.7-0.4,1.4-0.7,2c-0.3,0.8-0.6,1.5-0.8,2.3
			c-0.6,2.5,0.1,4.9,0.9,7.7c1-0.4,1.9-0.9,2.8-1.5c8.9-6.7,14.2-15.7,16.7-26.4C169,169.7,169,168.4,167.4,167.9z M100.6,93.2
			c0.6-0.9,1.1-1.8,1.6-2.8c1.8-4.5,1-9.1,0.7-13.7c-0.2-2.2-0.7-4.4-1.5-6.4c-0.6-1.8-0.2-4-2.3-5.9c-0.5,2.8-0.8,5.6-0.8,8.4
			c0.1,1.8,0,3.6-0.2,5.4c-1,4.6,0.6,8.9,1.5,13.3C99.5,92,99.9,92.3,100.6,93.2z M258.4,411.7c3.7-0.5,3.8-0.7,2.9-3.2L258.4,411.7
			z M241.6,282c1-0.8,2-1.5,1.1-2.8c-0.5-0.3-1.1-0.3-1.6-0.1C239.8,280.2,240.7,281,241.6,282z M153,200c2.7-0.4,2.7-0.4,3.3-2.7
			L153,200z M184.2,250.7l0.7-0.2l-1.1-3.8l-0.9,0.3L184.2,250.7z M270.9,282.6l0.9,0.1c0.2-1,0.4-1.9,0.6-2.9l-0.9-0.2
			C271.3,280.6,271.1,281.6,270.9,282.6L270.9,282.6z M249.8,217.4c-1.8,0.4-1.8,0.4-1.9,2.4L249.8,217.4z M127.8,316.1
			c-0.7-0.8-1.4-1.8-3.1-0.6L127.8,316.1z M238.4,229.4c1.4-0.5,1.4-0.5,1.8-2.4L238.4,229.4z M15.4,34.2c-0.5-0.1-0.8-0.2-0.9-0.1
			c-0.2,0.2-0.3,0.5-0.3,0.8c0,0.2,0.4,0.3,0.6,0.5L15.4,34.2z"/>
	</g>
</g>
</svg>
