<?xml version="1.0" encoding="utf-8"?>
<!-- Generator: Adobe Illustrator 22.1.0, SVG Export Plug-In . SVG Version: 6.00 Build 0)  -->
<svg version="1.1" id="Layer_1" xmlns="http://www.w3.org/2000/svg" xmlns:xlink="http://www.w3.org/1999/xlink" x="0px" y="0px"
	 viewBox="0 0 42.6 179.1" style="enable-background:new 0 0 42.6 179.1;" xml:space="preserve">
<style type="text/css">
	.st0{fill:#EC6C64;}
</style>
<title>Asset 22</title>
<g id="Layer_2_1_">
	<g id="GRID">
		<path class="st0" d="M41.4,179.1c-0.8-2.1-2.1-3.7-2.3-5.8c-0.3-2.7-0.5-5.5-0.8-8.2s-0.7-5.7-0.9-8.6c-0.1-1.9,0-3.8,0-5.7
			c0-0.7,0-1.3,0-2c-0.8-5.7-1.4-11.3-2.3-17c-0.4-2.7-1.1-5.4-2-8c-2-5.4-3.2-11-3.8-16.8c-0.3-2.8-1.2-5.5-1.7-8.3
			c-0.4-2.4-0.9-4.8-1-7.2c-0.4-4.6-0.5-9.2-0.9-13.8c-0.1-1.6-0.7-3.2-0.8-4.8c-0.5-6.4-0.9-12.8-1.3-19.3
			c-0.4-5.9-0.6-11.8-2.2-17.6c-0.5-1.7-0.4-1.7-2.2-1.8c-2.2,0-4.3-0.2-6.5-0.2c-2.7,0-5.2-1.3-6.9-3.4c-0.9-1-1.2-2.5-2-4
			c-2.3-0.3-3.1-2.3-3.5-4.5c-0.6-3.6-0.2-7.4,1.3-10.8c0.9-1.8,1.5-3.8,1.8-5.8c0.3-2.5,1.7-3.6,4.2-3.8c0.8-0.1,1.5-0.3,2.2-0.5
			c1.3-0.3,2.6-0.7,3.8-0.8c1.6-0.2,3.3-0.3,4.9-0.4c0.4,0,0.8,0,1.1,0.1c1.9,0.8,3.7,1.7,5.5,2.7c4.1,2.6,7.3,6.2,8.5,11.1
			c0.2,0.7,0.3,1.4,0.6,2.1c0.8,2.3,0.6,4.9-0.7,7c-1.3,2.4-3,4.6-4.5,6.9c-0.2,0.3-0.5,0.6-0.8,0.8C27,31.4,26.4,33,27,34.3
			c0.4,1.6,0.5,3.2,0.8,4.9c0.4,2.1,0.4,4.2,0,6.3c-1.5,8.8-1.5,17.9,0.1,26.7c1,5.6,2.2,11.1,3.6,16.6c1.3,5,2.8,9.9,4.4,14.7
			c0.5,1.3,0.7,2.7,0.5,4.1c-0.2,1.8,0.3,3.6,0.6,5.4c0.7,5,1.6,9.9,2,14.8c0.5,7.1,0.6,14.2,0.9,21.3c0,0.4,0,0.8,0,1.2
			c0.9,2.7,0.5,5.5,0.6,8.2c0.2,5.7,0.8,11.4,2,17C42.9,176.8,42.5,178.3,41.4,179.1z M33.8,104.6c-0.3,1.8-0.3,3.7-0.1,5.6
			c0.5,3.4,0.9,6.8,1.5,10.1c0.6,3.6,1.3,7.2,2,10.8C37.5,128.8,34.7,106.7,33.8,104.6z M31.6,100.6H32c0.2-0.9,0.7-1.8,0.5-2.6
			c-0.7-2.8-1.6-5.6-2.5-8.4l-0.3,0.1L31.6,100.6z M31.6,15.4c0.1,1.5,0.1,2.9,0,4.4c-0.3,1.4-0.6,2.7-1,4.1
			C33.1,21.3,33.8,17.8,31.6,15.4L31.6,15.4z M24.5,4.3c-0.1,2.6,2.4,2.9,3.7,4.4C27.8,6.6,26.4,4.9,24.5,4.3z M26.8,30.4
			c0.9-1.2,2.1-1.6,2.4-3.3c-0.6,0.3-1.2,0.6-1.8,0.8C26.2,28.3,26.3,29.1,26.8,30.4z M27.3,11.8l0.5,2.9l0.4,0.1
			c0.3-0.4,0.8-0.7,0.8-1.1c0.1-1-0.6-1.9-1.6-2C27.4,11.8,27.3,11.8,27.3,11.8z M32.3,112.1h-0.7l0.8,4.3l0.4-0.1L32.3,112.1z
			 M2,20.1c0-0.9,0.1-1.8,0.2-2.7s0.2-1.6,0.3-2.4C1.6,16.6,1.5,18.5,2,20.1z M8.9,23.7c-0.7,0.9-0.9,2.1-0.5,3.1
			C9.4,25.9,9.3,25,8.9,23.7L8.9,23.7z M25.9,19.8c-1.7,1.6-1.7,1.7-0.8,3C25.4,21.7,25.7,20.8,25.9,19.8L25.9,19.8z M20.4,26.1H21
			c-0.1-0.8,1.1-1.6-0.5-2.7L20.4,26.1z M8.7,13.3l-0.5-0.1c-0.8,0.7-0.7,1.6-0.1,2.6L8.7,13.3z M21,2.1c0.4,0.8,0.2,1.5,1.1,1.7
			l0.6-1.3L21,2.1z M5.8,21.1l-0.5-0.1l0.4,2.5l0.4-0.1L5.8,21.1z M26.5,15.3L26,15c-0.5,0.4-1,0.8-0.6,2.3L26.5,15.3z M21.4,18.3
			l0.6,0.1l0.4-2.4L22,15.9L21.4,18.3z M25.4,36c0.4-1.4,0.4-1.4-0.2-2.4L25.4,36z M12.1,5.9c-0.9,0.6-0.9,0.6-0.8,1.8L12.1,5.9z
			 M12.4,23.5l-0.6-0.2L11.5,25l0.5,0.1L12.4,23.5z M27.9,25.8l0.3,0.3l0.8-0.7L28.7,25L27.9,25.8z M23,36.1l0.3-0.1L23,34.3
			l-0.3,0.1L23,36.1z M12,12.3l-0.3-0.1l-0.3,1.3l0.3,0.1L12,12.3z M14.3,1.6v0.1l1.5-0.1V1.5L14.3,1.6z M22.1,21.3h-0.5l0.1,1H22
			L22.1,21.3z"/>
	</g>
</g>
</svg>
