<?xml version="1.0" encoding="utf-8"?>
<!-- Generator: Adobe Illustrator 22.1.0, SVG Export Plug-In . SVG Version: 6.00 Build 0)  -->
<svg version="1.1" id="Layer_1" xmlns="http://www.w3.org/2000/svg" xmlns:xlink="http://www.w3.org/1999/xlink" x="0px" y="0px"
	 viewBox="0 0 111.7 268.3" style="enable-background:new 0 0 111.7 268.3;" xml:space="preserve">
<style type="text/css">
	.st0{fill:#EC6C64;}
</style>
<title>Asset 16</title>
<g id="Layer_2_1_">
	<g id="GRID">
		<path class="st0" d="M105.8,42l5.2-3.4c0.3,1.3,0.8,2.1,0.7,2.8c-0.2,1.9-0.7,3.8-1.5,5.6c-4.8,9.4-9.3,19-13.2,28.8
			c-2.2,5.5-5.3,10.6-8.2,15.9c-3.2,5.9-5.7,12-10,17.3c-0.8,1-0.9,2.7-1,4.1c-0.6,6.9,0.6,13.6,2,20.3c2.7,12.1,5.4,24.2,8.2,36.3
			c0.5,2.1,1.2,4.2,1.9,6.5c1.7-1.1,1.7-2.8,1.9-4.2c0.7-4.6,1.3-9.2,2-13.7c1-7.9,3.8-15.4,8.1-22.1c0.7-1,1.4-1.9,2.3-2.8
			c2.7-3,2.7-3,7-2c0,0.9,0.1,1.8,0.2,2.8c0.1,4.5,0.3,9,0.2,13.4c-0.2,6.5-1.6,12.8-4.1,18.8c-2.5,6.5-4.8,13-7.1,19.5
			c-0.4,1.4-1.2,2.6-2.3,3.5c-3.6,2.8-4.8,12.4-2.2,16.2c-1.9,3.5-1,7.2-0.3,10.9c0.3,1.3,0.7,2.6,1.2,3.8c0.8,2.1,1.6,4,0.4,6.2
			c-0.2,0.6-0.2,1.2,0,1.8c1.6,8.2,3.4,16.4,4.8,24.7c0.7,3.9,0.7,8,1,12c0.1,0.6,0,1.2-0.2,1.8c-0.4,0.6-0.8,1.1-1.3,1.5
			c-0.5-0.5-1.4-1-1.6-1.6c-0.6-2.7-1.1-5.5-1.4-8.3c-1.2-9.9-2.1-19.9-4.4-29.6c-0.5-1.5-1-3-1.6-4.5c-9.8,1.4-16.1-4.4-22-10.4
			c-7.8-7.8-13.8-17.1-17.5-27.5c-0.5-1.3-1-2.6-1.9-4.8c2,0.5,3.1,0.5,4,1.1c1.6,1,3,2,4.5,3.2c1.8,1.6,4,2.7,6.3,3.1
			c2.2,0.4,4.3,2.5,6.2,4.2c5.7,5.2,10.3,11.3,15.2,17.2c1,1.2,2.1,2.3,3.6,4c0.1-0.8,0.1-1.7,0-2.5c-2.2-11.8-4.7-23.6-6.4-35.6
			c-1.4-9.7-4-19.1-6.4-28.5c-2.2-8.6-4.6-17.1-6.9-25.7c-0.7-2.1-1.2-4.2-1.5-6.4c-0.3-3-1.8-5.1-3.7-7.2c-3.4-3.8-7.3-7-11.8-9.5
			c-7.5-4.2-14.5-9.4-21.8-14c-9-5.7-16.5-13.1-24.5-20.1c-3.6-3-5.8-7.4-6.1-12.1c-0.4-5-1-10.1-1.5-15.2C-0.6,31,2.8,26,8.1,22.5
			c4-2.6,8.3-4.7,12.7-6.2c6.3-2.1,11.8-5.8,17.7-8.6c4-1.9,8-3.6,12-5.4c7-3.2,14.2-2.6,21.5-1.1c0.6,0.2,1.2,0.3,1.8,0.3
			c5.9,0.1,11,2.7,16.2,5c5.5,2.4,9.8,7.1,11.7,12.8c1.9,5,3,10.3,3,15.6C104.7,37.2,105.4,39.5,105.8,42z M72.1,4.8
			c-2.1-0.6-3.9-1.6-5.8-1.7c-3.3-0.1-6.6,0-9.8,0.4c-2.3,0.3-4.4,1.7-5.6,3.7c-1.4,2.4-3,4.6-4.4,6.8c-1.7,0.1-3.4-1-4.8,0.8
			l6.5,7.7l0.5-0.3l-0.6-8.1c3.3-1,3.3,2.5,5.3,2.6h6.9c0.4-4-0.2-8.2,2-11.9c2.3,0,2.8,1.6,3.4,3s0.5,3,2,4.2L72.1,4.8z M78.9,9.9
			c-2.2,0.6-2.8,2-3.2,3.6c-3.2,11.1-4.1,22.6-5.1,34.1c0,0.5,0.3,0.9,0.7,2C78,36.7,81.5,24,78.9,9.9z M45.5,53.1
			c-0.2-2.8-0.7-5.6-0.4-8.3c0.5-5.7-1.3-10.9-3.1-16c-1.2-2.9-2.6-5.7-4.3-8.4c-0.3-0.6-1.6-1.4-1.9-1.2c-0.8,0.5-1.4,1.2-1.6,2.1
			c-0.2,0.9-0.2,1.9,0.1,2.9c2.5,8.6,5.1,17.3,7.8,25.9C42.5,51.5,43.1,53.1,45.5,53.1z M31.5,15.2c-7.5,4.3-13.1,9.3-16.7,16.7
			l3.4,3.7c1.5-2.2,2.7-4.4,4.3-6.1c2.2-2.3,4.7-0.5,7.2,0.2C31.8,25.1,30.8,20.4,31.5,15.2L31.5,15.2z M89.7,22.1
			c-3,1-3.7,3.1-4.2,5.1c-2.1,9.6-4.1,19.2-6,28.9c-0.4,2.5-0.6,5.1-0.7,7.6C85.2,50.7,88.1,36.8,89.7,22.1L89.7,22.1z M3.3,46.8
			c2.8,0,3.1-1.4,2.8-3.2c-0.3-2.4-1.2-4.9-0.9-7.2c0.7-5.9-1.3-7.1,7.1-5.8c1.1-1.7,2.3-3.5,3.5-5.3s2.5-3.3,3.7-5L19,19.6
			c-5.5,2.3-11,4.6-14.4,10.1S2.3,40.8,3.3,46.8z M29.3,46.6c0.2-5,0.5-9.2,0.4-13.4c0-1.8-2.2-3-4-2.7c-2.8,0.5-6,7.1-4.6,9.6
			c0.2,0.3,0.4,0.6,0.7,0.8C24,42.6,26.3,44.3,29.3,46.6L29.3,46.6z M76,52.4c-2,5.1-3.8,9.4-5.5,13.8c-1.6,4-1.9,7.9,0,12
			c1,1.7,1.4,3.7,1.1,5.6c-0.2,0.9,0.6,2.1,1,3.7C73.7,75.5,74.8,64.4,76,52.4z M68.7,36.3l0.7,0.1c2.1-9.9,1.3-20.5,7.2-29.5
			c-2.4-0.4-2.4-0.5-3.1,0.5c-0.9,1.4-1.8,2.9-2.6,4.4c-2,3.8-4,7.5-3.1,12c0.2,1.9,0.3,3.9,0.3,5.8C68.2,31.9,68.5,34.1,68.7,36.3z
			 M92.2,24.8l-5.4,26.6c0.3,0,0.6,0,0.8,0c1-1.9,1.8-3.9,2.9-5.8C94.5,39.4,95.1,31.6,92.2,24.8z M72.6,211.9
			c-0.6-1.2-0.9-2.1-1.3-2.9c-3-5.5-6-11-8.9-16.6c-1-1.9-2.7-3.4-4.7-4.2C57.5,193.2,66.8,207.9,72.6,211.9z M58,35.9
			c2.8-4.8,2.5-9.2,2.3-13.5c-0.2-1.1-0.7-2-1.4-2.8c-0.9-1.1-2.1-0.9-3.3-0.3c-1,0.5-1.5,1.7-1,2.8c0.6,2.2,1.3,4.4,1.8,6.6
			S57.4,33,58,35.9z M49.6,33c-2.4,5-0.9,18.5,2.5,23.2C52.7,51.8,50.9,35.5,49.6,33z M97.6,32.4c2.3-1.5,3.2-4.4,2.2-7
			c-1.3-4.3-4.2-7.9-7.3-8.6L97.6,32.4z M82.8,24.9l0.4,0.2c1.9-3.8,3.8-7.6,5.7-11.6c-2.1-1.1-3.4-2.9-6.1-2.7V24.9z M22.2,63.8
			c-0.1-3.3-1.6-5.6-2.5-8s-1.6-5.1-4.1-7C14.5,55.3,16.5,60.1,22.2,63.8z M106.5,135.6c-1.6,1.6-3.8,2.9-3.3,5.8
			c0.2,1-0.5,2.1-0.8,3.1c-1.3,4.5-2.6,9.1-3.8,13.6c-0.1,0.8,0,1.7,0.1,2.5l0.9,0.1L106.5,135.6z M46.1,32c2.7-3.8,0.7-6.9-1-9.8
			c-2.2-3.8-5.1-6.1-7.8-6C41.9,20.5,43.5,26.4,46.1,32z M7,49.1c-2.6,1.5-2.9,1.8-1.6,3.9c2.5,3.9,5.2,7.6,7.9,11.3
			c0.5,0.6,1.1,1.1,1.8,1.6C12.4,60.3,9.7,54.8,7,49.1z M14.2,33.9c-2.5,3.8-2.4,7.3-2.8,10.6c0,0.3,0.4,1.1,0.7,1.1
			c0.5,0,1.1-0.2,1.5-0.6c1.3-1.9,2.5-3.8,3.9-6.1C16.6,37.6,15.6,36,14.2,33.9L14.2,33.9z M35.3,49.6c0.9-4.5-0.4-9.2-3.3-12.7
			c0,3.6-0.2,6.7-0.1,9.8C31.9,49.3,32.1,49.3,35.3,49.6L35.3,49.6z M64.2,65.6c0.8-6.6,1.9-13.2,1.6-19.9
			C63.9,51.2,62,61.8,64.2,65.6L64.2,65.6z M28.2,65.7l-1,0.6c-0.5,3,2,4.8,3.4,7c1.2,1.8,2.4,3.7,5.8,3.3
			C33.4,72.7,30.8,69.2,28.2,65.7L28.2,65.7z M39.1,59.5c-1.7,6-1.7,9.2,3.6,11.3c-0.6-1.6-1.1-2.8-1.5-3.9
			c-0.3-0.9-1.1-2.3-0.8-2.7C42.6,61.8,40.2,61.1,39.1,59.5L39.1,59.5z M47.5,7c-4,0.3-6.6,2.4-9.8,4.5C43.4,12.8,45.7,11.7,47.5,7z
			 M78.5,102.9c0.7-0.9,1.4-1.8,2-2.7c2.1-3.4,4.1-6.8,6.2-10.2c0.4-0.7,0.7-1.3,1.4-2.6C84,90.3,79.1,98.1,78.5,102.9L78.5,102.9z
			 M59.5,73.3c-2.8,3.4-2,7.6,1.9,10.5C60.8,80.1,60.2,76.9,59.5,73.3L59.5,73.3z M11.2,33c-1.4-1.1-2.7-1.2-3.2,0.6
			c-0.8,2.8-0.6,5.8,0.6,8.4C9.6,38.6,10.4,35.9,11.2,33z M32.5,52.7c-0.5,3.8-0.4,7,2.9,9.5C36.2,58.4,36.5,55.2,32.5,52.7z
			 M24.7,75.7c-0.1,0.2-0.3,0.4-0.2,0.5c2,2.4,8.2,6.4,10.5,6.9C32.8,79,28.8,77.3,24.7,75.7z M52.3,24.8
			c-0.7,3.5,0.9,10.5,3.1,13.4C54.7,33.6,54.2,29.3,52.3,24.8z M45.3,56.4l-0.8,0.5c1.5,3.9,2,8.3,5.5,11.3c-1-3.3-2.2-6.6-3.6-9.8
			C46.1,57.6,45.7,57,45.3,56.4L45.3,56.4z M96.6,52.8c4.2-4,4.9-5.9,3.6-9.9C99,46.2,97.1,48.9,96.6,52.8L96.6,52.8z M63.6,11.4
			c-0.2,2.9-1.7,5.9-0.1,9.4C65.7,17.3,64.6,14.4,63.6,11.4L63.6,11.4z M72.5,201.1l-0.8,0.7c1.8,3,4.2,5.7,7,7.9l0.7-0.6
			L72.5,201.1z M86.2,8l-0.5,0.7l9.2,5.7C92.9,11.2,89.8,8.9,86.2,8z M44.4,87.5c-2.5-2.7-4-6.2-7.4-8
			C38.2,83.2,41.4,85.2,44.4,87.5z M71.2,93.2c-0.9-2.4-0.4-5.3-2.6-7.3C67,89.7,67.5,91.4,71.2,93.2z M86.5,221.5l0.7-0.6l-7.4-6.2
			C80.6,218,83.2,220.6,86.5,221.5z M63.8,33.8l-0.8-0.2c-1,3.5-0.9,7.2,0.1,10.7C63.3,40.3,63.5,37,63.8,33.8z M73.2,111
			c0.6-2.7,1.3-5-0.5-7.2C70.8,106.6,70.8,108.5,73.2,111z M58.3,61.3c-0.5-3.2-0.8-5.6-1.1-8C55.8,58.4,55.9,59.3,58.3,61.3z
			 M108.7,44.6c-3.6,1.5-3.8,2.1-2.9,6.5C106.9,48.5,107.8,46.5,108.7,44.6z M27.1,56.5c-0.8,3.1,1.4,4.2,3.1,6
			C30.9,59.4,29.3,57.9,27.1,56.5z M99.4,36.7c-3,2-3.3,3.4-1.8,6.3C98.2,40.7,98.8,38.7,99.4,36.7z M35.3,35.7
			c-0.5-2-1.1-3.9-1.8-6.5C31.3,32.5,33.4,34.1,35.3,35.7L35.3,35.7z M25.3,50.7l3.9,3.9C29.4,51,29.3,51,25.3,50.7L25.3,50.7z
			 M42.2,77.7l-0.8,0.7l3.9,4.6l0.6-0.5C45,80.6,44.2,78.6,42.2,77.7L42.2,77.7z M61.9,98.1l1-0.3c-0.6-1.7-1.2-3.3-1.7-5L60.4,93
			C60.3,94.8,60.8,96.6,61.9,98.1z M37.8,70.5l-0.6,0.4c0.6,2.8,1.3,3.6,3.6,3.7L37.8,70.5z M38,54.4l3.7,3.6
			C41.2,54.3,41.2,54.3,38,54.4z M90.8,196.9l1-0.2l-1.3-5.2l-0.8,0.2L90.8,196.9z M59.1,46l0.8-0.1c0.2-1.4,0.7-2.8-1-4
			C58.9,43.3,59,44.7,59.1,46z M85.2,67.7l-0.9-0.3L82.7,72l0.7,0.2L85.2,67.7z M38.8,47.7c-1.2,1.5-1.2,2.6,1.2,3.6L38.8,47.7z
			 M56.3,67.3c1.7-2.1,1.7-2.1-0.3-3.1L56.3,67.3z M74.2,117.7l-0.9,0.1l0.5,3.6c0.7-0.4,0.9-0.7,0.8-1
			C74.5,119.5,74.3,118.6,74.2,117.7z M69.9,58.1l0.6,0.4c0.3-0.9,0.7-1.7,1-2.6c0,0-0.3-0.2-0.6-0.4C70.6,56.3,70.3,57.2,69.9,58.1
			z M68,95.1c-0.6,1.6-0.3,2.4,1,2.7c0.1,0,0.3-0.2,0.8-0.5L68,95.1z M91.1,178.9l-0.4,0.2l0.8,2.4c0.1-0.6,0.2-1.2,0.1-1.8
			C91.5,179.3,91.2,179.1,91.1,178.9L91.1,178.9z"/>
	</g>
</g>
</svg>
