<?xml version="1.0" encoding="utf-8"?>
<!-- Generator: Adobe Illustrator 22.1.0, SVG Export Plug-In . SVG Version: 6.00 Build 0)  -->
<svg version="1.1" id="Layer_1" xmlns="http://www.w3.org/2000/svg" xmlns:xlink="http://www.w3.org/1999/xlink" x="0px" y="0px"
	 viewBox="0 0 429.5 494.7" style="enable-background:new 0 0 429.5 494.7;" xml:space="preserve">
<style type="text/css">
	.st0{fill:#EC6C64;}
</style>
<title>Asset 13</title>
<g id="Layer_2_1_">
	<g id="GRID">
		<path class="st0" d="M87.6,88.2l23.7,16.7c3.9-0.7,7.6-1.1,11.1-2c1.7-0.4,3.3-1.6,4.9-2.5c0.4-0.3,0.8-0.5,1.2-0.7
			c5.7-1.5,8.9-6.1,12.8-9.8c5.2-5,10.4-10.1,15.8-14.8c2.9-2.4,6-4.5,9.2-6.4c5.1-3.3,10.2-6.5,15.4-9.7c1.3-0.8,2.9-1.1,4.1-2
			c3-2.1,5.9-4.5,9-6.9l1.3,1c3.8-3.2,7.6-6.3,11.5-9.5c6.6-5.5,13.7-10.4,21.2-14.7c1.9-1,3.8-1.9,6.4-1.1
			c-0.1,0.9-0.2,1.7-0.5,2.5c-2.2,3.8-4.7,7.5-6.7,11.4c-3,5.7-7.8,9.8-12.1,14.3c-5.2,5.3-10.6,10.5-15.6,16
			c-9.3,10.3-19.1,20-30.1,28.5c-3.3,2.5-6.2,5.6-9.4,8.3c-2.9,2.5-6.3,4.5-9.9,5.9c-2.5,1.1-4.8,2.4-6.9,4.1
			c-3.2,2.4-6.3,4.8-10.1,6.2c-0.5,0.3-1,0.6-1.4,1l4.3,4.5c2.1-1.2,4.1-2.2,5.8-3.5c7.2-5.2,14.1-10.6,21.4-15.8
			c7.5-5.3,15.2-10.3,22.8-15.5c3.2-2.2,6.3-4.4,9.5-6.5c2.6-1.8,5.3-3.5,8.1-4.8c6.3-2.7,12-6.8,18.9-8.3
			c6.6-1.4,13.2-3.1,19.9-3.9c5.3-0.7,10.7-0.3,16.1-0.4c0.5,0.1,1,0.2,1.5,0.4c-0.3,1-0.7,2-1.1,2.9c-3.8,6.9-9.1,12.8-15.6,17.3
			c-7.4,5.3-15,10.3-22.8,15c-3.7,2.3-8,3.7-12,5.5c-3.3,1.4-6.6,2.9-10,4.3c-7.6,3.1-15.2,6.1-22.6,9.4c-6.7,3-13.3,6.2-19.9,9.5
			c-2.3,1.1-4.4,2.5-6.9,3.9c1.9,2.1,3.7,3.6,4.8,5.5s1.6,4.2,2.2,6.1l6.3-1.8c0.8-0.2,1.6-0.4,2.4-0.7c6.9-2.3,13.9-4.1,20.5-7.1
			c8-3.6,16.4-5.3,24.8-7.3c5-1.2,9.9-2.6,15-3.5c4.2-0.8,8.5-1.2,12.8-1.2c5.8-0.2,11.6,0.1,17.4,0.9c7.1,1.2,14,3.4,21,5.1
			c5.3,1.3,10.6,2.3,16,3.5c0.8,0.2,1.6,0.5,2.3,0.8c0.2,1.7-0.1,2.8-2,3c-3.2,0.2-6.2,1.5-8.6,3.6c-3.4,3-7.9,3.9-11.9,5.6
			c-5,2.1-10.1,4.2-14.5,7.6c-0.2,0.1-0.4,0.2-0.6,0.3c-9.7,3.2-18.6,8.6-28.6,11.4c-8.6,2.3-17.1,4-25.9,3.4
			c-5.7-0.3-11.4-1.3-16.8-2.9c-2.3-0.5-4.6-0.8-6.9-0.9l-9.9-1.2c3,4.9,5.6,9.4,8.3,13.9c1,1.7,2.5,3.2,3.2,5
			c1.3,3.2,3.9,4.1,6.9,4.6c7,1.2,14,2.6,21,3.5c5.7,0.7,11.3,1.1,17.1,1.2c11.2,0.1,22.3,0,33.5-0.1c3.8,0,7.7-0.4,11.5-0.9
			c7-1.1,14-2.4,21-3.6c2.5-2.7,6.2-1.7,9.2-2.9c6-2.3,12.4-3.3,18.7-4.5c0.2,0,0.5-0.2,0.7-0.1c0.7,0.3,1.2,0.8,1.7,1.4
			c0.1,0.2-0.5,1.3-1,1.5c-2.6,1.2-5.2,2.2-7.8,3.2c-4.2,1.7-8.4,3.3-12.6,5c-2,0.8-4.4,1.1-4.9,3.9c-1-0.6-1.7-1.4-2.4-1.4
			c-0.9,0.1-1.8,0.4-2.6,0.8c-3.9,1.6-7.8,3.1-11.6,4.7c-2.5,1.1-4.8,2.4-7.3,3.4c-7.5,2.9-15.1,5.8-22.6,8.6
			c-0.8,0.3-1.5,0.7-2.2,1c-1,0.6-2,1-3.1,1.2c-4.6,0.5-9.3,1.2-13.9,1c-5-0.2-9.9-1.2-14.8-1.9c-0.1,0-0.2-0.1-0.3-0.1
			c-7.1-0.7-12.8-5-19.4-7.1c-0.4-0.1-0.8-0.3-2-0.7c0.8,1.9,1.3,3.3,1.9,4.6c3.4,7,6.8,14,10.2,21c0.2,0.5,0.5,1,0.8,1.5
			c0.9,1.4,1.5,3.5,3.8,1.7c3.2,1.2,6.3-0.3,9.5-0.2c2.9,0,5.8-0.2,8.7-0.5c4.1-0.3,8.1-0.9,12.1-0.9c6.4-0.1,12.8,0.2,19.2,0.2
			c7,0.2,13.9,1.1,20.6,2.9c9,2.2,18,4.8,27.1,7c4.7,1.1,9.6,1.9,14.4,2.4c7.2,0.8,14.4,1.1,21.5,1.6c0.8,0.1,1.6-0.2,2.4-0.1
			c1.1,0.1,2.2,0.3,3.3,0.6c-0.7,1-1,1.9-1.5,2.1c-2.5,1-5,1.9-7.5,2.7c-1.6,0.5-3.4,0.9-5.1,1.3c-2.1,0.5-4.3,0.9-6.5,1.4
			c-1.1,0.2-2.3,0.3-3.4,0.7c-8.3,2.5-16.8,3.9-25.5,4.2c-5.6,0.2-11.1,0.8-16.7,1.4c-8.3,0.9-16.6,2.1-25,2.8
			c-10.4,0.9-20.7,1.2-30.9-1.9c-2.3-0.7-4.6-1.1-7.4-1.8c0.3,1.1,0.7,2.2,1.2,3.3c4.1,7.2,8.3,14.4,12.5,21.5
			c1.6,2.7,5.4,3.4,8.2,2.3c2.4-0.9,5.1-1.9,7.7-1.8c11.4,0.4,22.8,1.1,34.2,2c4.1,0.3,8.2,1.4,12.3,2.1c2.1,0.4,4.1,0.6,6.2,1.1
			c5,1.2,9.9,2.8,14.9,3.7c5.8,1,11.8,1.6,17.6,2.2c3.6,0.4,7.2,0.6,10.8,0.8c3.5,0.2,6.9,0.2,10.4,0.3c0.2,0,0.5-0.1,0.7,0
			c0.6,0.4,1.2,0.8,1.9,1.1c-0.4,0.6-0.7,1.5-1.2,1.8c-6.2,3-12.4,6.4-19,8.6c-1.2,0.4-2.4,0.7-3.7,1.1c-0.9,0.1-1.8,0.5-2.6,0.9
			c-4.1,3.7-9.4,3.7-14.3,5s-9.7,2.6-14.6,3.6c-8.8,1.7-17.8,2.6-26.7,2.8c-3.6,0.1-7.2-0.6-10.8-1.1c-2-0.2-3.9-0.7-5.8-0.9
			c-1.5-0.2-2.9-0.2-3.7-2c-0.4-0.9-1.6-1.5-2.9-1.8c0.2,0.7,0.4,1.4,0.8,2.1c3.5,5.2,7.4,10.2,11.6,14.9c1.1,1.5,2.8,2.6,4.6,3
			c0.8,0.1,1.6,0.4,2.3,0.8c5.6,3.4,11.7,3.3,17.9,2.9c4.1-0.3,8.2-0.4,12.2-0.9c4.5-0.5,9-1.5,13.5-2.1c8.1-1,15.4-4.8,23-7.2
			c5.7-1.8,11.4-3.5,17-5.5c2.6-1,5.1-2.3,7.4-3.8c2.4-1.4,3.6-1.5,5.6-0.1c0,1.6-1.2,2-2.3,2.7c-2.9,1.6-5.7,3.2-8.5,4.9
			c-1.6,1-3.2,2.2-3.3,4.6c0,0.6-0.9,1.5-1.5,1.6c-3.3,1-5.5,3.3-7.9,5.6c-3.6,3.4-8,5.5-12.5,7.5c-2.6,1.1-5.3,1.8-7.9,2.9
			c-6.7,2.7-13.8,3.6-20.9,3.8c-5.5,0.2-11.1-0.9-16.6-1.5c-1.9-0.3-3.7-0.5-5.6-0.5c7.4,8.4,14.6,16.9,24.2,22.8l0.5-0.5
			c-0.8-0.6-1.5-1.1-2.2-1.7s-1.2-1.3-1.9-2.1c1.1-0.9,2.7-1,3.9-0.2c2.1,1.1,4.6,1.1,6.8,0.1c2.5-1.1,5-2.5,7.5-3.6
			c1.1-0.6,2.4-1,3.6-1.1c1.7,0.1,3.3-0.4,4.7-1.3c9.6-5.1,18.4-11.5,27.1-17.9c3.8-2.8,7.4-6.1,10.5-9.7c4.5-5.1,8.5-10.6,12.8-16
			c1.2-1.5,2.3-3,4.6-3.4c0.9-0.2,1.7-1.4,2.4-2.3c0.7-1.1,1.4-2.2,2-3.4c1.8,0.2,2,1.2,1.7,2.3c-0.5,1.8-1,3.6-1.7,5.3
			c-2.6,6.4-5.2,12.7-9.7,18.1c-5.4,6.4-10.3,13.2-15.8,19.5c-4.1,4.6-8.6,8.8-13.3,12.8c-4.7,4-9.7,7.5-14.7,11.2
			c-3,2.2-6.1,4.2-9.6,6.7c6,4,12.5,6.4,18.6,9c1.8-4.1,3.2-8.1,5.2-11.9c4.5-8.7,10.7-16.4,18.1-22.8c5.4-4.7,11.4-8.5,17.9-11.4
			c4.1-1.7,8.3-3,12.7-4.1c3.5-0.9,7.1-1.3,10.7-2c1-0.2,2-0.7,3-1c2.6-0.6,5.2-1.1,7.8-1.6c0.4-0.1,0.8,0.4,1.6,0.8
			c-0.8,1.7-1.4,3.5-2.3,5c-3.8,6.6-8.8,12.3-13.9,17.9c-8.6,9.5-19,16.8-29.2,24.4c-5.3,4-11.2,7.1-17,10.8c0.5,0.4,1.1,0.7,1.8,1
			c6.1,1.6,12.1,3.3,18.2,4.8c1.2,0.1,2.5,0.1,3.7-0.1c3.6-7.9,9.4-14,14.8-20.4c7.4-8.5,15.5-16.4,24.4-23.4c1.8-1.6,3.5-3.4,5-5.3
			c0.8-0.9,0.7-1,2.5-1.4c0.2,0.3,0.5,0.5,0.5,0.8c0,10-1.1,19.9-7,28.4c-3.8,5.3-8.3,10.1-13.3,14.3l-10.5,8.8
			c4.1,0.7,8.2,1,12.4,0.9c2,0,4-0.2,5.9-0.2c0.9,0,1.9,0.1,2.8,0.3c0.5,0.2,0.9,0.7,1,1.2c0,0.6-0.3,1.1-0.8,1.4
			c-1,0.3-2,0.5-3,0.5c-3.6,0.1-7.1,0.1-11.1,0.1c0.2,0.8,0.5,1.5,0.9,2.2c3.7,6.4,7.1,12.9,11.1,19c3.2,5,4.2,10.9,6.5,16.2
			c0.2,0.4,0.4,1.1,0.2,1.3c-1.8,2.1-1,4.7-1.4,7c-0.1,0.4-0.3,0.8-0.6,1.2c-1.7,0.4-2.4-0.6-3-1.8c-4.4-7.9-9.5-15.5-15.2-22.6
			c-4.6-5.8-9.4-11.6-14-17.4c-1.2-1.6-2.2-3.3-3-5.1c-0.8-1.5-1.6-2.3-3.4-1l2.4,2.3c-0.2,1.9-1.5,2.2-2.8,1.9
			c-2.8-0.7-2.5-3.3-2.9-5.5c-2.7-0.6-5.1-1.7-7.8-1.1c1.9,5.6,3.8,11,5.7,16.3c2.5,7.2,5,14.3,6.2,21.9c1,5.5,0.3,11.2-1.9,16.4
			c-0.7,1.7-2.2,2.4-3.6,3.1s-2.8-0.8-3.7-3c-1.7-4.3-3.2-8.8-5.3-12.9c-4.1-8.1-8.6-16.1-12.8-24.1c-2.1-4-4.1-8.1-6.2-12.2
			s-2.1-8.3-2.1-12.8l-14.8-5.4c0.1,0.7,0.3,1.3,0.5,1.9c5.8,7.7,9,16.6,12.3,25.5c3.6,9.1,6.2,18.7,7.7,28.4
			c1.8,12.4,1,25-2.5,37.1c-0.3,0.6-0.6,1.2-1,1.8c-1.8-0.3-2.1-1.5-2.6-2.7c-1.6-4.5-3-9.1-4.7-13.5c-4.4-11.1-8.9-22.1-13.3-33.2
			c-2.7-6.8-5.5-13.7-8-20.6s-4.7-14-7-20.9c-0.9-2.5-1.4-5.2-3.6-7.1c-0.4-0.3-0.3-1-0.5-1.6c-0.8-2.8-1.5-5.6-2.4-8.4
			c-0.4-1.1-1.1-2.1-2-2.8c-5.4-4.4-10.9-8.6-16.7-13.2c-0.3,1.8,0.3,3.1,0.7,4.5c1.3,4.5,2.6,9,3.9,13.5c1.5,5.6,1.9,11.3,2.1,17
			c0.4,11.2-0.3,22.4-2.3,33.4c-0.7,3.8-1.9,7.5-2.9,11.2c-0.4,1.4-0.8,2.9-1,4.4c-0.2,1.4-0.8,2.1-2.6,2.1
			c-0.4-0.8-0.8-1.7-1.1-2.6c-2.1-7.5-4.3-15-6.2-22.6c-2.7-10.3-4.6-20.8-5.9-31.3c-0.7-6-1.7-12-2.5-18c-0.4-2.8-0.7-5.6-1.2-8.3
			c-1.3-7.2-2.7-14.4-4-21.7c-0.3-1.8-0.2-3.7-0.4-5.6c-0.1-1-0.4-2-0.9-2.9c-2-2.7-4.4-5.2-6.4-7.9c-3.6-4.9-7-9.9-10.4-14.9
			c-0.7-1-1.4-2.2-2.1-3.2c-1.1-1.6-2.5-1.9-4.4-0.9c0.4,2.5,0.9,5,1.3,7.5c1.7,9.5,2.8,19.1,2.3,28.9c-0.8,12.4-3.7,24.5-8.7,35.8
			c-1.4,3.3-2.6,6.8-4.3,9.9c-2.6,4.8-5.5,9.4-8.4,14.1c-0.4,0.6-1.3,0.8-2.2,1.4c-0.5-1-0.8-2.1-1.1-3.2
			c-0.8-7.8-1.8-15.5-2.3-23.3c-0.8-12-1.5-24-1.7-36c-0.2-9-0.8-17.9,0.7-26.9c1.4-8.5,3.5-16.7,7.7-24.2c1.7-3,3.6-5.9,5.3-8.8
			c-2.7-6-16.8-30.3-18.7-32c-0.4,0.6-0.8,1.3-1,2c-1.2,10-3.7,19.7-7.5,29.1c-4.5,11.6-10.2,22.8-16.9,33.2
			c-7.5,11.6-16.9,21.6-25.4,32.4c-1.2,1.7-2.3,3.5-3.4,5.3c-0.9,1.5-1.6,3.3-3.9,3c-1.3-1-1.1-2.2-0.3-3.3
			c2.4-3.2,2.7-6.8,2.6-10.6c-0.1-5.9,0-11.9,0.2-17.8c0.3-9.9,2.7-19.4,5.2-28.9c1.1-4.2,1.8-8.5,3.2-12.5
			c4.5-12.9,11.1-24.9,19.5-35.7c4.4-5.5,9.3-10.4,14.8-14.8l0.3-0.2c1-1,3.3-0.8,3.3-2.7c-0.2-1.4-0.6-2.7-1.4-3.9
			c-3.1-6.3-6.2-12.6-9.3-18.8c-2-4.1-4-8.2-6.1-12.2c-0.5-1-1.1-1.9-2.1-3.7c-0.8,2.6-1.4,4.3-1.8,6.1c-1.8,7.2-3.4,14.6-5.3,21.8
			c-4.8,17.9-11.9,34.6-23,49.5c-4.3,5.5-9.3,10.5-14.9,14.7c-3.4,2.6-6.8,5.3-10.3,7.8c-0.9,0.7-2,1.2-3.1,1.5
			c-1.5,0.4-1.9,0-2.8-2.1c0.1-0.2,0.2-0.5,0.4-0.6c2.9-0.5,3.8-2.6,4-5.3c0.5-6,0.9-12.1,1.7-18.1c1.5-11.1,2.8-22.3,6.8-32.8
			c5.6-14.7,13.3-28.2,25.5-38.8c5-4.3,9.4-9.3,14.9-13.1c0.5-0.4,0.9-0.9,1.2-1.5c-0.4-0.7-0.7-1.4-1.1-2.1
			c-3.7-6-7.3-11.9-11.1-17.8c-1.4-2.1-3.1-4-4.6-6c-0.2-0.3-0.6-0.5-0.7-0.8c-0.6-3-3-4.2-5.5-5.5c-1.8,4.8-3.6,9.6-5.2,14.4
			c-3.1,9.1-8.2,17.2-12.7,25.6c-2.5,4.7-5.2,9.4-7.9,14c-6.5,11-13.7,21.7-21.3,31.9c-7.5,10.4-16.2,19.9-26,28.2
			c-3.1,2.5-6.3,4.8-9.8,6.8c-2.7,1.7-5.6,3.2-8.5,4.5c-1.7,0.5-3.4,0.6-5.1,0.2c-1.1-0.2-1.8-1.1-1.6-2.2c0.1-0.5,0.3-1,0.7-1.3
			c5.6-4.6,8-11.3,11.4-17.3c2.8-5.1,5.4-10.3,7.9-15.5c1.2-2.7,2.2-5.4,3-8.1c2.4-6.9,4.5-14,7.3-20.8c3.4-8.4,7.2-16.7,11.2-24.9
			c2.8-5.9,5.7-11.7,9.1-17.3c5-8.6,11.5-16.2,19.2-22.5c0.6-0.5,1.4-0.9,2.1-1.3c2.5-1.6,5.1-3.2,6.7-6c1.2-2.1,3-3.6,5.2-4.4
			c0.7-0.4,1.3-0.8,1.8-1.3l-14.2-14.5c-1.7,3-3.3,5.2-4.3,7.7c-3.5,8.5-7.9,16.6-13,24.3c-8.8,13.6-18.6,26.5-28.7,39.1
			c-5.6,7-12.2,13.2-18.5,19.5c-5.6,5.6-11.6,10.8-18,15.5c-3.4,2.7-7.4,4.6-11.7,5.3c-1.7,0.2-3.5,0.3-5.2,0.1
			c-1.8-0.2-2.4-1.4-1.5-2.9c0.4-0.6,0.8-1.1,1.3-1.6c6.5-7.5,11.3-16.2,16.4-24.7c7.1-12,10.9-25.2,15.5-38.2
			c4.7-13.4,10.2-26.5,18.4-38.3c2.7-3.7,5.8-7,9.4-9.8c3.5-2.9,7.1-5.7,10.8-8.3c1.8-1.2,4-1.9,6-2.9c1.2-0.6,2.3-1.1,3.9-1.9
			c-0.5-0.8-1.2-1.5-1.9-2.1c-7.8-5.3-15.6-10.6-23.4-15.9c-0.9-0.5-1.9-0.8-2.9-0.6c-2.2,0.5-4.3,1.6-6-1.1c-0.6-1-2.3-1.2-3-2.1
			c-1.6-1.8-2.9-3.8-4.3-5.8c-0.2,2,0.1,4,0.8,5.9c1.6,4.2,1.9,8.7,0.9,13.1c-1.1,5-1.3,10.2-2.6,15.2c-3.4,13.5-8.1,26.5-15.3,38.6
			c-5.5,9.3-11.7,18.2-18.7,26.4c-6,7-11.9,14-17.6,21.2c-4.5,5.6-8.2,11.7-11.1,18.2c-1,2.2-0.6,4.4-0.2,6.5c0.2,1,0.4,2.1,0.8,3.1
			c0.4,1.1,0.2,2.2-0.9,2.7c-1.4,0.6-2.4-0.3-2.8-1.4c-0.7-1.6-1-3.3-1.2-5.1c-0.1-10.5,0-21,1.9-31.4c1.9-10.8,4-21.5,7.1-32
			c2.5-8.2,4.6-16.6,8.4-24.4c2.8-5.9,5.5-11.8,8.8-17.4c2.9-5,6.7-9.5,9.9-14.4c4.3-6.5,8.5-13.1,12.5-19.7c1-1.9,1.6-3.9,1.8-6
			c0.4-3,2.6-5.5,1.5-9.2l-11.6-3.4c0.6-0.8,1.7-1.2,2.7-1c1.8,0.1,3.5,0.3,5.2,0.8c3.8,1.5,7.7,2.3,11.4,4.2
			c3.4,1.7,6.6,3.6,9.9,5.6c0.5,0.2,1,0.4,1.4,0.5c1.1-3,3.3-4.5,6.1-5.6c3.2-1.4,6.2-3.1,9.1-5.1c10.5-6.7,19.3-15.3,28.5-23.5
			c8.5-7.4,17.3-14.6,26.4-21.3c5.1-3.7,10.4-7.4,16.6-9.6c5.5-2,10.7-4.7,16.1-6.9c7.5-3.1,15.5-4.7,23.6-4.9
			c11.5-0.3,23,0.2,34.4,2.5c1,0.2,2.1,0.4,3.1,0.7c1.1,0.4,2.4,0.6,2.2,2.2s-1.4,1.7-2.6,1.8c-1.7,0-3.5,0.2-5.2,0.5
			c-4.9,1.1-9.7,2.3-14.5,3.7c-3.6,1.1-7,2.6-10.5,4c-7.8,3.3-15.1,7.4-21.8,12.5c-7.1,5.1-14.1,10.4-21,15.7
			c-7.4,5.6-14.8,11.4-22.2,17.1c-1.3,1-2.8,1.7-4.1,2.7c-1.8,1.5-3.3,3.2-5.1,4.6c-2.7,2-5.5,3.8-8.3,5.7c-0.9,0.6-1.8,1.1-2.6,1.7
			c-6.4,4.3-12.4,9.1-20.3,10.5c-3.2,0.6-6.4,1.1-9.6,1.7C88.7,87.8,88.2,88,87.6,88.2z M95.4,64.7l-3.2,2l0.5,0.6
			C93.6,66.5,95.2,66.5,95.4,64.7l2.9-1l-0.2-0.3C97.2,63.8,96.3,64.3,95.4,64.7z M126.4,65.9l-3.2,1.9
			C124.7,67.7,126.3,67.9,126.4,65.9l3.5-1.6l-0.4-0.7L126.4,65.9z M263.6,307.7c-5.6-0.8-11.2-1.3-16.8-1.4
			C250.5,308.5,260.2,309.3,263.6,307.7z M335,447.8l0.5-0.1c0-0.2,0-0.5,0-0.7c-1.8-5-3.6-10-5.5-14.9c-0.2-0.4-1-0.6-1.5-0.9
			l-0.6,0.5C330.3,437,332.7,442.4,335,447.8z M121.1,189.4c2.4,0.3,2.8-0.2,3.7-4.5C121.8,184.4,121.8,184.4,121.1,189.4z
			 M104.6,162.1l-0.9-0.7c-2.2,3-4.9,5.6-5.7,9.7C100.2,168,102.4,165,104.6,162.1z M352.6,469.2l0.7,0c-0.2-3.8-0.5-7.6-0.7-11.4
			l-0.7,0C352.1,461.6,351.3,465.4,352.6,469.2z M192.1,60.4c-2.8,1.8-5.7,3.2-7.3,6.3C187.9,65.5,189.8,62.7,192.1,60.4z
			 M94.7,213.2c-1.8,2.6-3,5.5-3.4,8.6C93.6,219.4,94.3,216.3,94.7,213.2z M358.6,388.9l0.7,0.4c2.3-2.8,4.7-5.5,5.8-9.2
			L358.6,388.9z M143,177.9c2.9-3.6,4.1-6.6,3.9-9.9C145.6,171.3,144.3,174.6,143,177.9z M120.6,194.7c-3.2,1.7-4.6,4.5-3.8,7.2
			C118.1,199.3,119.3,197,120.6,194.7L120.6,194.7z M286.9,314.9c3.2,2,4.7,2,7.8,0.2L286.9,314.9z M318.9,376.7
			c-0.1,0.5-0.2,1-0.3,1.5c0.6,0.1,1.2,0,1.7-0.1c1.2-0.4,2.5-2.3,3.2-4.6L318.9,376.7z M228.5,33.3l1.1-3.1l-0.6-0.3l-4.1,2.8
			L228.5,33.3z M153.7,46.3l-0.5-0.7c-1.5,1.7-4.3,1.8-5.5,5L153.7,46.3z M128.4,111.9l0.4,1l4.1-2l-0.4-0.7L128.4,111.9z
			 M351.9,333.7c-3-0.5-3.4-0.2-3.8,2.4L351.9,333.7z M278.5,256.7c-2.5-0.7-2.5-0.7-2.4,2.2L278.5,256.7z M197.9,53.4l0.5,0.5
			l2.9-2.9l-0.4-0.5L197.9,53.4z M408.5,381.9l0.6,0.6l3.1-3.1l-0.7-0.7L408.5,381.9z M15.4,167.7c-1.8,1.5-1.8,1.5-0.5,3.7
			C15,170.2,15.1,169.3,15.4,167.7z M217.6,169.7c-2-1-2.9-0.4-3.8,0.7L217.6,169.7z M333,369l0.5,0.7c1.5,0,2.2-1,3-3L333,369z
			 M88.2,127.5l0.4,0.5l2.6-2.7l-0.6-0.5L88.2,127.5z M161.8,154.1c-1-1.4-1-1.4-2.4-0.5L161.8,154.1z M167.6,71.4l0.5,0.4l2.2-1.9
			l-0.3-0.4L167.6,71.4z M48.9,212.6l0.8,0.4l0.9-2.6l-0.3-0.2L48.9,212.6z M172.1,226l-0.4-0.2c-0.3,0.7-0.6,1.4-0.7,1.6L172.1,226
			z M223.1,140.7l-0.1-0.6l-2.1,0.5l0.1,0.5L223.1,140.7z M413.7,350.8c-1.9,0.2-1.9,0.2-1.5,1.6
			C412.8,351.8,413.2,351.3,413.7,350.8z M93.2,235.8l0.9,0.4l0.8-2.1l-0.7-0.3L93.2,235.8z M226.9,167.6v-0.5l-1.6,0.1
			c0,0.2,0.1,0.5,0.1,0.5C225.9,167.8,226.4,167.7,226.9,167.6z M141.4,129.8l0.3,0.7l1.5-0.9l-0.2-0.5L141.4,129.8z M34.4,232.3
			l-0.9-0.6c-0.3,0.6-0.6,1.1-1,1.7l0.7,0.4L34.4,232.3z M230.5,322.7c-1,1.9-1,1.9-0.2,3.1C230.4,324.8,230.4,324.1,230.5,322.7
			L230.5,322.7z M197.8,143.6l-0.1-0.7l-1.3,0.6L197.8,143.6z M67.8,160.4l-0.5-0.2c-0.2,0.5-0.3,1-0.5,1.6l0.3,0.1L67.8,160.4z
			 M110.5,117.2l-0.4-0.6c-0.4,0.3-0.8,0.6-1.2,0.9c0,0,0.2,0.3,0.3,0.5L110.5,117.2z M220.4,169l0.1,0.2l1.7-0.4l-0.1-0.3
			L220.4,169z M203.3,285.2l0.4,0.1l0.5-1.4l-0.3-0.1L203.3,285.2z M202.2,289.2c-0.7,0.5-1,0.6-1,0.7c0,0.4,0,0.7,0.1,1.1
			L202.2,289.2z M334.2,252.6v0.6c0.6,0,1.2,0.1,1.7,0.1c0-0.2,0-0.4,0-0.5C335.4,252.6,334.8,252.6,334.2,252.6L334.2,252.6z
			 M221.3,331.1h0.6c0-0.5,0-1.1,0-1.6h-0.5C221.3,330,221.3,330.6,221.3,331.1z M385.5,382.4l-0.3-0.4l-1.4,1l0.4,0.5L385.5,382.4z
			"/>
	</g>
</g>
</svg>
