<?xml version="1.0" encoding="utf-8"?>
<!-- Generator: Adobe Illustrator 22.1.0, SVG Export Plug-In . SVG Version: 6.00 Build 0)  -->
<svg version="1.1" id="Layer_1" xmlns="http://www.w3.org/2000/svg" xmlns:xlink="http://www.w3.org/1999/xlink" x="0px" y="0px"
	 viewBox="0 0 69.4 267.5" style="enable-background:new 0 0 69.4 267.5;" xml:space="preserve">
<style type="text/css">
	.st0{fill:#EC6C64;}
</style>
<title>Asset 11</title>
<g id="Layer_2_1_">
	<g id="GRID">
		<path class="st0" d="M36.9,0.2c3.2,0.3,5.6,0.9,7.7,2.6c0.9,0.6,1.8,1.1,2.8,1.4c1.6,0.7,3.2,1.3,4.7,1.9c0.2,0.1,0.5,0.3,0.6,0.5
			c2,2.3,4.2,4.4,5.3,7.5c0.3,0.9,0.7,1.7,1.2,2.5c0.8,1.1,1.4,2.4,1.8,3.7c0.2,0.5,0.4,1,0.8,1.3c2.4,2.9,4,6.3,4.6,10
			c0.4,2,1.1,4,1.6,6.1c0.5,1.8,1,3.7,1.3,5.5c0.3,1.4,0.1,2.8-0.7,4c-0.3,0.6-0.5,1.2-0.7,1.8c-0.5,1.5-1.4,2.8-2.7,3.7
			c-1.3,0.7-2.3,1.9-3,3.2c-0.4,0.8-1.5,1.3-2.4,1.9c-2.5,1.5-5,2.9-7.5,4.3s-4.9,2.7-7.3,4.1c-1.4,0.8-2.4,1.8-2.4,3.5
			c0,1.4,0,2.9-0.1,4.3c0,1.1-0.1,2.2-0.1,3.3c0,4.6-0.2,9.2-0.1,13.8c0.2,8.7-0.3,17.5-1.4,26.1c-0.3,3-0.3,6,0,9
			c0.4,5.2,0.2,10.4-0.8,15.5c-1.3,8.2-2.4,16.5-3.5,24.8c-0.9,5.8-1.6,11.6-2.3,17.5c-0.4,3.5-0.8,7.1-1.2,10.6
			c-0.5,4.1-1,8.2-1.3,12.3c-0.3,4.5-0.2,9.1-0.7,13.6c-0.8,7.6-1.1,15.2-2.6,22.7c-0.8,3.9-0.8,8-1.2,12c-0.3,3.5-0.4,7.1-1.5,10.5
			c-0.5,1.4-1.1,2-2.2,1.9c-1.1-0.1-1.9-1-2-2.1c-0.2-1-0.3-2.1-0.2-3.1c0.7-6.3,1.5-12.6,2.3-19c0.5-4.6,1-9.1,1.5-13.7
			c0.3-2.5,0.8-4.9,1-7.4c0.3-3.9,0.5-7.7,0.6-11.6c0.3-5.6,0.8-11.1,1.6-16.6c0.7-5.2,1.1-10.5,1.8-15.7c0.5-3.8,1.1-7.7,1.6-11.5
			c0.4-2.6,0.7-5.2,1-7.8c0.5-3.6,0.9-7.1,1.4-10.7c0.3-2.1,0.4-4.3,0.7-6.5s0.5-4.1,1-6.2c0.6-3,0.3-6,0.2-9
			c-0.1-4.1,0.1-8.2,0.5-12.3c0.7-4.9,1-9.9,1-14.9c-0.2-7.7-0.6-15.5,0-23.2c0.1-1.6,0-3.3-0.2-4.9c-0.1-1.5-0.6-1.8-2.1-1.6
			c-0.5,0-1,0.1-1.6,0.2c-4.8,1.4-9.3-0.4-13.9-1.4c-4.1-1-6.9-3.8-9.9-6.5c-0.7-0.6-1.4-1.1-2.1-1.7c-1.3-0.9-1.9-2.5-1.7-4
			c0.5-3.2-1-5.7-2.4-8.3c-0.7-1.4-1.5-2.8-2.3-4.1c-2.6-4.2-1.5-8.3,0.6-12.3c1-2,2.3-3.8,3.2-5.8c0.6-1.4,1.1-2.8,1.5-4.3
			c0.8-2.6,2-5,3.5-7.2c1-1.8,2.1-3.6,3.1-5.5s2.6-2.4,4.3-3.1c0.6-0.2,1.2-0.5,1.7-0.9c1.2-1,2.6-1.8,4-2.4
			C27.6,0.4,32.3-0.4,36.9,0.2z M26.7,7c2.4,1.2,5.1,1.7,7.8,1.3c1.3-0.3,2.7-0.6,4-1c-0.4-1.7-2-2.9-3.8-2.6c-0.1,0-0.3,0-0.4-0.1
			c-2.4-0.5-4.5,0.6-6.6,1.4C27.3,6.1,27.1,6.5,26.7,7z M14.9,57.7c-0.4-1.2-0.7-2.2-2-2.6C12.9,56.9,13.2,57.3,14.9,57.7z
			 M32.3,50.4c-0.5,1.9,0.2,3.1,0.6,4.4C33.4,53.4,33,52.1,32.3,50.4z M5.6,41.2h0.6c0.3-1,0.3-2-0.1-3H5.7L5.6,41.2z M43.7,10.4V10
			l-0.8,0.1v0.3L43.7,10.4z"/>
	</g>
</g>
</svg>
