<?xml version="1.0" encoding="utf-8"?>
<!-- Generator: Adobe Illustrator 22.1.0, SVG Export Plug-In . SVG Version: 6.00 Build 0)  -->
<svg version="1.1" id="Layer_1" xmlns="http://www.w3.org/2000/svg" xmlns:xlink="http://www.w3.org/1999/xlink" x="0px" y="0px"
	 viewBox="0 0 298.2 376.5" style="enable-background:new 0 0 298.2 376.5;" xml:space="preserve">
<style type="text/css">
	.st0{fill:#EC6C64;}
</style>
<title>Asset 19</title>
<g id="Layer_2_1_">
	<g id="GRID">
		<path class="st0" d="M71.6,349.9c-1.1,0.8-2.1,1.7-3,2.7c-3,3.4-6.6,6.3-10.6,8.5c-0.5,0.3-1,0.7-1.5,1.1c-3.7,3.7-7.9,4-12.1,0.9
			c-1.2-0.9-2.5-1.6-3.9-2c-4.3-1.1-7.2-4.1-9.2-7.6c-2.9-5.3-4.9-11.1-3.5-17.3c0.5-2.4,2-4.7,3-7c1.5-3.4,2.9-6.8,4.3-10.1
			c0.9-2.1,1.4-4.5,2.7-6.3c1.8-2.5,1.9-5.2,2.4-7.9c-2.5-2.7-5.9-4.3-9.6-4.4c-6.3-0.4-12.6-0.9-18.5-3.3c-5.3-2-9.4-6.3-11.2-11.6
			c-2.2-6.2-0.2-11.5,4.1-16.2c4.2-4.3,9.5-7.6,15.2-9.5c7.6-2.8,15.5-4.8,23.2-7.5c7.9-2.6,15.4-6,22.5-10.4
			c2.1-1.3,4.3-2.4,6.4-3.6c6.3-3.4,9.4-8.9,9.8-15.9c0-1.2-0.4-2.4-1-3.4c-0.8-1.3-1.7-2.4-2.8-3.4c-4.1-4.1-7.3-8.8-12.3-12
			c-3.5-2.3-6.6-5.3-9-8.7c-4.3-5.7-5.5-13.2-3.2-20c0.9-2.8,2.8-5.3,5.3-6.9c3.2-2.3,6.4-4.5,9.7-6.7c1-0.7,2.1-1.2,3.3-1.5
			c9-2,17.2-5.9,25.4-9.9c9.9-4.9,19.4-10.7,28.4-17.2c0.7-0.5,1.4-1.1,1.9-1.7c1.7-2.3,1.5-4.3-0.9-5.9c-4.5-3.2-9-6.4-13.9-9.1
			c-7.3-4.1-11.1-10.2-10.9-18.3c0.1-4,1.5-8,2.4-11.9c0.2-0.7,0.5-1.4,1-2c4.8-6.3,10.4-11.8,18.3-14.1c6.7-2,13.2-4.7,19.3-8.3
			c3.6-2.1,7.5-3.8,11.1-5.9c1.4-0.8,2.5-2.2,3.9-3.3c0.7-0.5,1.4-0.9,2.1-1.2c1.2-0.5,2.8-0.6,3.8-1.4c3.4-3,7.8-4,11.8-5.6
			c2.5-1.1,4.9-2.3,7.2-3.8c13.1-7.7,27.3-13,41.8-17.6c5.5-1.8,11-3.4,15.4-7.7c3-2.9,6.8-3.4,10.7-2.5c2,0.5,4.2,0.4,6.1-0.4
			c2.9-1,6-1.6,8.8-2.7c2.6-1,5.2-2.3,7.6-3.8c2.6-1.6,5.1-3.4,7.6-5.2c0.3-0.2,0.6-0.4,1-0.5C287-0.2,291.8,0,296,2.8
			c2.2,1.5,1.8,3.9,2.2,6c0.1,1.5-0.2,3-0.8,4.3c-1.8,3.9-3.8,7.7-5.6,11.5c-2.3,4.7-4.5,9.5-6.7,14.2c-1,2.2-2.2,4.4-3.2,6.6
			c-2.5,5.2-5.1,10.3-7.6,15.6c-1.6,3.6-3,7.3-4.6,10.9c-2.8,6.6-5.8,13-8.5,19.7c-3.3,8.2-5.9,16.7-7.8,25.4
			c-0.9,4.2-1,8.7-2.9,12.8c-1.7,3.9-1.4,8.2-0.2,12.3c0.8,3,1.8,5.9,3,8.7c0.8,1.9,2.3,3.4,3.4,5.1c2,3.3,4.1,6.6,5.9,10.1
			c2.9,5.7,5.1,11.7,10.4,15.9c2.5,2,2.6,3,1.5,6.1c-0.9,2.5-1.7,5.1-2.9,7.6c-3.8,7.8-10.5,10.9-18.9,11.2
			c-6.5,0.2-13,0.4-19.5,1.2c-7.9,1-9.9,3.6-8.9,11.6c0.8,6.7,2,13.3,5.6,19.4c1.7,2.9,2.4,6.4,3.7,9.6c1.5,3.8,3.1,7.4,5,11
			c2,3.7,3.2,7.8,3.4,12c0.5,6.7-4.4,14.8-10.8,17c-4.5,1.5-9.2,2.9-13.9,0.5c-0.6-0.3-1.1-0.6-1.6-0.9c-3.6-2.7-7.3-5.3-10.8-8.1
			c-1.2-0.9-2.2-1.9-3.1-3.1c-2.9-4.4-7.3-5-12-4.8c-1.3,0-2.3,1.1-2.2,2.3c0,0.1,0,0.1,0,0.2c-0.1,2.6-0.2,5.1,0,7.7
			c0.4,5.4,0.8,10.8,1.4,16.2c0.9,7.3,2.2,14.6,3.1,21.9c0.6,5.2,0.6,10.3-1.6,15.3c-1,2.2-1.6,4.7-3,6.7c-2.5,3.5-5.8,6.4-9.6,8.4
			c-4.2,2.2-8.2,0.9-12.2-0.3c-4.2-1.4-8.1-3.7-11.2-6.9c-1-1.1-1.8-2.3-2.4-3.7c-2.1-4.6-4-9.2-5.9-13.8c-0.7-1.7-1.1-3.4-3.5-3.7
			c-2.5-0.3-4.7-0.2-6.3,2c-0.7,1-1.2,2.1-1.6,3.3c-2.1,5.9-4,11.8-6.1,17.7c-0.2,0.4-0.4,0.9-0.5,1.4c-0.1,6.9-3.5,13-5.2,19.5
			c-0.3,0.9-0.9,1.7-1.7,2.3c-6.5,5.2-13.8,8.7-22.4,8c-8.4-0.6-15.8-2.8-20.9-10.6C75,361.1,72.2,356.3,71.6,349.9z M241.4,49.1
			c-0.7,0.2-1.4,0.6-2,1c-4.2,4-8.7,7.7-12.3,12.2c-7.1,8.8-13.8,18-20.6,27c-6.3,8.5-12.5,17.1-18.7,25.7
			c-4.3,6-8.4,12.2-10.3,19.5c-1.4,5.4-2.6,11-5,16.1c-1.9,4.1-3.7,8.3-5.4,12.5c-1.3,3-2.8,5.9-3.4,9.2c-0.8,4.4-2.3,8.7-4.2,12.8
			c-0.5,1.1-0.6,2.4-1.1,3.5c-2,4.8-3.9,9.5-4.4,14.7c-0.1,0.4-0.2,0.7-0.5,1c-3.4,5.3-6.6,10.7-10.1,15.9
			c-3.1,4.6-6.5,8.9-9.6,13.4c-2.5,3.6-4.5,7.6-7,11.2c-5.2,7.6-10.6,15-16,22.4c-1.4,2.2-3.1,4.1-5,5.9c-3.8,3-5.3,7.3-7.3,11.4
			c-0.8,1.5-0.7,3.3,0.3,4.7l2.6-1.6c3.2-2,5.2-5.1,7.8-7.7c6.6-6.5,10.7-14.7,16.5-21.7c1.5-1.9,2.8-4.1,4.6-5.7
			c2.2-2,4.1-4.3,5.4-6.9c1.7-3,3.2-6.2,5.4-8.8c6.3-7.6,10.8-16.4,16.2-24.6c4.7-7.2,9.1-14.6,13.3-22.1
			c3.9-6.8,7.4-13.9,10.8-20.9c1-2.1,1.2-4.5,2.1-6.7c1.8-4.1,4-8.1,5.9-12.3c2.7-6.1,5.2-12.2,7.7-18.4c1.8-4.4,2.6-9.2,5.6-13.2
			c1.1-1.6,2.1-3.3,3-5c2.1-3.9,4.2-7.8,6.3-11.6c3.2-6.1,6.7-12,9.6-18.3c3.6-7.7,7.9-15.1,12.9-22
			C237.4,57.9,239.8,53.6,241.4,49.1z M100.9,158.2l-0.5-0.7l-2.8,1.5C99.9,160.8,100.4,159.5,100.9,158.2z M185.8,311.8
			c0.9-2.4,0.9-2.4-0.3-4.1C185.6,309.4,185.7,310.6,185.8,311.8L185.8,311.8z M192.6,103.5l-0.2-0.3c-0.3,0.1-0.6,0.2-0.8,0.4
			c-0.2,0.3-0.4,0.6-0.5,0.9l0.4,0.2L192.6,103.5z"/>
	</g>
</g>
</svg>
