<?xml version="1.0" encoding="utf-8"?>
<!-- Generator: Adobe Illustrator 22.1.0, SVG Export Plug-In . SVG Version: 6.00 Build 0)  -->
<svg version="1.1" id="Layer_1" xmlns="http://www.w3.org/2000/svg" xmlns:xlink="http://www.w3.org/1999/xlink" x="0px" y="0px"
	 viewBox="0 0 399.2 329.7" style="enable-background:new 0 0 399.2 329.7;" xml:space="preserve">
<style type="text/css">
	.st0{fill:#EC6C64;}
</style>
<title>Asset 21</title>
<g id="Layer_2_1_">
	<g id="GRID">
		<path class="st0" d="M320,227.4c6.4,5,12.8,9.3,20.8,12.1c-0.1-1.3-0.3-2.6-0.5-3.9c-2.8-10-3.4-20.2-3.7-30.5
			c-0.5-13.6,0.7-27.2,0.8-40.8c0-6.5,0-13,0.1-19.5c0.1-2.3,0.2-4.6,0.6-6.9c0.8-6,1.7-12,2.6-18c0-0.6,0.1-1.2,0.3-1.7
			c1.6-4.8,5.8-7.4,9.3-10.6c2.6-2.4,6.2-2,9.6-1.8c4.2,0.3,6.2,3.6,7.9,6.7c3,5.3,5.6,10.8,7.7,16.5c1.8,5.1,2.5,10.6,3.6,15.9
			c0.5,2.6,0.8,5.2,1.6,7.6c0.9,3,1.3,6.2,1.2,9.4c0,3,0.3,6,0.8,9c1.9,10.4,2.1,20.9,1.6,31.5c-0.1,2.7,0.2,5.5,0.9,8.1
			c1.9,7.4,3.9,14.8,6,22.1c1,3.6,2.2,7.1,3.3,10.7c0.3,0.8,0.5,1.7,0.5,2.5c-1,8.3,2.4,15.7,4.2,23.5c0.8,3.2,0.2,4.4-2.4,4.9
			c-6.9,1.5-13.9,2.8-20.8,4.4c-6.6,1.5-13.2,3.2-19.8,4.9c-8.9,2.3-17.2,5.9-25.4,9.8c-6.1,2.9-12.5,5.5-18.6,8.4
			c-8.9,4.4-17.6,9.4-25.8,15c-15.2,10.5-33.8,14.8-52.1,12c-2.5-0.5-5-1.5-7.2-2.8c-1.8-0.9-2.3-2.6-1.5-4.5c0.5-1.4,1.1-2.7,1.8-4
			c4.1-6.2,8-12.4,12.4-18.4c4.8-6.8,10.6-13,17.1-18.2c4.2-3.2,8-7,12.1-10.4c1.8-1.2,3.6-2.4,5.5-3.4c6.4-4,12.5-8.4,19.1-11.9
			c4.8-2.5,10.2-4,15.4-5.7s10.5-3.1,15.7-4.8c2.2-0.7,4-1.5,6.4,0.4c2.1,1.6,4.2-0.3,6.3-1.9c-3.2-1.9-6.1-3.8-9.2-5.3
			c-5.2-2.6-10.5-5-15.7-7.6c-1.8-0.9-3.4-0.4-5,0.4c-5.2,2.6-10.3,5.3-15.4,8c-6.8,3.6-13.6,7-20.2,11c-6.3,3.8-12.5,7.9-18.4,12.3
			c-10.1,7.4-19.9,15.4-30.1,22.7c-7.6,5.5-15.4,10.8-24.9,12.9c-5.9,1.3-11.7,1.3-17-1.3c-2.7-1.3-4.4-4.8-6.4-7.4
			c-1.5-2-0.4-4.1,0.5-5.8c2.3-4.6,4.4-9.3,7.5-13.6c7.9-10.8,18.9-17.7,29.6-25c4.8-3.2,9.5-6.6,14.2-10c3.9-3,8.5-5,13.4-5.9
			c6.4-1.1,11.8-4.8,17.6-7.3c3-1.3,6.2-2.2,9.3-3.4c2.4-1,4.7-2.1,8-3.6c-6.6-3.7-12.5-6.9-18.5-9.2c-0.5,0.4-1,0.6-1,0.8
			c0.5,4.6-2.7,5.9-6.2,6.7c-6.5,1.5-13,3-19.5,4.3c-8.1,1.6-16,4-23.6,7c-12.4,4.7-24.2,11.1-37.4,13.8c-8.5,1.7-16.9,4.2-25.4,6
			c-7.3,1.5-14.7,1.9-21.9-0.8c-1.6-0.5-3.3-0.9-5.1-0.9c-2.8-0.2-3.6-0.8-4.2-3.4c-0.3-1.2-0.8-2.4-1-3.7c-0.4-1.5-0.5-3-0.4-4.6
			c1-4.6,3.7-8.7,7.6-11.3c5.7-4.1,11.6-8,17.6-11.8c5.8-3.6,12.2-6.1,18.9-7.5c9.8-2.1,19.3-5,29.1-6.8c9.5-1.8,19.2-2.6,28.8-4
			c2.2-0.3,4.4-0.9,6.6-1.4c0.1-0.3,0.2-0.7,0.2-1l-27.1-18.5c-0.8,1-1.4,1.8-2,2.5c-1.1,1.2-2.3,1.8-3.8,0.7
			c-2.3-1.6-4.8-1.5-7.5-1c-8.4,1.4-16.9,2.7-25.3,4.2c-11.2,1.9-21,7.2-31.1,12.1c-6.2,3-12.5,6.3-19.1,8.2
			c-7.8,2.3-15.8,5-24.2,4.5s-15.4-3.9-19.4-11.9c-2.3-4.7-1.2-9.2,2.4-13c4.1-4.3,9.3-6.4,14.5-8.5c12.5-4.9,25.1-9.5,37.7-14.2
			c6.3-2.4,12.7-4.7,19.2-6.7c4.2-1.4,8.6-2.2,13-3.3c0.8-0.3,1.6-0.8,2.4-1.3c-2.3-3.3-5.1-2.7-8.1-1.3l-2.5-3.7
			c-4.7,0.5-9.7,0.6-14.4,1.8c-10.7,2.6-21.6,4.2-32,8.1c-3.8,1.3-7.7,2.5-11.6,3.4c-9.1,2.5-18.8,1.3-27-3.4
			c-5.3-2.8-9.3-7.7-11-13.5c-1.4-4.7,0.2-8.6,3.2-12c6.8-7.7,15.7-11,25.7-12c4.8-0.4,9.5-1.1,14.2-2.1c3.1-0.7,6-2.4,9.9-4
			c-1.6-1-2.2-1.7-2.9-1.7c-9.7-0.3-19.4,0.5-28.8,2.5c-10.4,2.4-21.1,3.8-31.8,4.1c-5.8,0.1-10.8-1.4-15.8-3.9
			c-3.9-1.9-7.2-4.3-9.5-8c-1.6-2.3-1.5-5.3,0.4-7.4c1.2-1.5,2.2-3,3.5-4.4c3.8-4.3,9.2-5.3,14.4-6.4c3.2-0.7,6.5-1.5,9.7-2.2
			c5.3-1.3,10.7-2.6,16-3.8l5.3-1.2c-4-3.2-8.2-4-12.1-5.1c-9.5-2.8-19-5.1-28.5-7.9c-4.2-1.2-8.1-3.3-11.4-6.1
			C0.2,46.4-1,42,0.9,37.3c0.8-2,1.7-4,2.8-5.9c2.3-4.1,6.2-5.8,10.7-4.2c3.7,1.2,7.3,2.9,10.7,4.9c5.4,3.4,10.3,7.6,14.4,12.4
			c0.9,1.1,2.1,2,3.4,2.5c2.8,0.9,5.2,2.7,6.8,5.1c1.7,2.3,3.2,4.8,6.3,6.1c1-1.8,0.2-3.5,0-5.1c-1.1-7.9-1.4-15.8-0.6-23.7
			c0.9-9.1,5-16.6,11-23.2c3.2-3.5,6.2-3,8.7,1.2c5.2,8.9,8.2,18.6,10,28.6c1.5,8.4,2.6,16.9,4.3,25.2c1.3,6.8,3,13.5,4.8,20.2
			c0.9,3.6,2.5,7.2,0.2,10.8c-0.2,0.4,0.1,1.1,0.2,2.1l5,1.8c0-2.1,0.1-3.7-0.1-5.3c-0.8-8.5-2-17-2.5-25.5s0.7-17.1,5.4-24.6
			c3.7-5.9,8.3-10.8,16-11.2c2.5-0.1,4.3,0.4,5.3,2.7c1.2,2.3,2.2,4.7,2.9,7.2c1.7,6.5,3.3,12.9,4.4,19.5c1.2,7.4,2,14.9,2.8,22.4
			c0.9,8.5,1.2,17,2.5,25.5c1.1,6.8,3.2,13.5,5.2,20.1c0.7,1.7,2,3.2,3.6,4.2c3.4,2.2,7,4,10.6,6c0-0.2,0.3-0.8,0.2-0.9
			c-2.6-2.4-3-5.4-2.6-8.7c1.2-9.5,2.2-19,3.5-28.4c0.8-6.2,1.9-12.3,3.1-18.4c0.8-4.3,2.1-8.4,2.9-12.7c1.2-6.3,2.3-12.6,3.3-18.9
			c0.8-4.9,3.1-9.4,6.7-12.9c2.5-2.5,5.1-2.4,6.8,0.7c2,3.6,3.6,7.5,4.7,11.5c3.2,11.9,4,24.2,5.1,36.4c0.8,9.4,1.5,18.7,2.1,28.1
			c0.7,11,1.4,21.9,2,32.9c0.3,5.3,0.2,10.7,0.4,16c0,1.1,0.3,2.2,1.1,3c8.6,6.8,17.7,12.9,27.3,18.3c0.7-4.1-0.6-7.7-1.1-11.3
			c-1.5-9-3.4-17.9-5-26.9c-1.1-6.4-2-12.8-2.8-19.3c-1-8.5-2.3-16.9-2.7-25.4c-0.4-7.2,0.3-14.4,0.4-21.7c0.1-3.5,0.1-6.9,0.2-10.4
			c0.1-2.3,0.5-4.6,0.8-6.9c0-0.7,0.3-1.4,0.9-2c3.4-2.3,5-6.2,8-8.8c4.4-3.6,9.4-2.8,11.9,2.3c4.4,8.9,7.4,18.2,7.5,28.3
			c0.2,11,1.6,22,4.3,32.7c0.6,2.7,2.2,5.1,2.6,7.8c1.4,8,2.5,16,3.6,24c1.1,7.7,2.2,15.4,3.1,23.2c0.9,7.1,3,14.1,2.6,21.4
			c0,0.9,0.3,1.7,0.4,2.6c0.2,1.9,0.1,3.8-0.1,5.7c0.8,3.1,3,4.6,6.1,5.8c5,1.9,9.6,4.6,14.4,7.1c1.7,0.9,3.3,1.2,5-0.9
			c-0.7-5.9-1.3-12.2-2.1-18.5c-1.5-12-3.3-24-4.6-36.1c-1.2-11.1-2-22.2-2.9-33.3c-0.6-8.1,1-15.9,3.4-23.5
			c1.3-4.3,2.5-8.7,4.1-12.8c2.2-5.7,6.8-9.7,12.7-9.3c3.9,0.3,6.3,2.2,7.5,5.5c3.9,10.6,7.6,21.2,9.5,32.4c1,6,1.5,12,2.2,18
			c0.9,7.3,1.9,14.6,2.7,21.9c1.1,10.5,2,21,3.1,31.4c0.7,7,1.5,14,2.1,21C320.7,213.8,321.7,220.6,320,227.4z M165.9,153.1h2.8
			c-0.1-0.3-0.1-0.5-0.2-0.8l-2.6,1c-1-0.6-2.3-0.3-3,0.7c-0.1,0.2-0.2,0.4-0.3,0.6L165.9,153.1z M163.5,230.1l3,0.4l0.1-0.7l-3,0.4
			l-3.2,0.4c0.1,0.4,0.2,0.7,0.3,1.1C161.6,231.1,162.5,230.6,163.5,230.1z M352,178.9l0.7,6.4C354.5,181.4,354.3,180.2,352,178.9
			c1.1-0.8,2.3-1.6,0.6-3.4L352,178.9z M288,144.4c-1.6,3.9-0.5,7.7,0.3,11.6c0.8-3.9,1.7-7.8-0.4-11.6l0.7-3.8l-1-0.1
			C287.7,141.9,287.9,143.1,288,144.4z M369,290.5l15.4-2.3C378.7,285.1,374.8,285.6,369,290.5L369,290.5z M94.8,73.6l1.4-0.2
			c-0.7-7.5-0.7-15-2.6-22.3l-0.9,0.1C93.4,58.6,94.1,66.1,94.8,73.6z M257,250.8c-0.1-0.2-0.2-0.5-0.3-0.8
			c-2.9,0.8-5.7,1.7-8.6,2.3c-2.5,0.5-2.7,2.3-3.4,4.9L257,250.8z M250.7,292.9c-0.1-0.3-0.2-0.6-0.4-0.9
			c-5.5,1.5-10.4,4.1-14.2,8.6L250.7,292.9z M336.6,218.9c-0.3,6.4-1.3,11.9,0,18C337.9,232.7,338,222.5,336.6,218.9L336.6,218.9z
			 M266.2,231.4c-5.1,0.8-5.9,1.1-8.6,3.2c1.8,0.9,1.8,0.9,6.8,0.1L266.2,231.4z M353.9,211.1c1.7-2.6,1.3-8.6-0.8-12.2
			C353.4,203.6,353.6,207.3,353.9,211.1L353.9,211.1z M300,307.7c-3.8-0.3-7.6,1.4-10,4.4L300,307.7z M66.5,164.8
			c-3.2,1.4-3.2,1.4-3,4.9C66.5,168.3,66.5,168.3,66.5,164.8z M341.6,170l1.2,0.2c1.3-2.8,0.6-5.8-0.4-8.8
			C342.1,164.3,341.9,167.1,341.6,170z M87.8,9.4l-0.4-1.3c-0.9-0.2-2.1-0.9-2.6-0.5c-1.3,1-2,2.4-0.9,4.8L87.8,9.4z M28.1,16
			l-0.4,0.6l6.6,3.6l0.4-0.6L28.1,16z M235.1,56c1.2,1.2,1.5,3.9,4.5,2.8C239.8,55.3,237.3,55.9,235.1,56L235.1,56z M305.3,96.9
			c-1.6,6.1-1.6,6.1,1.6,6.2C306.4,100.9,305.9,98.9,305.3,96.9L305.3,96.9z M28.9,69.4c-2.8-2.9-3.4-2.9-6.2,0H28.9z M77.9,21.2
			c1-2.8,1-5.8-0.1-8.5C76.4,16,77.2,18.6,77.9,21.2z M83.3,0C79,3.2,79,3.2,79.9,6.3L83.3,0z M189.3,210.8
			c-1.9,0.9-2.4,2.2-1.5,3.6c0.3,0.5,1.6,0.4,3,0.7C190.2,213.2,189.8,212.1,189.3,210.8L189.3,210.8z M281,303.6
			c-2.5,0.2-5.2,0.1-8.2,2.6L281,303.6z M377,184.6c-0.8,2.5-0.7,3.4,0.8,6.5C377.2,189.1,378.7,186.8,377,184.6L377,184.6z
			 M375.3,271.7l-1.6-0.2c-0.2,1-0.2,2.1-0.3,3.2c0,0.1,1.2,0.2,1.8,0.4L375.3,271.7z M182.6,47.6c2.5-2.5,2.5-2.5,2-5
			C183.8,44.6,183.2,46.1,182.6,47.6z M231.3,64.1c3.2-1.3,3.2-1.3,1.8-4C232.3,61.7,231.8,62.9,231.3,64.1L231.3,64.1z
			 M134.9,125.1c-0.4-2.2-0.4-3.8-2.8-4.8C132.4,122.3,132,124.1,134.9,125.1L134.9,125.1z M268.7,320.5l0.2,1.2
			c2.1,1.3,2.8-1,4.2-1.5c-0.1-0.3-0.2-0.5-0.2-0.8L268.7,320.5z M308.2,146.1H307c0,1.7,0,3.5,0,5.2h1.1L308.2,146.1z M77.8,113.1
			c0.2,1,0.4,2,0.7,3.4C80.7,114.7,80.3,113.7,77.8,113.1L77.8,113.1z M35.1,88.2c0.1-0.3,0.2-0.7,0.3-1l-4-1.1l-0.2,0.9L35.1,88.2z
			 M348.4,139.5l0.9,0.4c0.5-1.8,0.9-3.6,1.4-5.4l-0.6-0.2L348.4,139.5z M130.5,211.2l-0.4-1.4l-4.2,1.5l0.3,1L130.5,211.2z
			 M109.4,224.7c0.6,0.8,1.1,1.7,2,2.9C113,224.9,111.4,224.6,109.4,224.7L109.4,224.7z M364.2,129.1c-1.2,1.3-1.3,2.3-0.2,3.2
			c0.3,0.2,0.9,0,1.9,0C365.2,131,364.8,130.1,364.2,129.1z M77,134.1c3,1.1,3,1.1,4.2-1L77,134.1z M294.5,238
			c0.1,0.3,0.3,0.6,0.4,0.9c1.5-0.1,2.8-0.4,3.2-2.5L294.5,238z M308.8,184l1.2-0.2c0.1-0.5,0.4-1,0.3-1.4s-0.6-0.9-1.4-1.9
			C308.8,182.2,308.8,183.1,308.8,184z M280.1,289.3c-0.6,0-1.2,0.1-1.8,0.3c-0.5,0.4-1,0.9-1.4,1.4
			C278.9,291.7,279.6,291.1,280.1,289.3z M308.6,231.3l0.6,0.3l1-1.8l-0.6-0.3L308.6,231.3z M349.5,289.2c0-0.2,0-0.4-0.1-0.6
			c-0.4,0-0.9,0-1.3,0.1c-0.5,0.2-1,0.4-1.5,0.6l0.2,0.6L349.5,289.2z M355.6,282.7c-0.1-0.3-0.1-0.5-0.2-0.8l-2.8,0.7l0.2,0.7
			L355.6,282.7z M168.8,283.5c-1.1,1.9-0.5,2.7,1.1,4.1C169.4,285.9,169.2,285,168.8,283.5L168.8,283.5z M137.6,61.5l1-0.2
			c-0.1-0.5-0.2-1-0.3-1.5c-0.2,0.1-0.6,0.1-0.7,0.2C137.6,60.6,137.6,61,137.6,61.5z M61.1,104.2l0.3,0.7c0.6-0.2,1.2-0.4,1.8-0.7
			c0-0.2-0.1-0.5-0.2-0.7L61.1,104.2z M92.4,21.9l0.6-0.2l-0.3-1.9l-1,0.2L92.4,21.9z M377.2,197.3h1c0-0.6-0.1-1.1-0.1-1.7h-0.5
			L377.2,197.3z M298.3,116.4l-0.6-0.2c-0.1,0.6-0.2,1.3-0.3,1.9c0.2,0.1,0.4,0.1,0.6,0.2L298.3,116.4z"/>
	</g>
</g>
</svg>
