<?xml version="1.0" encoding="utf-8"?>
<!-- Generator: Adobe Illustrator 22.1.0, SVG Export Plug-In . SVG Version: 6.00 Build 0)  -->
<svg version="1.1" id="Layer_1" xmlns="http://www.w3.org/2000/svg" xmlns:xlink="http://www.w3.org/1999/xlink" x="0px" y="0px"
	 viewBox="0 0 348.3 310.6" style="enable-background:new 0 0 348.3 310.6;" xml:space="preserve">
<style type="text/css">
	.st0{fill:#EC6C64;}
</style>
<title>Asset 24</title>
<g id="Layer_2_1_">
	<g id="GRID">
		<path class="st0" d="M320.1,248.9c0.7,1.2,1.5,2.3,2.4,3.4c2.3,2.4,4.3,5.2,5.7,8.2c1,1.8,2.2,3.6,3.4,5.3
			c1.7,2.3,1.3,7.1-0.7,9.8c-1.4,1.8-2.7,3.8-3.9,5.8c-2.1,3.5-5.4,6.1-9.3,7.2c-1.7,0.6-3.4,1.1-5.1,1.5c-3.9,0.7-7.8,0.3-11.5-1.2
			c-1.7-0.6-3.1-2.1-4.7-3c-3.1-1.7-6.3-3.4-9.4-5c-1.9-1-3.9-2.1-5.8-3.2c-1.2-0.7-2.4-1.6-3.6-2.2c-3.5-1.6-5.2-1.1-7,2.4
			c-0.8,1.7-1.4,3.5-1.7,5.4c-1.2,5.9-2,12-5,17.3c-3.5,6.1-8.8,10-16,10.1c-4.6,0.1-8.4-2.3-11.6-5.8c-4.4-4.9-6.6-10.9-8.2-17
			c-1.9-7.2-3-14.7-4.8-21.9c-2-7.9-4.4-15.7-8.4-22.9c-1-2-1.8-4.1-2.6-6.1c-1.9-4.4-5.5-7.8-10.1-9.2c-3.3-1.2-6.6-1.6-9.7,1.2
			c-2.6,2.3-5.8,3.8-8.5,5.9c-1.6,1.2-3,2.7-4.2,4.3c-2.9,3.4-6.3,6.5-10,8.9c-5.3,3.7-16.6,4.9-22.6,0.4c-2.8-2.1-4.4-5-6.1-7.9
			c-0.8-1.2-1.4-2.6-2.1-3.8c-1.9-3.2-3.1-6.7-3.5-10.4c-0.8-5.2-2.2-10.3-4.2-15.1c-2.1-5.3-4-10.6-6-15.9
			c-0.6-1.4-1.4-2.8-2.2-4.1c-2.8-4.7-4.8-9.9-7.8-14.5c-0.5-1-1.3-1.8-2.1-2.5c-2.4-1.7-3.2-1.4-5.4,0.6c-3.8,3.6-7.2,7.7-10,12.1
			c-4.4,6.8-10.8,10.1-18.5,9.2c-7.3-0.8-14.2-3.3-19.1-9.9c-3.5-4.8-6.2-9.7-7.3-15.6c-1.2-5.9-3.1-11.7-5.8-17.1
			c-1.6-3.6-3-7.3-4.5-10.9c-0.7-1.7-1.3-3.6-3.2-4.6c-0.6-0.5-1-1.2-1-2c-0.2-2.3-1.1-4.6-2.6-6.4c-0.5-0.7-0.9-1.5-1.1-2.3
			c-0.7-4.5-2.1-8.9-4.1-13c-3.7-7.4-6.1-15.3-8.7-23.2C19,82,17.4,73,15,64.2c-0.4-2.1-1.3-4-2.6-5.7c-3.7-4.6-5-9.4-2.8-15
			c0.3-0.7,0.3-1.5,0.2-2.3c-1.1-4.9-2.2-9.8-3.4-14.7c-0.3-1.1-0.8-2.1-1.4-3c-1.5-2.7-3.1-5.4-4.7-8.1C0.2,15.1,0,14.8,0,14.5
			C0,9.6,0.8,4.9,4.3,1.2C6-0.5,8.3,0,10.4,0.4c2.2,0.3,4.3,1.2,6.1,2.6c2.6,2,5.7,3.1,8.4,4.8c8,5.5,16.7,9.7,24.8,14.7
			c7.8,4.9,16.2,8.9,24.3,13.4c4.8,2.6,9.4,5.6,14.3,8c7.7,3.7,15.5,7.3,23.8,9.8c4.2,1.2,8.6,2,12.7,4.2c3.7,2,8,1.6,12.2,0.9
			c2.4-0.4,4.8-0.9,7.2-1.6c2.1-0.6,4.3-1.1,5.9-2.9c0.7-0.6,1.5-1,2.3-1.3c4.4-2,9-3.8,13.7-5.2c3.8-1,7.3-2.9,10.1-5.8
			c2-2.2,4.2-2.7,6.9-1.1c2.2,1.2,4.6,2.2,6.9,3.4c6.8,3.5,10.4,12.3,9.2,19.4c-0.7,3.4-0.8,6.9-0.3,10.3c0.4,2-0.4,4.2-0.2,6.3
			c0.3,2.6,0.7,5.3,1.4,7.8c0.3,1.6,1.8,2.8,3.4,2.7c4.1,0.1,8.2,0.3,12.4,0.2c6.1-0.2,11.7-2.9,17.4-4.6c2.4-0.7,4.9-1.2,7.3-1.9
			c3.1-0.9,6.1-2,9.2-3c4.9-1.5,9.8-2.4,14.8-0.5c9.8,3.8,12.2,8.5,12.3,18.8c0,3.2-1.6,5.7-3.9,7.9s-4.5,4.8-6.8,7.2
			c-1.1,1.3-2.3,2.4-3.8,3.2c-4.7,2.2-5.5,6.3-6,10.8c-0.2,1.3,0.7,2.4,2,2.5c0.1,0,0.1,0,0.2,0c2,0.4,4,0.7,6,0.9
			c4.7,0.2,9.4,0.2,14.1,0.2c8.6-0.1,17.2-0.2,25.8-0.3c4.8-0.1,9.6,1.1,13.8,3.5c1.9,1.1,4.2,1.5,5.8,3.3c2.6,2.9,5.1,5.9,6.6,9.5
			c1.7,4.1,0.3,7.9-1.4,11.6c-1.7,3.8-4.2,7.1-7.5,9.7c-1.6,1.2-3.4,2-5.4,2.6c-4.3,1.4-8.8,2.5-13.1,3.7c-2.9,0.8-4.2,4.6-2.6,7.3
			c1.1,1.6,2.6,2.8,4.4,3.4c2.2,1,4.5,2,6.7,3c3.3,1.6,6.6,3.2,9.9,4.8c0.1,0.1,0.2,0.1,0.3,0.1c6.8,0.5,12.1,4.7,18.2,7.1
			c1.1,0.5,2,1.3,2.7,2.3c4.3,6.4,6.7,13.4,5.5,21.2c-1.2,8-3.9,15-12,19C331.1,246.8,326.4,249.1,320.1,248.9z M44.3,58.6
			c0.7,1,1.3,1.9,2.1,2.9c1.9,2.5,3.9,4.9,5.8,7.3c1,1.4,2.1,2.6,3.3,3.8c7.9,7.2,15.6,14.7,23.9,21.5S95.5,108,103.4,115
			c6.6,5.9,13.8,11,22.5,13.4c3.1,0.8,6.1,2.1,8.7,3.9c1.2,0.7,2.4,1.2,3.6,1.7c2.5,1.2,5.1,2.4,7.5,3.7c3.7,2,7,4.7,11.2,6
			c4.8,1.5,9.5,3.6,13.9,6.1c1.6,0.8,3.2,1.4,4.9,2c2.6,1.1,5.1,2.2,7.6,3.2c1.2,0.5,2.7,0.6,3.7,1.4c5.1,3.8,10.5,7.1,15.2,11.5
			c4,3.8,8.5,7.1,12.8,10.6c3.1,2.5,6.3,5,9.3,7.6c5.3,4.6,10.5,9.3,15.7,13.9c2.8,2.4,6,4.4,8.2,7.3c2.9,3.9,6.6,6.5,10.7,8.9
			c1.5,1.1,3.4,1.2,5,0.2c-1.2-2.3-2.5-4.5-4-6.5c-2.4-2.8-4.9-5.5-7.7-7.9c-3.8-3.5-7.8-6.6-11.6-10.1s-8.3-6.1-10.9-10.8
			c-0.6-1.1-1.9-1.8-3-2.6c-3-2.2-6.5-4.1-9.1-6.7c-6.8-6.6-14.8-11.7-22.1-17.6c-4.2-3.4-8.8-6.5-13.1-9.7
			c-6.7-4.9-13.2-10-20.5-13.9c-0.4-0.2-0.7-0.5-1.1-0.7c-2.9-1.5-5.7-2.9-8.6-4.4c-1.2-0.6-2.4-1.1-3.6-1.8
			c-4.6-2.7-9-5.7-13.8-8.2c-6.9-3.6-13.6-7.7-21-10.3c-0.8-0.4-1.6-0.8-2.2-1.4c-2.3-1.7-4.6-3.6-6.9-5.2
			c-3.7-2.5-7.5-4.8-11.2-7.3c-6-3.9-11.8-8.1-18-11.7c-6.4-3.7-12.4-7.9-18-12.7C53.6,63.4,49.2,60.6,44.3,58.6z M138,206
			c1.4-2.1,0.9-2.8-1.1-3.3C137.3,203.8,137.6,204.6,138,206z M294.2,137c-0.8-0.9-0.8-0.9-2.3-0.4L294.2,137z M204.9,157.6
			c0.2-0.2,0.5-0.4,0.6-0.6c0-0.1-0.2-0.4-0.3-0.4c-0.3,0-0.6,0.1-0.8,0.2L204.9,157.6z"/>
	</g>
</g>
</svg>
