<?xml version="1.0" encoding="utf-8"?>
<!-- Generator: Adobe Illustrator 22.1.0, SVG Export Plug-In . SVG Version: 6.00 Build 0)  -->
<svg version="1.1" id="Layer_1" xmlns="http://www.w3.org/2000/svg" xmlns:xlink="http://www.w3.org/1999/xlink" x="0px" y="0px"
	 viewBox="0 0 333.4 279.2" style="enable-background:new 0 0 333.4 279.2;" xml:space="preserve">
<style type="text/css">
	.st0{fill:#EC6C64;}
</style>
<title>Asset 25</title>
<g id="Layer_2_1_">
	<g id="GRID">
		<path class="st0" d="M148.4,168.7c-0.6-1.7,0.5-2.2,1.8-2.3c4.3-0.4,8.6-0.8,12.8-0.8c4.3-0.1,8.6,0.2,12.9,0.6
			c3.1,0.4,6.1,1.1,9,2.1c7.3,2.7,14.8,4.9,22.5,6.7c3.8,1,7.4,2.4,10.9,4.3c5.8,3,12,5.1,18,7.6c4.1,1.8,8.3,3.6,12.4,5.4
			c0.6,0.3,1.3,0.6,2,0.7c2,0.3,3.9,1,5.5,2.2c0.8,0.4,1.6,0.7,2.5,0.9c-0.4-0.8-0.8-1.5-1.3-2.2c-4.2-5.2-8.5-10.4-12.8-15.6
			c-2.5-3-5.1-5.9-7.6-8.9c-3-3.5-5.9-7.1-8.9-10.6c-1.9-2.3-4-4.5-6.1-6.6c-2.7-2.8-5.4-5.7-8.1-8.4c-6.8-6.7-13.8-13.2-21.7-18.4
			c-5.9-3.9-11.7-8.1-17.6-12.1c-3.5-2.4-6.9-4.8-10.5-7c-3.1-1.9-6.4-3.3-9.4-5.2c-2.5-1.5-4.7-3.3-7.1-5c-0.5-0.4-0.9-0.7-1.4-1.1
			c-1.4-0.8-2.8-1.5-3.6-3.1c-0.2-0.4-0.8-0.5-1.2-0.8c-0.4,0.2-0.7,0.4-1.1,0.7c-4.3,4.1-9.5,4.2-14.9,3.2c-4.4-0.8-8.8-2.2-12.9-4
			c-0.4-0.1-0.7-0.2-1.1-0.2c0,0.7,0,1.3,0,2c0.9,7.2,2.3,14.4,4.3,21.4c1.2,4.1,4,7.5,7.8,9.4c1,0.5,2,0.8,3,1.4
			c0.8,0.6,1.6,1.3,2.4,2c-1.2,0.4-1.8,0.8-2.4,0.7c-6.2-1-12.5-1.9-18.6-3.4c-3.1-0.8-6-2.6-9-4.1c-4.6-2.3-8.5-5.7-11.6-9.9
			c-2.9-3.9-5.7-8-5.5-13.3c0-0.9-0.7-1.8-0.9-2.8c-1.6-5.5-2.7-11.1-3.2-16.8c-0.2-1.2-0.4-2.3-0.7-3.4c-0.7,1.2-1.2,1.8-1.6,2.4
			c-2.7,5.2-3.1,10.9-3.2,16.7c-0.3,10.4,1.7,20.5,4.3,30.5c1.2,4.6,2.8,9.2,3.9,13.8c0.7,3.4,1.2,6.9,1.4,10.4
			c0.2,3.8,0.1,7.6,0.1,11.2c-0.9,0.6-2,0.4-2.7-0.3c-5.6-4.1-10.3-9.2-14.1-15c-1.3-1.9-2.7-3.7-4.1-5.6c-2.8-3.7-5.9-7.4-8.6-11.2
			c-3-4.4-5.1-9.4-6.1-14.6c-0.8-3-1.3-6-1.6-9.1c0-3.1,0.7-6.1,2-8.9c1.1-2.6,3-4.9,4.5-7.4c0.5-0.8,1.1-1.7,1.7-2.5
			c0.2-0.2,0.2-0.7,0.4-0.8c3.1-1.5,4-5.1,7-6.9s5.4-4,8.3-6.2c-0.4-0.3-0.8-0.6-1.3-0.8c-15-3.6-30.1-5.9-45.5-3.3
			c-2.9,0.6-5.8,1.5-8.6,2.6c-0.9,0.4-1.7,1-2.4,1.7c0.9,2.2,1.8,4.2,2.7,6.3c-3,1.4-5.9,2.8-9.2,1.9c-0.9-0.2-1.7-0.5-2.5-0.9
			c-1.5-0.8-2-2.6-1.3-4c0.1-0.3,0.3-0.5,0.5-0.7c0.8-0.9,1.7-1.7,2.6-2.4c1.2-0.7,2.5-1.2,3.8-1.5c1.1-0.4,2.5-0.2,3.4-0.8
			c4.8-3,10.1-3.6,15.5-4.3c8.6-1.1,17.2-0.5,25.7,0.7c0.9,0.2,1.9,0.1,2.8-0.2c-2-1.3-3.9-2.5-5.8-3.8c-3.2-2.1-6.5-4-9.4-6.5
			c-3.8-3.3-7.3-6.8-10.6-10.6c-2.7-3-5.1-6.4-7.6-9.7c-1.3-1.6-2.9-2.8-4.9-3.5l-2.4-5.2c1-2.2,3.6-3.4,5.9-2.6
			c2.2,0.7,4.1,2.3,5.2,4.4c0.7,1.2,0.5,2.6-0.4,3.6c-0.6,0.7-1.3,1.4-2,2c4.7,7.8,11.1,14.3,18,20.1c8,6.8,17.2,11.4,27.8,14.8
			c-0.7-2.5-1.1-4.3-1.6-6.1c-2.7-9.2-3.7-18.4-2.1-27.9c0.6-4.5,1.9-8.8,3.9-12.8c1.4-2.7,3.3-5,5.6-6.9c2.1-1.8,4.5-3.3,7.1-4.3
			c3.7-1.3,7.1-3.6,10.8-5.3C93.9,4,95.7,3.4,97.6,3c4.7-1,9.4-2,14.1-2.9c1.2-0.2,2.4-0.2,3.6-0.1c0.9,0.3,1.8,0.8,2.7,1.3
			c-0.6,0.6-0.9,1-1.2,1.1c-1.8,0.7-2.3,2.1-1.9,3.9c1.2,5.7,0.6,11.6,0.4,17.3c0,1.1-1,2.2-1.3,3.3c-1,4.4-4.1,7.8-6.3,11.5
			c-1.3,2.2-3.6,3.8-5.3,5.7s-3.7,4.1-5.9,6.5c2.2,0.2,3.1-0.9,4.3-1.7c4.7-3.1,9.2-6.8,15-7.9c14.4-2.9,27.2,0.5,38,10.6
			c1.3,1.4,2.6,2.9,3.7,4.5c-0.6,1.1-1,1.5-2.1,1c-3.1-1.6-7-0.9-9.3,1.8c-1.9,1.8-3.7,3.7-5.4,5.6c-3,3.1-6.7,5.4-10.9,6.6
			c-3.4,1.1-6.9,1.9-10.7,2.9c0.6,0.5,1.2,0.9,1.9,1.2c2.3,0.6,4.7,0.9,7.1,1.1c6.2,0.1,10.6,2.7,12.7,8.5c0.4,1.3,1.4,2.2,2.7,2.6
			c1.6,0.5,3.2,1.2,4.7,2c5.5,3.1,11,6.2,16.5,9.3c2.4,1.3,4.8,2.5,7,4c6,4.2,11.9,8.5,17.8,12.9c1.5,1.2,2.9,2.5,4.2,3.9
			c2.7,2.4,5.3,4.9,8,7.3c3.7,3.3,7.4,6.5,11,9.9c2.1,2,3.8,4.4,6,6.2c3.9,3.2,7.4,6.9,10.3,11c2,2.5,4.3,4.8,6.8,6.8
			c4.7,3.8,9,8,12.9,12.5c0.3,0.4,0.7,0.6,1.5,1.4c-0.2-1.2-0.3-1.8-0.5-2.3c-1.9-5.4-3.8-10.8-5.6-16.2
			c-3.8-11.9-7.9-23.7-10.9-35.9c-2.9-11.7-4.2-23.6-5.6-35.5c-1.2-10.2-0.5-20.4-0.9-30.6c-0.1-2.5,0.1-2.6,1.4-3.9
			c2,1.2,3.4,3,4.1,5.2c2,5.1,4.5,10.1,6.5,15.2c2.6,6.7,5,13.4,7.2,20.1c2.6,8,5.2,16,7.5,24.1c3.2,11.3,5,22.9,7.1,34.4
			c2.1,12.1,5.3,24.1,9.3,35.7c2.5,7,6,13.6,10.3,19.6c3.1,4.5,6.4,8.7,11.2,11.6c1.3,0.8,2.4,1.8,3.4,3c0.7,0.8,1,1.9,1,2.9
			c-0.1,1.1,0.4,2.2,1.2,2.9c5.8,6.6,10.3,14.1,14.9,21.5c2.6,4.2,5,8.7,7.9,12.8c3.7,5.1,7.8,9.9,11.7,14.9
			c0.6,0.8,1.2,1.6,1.8,2.4c0.6,0.6,0.6,1.6,0,2.1c-0.2,0.2-0.4,0.3-0.6,0.4c-1.7,0-1.8-3.3-3.9-2.2c-0.5-1.3-1.2-2.6-1.9-3.8
			c-3.2-4.2-6.5-8.4-10-12.4c-5.5-6.3-11.3-12.3-16.8-18.5c-5.4-6.2-11.5-11.8-18.2-16.5c-3.6-2.5-6.9-5.5-10.5-8
			c-7-4.8-14.1-9.6-21.8-13.3c-5.9-2.8-11.5-6.1-17.3-9c-1.9-0.7-3.7-1.4-5.7-1.9c-5.1-1.9-10.1-4-15.1-5.7
			c-6.4-2.2-13-4.2-19.5-6.2c-7.8-2.4-15.5-4.7-23.3-7c-0.3-0.1-0.6-0.2-0.9-0.3c-3.5-0.5-6.8-1.5-9.9-3.1
			C154.7,170.2,151.4,169.6,148.4,168.7z M244,112.7c0.4-2.4,0.2-3.7-1.4-5.6c0.6,2.3,1.1,4,1.6,5.6l0.3,2l0.7-0.3L244,112.7z
			 M250.6,113.1c-0.9,2,0.1,3.6,1,5.2c0-1.8,0.1-3.7-1.1-5.2c-0.2-1.1-0.5-2.2-0.7-3.2l-0.8,0.3L250.6,113.1z M18.7,25.7
			c-0.7-0.5-1.4-1.2-2.1,0.5L18.7,25.7l3.7,3.7C22.4,26.3,21.2,25.3,18.7,25.7z M258.7,153.5c0.1-0.9,0.1-1.7,0.1-2.6
			c-0.3-2.3-0.8-4.5-1.2-6.7l-1.3-5.1c-0.4,3.3-0.2,3.9,1.4,5.1c-0.3,0.4-0.8,0.8-0.8,1.1C257.2,148.1,257.2,151,258.7,153.5
			c-0.6,1.3,0.2,2.3,0.8,3.4C259.6,155.6,259.8,154.4,258.7,153.5L258.7,153.5z M164.1,167.4c1.1,1.7,2.8,1.4,4.5,1.2
			c3.6,0.6,7.2,2.9,10.9,0.3c-3.2-0.5-6.5-0.8-9.8-0.9c-0.4,0-0.8,0.4-1.2,0.7L164.1,167.4l-6.6,0.8
			C161.6,170.6,162.8,170.3,164.1,167.4L164.1,167.4z M243.2,192.6c-2.1-1.9-7.1-4-9.9-3.9L243.2,192.6l12,6.6
			c-0.2-0.5-0.5-0.9-0.8-1.3c-3.1-2.7-7.1-3.9-10.8-5.6C243.5,192.2,243.3,192.5,243.2,192.6L243.2,192.6z M69.7,96.7
			c-1.6,5-1.4,9.8,1.8,14.2c0.2-0.4,0.3-0.9,0.2-1.4c-0.5-3.9-0.9-7.7-1.4-11.6C70.1,97.5,69.9,97,69.7,96.7c1-0.9,0.4-2,0.5-3.1
			h-0.6L69.7,96.7z M161.4,102.2c0.6,0.5,1.2,1,1.8,1.5c3.6,2.3,7.1,4.5,10.7,6.7c4.7,3,9.5,5.9,13.8,9.5c1.7,1.3,3.5,2.4,5.4,3.4
			C188.7,116.8,167.5,102.7,161.4,102.2z M236.7,124.6c0.1-0.2,0.2-0.5,0.2-0.7c-1.6-8.5-3.1-16.9-4.7-25.4c0-0.2-0.3-0.4-0.8-1.2
			C231.7,107.1,234.1,115.9,236.7,124.6z M102.5,54.6c3.1-0.1,6-0.2,8.9-0.4s5.8-0.3,8.7-0.5s5.6-0.4,8.4-0.6
			c-0.3-0.5-0.5-0.7-0.8-0.7c-5.9,0.2-11.8,0.4-17.6,0.8C107.5,53.4,104.9,53.2,102.5,54.6L102.5,54.6z M99.7,99.3
			c-7.1-8.7-14.1-15.2-15.8-15.7c0.2,0.6,0.2,1.2,0.5,1.4C89.5,89.8,94.6,94.6,99.7,99.3z M124.7,70.1c-6.2-1.1-12.2,0.3-18.2,1.2
			C112.6,71.8,118.8,71.4,124.7,70.1L124.7,70.1z M54.6,85.6c-1.9,1.1-3.4,2.9-4.1,5c-0.7,1.9-2.8,3-2.7,5.5l3.2-1.5l-0.8-2.2
			C53.6,91.4,54.1,89,54.6,85.6z M233,67.8l-0.6,0.1c-0.1,0.6-0.1,1.2,0,1.9c0.8,3.6,1.6,7.1,2.5,10.7c0.1,0.3,0.6,0.5,0.9,0.8
			l0.6-0.3C236,76.4,233.9,72.3,233,67.8z M212.4,186.3l0.2-0.6c-3.6-2.1-7.4-3.5-11.4-4.4l-0.2,0.6L212.4,186.3z M296.6,228.4
			l-0.7,0.5l7,9.6l0.7-0.5C301,235,299.5,231.2,296.6,228.4L296.6,228.4z M137,62.3l0.1,0.5c-0.8,1.2-1.6,2.4-2.5,3.6
			c2.6-0.2,4.8-2.2,5.3-4.8L137,62.3z M272.5,207.5l-0.4,0.4c1.5,2.8,3.9,4.7,6.3,6.7l0.5-0.5C276.7,211.9,274.6,209.7,272.5,207.5z
			 M68.6,144.9c1.2,2.8,2.9,4.4,4.9,6.4C73,147.6,72.7,147.2,68.6,144.9z M78.6,141.6c0.1,2.2-1.1,4.6,0.8,6.7
			C79.4,146,79.7,143.7,78.6,141.6z M62,87.2c1.1-1.5,2.1-2.5,1.3-3.9c-0.2-0.3-1.1-0.1-1.4-0.2C62,84.5,62,85.6,62,87.2z
			 M48.2,113.1c-0.7,1.7-0.1,3.3,1.7,5.2C50.4,116.1,48.9,114.8,48.2,113.1z M131.3,79.5c0.8,0.4,1.6,0.8,2.3,1.2s1.4,1.2,2.5,1
			C135,79.6,133.2,79.5,131.3,79.5z M229,61.1c2.1-2.1,2-3-0.2-4.8C228.9,58,228.9,59.4,229,61.1z M68.6,27.8l0.6,0.3
			c2.1-1.9,2.1-1.9,1.2-4.8L68.6,27.8z M119,123.8l-2.8-3.2C115.7,123.6,115.8,123.7,119,123.8L119,123.8z M244.9,173.4l0.6-0.6
			l-3.9-3.9l-0.5,0.5L244.9,173.4z M97.9,58.9c-1.4-0.8-3-0.9-4.4-0.4l0.1,0.7L97.9,58.9z M85.6,102.1c0,1.9,0,1.9,1.3,2.7
			L85.6,102.1z M104.5,113.5l0.3-0.3l-2.5-2.7l-0.4,0.3L104.5,113.5z M117.7,57.9v0.5l2.8-0.1v-0.4L117.7,57.9z M81.4,62.4
			c1.6-0.6,1.6-0.6,2.2-2.4C83,60.9,81.4,60.8,81.4,62.4z M91.8,62c-1.9-0.1-1.9-0.1-2.6,1.6L91.8,62z M96,90.8l0.4-0.4l-1.3-0.7
			l-0.2,0.3L96,90.8z M250.6,201.3l-0.2,0.4l1.7,1l0.2-0.4L250.6,201.3z M9.3,74.2l0.3-0.3l-1-1.1l-0.4,0.3L9.3,74.2z M96.6,31.4
			c-0.5-1-0.7-1.3-0.8-1.6c-0.2,0.1-0.6,0.2-0.6,0.4c0,0.3,0,0.5,0.2,0.8C95.5,31.1,95.9,31.1,96.6,31.4z M88.7,9.5l0.2,0.4l1-0.6
			L89.7,9L88.7,9.5z M121.8,48.5l0.1-0.5l-1.7-0.2l-0.1,0.5L121.8,48.5z M138.1,90.3l0.4-0.6L137,89l-0.3,0.5L138.1,90.3z"/>
	</g>
</g>
</svg>
