<?xml version="1.0" encoding="utf-8"?>
<!-- Generator: Adobe Illustrator 22.1.0, SVG Export Plug-In . SVG Version: 6.00 Build 0)  -->
<svg version="1.1" id="Layer_1" xmlns="http://www.w3.org/2000/svg" xmlns:xlink="http://www.w3.org/1999/xlink" x="0px" y="0px"
	 viewBox="0 0 358.8 335.9" style="enable-background:new 0 0 358.8 335.9;" xml:space="preserve">
<style type="text/css">
	.st0{fill:#EC6C64;}
</style>
<title>Asset 7</title>
<g id="Layer_2_1_">
	<g id="GRID">
		<path class="st0" d="M266.5,106.8c-1.9,4.1-4.3,8-7.3,11.4c-3.8,4.7-7.3,9.5-11.1,14.1c-2.4,3-5.5,5.4-8.4,8c-1.2,1-2.5,0.5-3-1
			c-0.3-0.7-0.4-1.4-0.3-2.1c0.3-1.9,1.1-3.8-1.4-5.2c-0.5-0.3-0.2-2.7,0.3-3.9c1-2,2.2-3.9,3.5-5.7c1.4-2.2,2.9-4.4,4.8-7.3
			c-4.3,0.5-7.2,2.6-10.5,3.4c-3.5,0.9-7.1,2.3-10.6,2.4s-6.2,3.6-9.9,2.6l-2.8-6c0.3-1.3,1.5-2.2,2.8-2.2c2-0.2,3.3-1.4,4.8-2.7
			c4.2-3.9,9.3-6.9,14.8-8.6c5-1.5,9.8-3.2,14.7-4.9c0.9-0.3,1.7-0.7,2.4-1.3c4.9-3.8,9.8-7.6,14.6-11.4c0.5-0.4,0.9-1.1,1.4-1.6
			c1.6-1.5,3.2-3,4.8-4.5c1-1,2-2.1,3-3.2l-0.5-0.6c-2.2,1-4.5,1.8-6.6,2.9c-5.8,3-12.1,3.7-18.5,3.6c-3.4,0-6.5-1.6-8.4-4.4
			c1.6-1.5,3.1-3,4.7-4.2c6.4-4.6,13.2-8.5,20.4-11.8c2.7-1.2,5-3,7.6-4.4c10.3-5.2,21.3-8.8,32.4-12c2-0.5,3.9-1.7,5.2-3.3
			c8.7-10.3,17.3-20.7,26-31c0.4-0.6,0.7-1.3,0.9-1.9c-0.9,0-1.8,0.2-2.6,0.4c-2.8,1-5.4,2.2-8,3.7c-5.9,3.8-12.3,5.8-19,7.2
			c-6.1,1.3-12.2,2.6-18.3,3.8c-5.8,1.1-11.5,2.2-17.3,3.3c-9.5,1.7-18.8,4.3-27.9,7.7c-5.5,2-11.1,3.8-16.7,5.6
			c-8.1,2.6-16,5.5-22.1,11.8c-0.5,0.5-1,1-1.6,1.3c-8.4,3.9-15.5,9.6-22.8,15.3c-6.5,5.2-12.5,11.1-17.7,17.6
			c-3.1,3.8-5.9,7.9-9.2,11.6c-2.4,2.7-4.6,5.6-6.6,8.7c-1.9,3.1-4.5,5.7-6.6,8.6c-3.2,4.2-6.3,8.5-9.4,12.8c-1.2,1.9-2.6,3.6-4,5.3
			c-4.3,4.5-8.2,9.3-11.8,14.4c-2.9,4.1-6.6,7.7-9.5,11.8c-4.4,6.2-8.5,12.6-12.7,19c-1.7,2.5-3.3,5.1-4.9,7.7
			c-0.9,1.4-1.6,2.8-2.3,4.4c-1,2.2-0.6,3.8,1.2,5.4c0.9,0.8,1.9,1.4,2.7,2.2c3.5,3.7,3.9,9.1,1,12.8c-1.6,2-3,2.2-5.1,0.8
			c-2.5-1.4-4.1-4-4.3-6.9c-0.1-1-0.6-2-1.3-2.7c-0.9,1.2-1.6,2.4-2.4,3.7c-1.5,2.7-2.8,5.4-4,8.3c-1.5,3.8-2.6,7.7-4.1,11.5
			c-1.8,4.7-3.1,9.5-4.1,14.5c-0.7,3-2.8,5.6-4.3,8.4c-2.8,5.3-5.7,10.5-8.5,15.8c-0.3,0.6-0.5,1.3-0.4,2c0.5,5,1.1,10,1.8,15
			c0.5,3.7,1.4,7.4,5,9.8l-3.6,5.3c-1.5,0.2-3-0.6-2.5-2c0.8-2.5-0.1-4.7-0.6-6.9c-0.8-3.8-1.8-7.5-1.6-11.5c0-1.1-0.5-2.2-0.9-4
			c-0.6,0.8-1.2,1.6-1.7,2.5c-4.9,13.8-12.3,26.3-20.1,38.6c-1.5,2.2-2.6,4.7-3.2,7.3c-0.6,3.9-3.5,6.6-6.2,9.2
			c-0.2,0.2-0.4,0.4-0.6,0.3c-3-0.5-4.3,1.8-6,3.5c-1.9,1.8-3.3,1.5-4-1c-0.9-3.8,0.2-7.3,2.3-10.4c2.5-3.7,5.4-7.1,9.8-8.8
			c1.4-0.4,2.4-1.7,2.3-3.2c-0.4-3.5,1.6-5.9,3.4-8.2c6.6-8.9,4.4-5.8,7.4-17.3c-7.8,3.5-14,8.8-21,12.6c0.8,4.3,0,5.7-3.8,6.7
			c-1.5,0.5-3,0.7-4.5,0.6c-1.6-0.1-3.2-0.8-3.6-2.8c-0.3-1.7,0.3-3,2.1-4c0.1-0.1,0.2-0.1,0.3-0.1c5.6-1.7,9.9-5.6,15-8.3
			c5.4-2.9,10.4-6.3,15.6-9.4c1.7-1,3-2.6,3.7-4.5c1.2-3.1,2.7-6,4.4-8.8c2.5-4.1,4.5-8.5,5.9-13.1c2.8-7.8,6-15.5,9-23.2
			c0.8-2.2,1.5-4.4,2.5-7.3c-2.5,0.3-5,0.8-7.5,1.4c-2.3,0.7-4.2-0.4-6.1-1.1c-1-0.3-1.6-1.4-1.2-2.4c0.1-0.3,0.3-0.6,0.5-0.8
			c1-0.9,2.2-1.7,3.4-2.2c2-1,4.2-1.7,6-2.9c3-2.1,6.7-3.1,10.3-2.9c0.9-2,2.1-4.2,2.9-6.5c2.5-7.1,6.6-13.4,10.3-20
			c2.2-4,4.3-8,6.6-12c0.9-1.6,2-3.2,3.1-4.6c4-5.5,7.7-11.2,11.1-17.1c2.3-3.5,5-6.8,8-9.8c3.2-3.2,6.2-6.7,8.8-10.5
			c1.3-1.9,2.9-3.6,4.8-5.8c-3,0.4-5.2,0.8-7.5,0.9c-0.9,0.1-1.8,0-2.7-0.4c-2.2-1.2-2.3-4,0-4.9c2.4-1.2,5-1.9,7.7-2.3
			c5.5-0.6,9.6-2.5,13.2-7.2c7.5-9.7,16-18.7,24-28c2.9-3.4,5.8-6.7,8.6-10.2c1.4-1.7,2.5-3.6,4.1-5.9c-0.9-0.1-1.8-0.1-2.7,0
			c-1.6,0.2-3.3,0.5-4.9,0.9c-6.9,1.5-13.9,2.2-21,2.1c-4.4,0-8.1,2-12.1,3.2c-2,0.6-4,1.4-6,2.1c-2.2,0.8-4.6,1.1-5.7,3.6
			c-0.2,0.4-0.6,0.8-1,1c-2.5,0.9-3.8,2.9-5.4,4.8c-1.1,1-2.4,1.7-3.9,2c-1.6,0.4-3.4,0.4-4.4-1.3c-0.8-1.9-0.5-4.1,0.9-5.6
			c1.8-1.8,3.8-3.5,6.5-4c2.8-0.5,5.5-1.3,8.2-2.2c4.4-1.5,8.8-3.1,13.2-5.1c-3-1.2-5.5-3.5-9.2-3.1c-1.9,0.2-3.9-0.6-5.8-1.2
			c-1.1-0.3-1.7-1.5-1.4-2.6c0-0.1,0.1-0.2,0.1-0.3c0.4-1.2,1.3-1.5,2.5-1.3c4,0.6,8.2,0.7,11.6,3.4c0.7,0.5,1.5,0.8,2.3,0.9
			c8.6,1,17.3,2,26,0.3c5.2-1,10.4-1.9,15.6-2.9c1.1-0.3,2.1-0.8,3.1-1.5c7.8-4.5,14.6-10.5,22.1-15.7c2.7-1.9,5.4-3.7,8.2-5.4
			c5.5-3.4,11.8-3.7,17.9-5c1.7-0.3,3.5-0.7,5.1-1.2c9.9-2.9,19.9-5.9,29.8-8.8c6.2-1.8,12.4-3.6,18.7-5.2c9.2-2.4,18.4-4.9,27.7-7
			s18.3-5.2,27.4-8.1c2.8-0.9,5.7-1.4,8.5-2.3c2.3-0.7,4.9-0.6,6.6-2.8c0.5-0.5,1.2-0.7,1.9-0.6c2.5,1.3,4.8-0.1,7.2-0.2
			c1.5,0,3.2-0.3,3.9,1.5c0.5,1.3-0.8,2.8-2.9,3.3c-3.1,0.8-6.2,1.4-9.3,2.1c-1.9,0.3-3.5,1.6-4.2,3.4l4.7,1.3c-2.6,2-4.3,3.9-6.4,5
			c-5.9,3.1-9.4,7.9-11.1,14.2c-1,3.6-2.5,7.1-6.4,9c1,2.3,0.2,4.2-0.6,6.4c-2.5,6.2-4.7,12.5-6.5,19c-1.9,7.3-5.5,13.9-10.7,19.4
			c-4.3,4.8-8.6,9.6-12.9,14.4c-0.7,1-1.8,1.5-3,1.4c-1.3-0.2-2-1.2-1.5-2.3c3-6.4,3.6-13.5,5.8-20.1c2-6.3,4-12.7,6-19.1
			c0.1-0.5,0.2-1,0.2-1.5c-0.6,0.3-1.2,0.6-1.8,1c-3.9,3.2-7.9,6.3-11.7,9.6c-1.2,1-2.1,2.2-2.7,3.6c-1.6,3.7-3.9,7-6.7,9.8
			c-2,2.1-2.8,4.3-1.7,7.3c1.5,3.9,1,7.9-0.1,11.8c-1.2,3.6-1.1,7.4,0.4,10.9c2.3,5.3,1.6,10.9-0.2,16.2c-1.6,4.3-3.4,8.5-5.4,12.6
			c-0.4,0.9-1.5,1.6-2.3,2.4c-0.9-1-2.5-1.8-2.7-2.9c-0.6-2.7-0.9-5.5-0.7-8.3c0.3-4.2,1.2-8.3,1.7-12.5c0.4-3.6,0.6-7.2,0.8-10.9
			C266.7,107.9,266.6,107.3,266.5,106.8z M142.6,105.2c-0.6,0.5-1.2,1-1.8,1.4l0.5,0.5l1.3-2c0.9-0.4,1.5-1.1,0.9-2.3
			C143.1,103.6,142.9,104.4,142.6,105.2L142.6,105.2z M294.8,85.9c-0.7,2-1.9,3.8-1.3,6.5l3.3-3.3l-2.1-3.2c0.5-0.4,1.2-0.7,1.5-1.2
			c1.1-2.9,2.2-5.9,3.1-8.9c0.2-1.2,0.3-2.4,0.2-3.6l-0.8-0.1C296.5,76.3,295.8,81.2,294.8,85.9z M272.2,124.9
			c-1.5,2.6-3,5.2-4.4,7.9c-0.9,1.6-1.5,3.3-0.3,5.8c2.5-4.2,4.4-8.2,5.2-12.6c0.1-0.4-0.4-0.8-0.6-1.2c0.5-0.4,1.4-0.8,1.4-1.2
			c0.2-3.1,0.4-6.3,0.4-9.4c0-0.8-0.7-1.6-1.3-2.7c-0.8,1-1.3,2-2,2.3c-2.3,0.8-2.1,2.5-2,4.2c3.5,1,3.5,1,3.5,4.8
			C272.2,123.4,272.2,124.1,272.2,124.9L272.2,124.9z M291,54.7c-6.4,1-19.8,7-24,10.7C274.6,61.7,283,59.4,291,54.7z M194,54.5
			l-1-1.2c-5.2,4.4-11.3,7.7-15.1,13.8C183,62.7,189.5,59.9,194,54.5L194,54.5z M129.6,126.2l-0.6-0.5l-7.6,7.2
			c-2.4,2.3-4.6,4.8-4.7,8.6L129.6,126.2z M316.8,14.5l-27.4,6.7C298.6,19.2,308.1,18.3,316.8,14.5z M312.3,47.2l-5.2,10l0.6,0.4
			c1.9-2.3,3.9-4.6,5.7-6.9C314.4,49.5,313.9,48.5,312.3,47.2L312.3,47.2z M262.7,106.1c-4.7,5-6,7.3-5.8,10.1
			C259.5,113,261.8,109.9,262.7,106.1z M67.5,217.2c-2.3,2.5-5,8.5-4.9,11C64.7,224.7,67.1,221.7,67.5,217.2z M319.7,37.2
			c-2.7,2-2,4.9-2.3,7.6C320.3,42.9,318.7,39.6,319.7,37.2z M301.8,80.2c-2.4,4.5-2.4,4.5-2,6.2l3.3-4.1L301.8,80.2z M42.5,272.9
			c3-1.1,3.1-3.6,2.9-6.2L42.5,272.9z M218.2,40.5l-0.1-0.3l-10.3,2.5l0.1,0.3L218.2,40.5z M256.8,69.8c2.3,0.2,4.4-0.3,5.3-2.8
			L256.8,69.8z M249.9,112.2c-1.9,1.2-3.2,3.1-3.8,5.2C248.8,115.6,248.8,115.6,249.9,112.2z M243.1,132.9c-2.1-0.9-2.1-0.9-2.9,1.8
			L243.1,132.9z M84.7,201.1l1,4.1C86.5,202.9,86.5,202.9,84.7,201.1z M271.2,100.4c1.5-1.7,1.5-1.7,1-3.3
			C271.9,98.4,271.5,99.4,271.2,100.4z M267.8,99.1l0.7,0.3c0.3-1.1,0.6-2.2,0.9-3.3l-0.7-0.2L267.8,99.1z M94.5,169.2l0.7,0.4
			l1.4-2.3l-0.2-0.1L94.5,169.2z M301.7,64.2l-0.4-0.2l-0.7,1.5l0.5,0.2C301.3,65.2,301.5,64.7,301.7,64.2z M106.1,154l-0.7-0.4
			l-0.9,1.7l0.4,0.2L106.1,154z"/>
	</g>
</g>
</svg>
