<?xml version="1.0" encoding="utf-8"?>
<!-- Generator: Adobe Illustrator 22.1.0, SVG Export Plug-In . SVG Version: 6.00 Build 0)  -->
<svg version="1.1" id="Layer_1" xmlns="http://www.w3.org/2000/svg" xmlns:xlink="http://www.w3.org/1999/xlink" x="0px" y="0px"
	 viewBox="0 0 276.5 278" style="enable-background:new 0 0 276.5 278;" xml:space="preserve">
<style type="text/css">
	.st0{fill:#EC6C64;}
</style>
<title>Asset 12</title>
<g id="Layer_2_1_">
	<g id="GRID">
		<path class="st0" d="M68.2,220.4c-4.8,4.2-9,8.4-12.4,14.1c1,0.1,2.1,0.2,3.1,0.2c8-0.6,15.9,0.4,23.9,1.7
			c10.5,1.6,20.7,4.6,31.1,6.6c5,1,10,1.9,14.9,2.9c1.8,0.4,3.5,0.9,5.2,1.5c4.5,1.5,9,3.1,13.4,4.7c0.4,0.1,0.9,0.3,1.3,0.5
			c3.4,1.9,4.8,5.5,6.8,8.7c1.4,2.4,0.6,5.1,0,7.6c-0.8,3.2-3.7,4.2-6.3,5.1c-4.5,1.5-9.1,2.7-13.8,3.5c-4.2,0.6-8.5,0.3-12.7,0.4
			c-2-0.1-4.1-0.1-6.1,0.1c-2.5,0.3-5,0.1-7.4-0.5c-2.3-0.5-4.6-0.7-7-0.8c-8.2-0.2-16.4-1.4-24.3-3.4c-2.1-0.5-4.2-0.7-6.4-0.5
			c-6,0.3-11.9,0.8-17.8,1.3c-2.9,0.2-5.8,0.6-8.7,0.9c-0.7,0.1-1.3,0.1-2,0c-6.2-2-12.4-0.5-18.6-0.3c-2.5,0.1-3.4-0.5-3.4-2.6
			c-0.1-5.5-0.1-11-0.3-16.6c-0.2-5.3-0.5-10.6-0.8-15.9c-0.6-7.1-1.8-14.1-3.7-20.9c-1.3-5.1-2.3-10.4-3.7-15.5
			c-2-7.5-4.6-14.9-7.7-22C-1,167.9-1.5,153,3.3,139.5c0.8-1.9,1.9-3.6,3.2-5.1c0.8-1.1,2.4-1.4,3.5-0.6c0.1,0,0.1,0.1,0.2,0.1
			c1,0.6,1.9,1.3,2.8,2c4.1,4,8.3,8,12.2,12.2c4.5,4.7,8.3,10,11.4,15.8c1.9,3.7,4.2,7.2,6.2,10.8c0.7,1.5,1.3,3.1,1.8,4.7
			c2.1,5.5,4.5,10.8,6.2,16.4c1.2,4.1,1.5,8.4,2.1,12.7s0.8,8.5,1.4,12.8c0.2,1.8,0.5,3.3-1.2,4.8c-1.5,1.3-0.4,3.2,0.5,5.1
			c1.9-2.2,3.8-4.1,5.5-6.2c2.8-3.6,5.4-7.3,8.2-10.9c0.8-1.1,1-2.6,0.4-3.9c-1.2-4.4-2.5-8.7-3.8-13c-1.8-5.7-3.4-11.5-5.4-17.1
			c-2-5.4-4.2-10.7-6.7-15.9c-4.2-8.9-8.8-17.5-12.9-26.4c-3.1-6.6-6-13.4-6.2-21c-0.1-4.7,0.8-9.2,3.5-12.8
			c1.4-1.9,4.3-2.7,6.6-3.8c1.7-0.9,3.2,0.3,4.3,1.2c3.3,2.3,6.4,4.9,9.3,7.8c7.1,7.7,10.8,17.1,14.8,26.4c1.8,4.1,3.7,8.2,5.5,12.4
			c1.7,3.5,2.5,7.3,2.5,11.1c-0.1,5.1,1.9,9.7,3,14.5c0.6,2.5,0.8,5.1,1.2,7.6c0.4,2,0.9,3.9,1.6,6.7c3.6-4,6.9-8.3,9.8-12.8
			c-0.2-0.5-0.3-0.8-0.4-0.8c-3.6-0.3-4.1-2.9-4.2-5.8c-0.2-5.2-0.4-10.4-0.4-15.6c0-6.4-0.6-12.9-1.8-19.2
			c-1.8-10.2-4.9-20.2-5-30.7c-0.1-6.8-0.7-13.5-0.8-20.3C82,76.9,82.8,71.2,86,66.1c0.7-1.2,1.2-2.4,1.5-3.7
			c0.6-2.1,1.1-2.6,3.2-2.7c1-0.1,2-0.2,3-0.2c1.2-0.1,2.4,0.1,3.5,0.4c3.4,1.4,6.1,4.1,7.6,7.4c2.3,5,4.4,10.1,6.4,15.2
			c1.9,5,2.9,10.2,2.9,15.6c0.2,7.8,0.9,15.5,0.9,23.3c0,7.6-0.8,15.1-1.2,22.6c-0.1,1.8,0.1,3.5,0.1,5.3l0.8,0.3l18.2-18
			c-0.6-0.8-1.2-1.3-1.6-1.9c-0.7-1-1-2,0-3c1.6-1.5,1.9-3.5,1.9-5.6c0.1-6.7,0.4-13.3,0.6-20c0.2-8.8-2.4-17.2-4.6-25.6
			c-1.4-5.2-3-10.5-3.5-15.8c-0.6-6.3-1.5-12.8,0.1-19.2s5.2-11.2,12-13c4-1.1,7.2,0.5,9.6,3.8c2.7,3.7,3.6,8,4.4,12.4
			c1.9,10.3,3.6,20.6,5.3,31c0.9,5.2,1.7,10.4,2.3,15.7c0.4,3.4,0.4,6.9,0.6,10.4c0.1,0.7,0.4,1.4,0.7,2c2.9-1.3,2.8-3.5,2.2-6
			l3.2-1.3c0.3-3.7,1-7.5,0.8-11.3c-0.4-8.6,0-17.2-1.4-25.7c-0.5-3.1-0.8-6.3-0.9-9.4c-0.5-7.3,1.8-14.6,6.6-20.2
			c2.9-3.7,7.3-6,11.9-6.4c3.8-0.4,6.6,1.4,8.7,4.3c4.9,6.4,6.1,13.7,5.4,21.5c-0.4,3.7-0.6,7.4-0.5,11.2c0.1,2.5,1,5,1.6,8.2
			c1-1.1,1.6-1.4,1.7-2c1.6-7.4,2.4-14.9,2.2-22.4c-0.3-8.4,0.2-16.7,1.6-25c0.8-4.2,2.7-8.2,5.4-11.5c1.9-2.7,4.5-4.8,7.5-6.1
			c2-0.9,4.4-0.4,5.7,1.4c0.9,1.1,1.9,2.2,2.8,3.3c2.7,3.6,2.7,7.8,2.7,12c0,2.6,0.2,5.2,0.3,7.8c0.2,4.3,0.4,8.5,0.5,12.8
			c0,1.2,0.1,2.4,0.1,4.2c3-2.6,4.3-5.7,5.7-8.5c3.5-6.8,6.8-13.8,10.3-20.6c1.5-3.1,3.7-5.7,6.4-7.9c3.2-2.4,6.7-2.7,10-0.6
			c1.4,0.9,2.8,1.9,4.1,3c2.8,2.4,3.5,5.6,1.6,8.8c-1.5,2.7-3.3,5.2-5.3,7.4c-3.4,3.6-7.3,6.7-11.6,9.2c-1,0.5-1.8,1.3-2.4,2.2
			c-1.1,2-2.8,3.6-4.9,4.4c-2,1-4.2,1.8-5.6,3.9c1.2,1,2.6,0.7,3.9,0.8c6.2,0.3,12.3,1.3,18.3,3c6.8,2,11.9,6.3,16.1,11.8
			c2.2,3,1.4,5.2-2.2,6.4c-7.5,2.5-15.5,3.6-23.4,3.4c-6.6-0.1-13.3-0.5-19.9-0.5c-5.4,0-10.8,0.3-16.2,0.7
			c-2.9,0.2-5.8,0.8-8.3-1.4c-0.3-0.2-0.9-0.1-1.6-0.2c-0.6,1-1.2,2-2.1,3.6c1.6,0.3,2.8,0.6,4.1,0.7c6.6,0.6,13.3,1,19.9,1.8
			s13,3.1,18.1,7.8c4,3.7,7,7.9,6.2,13.9c-0.3,1.9-0.9,3.2-2.8,3.7c-2,0.6-4,1-6,1.2c-5.2,0.3-10.4,0.6-15.6,0.5
			c-5.9-0.1-11.7-0.7-17.6-1.2c-6.6-0.6-13.2-1.6-19.9-1.8c-5.4,0-10.8,0.3-16.2,1c-1.4,0.3-2.7,1-3.7,2.2c-2.2,2.2-4.1,4.7-6.1,7.2
			c0.1,0.1,0.5,0.4,0.6,0.3c2.2-1.7,4.6-1.5,7-0.7c7.1,2.3,14.2,4.5,21.2,6.9c4.6,1.6,9.1,3.3,13.6,5.1c3.1,1.2,6.1,2.8,9.3,4.1
			c4.6,1.9,9.2,3.7,13.9,5.3c3.6,1.3,6.8,3.8,8.9,7c1.6,2.3,1.1,4.3-1.5,5.1c-3.1,1-6.3,1.6-9.5,1.9c-9.6,0.7-19.1-0.5-28.6-1.5
			c-7.3-0.8-14.6-1.6-21.8-2.6c-8.5-1.1-17-2.2-25.5-3.4c-4.1-0.6-8.2-1.4-12.3-2.1c-0.8-0.2-1.7-0.1-2.4,0.4
			c-6.5,5.6-12.5,11.7-18,18.2c3,1.1,6,0.7,8.8,0.8c7.1,0.2,14.2,0,21.3,0.2c5.1,0.1,10.1,0.4,15.2,0.7c6.6,0.5,13.3,0.8,19.9,1.7
			c5.6,0.8,11,2.4,16.5,3.6c2.6,0.6,5.3,1.1,7.9,1.7c1.8,0.4,3.5,1,5.2,1.6c0.5,0.2,1.2,0.5,1.4,0.9c1.2,2.9,4.1,4.7,5.5,7.4
			c2.1,3.9,0.7,7.6-3.5,8.8c-7.5,2.1-15,3-22.8,1.6c-8.5-1.5-17.1-2-25.6-1.5c-2.1,0.1-4.2,0.9-6.3,0.9c-6.3-0.1-12.6-0.5-18.9-0.8
			c-6.1-0.3-12.1-0.6-18.2-1c-5.6-0.4-11.3,0.2-16.8-1.2c-0.7-0.1-1.3-0.1-2-0.1c-1.5-0.2-2.9-0.5-4.3-0.9c-2.5,0.1-4,1.6-5.3,3.8
			c-2.4,3.5-4.9,6.8-7.6,10c-0.9,1.2-1.4,2.3-0.1,4c4.6,0.4,9.5,0.8,14.5,1.1c9.4,0.6,18.9,1,28.3,1.8c8.6,0.7,17.3,1.8,25.9,2.7
			c6.3,0.7,12,3.1,17.5,6.1c3.1,1.7,6.3,3.2,9.2,5.1c4.1,2.6,6.4,6.6,5.2,11.1c-0.5,2.7-2.6,4.7-5.3,5c-8.7,1.4-17.4,2.7-26.2,2.4
			c-4.7-0.1-9.4-0.6-14.1-1c-5.7-0.4-11.5-0.7-17.2-1.2c-8.2-0.7-16.3-1.6-24.5-2.3c-5.5-0.5-10.9-0.9-16.4-1.6
			C78.5,223,73.2,222.7,68.2,220.4z M146.3,111.9c-0.1,0.7-0.1,1.5-0.2,2.2l0.6-0.1l-0.5-2.1c0.6-0.7,0.4-1.8-0.3-2.4
			c-0.1-0.1-0.3-0.2-0.5-0.2L146.3,111.9z M86.8,104c-0.2,0.8-0.3,1.5-0.5,2.3l0.5,0.1L86.8,104l-0.1-2.5l-0.9,0.2
			C86.1,102.4,86.4,103.2,86.8,104z M111.7,254.3l-5,0.1C109.5,256,110.4,256,111.7,254.3c0.5,0.9,1,1.9,2.6,0.7L111.7,254.3z
			 M143.4,207.3c-2.9-1.6-6-1-9-0.7c3,0.9,5.9,1.9,9,0.6l2.9,0.9c0-0.2,0.1-0.5,0.1-0.8L143.4,207.3z M23.8,258.6
			c0.2,3.9,0.4,7.9,0.6,12.1C27.2,266.6,27.1,263.5,23.8,258.6z M213.6,62.9v1.1c5.9,0,11.7,0.7,17.5-0.3v-0.7L213.6,62.9z
			 M63.3,174.9l0.6-0.2c-0.4-2.3-0.9-4.6-1.1-6.9c-0.2-2-1.5-2.2-3.5-3L63.3,174.9z M31.2,166.7l0.7-0.2c-0.6-4.4-2.6-8.4-5.6-11.7
			L31.2,166.7z M81.8,239.1c-4.9-0.7-9.1-1.9-13.9-1.4C71,239,78.9,239.9,81.8,239.1z M77.6,183.6c-0.2-4.1-0.4-4.7-1.8-6.9
			c-0.8,1.3-0.8,1.3-0.6,5.2L77.6,183.6z M86.5,253.2c1.9,1.5,6.6,1.7,9.6,0.4L86.5,253.2z M15.8,203.7c0.5-3-0.5-6-2.6-8.1
			C14.2,198.8,15,201.3,15.8,203.7z M145,33.8c-0.8-2.6-0.8-2.6-3.6-2.7C142.3,33.5,142.3,33.5,145,33.8z M119.3,246.8l-0.3,0.9
			c2.1,1.2,4.4,0.9,6.8,0.4L119.3,246.8z M264,62.6l1-0.2c0.2-0.7,0.8-1.6,0.6-2c-0.6-1.1-1.7-1.7-3.6-1.1L264,62.6z M263.6,15.8
			l-0.4-0.4l-3.3,4.9l0.5,0.3L263.6,15.8z M216.2,173.3c-1.1,0.9-3.2,0.9-2.6,3.3C216.4,176.9,216.1,174.9,216.2,173.3z M179,224.5
			c-4.6-1.7-4.6-1.7-4.9,0.7L179,224.5z M222,12.2c2.5-1.9,2.5-2.4,0.5-4.8C222.3,9,222.2,10.4,222,12.2z M255.6,54
			c2.1,1,4.4,1.2,6.6,0.6C259.7,53.2,257.6,53.6,255.6,54z M271.6,59.9c-2.1-3.6-2.1-3.6-4.6-3.2L271.6,59.9z M99.7,125.5
			c-0.6-1.5-1.5-2-2.7-1.5c-0.4,0.2-0.4,1.2-0.8,2.3L99.7,125.5z M20.5,189.4c0-2,0.4-4.1-1.4-6.5C19.7,185.5,20.1,187.4,20.5,189.4
			z M105.2,273.2c-1.9-0.8-2.6-0.8-5.1,0.1C101.8,273,103.4,274.3,105.2,273.2z M37.8,265l0.3-1.2c-0.8-0.2-1.6-0.4-2.4-0.5
			c-0.2,0.4-0.3,0.9-0.4,1.4L37.8,265z M226.8,133.2c1.7,2.1,1.7,2.1,3.8,1.9L226.8,133.2z M210.2,169.6c0.8,2.6,0.8,2.6,2.9,1.7
			L210.2,169.6z M170.5,90c1.7-0.2,3,0,3.9-1.8C172.8,88.3,171.5,87.9,170.5,90z M8.4,178.5h-1c-1.2,1.5,0.6,2.3,0.9,3.4l0.6-0.1
			C8.7,180.7,8.5,179.6,8.4,178.5z M140.5,222.8c0-0.3,0.1-0.6,0.1-0.9l-4-0.4c0,0.3-0.1,0.6-0.1,0.9L140.5,222.8z M184.2,46.7
			l-2.7,0.2C182.8,48.8,183.6,48.6,184.2,46.7z M206.9,15.5l0.8,0.3l1.2-3l-0.6-0.3L206.9,15.5z M142.5,254.6l-0.4,0.6l4.1,1.5
			l0.2-0.5L142.5,254.6z M104,79.9l1.2-0.2c-0.3-1.1-0.6-2.3-0.8-3.4l-0.8,0.2L104,79.9z M95.2,62.4l-2.4,1.3
			C94.7,65.2,95.1,64,95.2,62.4z M149.3,267.7c-0.9-1-1.7-1.2-2.4-0.4c-0.2,0.2-0.1,0.7-0.1,1.5L149.3,267.7z M168,44.4
			c-1.1,2.2-1.1,2.2,0.4,3.4C168.3,46.6,168.2,45.7,168,44.4z M70.3,205l-0.7,0.2c-0.1,1.1,0,2.2,1.7,2.7
			C70.9,207,70.6,206,70.3,205z M111.1,220.3c0,0.3,0,0.6,0.1,0.9c0.4,0.1,0.8,0.4,1.1,0.3s0.8-0.4,1.6-0.9L111.1,220.3z
			 M31.6,189.8c0-0.5,0-1-0.1-1.4c-0.3-0.4-0.6-0.8-0.9-1.2C29.9,188.6,30.3,189.3,31.6,189.8z M74.4,216.4l-0.3,0.4l1.3,0.9
			l0.3-0.4L74.4,216.4z M26.3,243.6h0.5c0.1-0.3,0.1-0.7,0.1-1c-0.1-0.4-0.2-0.8-0.4-1.2l-0.5,0.1L26.3,243.6z M30.9,248.9l0.6-0.1
			c-0.1-0.7-0.2-1.5-0.3-2.2l-0.6,0.1C30.7,247.4,30.8,248.1,30.9,248.9z M44.9,103.9c-1.4-1-2.1-0.6-3.3,0.5L44.9,103.9z
			 M219.5,97.1c0,0.3,0,0.5,0.1,0.8l1.2-0.1c0-0.2-0.1-0.5-0.1-0.5C220.3,97.2,219.9,97.1,219.5,97.1L219.5,97.1z M192.5,34.4
			l-0.6,0.2c0.1,0.5,0.2,1,0.4,1.5c0.2,0,0.4-0.1,0.6-0.1L192.5,34.4z M253.9,65.2l0.1,0.5l1.5-0.1l-0.1-0.8L253.9,65.2z
			 M95.4,272.4l-0.1,0.7l1.3,0.1l0.1-0.4L95.4,272.4z M164.4,217.5c0.1-0.1,0.1-0.3,0.2-0.5c-0.5-0.1-1-0.3-1.4-0.4
			c-0.1,0.2-0.1,0.3-0.2,0.5L164.4,217.5z"/>
	</g>
</g>
</svg>
