<?xml version="1.0" encoding="utf-8"?>
<!-- Generator: Adobe Illustrator 22.1.0, SVG Export Plug-In . SVG Version: 6.00 Build 0)  -->
<svg version="1.1" id="Layer_1" xmlns="http://www.w3.org/2000/svg" xmlns:xlink="http://www.w3.org/1999/xlink" x="0px" y="0px"
	 viewBox="0 0 276.8 523.6" style="enable-background:new 0 0 276.8 523.6;" xml:space="preserve">
<style type="text/css">
	.st0{fill:#EC6C64;}
</style>
<title>Asset 20</title>
<g id="Layer_2_1_">
	<g id="GRID">
		<path class="st0" d="M172.9,311.9c-0.7-3.1-1.4-6-2.1-8.8c-0.3-1.2-0.7-2.4-0.8-3.5c-0.7-4.5-2.1-8.9-3.1-13.3
			c-0.2-1-0.4-1.9-0.6-2.9c-0.4-3.5-1.3-6.8-2.7-10.1c-0.7-1.9-1.2-3.9-1.6-5.9c-0.4-1.6-0.9-3.3-1.3-5c-0.3-1.4-0.6-2.9-0.9-4.3
			c-0.5-2.3-1-4.6-1.6-6.9c-0.2-0.9-0.4-1.7-0.6-2.6c-0.7-2.8-1.4-5.6-2.1-8.4c-0.2-0.8-1-1.4-1.8-1.4c-0.8,0-1.6-0.1-2.4,0
			c-2.7,0.2-5.3,0.8-8,0.8c-3.2-0.1-6.3-0.3-9.5-0.8c-2.5-0.4-4.9-1.3-7.4-1.5c-3.3-0.3-6-2.1-8.8-3.4s-5.4-2.6-8.1-3.9
			c-1.4-0.7-2.9-1.4-4.4-2.1c-2.3-1.2-4.6-2.4-6.9-3.6c-0.3-0.2-0.6-0.3-0.9-0.4c-3.5-0.6-6.5-2.5-9.8-3.6c-0.8-0.3-1.6-0.8-2.4-1.2
			c-2.2-1.1-4.2-2.8-6.8-3.2c-0.4-0.1-0.8-0.2-1.1-0.4c-3.8-2.1-7.6-4.1-11.2-6.4c-1.7-1.1-3-2.9-4.5-4.4c-1.2-1.3-2.5-2.6-3.7-3.9
			c-0.3-0.3-0.7-0.5-0.8-0.9c-0.8-2.5-2.5-4.8-2.4-7.6s0-5.7,0.4-8.5c0.3-2.1,1.6-4,3.4-5.2c1.7-1.1,3.6-1.9,5.6-2.3
			c3.5-0.6,7.1-0.9,10.7-1.1c1,0,2.1,0.1,3.1,0.4c2.4,0.7,4.8,1.4,7.1,2.2c3,1,5.9,2.4,8.6,4c3,1.8,5.6,3.9,8.3,5.9
			c3.8,2.8,7.8,5.1,11.8,7.6c2.1,1.4,4.2,2.8,6.4,4c1.1,0.6,2.3,1.2,3.6,1.6c2.7,1.1,4.8,3.1,7.2,4.7c1,0.6,2,1,3.2,1.1
			c2.9,0.2,5.2,1.7,7.6,3c0.8,0.4,1.6,0.7,2.5,0.9c0.3,0.1,0.9,0,0.9-0.2c0.5-1.5,2.6-2.2,2.1-4.2c-0.4-1.7-0.6-3.5-1.6-5
			c-0.2-0.2-0.4-0.5-0.4-0.9c-0.2-3.8-2.3-7-3.3-10.6s-1.9-7.1-2.9-10.6c0-0.4-0.2-0.8-0.4-1.1c-2.2-2.5-2.7-5.8-3.6-8.8
			c-0.9-3.3-2.8-6-4.5-8.8c-0.2-0.3-0.4-0.7-0.6-1c-1.4-3.4-3.7-6.1-5.8-9c-1.9-2.6-3.8-5.1-5.6-7.7c-1.2-1.8-2.4-3.5-3.8-5.1
			c-1.1-0.9-2.4-1.7-3.7-2.3c-2.1,1.9-4.9,1.7-7.2,2.8s-4.8,2-7.3,3c-0.4-0.3-0.8-0.6-1.3-0.9c-0.9-0.4-2-1.1-2.7-0.8
			c-3.7,1.2-7-0.4-10.5-1.1c-4.3-0.9-8.5-2.1-12.9-2.9c-2.7-0.4-5.4-1.1-8-2c-2.1-0.8-4.2-1.7-6.3-2.5s-4.1-1.2-6.2-1.9
			c-1.8-0.6-3.6-1.1-5.3-1.7c-2.7-0.9-5.3-1.7-7.9-2.7c-0.6-0.2-1.2-0.5-1.7-0.9c-1.1-0.8-2.1-1.7-3.3-2.5c-4.2-2.6-8-5.6-11.4-9.1
			c-2.1-2.2-4.5-4-6.5-6.2c-2.6-2.5-4.7-5.4-6.2-8.7C4.9,95.7,4,94.1,3,92.5c-0.2-0.4-0.6-0.9-0.6-1.3c0.1-2.5-1.3-4.5-2.1-6.7
			c-0.2-0.5-0.4-1.2-0.2-1.6c0.8-1.5,0.2-3.1,0.5-4.6c0.5-3.2-0.2-6.6,1.6-9.5c1.2-2.1,2.1-4.4,4.1-5.9c0.5-0.5,0.9-1.1,1.3-1.8
			c2.2-3.6,5.7-6.2,9.8-7.1c2.8-0.7,5.5-1.3,8.4-1.7c7.6-0.8,15.1-0.8,22.3,2.1c2,0.8,3.9,2,5.9,3c0.1,0.1,0.3,0.2,0.4,0.3
			c1,2.3,3.2,3.2,5,4.5c0.5,0.5,0.9,1.1,1.3,1.8c2,3.2,4.1,6.5,6.1,9.7c0.3,0.4,0.6,0.8,0.8,1.2c0.9,3.4,3.2,6.2,4.1,9.5
			c0.4,1,0.9,1.9,1.4,2.8c0.7,1.8,1.4,3.6,2.3,5.3c1.4,2.4,2.2,5.1,3.5,7.4c0.7,1.2,1.5,2.2,1.6,3.7c0.1,0.6,0.3,1.1,0.6,1.6
			c1,2.4,2.2,4.7,3.6,6.9c1.5,2.2,3.2,4.2,5.2,6c2.4,2.1,5.4,3.3,8,5.1c1.6,1.2,3.5,1.8,5.4,1.8c1.4,0.1,2.7,0.3,4.1,0.6
			c1.5,0.2,3,0.4,4.6,0.6c0-2.6-0.5-5.1-1.7-7.4c-0.8-1.4-1.4-2.9-2.1-4.4c-0.2-0.8-0.9-1.4-1.7-1.6c-2.2-0.6-2.8-1.1-2.5-3.1
			c0.3-2.6-1-4.2-2.4-5.8c-2.6-3-5.3-5.9-7.8-9.1c-1.2-1.6-2.5-3.2-3.9-4.6c-3.4-3.6-5.8-8-8.7-12c-3.4-4.7-5.6-10.1-8.4-15.1
			c-1.5-2.7-2.8-5.5-3.9-8.4c-1.3-3.1-2.3-6.3-3-9.7c-0.5-3.4-1-7.2,0.2-10.5c0.9-2.5,0.6-5.1,1.6-7.5c1.2-3,3.2-5.7,5.8-7.7
			c1-0.8,2-1.7,3-2.4c3.1-2.3,6.5-4.1,10.2-5.1c3.2-0.8,6.3-0.6,8.9,1.9c0.5,0.4,1.1,0.7,1.6,0.9c0.4,0.1,0.7,0.4,1,0.6
			c2,2.8,3.9,5.6,5.8,8.4c0.9,1.4,1.7,2.9,2.6,4.4c1.4,2.3,2.3,4.9,2.5,7.6c0.3,2.1,1.1,4.1,2.3,5.9c1.8,2.7,3,5.8,3.4,9.1
			c0.1,0.6,0.3,1.2,0.5,1.8c0.4,1.5,1.3,3.1,1.1,4.4c-0.5,3,1,5.8,0.3,8.7c-0.1,0.5,0.3,1.1,0.4,1.6c0.4,1.6,0.6,3.3,0.4,5
			c-0.2,2.3-0.3,4.6-0.2,6.8c0,0.2,0.1,0.5,0.2,0.7c1.3,1.3,0.8,2.9,0.6,4.4c-0.7,3.7-1.2,7.4-0.3,11.2c0.1,0.5,0.1,1-0.1,1.4
			c-1,2.5-1,5.2,0,7.6c0.1,0.5,0.2,1,0.2,1.4c0.1,2.6,0.3,5.2,0.7,7.7c0.4,1.4,1.1,2.7,2.2,3.7c0.7,0.7,1.1,1.7,1.1,2.8
			c0.2,2.1,2,3.7,4.1,3.5c0.3,0,0.7-0.1,1-0.2c2-0.7,4-1.6,6-2.4c1.1-0.5,2-1.5,2.2-2.8c0.4-1.5,0.8-3,1.2-4.5c0.6-2,1.1-4,1.8-6
			c1.3-4,1.4-8.1,1.8-12.2c0.1-1-0.3-2.3,1.2-2.2c-0.5-0.6-1.2-1-1.3-1.5c-0.5-2.6-0.6-5.3-1.4-7.8c-0.7-2.3-0.8-4.7-2-6.9
			c-1.1-1.9-1.2-4.3-1.7-6.6c-0.3-1.3-0.8-2.6-1.4-3.9c-0.8-1.8-1.4-3.6-1.9-5.5c-0.1-0.6-0.3-1.3-0.5-1.9c-1-1.7-1.4-3.7-1.2-5.6
			c0-0.2,0.1-0.5,0-0.7c-1.6-2.5-1.1-5.4-1.9-8c-0.1-0.5-0.2-1.1-0.1-1.7c0-0.6,0-1.1-0.1-1.7c-1.4-3.5-1-7.2-0.5-10.8
			c0.1-1.5,0.1-3.1,0.1-4.6c0-2.5-0.1-5.1,0.1-7.5c0.3-1.5,0.8-3,1.5-4.4c1.8-4.6,4.6-8.4,9.5-10.2c1.8-0.7,3.3-2.1,5.2-2.7
			c2.5-0.9,5.2-1.3,7.9-1.3c2.2,0.1,4.4,1.1,6.4,2c2.6,1.2,5,2.7,7.6,4c0.4,0.3,0.9,0.5,1.3,0.6c2.2,0.6,4.1,1.9,5.5,3.7
			c5.1,5.5,10,11.2,13.7,17.8c2.2,4,3.8,8.3,4.8,12.8c0.5,2.6,1.2,5.2,1.8,7.9c0.1,0.3,0.2,0.7,0.1,1c-0.2,2.7-0.4,5.3-0.5,7.9
			c-0.1,1.5,0.1,2.9,0.1,4.4c0.1,2.2-0.4,4.4-1.3,6.3c-1.1,2.2-1.8,4.6-2.8,6.8c-1.5,3-3.2,5.8-4.8,8.7c-0.2,0.3-0.6,0.6-0.7,1
			c-0.6,2.6-2.6,4-4.4,5.6c-1.8,1.8-3.4,3.7-4.9,5.7c-1.5,1.9-2.5,4.2-4.8,5.4c-0.7,0.5-1.4,1.2-1.9,1.9
			c-4.9,5.1-10.3,9.7-16.2,13.7c-2.2,1.5-4.5,2.9-6.8,4.3c-1.5,0.8-2.8,2-3.7,3.5c-0.6,0.9-1.4,1.6-2.3,2.1
			c-2.1,1.2-4.3,2.2-6.5,3.3c-0.3,0.2-0.7,0.5-1,0.8l1.7,1.7c1.9,2,3.5,4.3,4.5,6.9c1.4,3.2,2.9,6.4,4.2,9.6
			c0.3,0.7,0.4,1.6,0.7,2.3c0.5,1.5,1.1,2.9,1.9,4.2c0.5,0.8,0.8,1.7,0.9,2.7c0,0.7,0.3,1.4,0.6,2c1.1,1.8,2,3.7,2.5,5.8
			c0.8,2.7,2.4,5.2,3.3,7.8c0.9,2.4,1.4,5,2,7.5c0.1,0.5,0.2,1,0.3,1.4c1.2,3.6,2.7,7.1,4.3,10.6c0.8,1.5,1.4,3.1,2.1,4.8
			c1.6-0.2,2.5-1.2,3.5-2.3c3.4-3.9,6.3-8.3,8.7-12.9c0.6-1,1.4-2,1.9-3c1.5-2.8,2.9-5.7,4.5-8.6c0.9-1.6,2.1-3.1,3.1-4.7
			c1.7-2.7,3.2-5.4,4.9-8c2.6-3.9,5.4-7.7,8.1-11.6s5.5-7.6,7.9-11.7c0.4-0.6,0.8-1.2,1.4-1.7c1.1-1,2.2-1.9,3.3-2.9
			c2.7-2.7,6.2-4.5,10-5.1c3-0.6,6-0.2,8.8,0.9c1.1,0.5,2.1,1.2,2.9,2.2c2.8,3.2,4.7,7.1,5.4,11.3c0.4,2.4,0.2,4.9-0.7,7.1
			c-0.8,2.3-1,4.8-1.8,7.1c-0.9,2.8-2.1,5.4-3.2,8.2c-1,2.5-1.8,5-2.7,7.6c-1,2.7-1.9,5.5-3.2,8.2c-1.8,3.7-3.8,7.4-5.9,10.9
			c-1.2,1.8-2.5,3.5-3.8,5.1c-0.6,0.8-1.2,1.5-1.7,2.4c-1,1.7-2,3.5-3,5.2c0,0.1-0.1,0.1-0.1,0.2c-3.2,2.1-4.5,5.9-6.9,8.6
			c-1.6,1.9-3,4.1-4.9,5.6c-3.9,3.2-7.3,7.3-12.4,9c-1.1,0.3-2,1.4-3,2.1c-2.8,1.9-5.8,3.6-9,4.9c-2.3,1-2.6,1.5-2,4
			c0.8,3.6,1.8,7.3,2.6,10.9c0.5,2.1,0.9,4.3,1.4,6.4c0.4,1.5,1,2.9,1.4,4.4c0.1,0.3,0.4,0.6,0.4,0.9c-0.4,3.2,1,6.1,1.7,9.1
			c0.7,3.2,1.4,6.4,2.2,9.5c0.1,0.4,0.1,1,0.3,1.2c1.9,1.5,0.8,3.6,1,5.4c0.1,0.9,0.1,1.9,0.3,2.9c0.3,1.9,0.8,3.8,1.1,5.7
			c0.4,2.5,0.3,5,1,7.4c0.8,2.4,1.8,4.7,3,7c5.2-3.4,9.9-7.6,14-12.3c2.2-2.5,3.8-5.6,5.6-8.6c1.2-2.1,2.7-4.1,4.5-5.7
			c1.2-1.2,2.3-2.5,3.3-3.9c2.5-3.2,4.7-6.6,7.5-9.5c3.6-3.8,7.6-7.4,12.3-9.8c2.5-1.3,5.2-2.3,7.8-3.4c0.4-0.2,0.9-0.3,1.4-0.3
			c6.5,0.4,12.2,4.4,14.7,10.4c1.3,3,0.9,6.3,2.3,9.1c-0.5,1.4-1,2.7-1.5,4.1c-0.4,1.1-0.8,2.1-1.2,3.2c-0.8,2.1-1.5,4.3-2.4,6.4
			c-0.8,1.9-2,3.7-2.7,5.7c-1.1,3-2.7,5.8-4.7,8.2c-0.4,0.5-0.8,1-1.1,1.6c-2.2,5-6,8.6-9.7,12.5c-2.7,2.9-5.3,6-8.6,8.3
			c-0.9,2.2-2.8,3.3-4.5,4.6c-2.3,2-4.7,3.8-7.2,5.3c-2.7,1.5-5,3.6-8.2,4.6c-2.9,0.9-5.6,2.7-8.4,4c-1.1,0.5-2.3,0.8-3.5,1.2
			c-1.8,0.6-2.2,1.3-1.9,3.1c0.8,4.5,1.2,9.1,3.5,13.2c0.8,5.4,3.8,10.2,4.8,15.6c0.4,2,0.9,4,1.4,5.9c0,0.2,0,0.4,0.1,0.5
			c2.1,1.5,1.4,4,2.2,6c0.9,2.4,1.9,4.8,2.8,7.2c0.2,0.5,0.6,0.9,0.6,1.3c0.2,3,1.7,5.5,3.3,8c1,1.6,1.6,3.4,2.4,5
			c0.2,0.5,0.7,1.1,1,1.1s0.9-0.5,1.2-1c0.2-0.5,0.3-1.1,0.4-1.6c0.2-0.5,0.5-0.9,0.9-1.3c2.1-1.8,3.7-3.6,3.8-6.6
			c0.1-2.7,0.5-5.5,1.1-8.1c0.2-0.8,1.2-1.5,2-1.9c0.8-0.3,1.3-0.9,1.6-1.6c0.7-2,1.6-3.9,2.3-5.9c0.4-1.1,0.5-2.4,1-3.5
			c0.8-1.9,1.8-3.8,2.8-5.7c1.4-2.6,2.9-5,4.7-7.2c2.1-2.1,4.4-4.1,6.8-5.9c0.4-0.3,0.9-0.5,1.2-0.8c1.2-1.9,3.2-2.9,5-3.7
			c3-1.3,6.3-2.6,9.3,0.1c0.9,1,1.7,2.1,2.2,3.4c0.7,1.2,1.2,2.5,1.7,3.8c0.6,1.4,1.1,2.9,1.4,4.4c0.8,6,1.5,11.9,2.2,17.9
			c0,0.3,0.2,0.7,0,1c-1.5,2.6-0.8,5.6-1.6,8.3c-1.5,5.1-2.1,10.6-5.4,15.1c-1.3,1.8-2,3.8-3,5.7c-0.1,0.2-0.3,0.4-0.3,0.6
			c0.2,2.5-1.7,4-2.7,5.9c-0.6,1.1-1.6,1.8-2.8,2.2c-3.1,1-4.8,3.3-6.4,5.8c-0.9,1.5-2.3,2.7-3.9,3.4c-2.5,1.1-4.4,3-5.6,5.5
			c-0.6,1.5-1,3.1-2.6,4c-0.4,0.4-0.6,0.9-0.5,1.5c0.1,0.6,0.3,1.3,0.6,1.8c2,4.2,4.2,8.2,6.8,12c2.5,3.8,4.9,7.6,7,11.7
			c0.5,0.7,1,1.5,1.6,2.2c0.4,0.6,0.7,1.2,1,1.8c0.2,0.4,0.3,0.7,0.5,1.1c2.7,3.7,4.7,8,7.8,11.5c0.4,0.6,0.8,1.2,1.1,1.9
			c0.8,1.7,1.2,3.7,2.3,5.1c1.5,1.9,1.6,4.3,3,6.2c2.5,3.3,4.7,6.8,7.5,9.9c1.5,1.6,2.1,3.9,4.1,5.1c0.3,0.3,0.5,0.7,0.5,1.1
			c0.3,2.2,0.6,4.3,0.7,6.5c0,1.2-1.4,2.5-2.8,2.7c-1.1,0.1-2.1-0.3-2.8-1.2c-1.2-1.5-2.6-2.8-3.9-4.3c-0.4-0.4-0.9-1-0.8-1.4
			c0.2-1.5-0.8-2.2-1.6-3.1c-2.4-2.6-4.5-5.3-6.4-8.2c-0.6-1-1.6-1.8-2.3-2.8c-1.4-1.8-2.7-3.6-4.1-5.5c-1.2-1.7-2.6-3.4-4-5
			c-1.5-1.5-2.3-3.5-3.7-5c-2.6-2.7-3.7-6.3-6.2-9c-1.1-1.5-2.2-3-3.1-4.7c-0.9-1.3-1.9-2.6-2.9-3.9c-2-2.8-3.9-5.7-5.5-8.7
			c-2.5-4.2-5.2-8.3-7.7-12.4c-0.5-0.8-1-1.7-1.4-2.6c-0.3-1-1.3-1.6-2.3-1.4c-2.3,0.4-4.6,0.9-7,1.3c-1.3,0.2-2.5,0.2-3.8,0.2
			c-0.7,0-1.5-0.2-2.2-0.2c-3.6,0.1-7.1,0.2-10.7,0.2c-0.6,0-1.3-0.1-1.9-0.3c-1.8-0.7-3.6-1.5-5.4-2.2c-1-0.6-2-1-3.1-1.4
			c-4-0.9-7.1-3.2-10.1-5.7c-0.4-0.4-0.9-0.7-1.4-0.9c-2.4-0.6-4.6-1.7-6.5-3.3c-0.1-0.1-0.3-0.1-0.5-0.2c-3.7-1-6.3-4.1-9.8-5.6
			c-3.4-1.7-6.7-3.6-9.8-5.8c-2-1.4-4-3-5.9-4.6c-1.3-1-2.6-2.1-3.9-3.3c-1.4-1.4-2.6-3.1-4-4.5c-1.5-1.5-2.4-3.5-2.8-5.5
			c-0.3-1.7-1.7-3.1-1.4-5.1c0.6-5.2,2-10.1,6.5-13c3.2-2.2,7.3-2.5,10.8-0.8c2.4,1.2,5,2.1,7.3,3.4c3.2,1.9,6.1,4.1,9.2,6
			c1.9,1.2,3.9,2.3,5.9,3.4c4.4,2.5,8.8,4.9,13.1,7.5c3.1,1.9,6.1,4,9.1,6.1c1.2,0.8,2.2,2,3.4,2.7c3.2,2,6.5,4,9.9,5.8
			c1.2,0.6,2.7,0.6,4.2,0.9c0.9-0.6,0.9-1.4,0.5-2.3c-1.2-2.7-2.3-5.4-3.5-8.1s-2.8-5.5-3.9-8.4c-1.1-3.6-2.1-7-3.1-10.4
			c-1.5-4.7-2.6-9.5-4.4-14c-1.8-4.4-2.2-9-3.8-13.4c-0.6-1.8-0.4-3.8-0.8-5.7c-0.4-2.6-0.9-5.1-1.5-7.6c-0.2-0.9-1.1-1.5-1.8-2.4
			c-1.6-0.1-3.3-0.2-5-0.3c-4.8-0.1-9-2.3-13.4-3.8c-2.8-0.9-5.4-2.2-8.2-3c-5.1-1.4-10-3.4-15-5.1c-3.2-1.1-6.5-2.1-9.6-3.4
			c-2.2-0.9-4.3-1.9-6.3-3.1c-2.3-1.4-4.7-2.6-7.2-3.6c-3.6-1.4-6.7-3.7-9.8-6c-1.7-1.3-3.3-2.8-4.8-4.4c-3.1-3.1-5.9-6.5-8.4-10.1
			c-2-2.8-3.1-6.1-3.2-9.6c0-0.6-0.1-1.1-0.2-1.7c-0.7-2.4,0-4.6,0.9-6.8c0.6-1.5,1.7-2.6,3.2-3.3c3.4-1.8,7.2-2.8,11-3.1
			c2.3-0.2,4.6-0.2,6.8,0.2c4.2,0.8,8.2,2,12.1,3.6c3.7,1.4,7.1,3.3,10.2,5.7c1.8,1.5,4.4,1.9,5.4,4.3c3,1.1,4.6,3.8,6.8,5.8
			c1.7,1.6,3.8,2.8,5.6,4.3c1.4,1.1,2.6,2.5,4,3.5c3.6,2.6,7.7,3.8,12,4.5C169.8,312.5,171.1,312.1,172.9,311.9z M190.4,177.2
			c-1.4,2.6-2.1,5.6-2.1,8.6C189.2,182.6,190.6,180.1,190.4,177.2c1.7-1.9,1.7-2,0.2-3.2L190.4,177.2z M161.7,12.2
			c-2.2-2.9-5.3-3.9-8.2-5.3c-0.7-0.5-1.7-0.2-2.2,0.5c-0.1,0.1-0.1,0.3-0.2,0.4C154.1,11.6,157.7,13.2,161.7,12.2z M236.6,262.6
			c1,0.6,1.8,1,2.6,1.5c1.6,0.9,2.7,0.5,3.5-1.2c0.4-0.8,0.6-1.6,0.9-2.4C240.6,259.3,237.7,260.2,236.6,262.6L236.6,262.6z
			 M169.5,225.9c2.4-0.5,4.3-2.2,5.2-4.5c0.1-0.6-0.1-1.2-0.5-1.6c-0.4-0.3-1.5-0.3-1.7,0C171.2,221.7,169.1,223.1,169.5,225.9
			L169.5,225.9z M44.3,88.1l0.5-0.2c-1.2-4.6-5.6-14.8-7.2-16.2L44.3,88.1z M259.8,376.9c-0.1,2.1,0.1,4.1-0.8,6
			c-0.8,1.6-0.4,3.2-0.2,5c1.6-0.5,1.7-1.8,1.9-2.8C261.1,382.4,260.3,379.6,259.8,376.9z M133.9,22.8c0.7-3.7,3.4-6.8,4-10.9
			C135,14.4,133.1,19.4,133.9,22.8z M121.9,320.1c0.9,1.4,2.4,2.4,4.1,2.4c0.1-2.6-0.7-4.1-2.7-5.4L121.9,320.1z M160.1,60.1
			c0.5,2,0.9,4,1.5,6c0.1,0.3,0.8,0.5,1.2,0.7C163.8,64.5,162.8,61.7,160.1,60.1L160.1,60.1z M199.2,201.9c-3.6,0.5-4,3.6-5.3,6.1
			C196.3,206.5,197.6,204.1,199.2,201.9L199.2,201.9z M178.8,340.1c-1.3-0.6-2.7-0.9-4.2-0.8c-0.4,0.1-0.9,0-1.3-0.2
			c-1-1-1.9-0.4-2.9,0.1C172.8,340.8,177.3,341.4,178.8,340.1L178.8,340.1z M205.8,140.2c3.1-0.5,4.8-2.2,5-5.1
			C208,135.6,207.5,138.3,205.8,140.2L205.8,140.2z M85.2,185.2c-2.1-1.5-4.5-2.4-7-2.8c0.2,1.1,1.1,1.9,2.2,2.1
			C82,184.8,83.6,185,85.2,185.2L85.2,185.2z M86.3,72.7c-0.5-1.9-0.7-3.3-1.2-4.6s-0.8-1.4-2.3-0.3C83.6,69.4,84.1,71.3,86.3,72.7z
			 M250.3,403.9c-0.1,2.1-0.2,4.3-0.2,6.6c0.4-0.4,0.9-0.5,0.9-0.7c0.1-1.7,0.5-3.4,1.1-5C252.1,404,251.5,403.6,250.3,403.9
			L250.3,403.9z M173.2,284.5c-0.1,1.9-0.6,4,1.2,5.7C175.5,287.9,174,286.3,173.2,284.5z M258.2,394.3h0.5c0.4-1.4,0.8-2.7,1-4.1
			c0.1-0.4-0.5-0.8-0.8-1.2c-0.4,0.4-1,0.7-1,1.1C258,391.5,258.1,392.9,258.2,394.3z M181.9,36.1c-0.3,2.6,0.6,5.2,2.4,7.1
			L181.9,36.1z M161.1,423.6c0.5-1.2,0.2-1.9-0.6-2.2c-1.3-0.6-2.8-0.5-4.1,0.1L161.1,423.6z M91.4,38.6c0.5-0.3,1.1-0.5,1.1-0.8
			c-0.1-1.8,0.4-3.7-1.9-5.1L91.4,38.6z M211.6,438.2c-1.5-1.8-2.8-1.7-4.4,0C208.6,439,210.3,439.1,211.6,438.2z M172.8,282
			c-0.4-2.3-0.5-4.7-2.1-6.7C170.5,277.8,172.1,279.8,172.8,282z M35.2,117.6l4.2,2C38.1,116.5,37.7,116.2,35.2,117.6z M187.6,417.7
			l-0.4,0.7c1.5,0.8,2.4,2.4,4.5,3.1c-0.2-0.7-0.2-1.2-0.4-1.4C190.1,419.3,188.9,418.5,187.6,417.7z M222.9,272.1
			c-0.8,1.4-2.2,2.5-2.3,4.4C222.3,275.8,223.1,274.4,222.9,272.1z M155.5,397.4c0.6,2.7,1.4,3.1,3.2,1.6L155.5,397.4z M17.7,100.7
			l-0.6,0.3c0.2,1.5,1.2,2.9,2.7,3.5L17.7,100.7z M162,207.4l1.8-3.8C161.4,204.7,161,205.5,162,207.4z M47.4,94.5
			c0.5-2.2-0.9-3.1-1.7-4.4C45.7,91.8,46.3,93.3,47.4,94.5z M187.9,187.3c-1.8,1-2,1.8-1.2,4.2C187.1,189.9,187.4,188.7,187.9,187.3
			z M171.2,45.6c0.6,1,1.1,2,1.8,3.3C173.8,46.8,172.7,46.1,171.2,45.6z M98.3,83c-0.1-2.3-0.1-2.3-1.4-3C97,81.8,97,81.8,98.3,83z
			 M124.1,291c-0.5-0.9-1-1.5-1.9-0.9c-0.2,0.4-0.2,0.9,0,1.3C123,292.3,123.5,291.6,124.1,291z M145.6,328.5l-2.7-1.5
			c0,1.2,0,1.8,0,2.9L145.6,328.5z M106.5,66c0,1.3-0.2,2.5,1.2,3.4C108.1,68.1,107.6,66.7,106.5,66z M167.6,404.7
			c1.9,2.6,2.1,2.7,3.4,1.7L167.6,404.7z M149.6,415.4l-0.5,0.5c0.3,1,1,1.5,2.6,1.5L149.6,415.4z M185.9,417
			c-1.2-1.9-1.2-1.9-2.6-1.8L185.9,417z M179.7,411.6c0.2,1.6,0.2,1.6,1.8,1.7L179.7,411.6z M142.7,233.4l0.1-0.7
			c-0.8-0.4-1.5-1-2.8,0.3L142.7,233.4z M176.2,331.4c-0.1-1.5-0.4-2.1-1.5-1.8c-0.2,0.1-0.3,0.4-0.5,0.7L176.2,331.4z M29.3,62.2
			l-0.6,0.6c0.4,0.4,0.7,0.8,1.1,1.1c0.2-0.1,0.4-0.3,0.6-0.5L29.3,62.2z M237.3,273.9c-1.2,0.2-1.5,0.7-1.3,1.6
			C237.2,275.7,237.2,275,237.3,273.9L237.3,273.9z M48.3,98.4l0.4-0.1l-0.4-1.4L48,96.9C48.1,97.4,48.2,97.9,48.3,98.4z
			 M226.5,447.9l-0.4,0.2l0.8,1.4l0.4-0.2L226.5,447.9z M175.8,53c0,0.4,0,0.8,0.1,1s0.5,0.1,0.8,0.1c0-0.3-0.1-0.6-0.1-0.8
			C176.4,53.1,176.1,53.1,175.8,53z M208.9,188.2l-0.8-0.3l-0.5,1.5l0.5,0.2L208.9,188.2z M99.7,86.8l-0.2,0.1l0.7,1.7l0.2-0.1
			L99.7,86.8z M193.1,168l0.5,0.2c0.1-0.4,0.3-0.9,0.4-1.4l-0.3-0.1C193.5,167.1,193.3,167.5,193.1,168z M168.8,325.7
			c0.1-0.2,0.2-0.5,0.2-0.7c-0.2-0.2-0.5-0.3-0.8-0.3c0,0-0.3,0.5-0.2,0.5C168.3,325.4,168.5,325.5,168.8,325.7L168.8,325.7z
			 M86.9,18.7l-0.2-0.2L86.2,19c0.1,0.1,0.3,0.2,0.3,0.2C86.6,19.1,86.8,18.9,86.9,18.7z M151.7,232.5l0.1-0.5c-0.2,0-0.4,0-0.7,0.1
			c-0.2,0.1-0.4,0.2-0.6,0.3l0.1,0.2L151.7,232.5z"/>
	</g>
</g>
</svg>
