<svg xmlns="http://www.w3.org/2000/svg" viewBox="0 0 276.51 278.01"><defs><style>.cls-1{fill:#282230;}</style></defs><title>Asset 12</title><g id="Layer_2" data-name="Layer 2"><g id="GRID"><path class="cls-1" d="M68.2,220.39c-4.8,4.17-9,8.4-12.36,14.1a25.93,25.93,0,0,0,3.08.17c8-.64,15.94.42,23.89,1.66,10.5,1.65,20.7,4.55,31.08,6.65,5,1,10,1.91,14.92,2.94a44.61,44.61,0,0,1,5.2,1.47c4.49,1.53,9,3.12,13.42,4.69a7.78,7.78,0,0,1,1.28.46c3.45,1.94,4.84,5.54,6.75,8.67,1.45,2.38.63,5.09,0,7.59-.83,3.16-3.68,4.25-6.31,5.08a90.7,90.7,0,0,1-13.79,3.48c-4.17.62-8.49.33-12.74.42a49.4,49.4,0,0,0-6.09.09,22.29,22.29,0,0,1-7.38-.47,39.45,39.45,0,0,0-7-.75A106.79,106.79,0,0,1,77.8,273.2a22,22,0,0,0-6.38-.51c-6,.31-11.89.81-17.82,1.3-2.9.24-5.79.62-8.69.91a5,5,0,0,1-2,0c-6.18-2-12.41-.53-18.61-.29-2.55.1-3.38-.52-3.41-2.56-.08-5.52-.1-11.05-.28-16.58-.18-5.3-.49-10.6-.8-15.9a109.47,109.47,0,0,0-3.72-20.93c-1.32-5.14-2.33-10.36-3.67-15.5a160.62,160.62,0,0,0-7.68-22,56.67,56.67,0,0,1-1.45-41.67,19.32,19.32,0,0,1,3.19-5.14,2.5,2.5,0,0,1,3.64-.48,18.92,18.92,0,0,1,2.77,2c4.12,4,8.32,8,12.24,12.22A68.64,68.64,0,0,1,36.5,163.85c1.86,3.71,4.21,7.17,6.18,10.82a39.5,39.5,0,0,1,1.78,4.74c2.1,5.46,4.54,10.82,6.23,16.41,1.22,4.06,1.52,8.41,2.08,12.66s.85,8.52,1.37,12.77c.22,1.81.54,3.29-1.23,4.81-1.54,1.33-.4,3.24.52,5.07,1.93-2.2,3.8-4.13,5.45-6.23,2.79-3.57,5.39-7.28,8.16-10.87a4,4,0,0,0,.44-3.85c-1.25-4.35-2.5-8.68-3.83-13-1.75-5.71-3.37-11.47-5.41-17.07-2-5.4-4.2-10.72-6.65-15.91-4.19-8.87-8.81-17.53-12.93-26.43-3.08-6.64-6-13.37-6.17-21-.12-4.71.77-9.16,3.52-12.79,1.42-1.87,4.31-2.66,6.6-3.81,1.72-.88,3.19.32,4.35,1.2a70.34,70.34,0,0,1,9.28,7.78C63.34,116.86,67,126.26,71,135.59c1.75,4.15,3.65,8.25,5.51,12.35A25,25,0,0,1,79,159.05c-.13,5.1,1.92,9.71,3,14.54.56,2.51.76,5.09,1.24,7.61.37,2,.92,3.9,1.59,6.66a109.1,109.1,0,0,0,9.81-12.81c-.24-.47-.33-.83-.44-.84-3.61-.31-4.09-2.91-4.18-5.75-.15-5.19-.38-10.38-.36-15.57a109.76,109.76,0,0,0-1.76-19.22c-1.77-10.2-4.93-20.17-5-30.67-.06-6.77-.74-13.54-.8-20.31-.06-5.8.74-11.5,3.87-16.63a15.35,15.35,0,0,0,1.48-3.74c.61-2.13,1.11-2.61,3.24-2.74,1-.06,2-.25,3-.23a10.07,10.07,0,0,1,3.54.41,14.34,14.34,0,0,1,7.56,7.45c2.31,5,4.42,10.1,6.44,15.23A44.29,44.29,0,0,1,114.14,98c.15,7.77.93,15.53.88,23.3,0,7.55-.83,15.09-1.22,22.63-.1,1.76.06,3.53.1,5.29l.75.34,18.19-18c-.65-.76-1.17-1.31-1.61-1.92-.73-1-1-2,0-3,1.57-1.53,1.87-3.48,1.92-5.57.14-6.66.4-13.32.55-20,.2-8.84-2.41-17.17-4.65-25.58-1.39-5.22-3-10.49-3.48-15.83-.58-6.35-1.49-12.84.14-19.19s5.23-11.2,11.95-13c4-1.06,7.2.45,9.61,3.8,2.69,3.74,3.57,8.05,4.35,12.36,1.88,10.31,3.58,20.64,5.29,31,.86,5.21,1.7,10.43,2.32,15.67.41,3.44.37,6.94.6,10.4a8.38,8.38,0,0,0,.67,2c2.88-1.29,2.79-3.53,2.19-6l3.19-1.35c.29-3.71,1-7.53.81-11.32-.38-8.57,0-17.18-1.44-25.69a92.64,92.64,0,0,1-.89-9.42A27.8,27.8,0,0,1,171,28.73a17.31,17.31,0,0,1,11.93-6.39c3.78-.38,6.56,1.44,8.72,4.28,4.85,6.37,6.08,13.66,5.35,21.47a86.84,86.84,0,0,0-.5,11.16c.09,2.5,1,5,1.62,8.2,1-1.07,1.6-1.45,1.71-2A93.22,93.22,0,0,0,202.05,43a123.76,123.76,0,0,1,1.57-25A26.05,26.05,0,0,1,209,6.51,16.93,16.93,0,0,1,216.49.43a4.6,4.6,0,0,1,5.67,1.39C223.1,2.92,224.1,4,225,5.13c2.74,3.57,2.67,7.79,2.72,12,0,2.58.16,5.16.27,7.75.17,4.27.37,8.54.54,12.82,0,1.2.08,2.41.14,4.23,3-2.61,4.27-5.67,5.73-8.51,3.51-6.83,6.75-13.82,10.3-20.63a23.26,23.26,0,0,1,6.39-7.85c3.17-2.43,6.71-2.74,10-.58a37.87,37.87,0,0,1,4.1,3c2.82,2.43,3.53,5.57,1.65,8.8a41.53,41.53,0,0,1-5.33,7.42,50.93,50.93,0,0,1-11.61,9.23,6.42,6.42,0,0,0-2.4,2.25,10,10,0,0,1-4.9,4.43c-2,.95-4.17,1.77-5.62,3.94,1.24,1,2.65.7,3.88.77a78.25,78.25,0,0,1,18.28,3c6.81,2,11.94,6.32,16.12,11.84,2.23,3,1.42,5.17-2.21,6.44a67.76,67.76,0,0,1-23.39,3.39c-6.65-.08-13.3-.49-19.95-.48-5.4,0-10.81.33-16.21.67-2.92.19-5.83.84-8.32-1.45-.26-.25-.86-.12-1.6-.2-.57,1-1.18,2-2.09,3.58,1.59.29,2.81.61,4.06.72,6.63.63,13.29,1,19.88,1.85s13,3.07,18.05,7.78c4,3.7,7,7.92,6.2,13.92-.28,1.93-.95,3.24-2.84,3.7a34.24,34.24,0,0,1-6,1.17c-5.18.32-10.38.64-15.56.52-5.86-.14-11.71-.7-17.56-1.21-6.62-.57-13.23-1.62-19.86-1.84a120.05,120.05,0,0,0-16.16,1,6.75,6.75,0,0,0-3.71,2.15c-2.17,2.25-4.08,4.74-6.14,7.2.12.06.53.37.64.28,2.22-1.66,4.58-1.46,7-.66,7.08,2.3,14.19,4.48,21.24,6.86,4.59,1.56,9.12,3.3,13.62,5.1,3.14,1.25,6.15,2.83,9.28,4.1,4.61,1.86,9.24,3.69,13.93,5.33a17.56,17.56,0,0,1,8.85,7c1.57,2.29,1.1,4.29-1.54,5.12a41.8,41.8,0,0,1-9.52,1.87c-9.59.66-19.12-.52-28.63-1.52-7.29-.76-14.56-1.64-21.83-2.55-8.5-1.06-17-2.16-25.46-3.36-4.12-.58-8.2-1.45-12.31-2.09a3.39,3.39,0,0,0-2.43.37,155.5,155.5,0,0,0-18,18.25c3,1.15,6,.73,8.81.81,7.1.18,14.2,0,21.3.17,5.06.1,10.12.39,15.17.74,6.63.46,13.29.78,19.86,1.7,5.55.78,11,2.35,16.5,3.56,2.64.58,5.31,1.07,7.94,1.72,1.75.44,3.46,1,5.16,1.64.51.19,1.18.51,1.36.95,1.25,2.94,4.05,4.72,5.53,7.45,2.13,3.92.71,7.6-3.53,8.78-7.46,2.08-15,3-22.76,1.55a111.2,111.2,0,0,0-25.64-1.53c-2.12.1-4.23.91-6.33.87-6.3-.12-12.59-.48-18.89-.79-6.07-.3-12.15-.58-18.21-1-5.6-.42-11.27.19-16.8-1.2a17.08,17.08,0,0,0-2-.11,24.16,24.16,0,0,1-4.35-.89c-2.51.12-4,1.62-5.33,3.8a122.88,122.88,0,0,1-7.58,10c-.92,1.17-1.38,2.33-.07,4,4.61.37,9.53.82,14.46,1.14,9.44.62,18.9,1,28.33,1.8,8.65.71,17.27,1.75,25.89,2.73,6.27.71,12,3.13,17.49,6.09,3.08,1.67,6.26,3.19,9.22,5.06,4.06,2.55,6.41,6.64,5.23,11.13a6.15,6.15,0,0,1-5.33,5c-8.67,1.38-17.37,2.7-26.18,2.45-4.73-.13-9.43-.65-14.15-1-5.73-.39-11.46-.68-17.18-1.17-8.17-.7-16.34-1.55-24.51-2.32-5.46-.52-10.93-.9-16.37-1.55C78.51,223,73.18,222.72,68.2,220.39Zm78.07-108.52c-.07.73-.13,1.46-.2,2.19l.63-.06-.54-2.11a1.69,1.69,0,0,0-.76-2.62ZM86.76,104c-.17.75-.35,1.51-.53,2.27l.51.11L86.67,104l0-2.49-.86.18C86.12,102.42,86.45,103.18,86.76,104Zm24.89,150.31-5,.05c2.86,1.68,3.72,1.59,5-.07.54.91,1,1.91,2.58.74Zm31.8-47c-2.91-1.59-6-1-9-.71,3,.9,5.91,1.94,9,.61l2.86.85c0-.25.09-.51.13-.77ZM23.76,258.6c.18,3.93.36,7.87.56,12.13C27.17,266.63,27.07,263.54,23.76,258.6ZM213.56,62.94l0,1.13c5.85,0,11.7.68,17.54-.27v-.71ZM63.35,174.88l.62-.17c-.37-2.29-.86-4.58-1.08-6.89-.18-2-1.54-2.24-3.51-3Zm-32.19-8.21.74-.22a21.55,21.55,0,0,0-5.58-11.67Zm50.65,72.46c-4.93-.73-9.1-1.93-13.94-1.43C71,239,78.91,239.92,81.81,239.13Zm-4.16-55.57c-.2-4.05-.38-4.68-1.84-6.94-.82,1.29-.82,1.29-.63,5.25Zm8.88,69.61c1.92,1.54,6.6,1.68,9.55.36ZM15.78,203.72a9.21,9.21,0,0,0-2.61-8.06C14.2,198.83,15,201.28,15.78,203.72ZM145,33.84c-.83-2.57-.83-2.57-3.61-2.71C142.34,33.54,142.34,33.54,145,33.84Zm-25.65,213-.27.91c2.11,1.22,4.45.93,6.84.4ZM264,62.59l1-.19c.23-.67.84-1.57.6-2-.63-1.07-1.7-1.73-3.62-1.1Zm-.43-46.8-.43-.38-3.33,4.86.47.33ZM216.21,173.26c-1.06.86-3.16.85-2.55,3.28C216.35,176.88,216.06,174.89,216.21,173.26ZM179,224.49c-4.61-1.74-4.61-1.74-4.93.72ZM222,12.2c2.46-1.95,2.48-2.42.46-4.82C222.33,9,222.19,10.42,222,12.2ZM255.57,54a9.79,9.79,0,0,0,6.64.62C259.69,53.23,257.63,53.63,255.57,54Zm16,5.86c-2.15-3.63-2.15-3.63-4.62-3.16ZM99.67,125.54c-.59-1.54-1.5-2-2.66-1.46-.4.2-.41,1.18-.76,2.31Zm-79.2,63.81c0-2,.36-4.07-1.37-6.54C19.66,185.51,20.07,187.43,20.47,189.35Zm84.78,83.82c-1.87-.81-2.59-.82-5.1.07C101.78,273,103.38,274.34,105.25,273.17ZM37.81,265l.28-1.19a15.88,15.88,0,0,0-2.44-.46,6.27,6.27,0,0,0-.41,1.37Zm189-131.84c1.71,2.13,1.71,2.13,3.76,1.94ZM210.2,169.59c.77,2.59.77,2.59,2.94,1.67ZM170.47,90c1.71-.18,3,0,3.92-1.76C172.8,88.32,171.5,87.88,170.47,90ZM8.36,178.49l-1,0c-1.19,1.5.58,2.27.85,3.41l.64-.13C8.71,180.7,8.53,179.6,8.36,178.49Zm132.18,44.32c0-.29.05-.58.08-.87l-4-.37c0,.29-.05.59-.08.88Zm43.71-176.1-2.68.25C182.75,48.82,183.55,48.58,184.25,46.71Zm22.69-31.22.79.32,1.19-3-.65-.26ZM142.51,254.55l-.36.63,4.07,1.48.18-.45ZM104,79.89l1.15-.24c-.28-1.13-.57-2.26-.85-3.39l-.83.18ZM95.22,62.44l-2.4,1.3C94.72,65.23,95.07,64,95.22,62.44Zm54.09,205.21c-.93-1-1.69-1.2-2.43-.44-.2.2-.08.73-.14,1.5ZM168,44.44c-1.07,2.25-1.07,2.25.42,3.38C168.31,46.63,168.2,45.74,168,44.44ZM70.28,205l-.7.25c-.07,1.14,0,2.2,1.67,2.71C70.93,207,70.6,206,70.28,205Zm40.82,15.31c0,.31,0,.61.05.92.37.13.77.39,1.1.33s.75-.42,1.58-.94ZM31.65,189.8a6.06,6.06,0,0,0-.11-1.43,6.14,6.14,0,0,0-.94-1.21C29.87,188.64,30.26,189.26,31.65,189.8Zm42.79,26.63-.32.44,1.31.9.32-.45ZM26.29,243.62h.51a5,5,0,0,0,.06-1,9.36,9.36,0,0,0-.39-1.24l-.51.15Zm4.57,5.25.65-.08c-.1-.74-.21-1.47-.31-2.21l-.56.09C30.72,247.4,30.79,248.14,30.86,248.87Zm14-145c-1.38-1-2.07-.6-3.28.53Zm174.64-6.75c0,.26,0,.51.08.76l1.2-.12c0-.19-.05-.51-.13-.53A8.62,8.62,0,0,0,219.55,97.13ZM192.47,34.42l-.57.15c.13.5.25,1,.41,1.5a4.18,4.18,0,0,0,.55-.11Zm61.41,30.74.08.5,1.53-.12-.12-.79ZM95.37,272.35l-.08.74,1.32.06.06-.41Zm69-54.87c.06-.15.11-.31.17-.47-.48-.14-1-.29-1.45-.4a2.58,2.58,0,0,0-.16.47Z"/></g></g></svg>