<svg xmlns="http://www.w3.org/2000/svg" viewBox="0 0 69.45 267.47"><defs><style>.cls-1{fill:#282230;}</style></defs><title>Asset 11</title><g id="Layer_2" data-name="Layer 2"><g id="GRID"><path class="cls-1" d="M36.89.21c3.19.26,5.6.92,7.69,2.62a11.16,11.16,0,0,0,2.78,1.4c1.56.67,3.15,1.26,4.72,1.9a1.83,1.83,0,0,1,.63.47c2,2.32,4.25,4.45,5.29,7.47a14.35,14.35,0,0,0,1.22,2.45A11.82,11.82,0,0,1,61,20.22a3.17,3.17,0,0,0,.82,1.32,22.21,22.21,0,0,1,4.64,10c.42,2.05,1.11,4.05,1.63,6.08.46,1.83,1,3.67,1.26,5.54a5.39,5.39,0,0,1-.66,4A11.47,11.47,0,0,0,68,49a7.62,7.62,0,0,1-2.71,3.71,7.42,7.42,0,0,0-3,3.2c-.36.83-1.54,1.35-2.43,1.88-2.47,1.47-5,2.88-7.47,4.29s-4.91,2.72-7.35,4.1c-1.38.77-2.44,1.76-2.42,3.53,0,1.44,0,2.88-.07,4.33,0,1.11-.08,2.22-.09,3.33,0,4.6-.19,9.19-.1,13.78a179.72,179.72,0,0,1-1.44,26.13,40.69,40.69,0,0,0,0,9,58.57,58.57,0,0,1-.8,15.47c-1.35,8.23-2.39,16.51-3.51,24.77C35.74,172.37,35,178.17,34.3,184c-.43,3.52-.81,7.05-1.2,10.58-.45,4.11-1,8.22-1.28,12.34-.33,4.52-.24,9.08-.74,13.58-.84,7.56-1.06,15.18-2.63,22.67-.82,3.89-.8,8-1.17,12-.32,3.52-.42,7.09-1.54,10.5-.45,1.36-1.11,2-2.16,1.87a2.21,2.21,0,0,1-2-2.09,11.34,11.34,0,0,1-.16-3.13c.73-6.32,1.55-12.63,2.3-19,.55-4.56,1-9.12,1.55-13.68.29-2.48.78-4.94,1-7.42.3-3.86.48-7.74.58-11.61a157.44,157.44,0,0,1,1.64-16.65c.68-5.22,1.15-10.46,1.8-15.68.48-3.84,1.11-7.67,1.64-11.51.36-2.6.67-5.2,1-7.8.45-3.56.93-7.13,1.36-10.69.26-2.15.44-4.31.72-6.46s.52-4.15,1-6.19c.64-3,.29-6,.18-9a90.62,90.62,0,0,1,.51-12.32,111.88,111.88,0,0,0,1-14.88c-.25-7.74-.62-15.48,0-23.23a28.83,28.83,0,0,0-.16-4.91c-.12-1.46-.61-1.77-2.08-1.58a11.49,11.49,0,0,0-1.56.22c-4.83,1.38-9.3-.37-13.89-1.43-4.13-1-6.93-3.77-9.86-6.48-.66-.61-1.4-1.14-2.11-1.71a4.34,4.34,0,0,1-1.74-4c.47-3.2-1-5.71-2.43-8.3-.73-1.38-1.45-2.79-2.27-4.12-2.6-4.25-1.49-8.31.57-12.3,1-2,2.26-3.84,3.25-5.84A23.4,23.4,0,0,0,6.9,21.47a30.9,30.9,0,0,1,3.5-7.25c1-1.81,2.15-3.6,3.06-5.48s2.64-2.4,4.31-3.14a7.29,7.29,0,0,0,1.67-.91,16.78,16.78,0,0,1,4-2.36A24.82,24.82,0,0,1,36.89.21ZM26.66,7a12.67,12.67,0,0,0,7.81,1.26,41.44,41.44,0,0,0,4-1,3.37,3.37,0,0,0-3.78-2.62,1.76,1.76,0,0,1-.39-.06c-2.4-.47-4.51.55-6.63,1.38C27.33,6.08,27.1,6.52,26.66,7ZM14.85,57.72c-.4-1.15-.69-2.22-2-2.61C12.87,56.9,13.21,57.34,14.85,57.72ZM32.3,50.39c-.54,1.87.21,3.09.6,4.39C33.41,53.38,33,52.1,32.3,50.39ZM5.63,41.19l.58,0a4.2,4.2,0,0,0-.1-3H5.66ZM43.73,10.4V10l-.85.07v.26Z"/></g></g></svg>