<svg xmlns="http://www.w3.org/2000/svg" viewBox="0 0 137.39 199.34"><defs><style>.cls-1{fill:#282230;}</style></defs><title>Asset 10</title><g id="Layer_2" data-name="Layer 2"><g id="GRID"><path class="cls-1" d="M122.26,199.34a45.15,45.15,0,0,1-3.05-3.76,199.85,199.85,0,0,1-15.06-27.46,109,109,0,0,0-6.74-12.38c-1.15-1.83-3.09-3.17-4.86-4.92l1.5-1.83c-4.89-3.51-9.54-7.17-15-9.67-5.69-2.6-11.29-5.43-16.92-8.18a6,6,0,0,0-4.73-.45,21.7,21.7,0,0,1-13,.21c-5.76-1.79-11.14-4.16-14.94-9.17-4.64-6.11-3.53-8.25,3-11.8,1.72-.94,4-.79,6.08-1.12.77-.12,1.54-.16,2.77-.27-4.26-3.16-8-6.1-11.94-8.81a83.81,83.81,0,0,1-14-11.49c-3.21-3.42-6.76-6.52-9.91-10A23.89,23.89,0,0,1,.29,68.34c-.59-2.14-.37-2.6,1.57-3.86a9.34,9.34,0,0,1,8.44-.69C19.21,67,27,71.8,32.6,79.7,38.85,88.59,45,97.52,51.26,106.43c.24.35.47.7.68,1.06,2.11,3.62,4.05,7.41,8.85,8.46a2.91,2.91,0,0,0,.92,3.76,122.49,122.49,0,0,0,19.65,13.35,5.57,5.57,0,0,0,1.07.28,6.52,6.52,0,0,0-.21-1.28c-2.07-4.79-4.14-9.58-6.25-14.35-.32-.73-.73-1.73-1.34-2-1.79-.71-1.86-2.06-1.81-3.58a31.36,31.36,0,0,0-1.66-9.84,35.17,35.17,0,0,1-1.32-6.12c-.44-4.51-3.06-8.17-4.5-12.29-.55-1.59-1.87-2.48-3.21-2.11-1.64-1.85-3-3.4-4.37-4.91-4.58-5-9.21-10-13.74-15a8.65,8.65,0,0,1-2.53-6.24,1.37,1.37,0,0,0-.17-.88c-.89-.88-1.12-1.88-.21-2.73a3.13,3.13,0,0,1,3.75-.63,21.92,21.92,0,0,1,7.2,5.94c2,2.4,4,4.84,6,7.25a1.56,1.56,0,0,0,1.35.54c-.42-1.54-.78-3.1-1.27-4.61C54.77,50.31,51.62,40,48,29.89c-1.7-4.68-4.44-9-6.63-13.47a27.76,27.76,0,0,1-2.08-5.21c-.41-1.65-.27-3.31,1.64-4.3A4.14,4.14,0,0,0,42.34,5c.37-.73.42-1.62.76-2.38,1-2.35,2.65-2.81,4.75-1.34a12.62,12.62,0,0,1,4.44,6.32q1.78,4.86,3.41,9.78,1.47,4.45,2.77,9c2.43,8.36,3.38,17,4.92,25.54.63,3.5,1.46,7,2.11,10.44A4.38,4.38,0,0,1,65.43,65,5.75,5.75,0,0,0,66,71.26c1.47,2.19,1.92,4.58,2.56,7,1.19,4.54,2.51,9.06,3.8,13.58A1.83,1.83,0,0,0,73.47,93c0-1.91,0-3.82,0-5.73A24.52,24.52,0,0,1,76,75.82a4.62,4.62,0,0,1,8.28,0,22,22,0,0,1,1.82,5.64,42.73,42.73,0,0,1,0,14.36A22.2,22.2,0,0,1,84,101.93c-1.76,3.54-2.53,7-.53,10.7,1,1.93,1.61,4.09,2.52,6.09,1.29,2.84,2.69,5.64,4.08,8.44a3.63,3.63,0,0,0,1,1.12c2.42,1.92,4.51,4,5.12,7.24.06.31.53.53,1.2,1.16,0-2.19-.06-3.89,0-5.59.2-6.15.31-12.3.7-18.44.37-5.82,1.28-11.61,1.53-17.44.29-6.87.15-13.76.15-20.65,0-2.19-.28-4.39-.13-6.56.33-4.54-.45-9-1.13-13.41a7.65,7.65,0,0,0-.63-2.09c-2.44-5-4.87-9.94-7.37-14.87q-3.12-6.15-6.41-12.2c-.7-1.27-1.8-2.33-2.47-3.61a58.62,58.62,0,0,1-3.26-7.07c-.86-2.35.58-3.82,3.12-3.29a11.22,11.22,0,0,1,6,3.7,28.8,28.8,0,0,1,5.56,9.35,10.33,10.33,0,0,0,1.68,3.12c-.51-3.56-1-7.13-1.55-10.68-.41-2.46-1-4.88-1.58-7.32a2.32,2.32,0,0,1-.12-.92,59,59,0,0,1,1.53-6.33A4,4,0,0,1,95.12,0c.54-.18,1.87.91,2.28,1.71A19.42,19.42,0,0,1,99.3,7c.92,5,1.85,10.09,2.33,15.17.38,3.92,0,7.89.11,11.84.11,3.42.52,6.84.75,10.26.08,1.09,0,2.2,0,3.29,0,1.65.08,3.3.07,5,0,1.42-.08,2.84-.17,4.26-.18,3.12-.08,6.18,2.06,9.4a31.26,31.26,0,0,0,1.77-3.24c2.59-6.6,4.78-13.37,8.23-19.59,1.77-3.18,3.72-6.27,5.74-9.3,1.22-1.82,3.12-1.63,3.76.45A18.89,18.89,0,0,1,124.5,40,18.36,18.36,0,0,1,121,50.86c-3,4.23-6.06,8.48-9.19,12.64a21.78,21.78,0,0,0-4.47,16.66c.88,6.16.38,12.28-.09,18.42-.18,2.39-.25,4.79-.3,7.19a8.25,8.25,0,0,0,.59,2c1.39-1.92,2.57-3.33,3.51-4.89C114.58,97,118.21,91.27,123.65,87a41.12,41.12,0,0,1,12.69-6.87c1.34.81,1.28,2,.48,3.11a33.32,33.32,0,0,1-2.71,3.44,70.4,70.4,0,0,0-8.38,11.65A36.53,36.53,0,0,1,120,105.7a24.85,24.85,0,0,0-5.28,8c-.29.67-.52,1.37-.86,2-1.44,2.81-2.75,3.38-6.08,2.44,0,2.34,0,4.58-.16,6.82a36.36,36.36,0,0,1-.54,5.9,49.84,49.84,0,0,0-1,11.77,89.49,89.49,0,0,0,4.33,24.94,35.2,35.2,0,0,0,1.83,4.66c2.89,5.79,5.87,11.54,8.81,17.3.18.37.55.8.48,1.12-.64,2.57.62,4.64,1.63,6.81.18.39,0,.95-.05,1.44ZM78.3,115c.57,4.75,3.47,12.14,5.32,14C82.72,124,80.33,119.55,78.3,115ZM44.88,11.93c-.33,2.42,3.42,12,5.56,14.29C48.75,20.92,47.69,16.09,44.88,11.93Zm.51,101.31c-1.12-2.17-3.06-1.95-4.8-1.87s-3.56-.94-5.48.66ZM67.09,131c-4.1-3.67-4.3-3.77-6.62-3.44ZM31.73,112.45l-2.42,2.91.38.52,3-.47Zm101-27.75c-3.5,1.38-3.5,1.38-3.11,3.82Zm-31.36,38.65-.61,0-.24,3.56.61,0Zm20.87-86.24-.47-.41-1.16,1.38.42.37ZM105,91l.33.23c0-.09.14-.17.14-.26,0-.55,0-1.1,0-1.65h-.36C105.1,89.88,105.07,90.47,105,91Z"/></g></g></svg>