<svg xmlns="http://www.w3.org/2000/svg" viewBox="0 0 348.29 310.58"><defs><style>.cls-1{fill:#282230;}</style></defs><title>Asset 24</title><g id="Layer_2" data-name="Layer 2"><g id="GRID"><path class="cls-1" d="M320.11,248.88a28.17,28.17,0,0,0,2.41,3.38,31.61,31.61,0,0,1,5.72,8.21,42.8,42.8,0,0,0,3.44,5.26c1.69,2.32,1.31,7.07-.74,9.8a55.4,55.4,0,0,0-3.88,5.77,15.89,15.89,0,0,1-9.3,7.19,42,42,0,0,1-5.15,1.47,20.66,20.66,0,0,1-11.46-1.16c-1.71-.65-3.11-2.08-4.74-3-3.1-1.74-6.27-3.36-9.4-5-1.94-1-3.88-2.07-5.79-3.16-1.24-.7-2.36-1.65-3.65-2.23-3.53-1.61-5.18-1.1-7,2.41a20,20,0,0,0-1.72,5.38c-1.17,5.93-2,12-5,17.31-3.47,6.14-8.76,10-16,10.09-4.64.08-8.43-2.3-11.56-5.83-4.37-4.93-6.63-10.87-8.2-17.05-1.85-7.24-3-14.67-4.83-21.92-2-7.92-4.37-15.73-8.38-22.94a59.58,59.58,0,0,1-2.59-6.15,16.45,16.45,0,0,0-10.05-9.25c-3.26-1.18-6.56-1.58-9.68,1.17-2.57,2.26-5.76,3.79-8.51,5.86a23.75,23.75,0,0,0-4.23,4.27,46.54,46.54,0,0,1-10,8.94c-5.32,3.73-16.55,4.86-22.61.37-2.83-2.09-4.39-5-6.13-7.88-.75-1.24-1.35-2.58-2.14-3.79A25.21,25.21,0,0,1,135.43,226a67.07,67.07,0,0,0-4.2-15.13c-2.12-5.27-4-10.65-6-15.94a28.82,28.82,0,0,0-2.22-4.13c-2.84-4.72-4.75-9.94-7.82-14.54a9.57,9.57,0,0,0-2.1-2.52c-2.4-1.7-3.22-1.44-5.41.65a65.45,65.45,0,0,0-10,12.13c-4.36,6.78-10.79,10.06-18.52,9.2-7.35-.82-14.25-3.27-19.09-9.86-3.52-4.79-6.24-9.71-7.26-15.58A70.52,70.52,0,0,0,47,153.14c-1.62-3.56-2.95-7.26-4.49-10.86-.73-1.72-1.3-3.56-3.19-4.57a2.72,2.72,0,0,1-1-2,11.4,11.4,0,0,0-2.6-6.39A5.53,5.53,0,0,1,34.65,127a43.74,43.74,0,0,0-4.12-13c-3.7-7.45-6.1-15.33-8.7-23.18C19,82,17.36,73,15,64.17a15.1,15.1,0,0,0-2.57-5.72c-3.74-4.56-5-9.37-2.76-15a4,4,0,0,0,.17-2.28c-1.08-4.91-2.2-9.8-3.41-14.68a12.7,12.7,0,0,0-1.38-3C3.52,20.79,1.93,18.11.37,15.41A2.17,2.17,0,0,1,0,14.48C0,9.59.79,4.9,4.31,1.21,6-.51,8.33,0,10.37.35a13.07,13.07,0,0,1,6.07,2.58C19,4.88,22.15,6,24.79,7.77c8,5.47,16.65,9.65,24.82,14.74C57.44,27.4,65.8,31.44,73.9,35.9c4.8,2.64,9.43,5.63,14.35,8,7.72,3.73,15.49,7.35,23.81,9.76,4.22,1.22,8.61,2,12.65,4.15,3.67,2,8,1.63,12.15.93a67.68,67.68,0,0,0,7.22-1.56c2.12-.6,4.32-1.09,5.91-2.92A6.79,6.79,0,0,1,152.34,53,99.84,99.84,0,0,1,166,47.85a21.26,21.26,0,0,0,10.08-5.77c2-2.17,4.19-2.65,6.87-1.14,2.22,1.25,4.61,2.2,6.89,3.36,6.8,3.48,10.36,12.3,9.16,19.37a28.55,28.55,0,0,0-.32,10.27c.38,2-.39,4.25-.21,6.35a50.17,50.17,0,0,0,1.41,7.84,3.46,3.46,0,0,0,3.43,2.74c4.12.12,8.25.33,12.36.21,6.14-.17,11.66-2.89,17.43-4.59,2.41-.71,4.9-1.18,7.31-1.9,3.09-.92,6.14-2,9.22-3,4.88-1.52,9.83-2.42,14.79-.5,9.76,3.78,12.24,8.46,12.29,18.79,0,3.15-1.59,5.69-3.93,7.89s-4.49,4.84-6.8,7.21a14.11,14.11,0,0,1-3.78,3.24c-4.69,2.18-5.55,6.35-6,10.76a2.28,2.28,0,0,0,2.15,2.55,43.36,43.36,0,0,0,6,.86c4.69.16,9.39.19,14.09.16,8.59-.06,17.19-.2,25.78-.31A26.88,26.88,0,0,1,318,135.75c1.92,1.08,4.16,1.51,5.76,3.27,2.63,2.89,5.12,5.86,6.64,9.52,1.71,4.13.28,7.89-1.35,11.63a25.42,25.42,0,0,1-7.51,9.73,16.62,16.62,0,0,1-5.38,2.57c-4.34,1.37-8.75,2.53-13.15,3.72-2.85.77-4.24,4.59-2.59,7.3a8.92,8.92,0,0,0,4.44,3.39c2.24,1,4.46,2,6.67,3,3.3,1.57,6.57,3.2,9.85,4.81a1,1,0,0,0,.3.13c6.78.47,12.11,4.7,18.16,7.07a6.3,6.3,0,0,1,2.69,2.33c4.29,6.43,6.68,13.41,5.46,21.25-1.24,8-3.88,15-12,19C331.13,246.83,326.4,249.12,320.11,248.88ZM44.34,58.61c.69,1,1.35,1.94,2.08,2.87q2.88,3.69,5.83,7.33a33.32,33.32,0,0,0,3.26,3.82c7.92,7.23,15.64,14.7,23.92,21.5S95.5,108,103.38,115c6.6,5.94,13.75,11,22.55,13.38a29.29,29.29,0,0,1,8.74,3.86,30.33,30.33,0,0,0,3.64,1.72c2.5,1.21,5.06,2.35,7.49,3.68,3.72,2,7,4.69,11.23,6a68.58,68.58,0,0,1,13.86,6.12,41.08,41.08,0,0,0,4.92,2c2.55,1.07,5.08,2.19,7.63,3.25,1.23.51,2.7.65,3.71,1.41,5.07,3.82,10.5,7.13,15.16,11.54,4,3.8,8.52,7.07,12.81,10.57,3.1,2.53,6.29,5,9.31,7.57,5.29,4.57,10.47,9.27,15.72,13.9,2.75,2.42,6,4.42,8.19,7.28,2.92,3.91,6.64,6.52,10.69,8.9a4.46,4.46,0,0,0,5,.22,51.9,51.9,0,0,0-4-6.53,83.41,83.41,0,0,0-7.68-7.94c-3.77-3.46-7.78-6.65-11.6-10.06s-8.27-6.1-10.86-10.77c-.6-1.1-1.94-1.83-3-2.62-3-2.25-6.49-4.09-9.13-6.73C211,165.13,203,160.07,195.62,154.1c-4.23-3.43-8.76-6.5-13.15-9.72-6.67-4.89-13.18-10-20.54-13.86-.39-.21-.72-.53-1.11-.73-2.86-1.48-5.71-2.95-8.58-4.4-1.19-.61-2.45-1.09-3.6-1.77-4.59-2.72-9-5.73-13.75-8.2-6.89-3.62-13.58-7.69-21-10.26a9.06,9.06,0,0,1-2.23-1.4c-2.32-1.73-4.55-3.59-6.94-5.21-3.69-2.5-7.48-4.84-11.21-7.27-6-3.9-11.84-8.07-18-11.65a121.4,121.4,0,0,1-18-12.73A45.38,45.38,0,0,0,44.34,58.61ZM138,206c1.45-2.14.85-2.8-1.08-3.33C137.29,203.82,137.55,204.6,138,206Zm156.18-69c-.79-.88-.79-.88-2.28-.39Zm-89.3,20.63a3.27,3.27,0,0,0,.65-.63c0-.07-.21-.43-.34-.44a2.69,2.69,0,0,0-.81.18Z"/></g></g></svg>