<svg xmlns="http://www.w3.org/2000/svg" viewBox="0 0 333.42 279.25"><defs><style>.cls-1{fill:#282230;}</style></defs><title>Asset 25</title><g id="Layer_2" data-name="Layer 2"><g id="GRID"><path class="cls-1" d="M148.37,168.73c-.61-1.69.52-2.19,1.8-2.3,4.28-.35,8.56-.79,12.84-.83a106.84,106.84,0,0,1,12.9.62,39,39,0,0,1,9,2.13A174.61,174.61,0,0,0,207.39,175a46.28,46.28,0,0,1,10.87,4.3c5.8,3,12,5.09,18,7.65,4.15,1.77,8.26,3.62,12.4,5.42a8.52,8.52,0,0,0,2,.73,12.41,12.41,0,0,1,5.5,2.2,11.06,11.06,0,0,0,2.48.89A19.78,19.78,0,0,0,257.3,194q-6.36-7.8-12.76-15.56c-2.5-3-5.11-5.92-7.63-8.91-3-3.52-5.85-7.12-8.85-10.62-1.95-2.28-4-4.46-6.09-6.64-2.68-2.84-5.37-5.68-8.14-8.44-6.77-6.71-13.75-13.17-21.74-18.45-5.93-3.93-11.73-8.06-17.61-12.06-3.48-2.37-6.94-4.78-10.53-7-3.06-1.87-6.36-3.32-9.42-5.18-2.47-1.5-4.74-3.33-7.1-5A16.36,16.36,0,0,0,146,95.08c-1.41-.77-2.83-1.47-3.56-3.06-.17-.37-.78-.54-1.23-.82a6.85,6.85,0,0,0-1.07.7c-4.31,4.07-9.52,4.22-14.89,3.25a58.35,58.35,0,0,1-12.88-4,5.35,5.35,0,0,0-1.1-.19,14.72,14.72,0,0,0,0,2,151.23,151.23,0,0,0,4.29,21.44,15,15,0,0,0,7.85,9.42c1,.49,2,.85,3,1.41a21.23,21.23,0,0,1,2.36,2c-1.2.36-1.85.78-2.41.68-6.22-1-12.49-1.89-18.62-3.36-3.14-.76-6-2.58-9-4.06a32.57,32.57,0,0,1-11.57-9.88c-2.92-3.94-5.67-8-5.48-13.31,0-.91-.67-1.83-.92-2.77a87.9,87.9,0,0,1-3.18-16.79,27.19,27.19,0,0,0-.73-3.45c-.74,1.15-1.2,1.76-1.55,2.43-2.7,5.23-3.08,10.9-3.24,16.65-.29,10.43,1.66,20.52,4.29,30.52,1.22,4.64,2.83,9.18,3.91,13.84a63.56,63.56,0,0,1,1.36,10.39c.23,3.77.06,7.56.06,11.2A2.13,2.13,0,0,1,79,159a57.56,57.56,0,0,1-14.11-15c-1.28-1.9-2.67-3.74-4.07-5.56-2.85-3.74-5.86-7.35-8.56-11.19a38.52,38.52,0,0,1-6.06-14.58,54,54,0,0,1-1.57-9.12,20.08,20.08,0,0,1,2-8.92c1.14-2.62,3-4.94,4.54-7.38.54-.85,1.11-1.66,1.65-2.5.16-.25.19-.69.39-.79,3.14-1.46,4-5.14,7-6.87s5.43-4,8.3-6.22a4.71,4.71,0,0,0-1.3-.79c-15-3.61-30.09-5.91-45.51-3.29a57.33,57.33,0,0,0-8.58,2.55A10.51,10.51,0,0,0,10.7,71c.94,2.23,1.79,4.23,2.66,6.27-3,1.36-5.91,2.75-9.24,1.91a11,11,0,0,1-2.52-.9,3,3,0,0,1-.75-4.77,15,15,0,0,1,2.63-2.42,17.5,17.5,0,0,1,3.8-1.54c1.13-.36,2.49-.24,3.44-.84,4.76-3,10.12-3.64,15.48-4.32,8.61-1.11,17.17-.48,25.72.67a5.94,5.94,0,0,0,2.8-.19c-1.95-1.26-3.92-2.48-5.84-3.77-3.16-2.13-6.51-4-9.36-6.51A123.87,123.87,0,0,1,28.87,44c-2.74-3-5.06-6.43-7.58-9.65a11,11,0,0,0-4.87-3.55l-2.36-5.16A4.93,4.93,0,0,1,20,23a9.05,9.05,0,0,1,5.18,4.36A3.12,3.12,0,0,1,24.75,31a22.16,22.16,0,0,1-2,2c4.68,7.85,11.1,14.27,18,20.13,8,6.81,17.24,11.44,27.8,14.8-.65-2.46-1.1-4.27-1.61-6.07C64.26,52.69,63.22,43.46,64.8,34a42.65,42.65,0,0,1,3.91-12.84,21.55,21.55,0,0,1,5.62-6.89A23.25,23.25,0,0,1,81.48,10c3.73-1.34,7.13-3.6,10.75-5.29a25.7,25.7,0,0,1,5.32-1.67c4.67-1,9.37-2,14.08-2.89a10.76,10.76,0,0,1,3.58-.07,10.61,10.61,0,0,1,2.66,1.31c-.64.62-.87,1-1.19,1.12-1.85.71-2.28,2.08-1.91,3.87,1.19,5.74.62,11.55.42,17.33,0,1.11-1,2.16-1.27,3.3-1,4.44-4.12,7.76-6.33,11.53-1.29,2.19-3.56,3.78-5.33,5.69s-3.7,4.11-5.87,6.53c2.2.22,3.14-.92,4.32-1.7,4.73-3.12,9.21-6.79,15-7.93,14.44-2.86,27.2.49,38,10.62a40.05,40.05,0,0,1,3.66,4.5c-.6,1.11-1,1.51-2.07,1A7.71,7.71,0,0,0,146,59c-1.85,1.84-3.68,3.7-5.44,5.62a24.28,24.28,0,0,1-10.91,6.62c-3.41,1.09-6.91,1.87-10.74,2.88a6.87,6.87,0,0,0,1.94,1.23,40.81,40.81,0,0,0,7.08,1.08c6.24.09,10.63,2.71,12.75,8.51a3.85,3.85,0,0,0,2.67,2.59,24,24,0,0,1,4.66,2c5.51,3.06,11,6.22,16.46,9.34,2.35,1.34,4.83,2.48,7,4,6,4.2,11.88,8.52,17.75,12.89a54.68,54.68,0,0,1,4.18,3.89q4,3.66,8,7.28c3.66,3.29,7.39,6.49,11,9.85,2.11,2,3.8,4.45,6,6.24A59.61,59.61,0,0,1,228.73,154a38.39,38.39,0,0,0,6.79,6.81,105,105,0,0,1,12.94,12.54c.31.35.68.64,1.52,1.43-.25-1.2-.3-1.75-.47-2.27-1.85-5.4-3.83-10.77-5.56-16.21-3.79-11.91-7.91-23.72-10.92-35.89-2.89-11.7-4.25-23.6-5.63-35.54-1.17-10.19-.46-20.4-.86-30.6-.1-2.53.05-2.59,1.4-3.9a9.28,9.28,0,0,1,4.1,5.22c2,5.12,4.49,10.07,6.48,15.21q3.84,10,7.2,20.09c2.65,8,5.21,16,7.5,24.1,3.19,11.29,5,22.88,7.14,34.41a231,231,0,0,0,9.32,35.74A81.79,81.79,0,0,0,280,204.76c3.14,4.48,6.39,8.72,11.16,11.61a13.3,13.3,0,0,1,3.36,3,4.65,4.65,0,0,1,1,2.91,3.82,3.82,0,0,0,1.17,2.95c5.76,6.6,10.29,14.06,14.9,21.46,2.65,4.25,4.95,8.74,7.85,12.8,3.67,5.12,7.8,9.91,11.73,14.85.62.79,1.23,1.58,1.79,2.41a1.52,1.52,0,0,1-.6,2.51c-1.73,0-1.78-3.29-3.93-2.16a22.06,22.06,0,0,0-1.91-3.76c-3.25-4.18-6.49-8.39-10-12.36-5.5-6.25-11.26-12.26-16.81-18.46A103,103,0,0,0,281.49,226c-3.63-2.49-6.89-5.53-10.53-8-7-4.79-14.07-9.58-21.78-13.29-5.87-2.82-11.52-6.09-17.33-9a53.88,53.88,0,0,0-5.67-1.9c-5.06-1.89-10.05-4-15.15-5.71-6.44-2.2-13-4.19-19.46-6.19-7.76-2.39-15.53-4.69-23.3-7a5.75,5.75,0,0,0-.85-.3,33.5,33.5,0,0,1-9.94-3.06C154.66,170.17,151.44,169.64,148.37,168.73Zm95.68-56c.42-2.45.18-3.74-1.44-5.64.63,2.29,1.09,4,1.56,5.63l.3,2,.67-.26Zm6.51.37c-.86,2,.12,3.59,1,5.21,0-1.82.1-3.66-1.13-5.21-.24-1.08-.47-2.16-.7-3.24l-.78.3ZM18.72,25.72c-.67-.52-1.35-1.21-2.14.46l2.13-.55,3.75,3.8C22.44,26.34,21.23,25.25,18.72,25.72Zm240,127.74a14.8,14.8,0,0,0,.07-2.57c-.33-2.26-.78-4.49-1.21-6.74L256.29,139c-.45,3.28-.23,3.94,1.37,5.14-.28.38-.84.8-.8,1.14.37,2.78.29,5.69,1.93,8.18-.66,1.3.1,2.32.68,3.38C259.65,155.6,259.83,154.38,258.69,153.46Zm-94.64,13.95c1.14,1.74,2.81,1.43,4.47,1.2,3.62.62,7.19,2.86,10.93.32-3.24-.49-6.5-.75-9.76-.92-.37,0-.77.45-1.16.68L164,167.38l-6.51.85C161.63,170.55,162.76,170.33,164.05,167.41Zm79.11,25.2c-2.13-1.92-7.08-4-9.91-3.87l9.9,3.8,12,6.62a9.09,9.09,0,0,0-.75-1.3c-3.15-2.73-7.11-3.91-10.81-5.59C243.51,192.24,243.3,192.5,243.16,192.61ZM69.74,96.67c-1.55,5-1.36,9.77,1.75,14.2a2.36,2.36,0,0,0,.25-1.37c-.46-3.87-.93-7.74-1.44-11.61a4.39,4.39,0,0,0-.65-1.22c1.08-.93.53-2,.59-3.07l-.59,0Zm91.7,5.52a21.84,21.84,0,0,0,1.79,1.5c3.55,2.26,7.12,4.46,10.66,6.72,4.72,3,9.53,5.88,13.83,9.54a43.33,43.33,0,0,0,5.42,3.39C188.73,116.83,167.46,102.65,161.44,102.19Zm75.22,22.45a1.68,1.68,0,0,0,.17-.73q-2.33-12.7-4.7-25.38c0-.24-.28-.45-.76-1.16C231.69,107.11,234.08,115.87,236.66,124.64Zm-134.19-70c3.13-.13,6-.23,8.9-.38s5.78-.34,8.67-.54,5.59-.39,8.38-.59c-.27-.55-.53-.72-.79-.71-5.87.23-11.75.36-17.6.77C107.53,53.38,104.88,53.21,102.47,54.66ZM99.73,99.3C92.59,90.64,85.67,84.06,83.9,83.62c.18.55.2,1.15.51,1.45Q92,92.21,99.73,99.3Zm25-29.18c-6.23-1.07-12.2.35-18.22,1.17A60.8,60.8,0,0,0,124.76,70.12ZM54.56,85.64a8.78,8.78,0,0,0-4.07,5c-.67,1.88-2.85,3-2.68,5.47L51,94.58l-.84-2.2C53.58,91.42,54.1,89,54.56,85.64ZM233,67.81l-.64.09a8.28,8.28,0,0,0,0,1.86q1.19,5.35,2.51,10.69c.08.33.6.54.92.81l.6-.29C236,76.42,233.9,72.26,233,67.81Zm-20.6,118.45.17-.59a38.16,38.16,0,0,0-11.45-4.35l-.24.65Zm84.16,42.11-.66.54,7,9.65.67-.48C301,235,299.45,231.22,296.58,228.37ZM137,62.25l.1.52c-.83,1.21-1.65,2.42-2.48,3.62a5.84,5.84,0,0,0,5.27-4.79ZM272.53,207.49l-.44.45c1.49,2.81,3.93,4.69,6.27,6.67l.49-.47Q275.69,210.83,272.53,207.49ZM68.62,144.88c1.15,2.78,2.91,4.38,4.86,6.38C73,147.58,72.72,147.19,68.62,144.88Zm9.94-3.31c.09,2.24-1.1,4.65.85,6.66C79.44,146,79.72,143.68,78.56,141.57ZM62,87.2c1.07-1.51,2.07-2.49,1.35-3.89-.15-.29-1.13-.14-1.41-.17C62,84.49,62,85.56,62,87.2ZM48.19,113.14c-.65,1.72-.11,3.34,1.74,5.17C50.42,116.13,48.94,114.8,48.19,113.14Zm83.14-33.67c.78.4,1.58.76,2.33,1.2s1.36,1.21,2.52,1C135,79.55,133.2,79.47,131.33,79.47ZM229,61.14c2.06-2.14,2-3-.18-4.76C228.85,58,228.9,59.41,229,61.14ZM68.64,27.78l.57.28c2.13-1.88,2.13-1.88,1.22-4.76Zm50.35,96-2.81-3.15C115.73,123.58,115.8,123.66,119,123.74Zm125.89,49.62.63-.57-3.95-3.89-.5.49ZM97.93,58.87a5.24,5.24,0,0,0-4.44-.37l.05.71ZM85.57,102.05c0,1.9,0,1.9,1.35,2.71Zm18.9,11.41.35-.32-2.47-2.7-.38.35Zm13.2-55.59v.55l2.76-.12v-.36ZM81.44,62.36c1.64-.57,1.64-.57,2.19-2.37C83,60.86,81.39,60.76,81.44,62.36ZM91.8,62c-1.87-.12-1.87-.12-2.64,1.59ZM96,90.77l.39-.45-1.3-.74-.17.28ZM250.64,201.33l-.19.35,1.72,1,.23-.42ZM9.28,74.19l.31-.28-1-1.13-.35.32Zm87.31-42.8c-.5-1-.65-1.34-.79-1.65-.22.13-.58.21-.63.39a.94.94,0,0,0,.21.76C95.54,31.07,95.86,31.1,96.59,31.39ZM88.68,9.54l.22.41,1-.55L89.71,9Zm33.17,39,.05-.52-1.72-.15-.05.52Zm16.28,41.8.35-.59L137,89l-.28.47Z"/></g></g></svg>