<svg xmlns="http://www.w3.org/2000/svg" viewBox="0 0 89.54 260.38"><defs><style>.cls-1{fill:#282230;}</style></defs><title>Asset 23</title><g id="Layer_2" data-name="Layer 2"><g id="GRID"><path class="cls-1" d="M46.83,73.12c-.33,1.88.51,3.43,1,5,.9,3.08,1.9,6.12,3,9.15,1.17,3.33.52,6.61,1.69,10,1.32,3.78,4.59,7.58,5.79,11.39.86,2.75,1.61,5.54,2.34,8.33s1.44,5.58,2.07,8.4c.9,4,1.72,8.08,2.57,12.12,1.08,5.14,2.14,10.27,3.24,15.4,1.21,5.64,2.49,11.27,3.68,16.91,1,4.49,1.83,9,2.7,13.51s1.73,9,2.49,13.53c.89,5.31,1.66,10.64,2.5,16,.35,2.2.76,4.39,1.16,6.58.43,2.39.85,4.78,1.34,7.16.77,3.72,1.6,7.42,2.39,11.13,1,4.5,1.84,9,2.85,13.49a58.73,58.73,0,0,0,1.7,5.82c.47,1.41.36,2.36-.58,3a2.51,2.51,0,0,1-3.35-.59,6.11,6.11,0,0,1-.92-2.32c-.62-3.22-1.12-6.45-1.73-9.67-.64-3.42-1.39-6.82-2.06-10.23-.92-4.77-1.89-9.53-2.7-14.32-1.31-7.69-2.47-15.42-3.77-23.12-1-6-2.16-11.88-3.25-17.82-.52-2.84-1-5.68-1.58-8.51-.43-2-1-4.07-1.47-6.12-.92-4.36-1.76-8.75-2.69-13.11-.72-3.33-1.59-6.63-2.29-10s-1.19-6.72-1.92-10.05c-.88-4-1.91-8-2.9-12s-1.89-7.78-2.91-11.65a108.56,108.56,0,0,0-5.37-15.41c-1.12-2.58-2-5.29-2.89-8-1.36-3.82-2.6-7.69-4.07-11.46-1-2.62-2-3-4.74-2.69a7.87,7.87,0,0,1-2.16.1c-2.24-.37-4.57-.06-6.75-.92a1,1,0,0,0-.9.11c-.81.81-1.52.36-2.32,0-2.33-1.12-3.41-3.16-4.16-5.54-2.89-.46-5-2.17-6.8-4.31a2,2,0,0,0-1.3-.65,3.33,3.33,0,0,1-2.24-1.07C9.71,59,7.93,57.36,6.17,55.71a5.39,5.39,0,0,1-.78-.87C4,52.79,2.52,50.79,1.3,48.65-.27,45.88-.22,42.86.5,39.84c.27-1.15.57-2.3.93-3.42a2.15,2.15,0,0,0-.62-2.5,2.27,2.27,0,0,1-.64-2.67,23.14,23.14,0,0,0,.52-2.9,21,21,0,0,1,5.78-12C7.76,15.05,8.86,13.68,11,14c.43-1.17.87-2.25,1.21-3.36a2.3,2.3,0,0,0-.11-1.12c-.14-.5-.36-1-.51-1.49-.45-1.51-.37-1.67,1.06-2.15A18.15,18.15,0,0,1,21,5.19a3.92,3.92,0,0,0,3.31-.74,13.12,13.12,0,0,1,7.3-2.65A34.55,34.55,0,0,0,35.87,1c4-.86,8-1.63,12-.22a10.16,10.16,0,0,1,2.74.88,6.73,6.73,0,0,1,2.69,3,6.58,6.58,0,0,0,3.4,3.1c1.61.85,3.41,1.34,5.11,2,1.34.55,2.62,1.22,4,1.75,2.36.92,3.47,2.86,4.37,5a20.79,20.79,0,0,1,1.52,7.08,20.88,20.88,0,0,0,1.84,7.6,43.88,43.88,0,0,1,1.61,5.26,9.92,9.92,0,0,0,.49,1.28,4.78,4.78,0,0,1-.5,5.21,30.63,30.63,0,0,0-4.93,10.22c-1,3.43-3,6.23-4.88,9.16-.62,1-1.31,2-2,2.9A7.39,7.39,0,0,1,59.41,68a19.73,19.73,0,0,0-5.24,2.65,14.54,14.54,0,0,1-6,2.18ZM50.14,3.06c-.22.49-.59.94-.54,1.34.12,1,1.83,2.3,3.19,2.38C51.65,5.72,51.81,4,50.14,3.06ZM39.06,66.23a6,6,0,0,0-4.17-3.15c-.46.65-.16,1,.38,1.28Zm-25-27.74.73-.12c-.23-1.51-.44-3-.73-4.52,0-.2-.46-.33-1.13-.77ZM31.47,3.57a5.24,5.24,0,0,0-5,1.79ZM16.28,6.85a2.18,2.18,0,0,0-2.37.49c-.2.23-.15.68-.22,1,.35,0,.82.25,1,.1A14.48,14.48,0,0,0,16.28,6.85ZM54.33,36.51c1.13-1.3.91-2-.89-3.15C53.75,34.47,54,35.36,54.33,36.51ZM30.87,57a3.21,3.21,0,0,0-2.28-2.56C29.34,55.23,29.06,56.78,30.87,57ZM61.5,65.26l-.36-.47a4.36,4.36,0,0,0-2.5,2.48Zm7.64-45.47c.46-1.44.35-1.75-1.24-3.84C68.34,17.33,68.71,18.45,69.14,19.79Zm-27-18.42c1.18.85,1.18.85,2.63-.07Zm2.24,51.85c0-1.59-1.43-1.51-1.91-2.32A2.26,2.26,0,0,0,44.42,53.22ZM52.85,70c-2.11-.6-2.11-.6-2.29,1ZM44.68,40.44l-.48.24L45,42.47l.39-.16C45.17,41.69,44.92,41.06,44.68,40.44ZM24.68,17c-.28.4-.57.8-.83,1.22,0,0,.29.3.41.28C24.93,18.35,25.11,17.86,24.68,17Zm17.55-6c-1.4-.06-1.4-.06-1.33,1ZM41.08,47l-.2.09.5,1.27.29-.13ZM27.63,26.29l-.42,0,.11,1.25.33,0ZM56.9,40.49l-.4-.34c-.54.11-1,.33-.87,1l.48.4ZM22.24,46.08l.53-.1-.32-1.07-.4.1Zm4.08,23.06-.34.32.6.54.21-.21Zm37.57-7.93.22.17.64-.86-.23-.17Z"/></g></g></svg>