<svg xmlns="http://www.w3.org/2000/svg" viewBox="0 0 42.57 179.09"><defs><style>.cls-1{fill:#282230;}</style></defs><title>Asset 22</title><g id="Layer_2" data-name="Layer 2"><g id="GRID"><path class="cls-1" d="M41.36,179.09c-.81-2.08-2.08-3.71-2.3-5.78-.28-2.74-.48-5.49-.75-8.24s-.68-5.74-.88-8.62c-.13-1.89,0-3.8,0-5.7a14.39,14.39,0,0,0,0-2c-.75-5.66-1.43-11.34-2.35-17a43.07,43.07,0,0,0-2-8A70.44,70.44,0,0,1,29.26,107c-.3-2.79-1.16-5.52-1.66-8.29-.43-2.39-.85-4.79-1.05-7.2-.38-4.58-.54-9.18-.9-13.77-.12-1.63-.71-3.22-.83-4.84-.5-6.42-.88-12.85-1.33-19.28-.42-5.9-.59-11.83-2.23-17.57-.48-1.72-.42-1.72-2.21-1.77-2.16,0-4.33-.16-6.49-.18A8.9,8.9,0,0,1,5.7,30.68c-.88-1-1.24-2.52-1.95-4C1.42,26.36.65,24.4.27,22.14A18.76,18.76,0,0,1,1.6,11.35a21.42,21.42,0,0,0,1.78-5.8c.33-2.49,1.69-3.64,4.2-3.85a16.52,16.52,0,0,0,2.24-.53C11.1.88,12.37.52,13.66.36,15.29.15,16.94.1,18.58,0a2.61,2.61,0,0,1,1.15.14,46.73,46.73,0,0,1,5.45,2.69C29.33,5.48,32.52,9,33.69,13.93A21.45,21.45,0,0,0,34.25,16a8.19,8.19,0,0,1-.65,7c-1.34,2.39-3,4.6-4.55,6.87a3,3,0,0,1-.82.84A2.91,2.91,0,0,0,27,34.34c.37,1.6.53,3.24.83,4.86a18.28,18.28,0,0,1,0,6.26,78.93,78.93,0,0,0,.07,26.69c1,5.56,2.19,11.09,3.57,16.56,1.25,5,2.78,9.86,4.38,14.73a8.52,8.52,0,0,1,.51,4.11c-.24,1.76.33,3.63.57,5.45.67,5,1.62,9.88,2,14.85.52,7.07.62,14.17.9,21.25a4.19,4.19,0,0,0,.05,1.18c.89,2.68.47,5.46.61,8.19a96.35,96.35,0,0,0,2,17A3.19,3.19,0,0,1,41.36,179.09Zm-7.59-74.5a19,19,0,0,0-.1,5.58c.5,3.38.9,6.77,1.46,10.14.59,3.61,1.31,7.2,2,10.79C37.53,128.77,34.71,106.71,33.77,104.59Zm-2.15-4,.37,0c.18-.87.69-1.81.5-2.57-.7-2.83-1.63-5.6-2.48-8.39l-.31.07Zm0-85.19a38.86,38.86,0,0,1,0,4.4,39.3,39.3,0,0,1-1,4.09C33.06,21.31,33.76,17.81,31.65,15.38ZM24.45,4.31c-.08,2.57,2.42,2.9,3.66,4.35A5.28,5.28,0,0,0,24.45,4.31Zm2.37,26.13c.89-1.19,2.13-1.65,2.43-3.26a14.33,14.33,0,0,1-1.76.8C26.21,28.33,26.3,29.11,26.82,30.44Zm.47-18.61.52,2.93.41.15c.28-.35.8-.7.79-1.05A1.82,1.82,0,0,0,27.29,11.83Zm5,100.28-.69,0,.84,4.3.4-.07ZM2,20.13c0-.9.09-1.79.17-2.68s.2-1.57.3-2.35A6.5,6.5,0,0,0,2,20.13Zm6.87,3.54a3.05,3.05,0,0,0-.51,3.11C9.43,25.86,9.33,25,8.91,23.67Zm17-3.86c-1.72,1.58-1.74,1.67-.82,3C25.42,21.68,25.67,20.75,25.93,19.81Zm-5.47,6.26H21c-.06-.8,1.1-1.63-.46-2.72ZM8.69,13.32l-.54-.11c-.79.72-.67,1.59-.06,2.55ZM21,2.14c.4.75.19,1.49,1.13,1.74l.56-1.29Zm-15.2,19-.47-.06.42,2.5.43-.06Zm20.71-5.81L26,15c-.54.4-1,.83-.64,2.28Zm-5.07,2.95.56.15L22.44,16l-.44-.1Zm4,17.72c.37-1.38.37-1.38-.2-2.43ZM12.06,5.92c-.93.56-.93.56-.8,1.75Zm.32,17.61-.6-.16L11.52,25l.46.09Zm15.55,2.24.32.33.79-.73L28.67,25ZM23,36.06l.3-.06L23,34.26l-.33.06ZM12,12.27l-.28-.06-.26,1.3.27.06ZM14.32,1.61v.14l1.46-.12V1.49Zm7.77,19.73-.47,0,.08,1H22Z"/></g></g></svg>