<svg xmlns="http://www.w3.org/2000/svg" viewBox="0 0 261.95 333.94"><defs><style>.cls-1{fill:#282230;}</style></defs><title>Asset 15</title><g id="Layer_2" data-name="Layer 2"><g id="GRID"><path class="cls-1" d="M45,254c2.63-1.76,5.28-3.5,7.88-5.29,4.48-3.07,9.08-5.89,14.37-7.35a4.21,4.21,0,0,0,2.93-2.69,7,7,0,0,1,10-3.46c-.21,5.92-3.49,10.52-7.19,14.77-1.77,2-5.73,1.21-7-1.12a29.06,29.06,0,0,1-1.34-3.66,40.23,40.23,0,0,0-6,2.92c-5.16,3.62-10.17,7.44-15.19,11.23a11.16,11.16,0,0,0-4,6.3c-2.51,9-5.72,17.91-8,27C29.68,299.36,27,306,27.51,313c.35,4.66-.91,8.94-1.74,13.37a60.91,60.91,0,0,0-.46,7.53c-2.27-.66-2.51-2.3-2.53-4.11-.05-4.11-.09-8.22-.19-12.33a23.22,23.22,0,0,0-.44-2.86l-3,1.12c-2-1.68-1.69-3.69-.87-5.66.55-1.31,1.54-1.41,4.37-.84q1.57-9.3,3.12-18.6c.08-.48.12-1.24-.15-1.47-3-2.43-2.18-6-2.85-9.15a8.6,8.6,0,0,0-.65-2.2q-6.46-12.29-13-24.54A1.19,1.19,0,0,0,9,253c-4.12-3.81-5.53-9-7.29-14.05C.55,235.58-.37,232.26.15,228.73c.57-3.84,3.58-6.44,6.73-6.09,1.55.18,2.78.74,3.13,2.36.69,3.2,3,5,5.58,6.52a6,6,0,0,1,2.81,3.83c2.5,7.6,3.42,15.53,5.09,23.3.64,3,1.7,5.93,2.3,8.94a9.29,9.29,0,0,1-.05,4.83c-1,2.61-.22,4.41,2.08,6.72a28.74,28.74,0,0,0,1.1-4.72c.14-3.08,1.42-5.6,2.86-8.25a94.2,94.2,0,0,0,5-11.66c1.87-4.92,3.77-9.87,5.2-14.93a94.79,94.79,0,0,0,2.85-14c.87-7,1.55-14.09,1.76-21.16a45.18,45.18,0,0,0-1.72-14.84c-.62,1.59-1.21,3.19-1.86,4.76a30.87,30.87,0,0,1-1.49,3.13c-.63,1.15-1.35,2.33-3,1.76s-1.64-1.91-1.46-3.2a30.91,30.91,0,0,1,1-4.86c.49-1.57,1.56-3-.27-4.52-.3-.25-.15-1.55.22-2,1.16-1.49,2.51-2.82,3.91-4.33a8.83,8.83,0,0,1,5.94,8c.47,7.17,1,14.34,1.07,21.52.07,5.12-.5,10.25-.82,15.94a10.8,10.8,0,0,0,1.56-1.36c5.12-7.23,10-14.69,15.45-21.63A15.41,15.41,0,0,0,69,192.63c0-5.38.41-10.89-2.25-15.86a62.22,62.22,0,0,0-9.87-14A22.45,22.45,0,0,1,54.12,164c-3.07,1-5.2-.95-4.48-4.07.83-3.63,3.35-6.05,6.41-7.82,2.05-1.17,5,1.08,4.91,3.72A27.89,27.89,0,0,1,59.67,161c2.38,3.52,4.88,7.55,7.7,11.34a23.86,23.86,0,0,1,4.54,13.29c.13,2.13.45,4.24.78,7.22,3.87-4.51,7.51-7.93,8.39-13.45,1.63-10.21,2.79-20.42,1.86-30.75-.34-3.66-1.3-7.27-2.07-11.45-1.22.83-1.94,1.25-2.57,1.76a3.78,3.78,0,0,1-4.32.61,3.52,3.52,0,0,1-1.84-3.93c.6-4.75,1.83-9.14,6.83-11.23a2.37,2.37,0,0,1,.74-.19,8.32,8.32,0,0,1,1.27.1c.57,1.69,2,3.71,1.67,5.44-.71,4.21.92,7.92,1.8,11.71,1.65,7.13,1.64,14.26,1.25,21.46a86.69,86.69,0,0,0-.11,12.29c.4-.74.82-1.46,1.19-2.21,1-2.07,1.67-4.47,3.14-6.15,1.67-1.93,1.82-3.76,1.49-6A34.05,34.05,0,0,0,88,149.07a17.9,17.9,0,0,1-1.71-10.15,11.62,11.62,0,0,1,3.1-6.89c2.09-2.4,4.63-2.68,7.36-1.85s4,2.82,4.28,5.76a66.46,66.46,0,0,1-.19,17.63,20,20,0,0,0,8-9.61c2.85-7.45,5.85-14.88,6.93-22.86a63.15,63.15,0,0,0-1.35-22.59,25.12,25.12,0,0,0-2-4.49c-1.17.21-1.9.4-2.64.46-3.43.28-4.9-1.73-3.83-5a44.13,44.13,0,0,0,1-4.86c.62-2.87,2.46-3.81,5.88-3,2.72.62,3.78,2.06,2.91,4.76a11.36,11.36,0,0,0,.83,8.82c2,4.25,1.68,9,2.25,13.59,1.14,9.3-.51,18.18-3.47,26.92-.37,1.1-.68,2.22-1,3.34a12.8,12.8,0,0,0-.12,2,63.33,63.33,0,0,0,10.54-9.17c1.85-1.94,3.37-4.18,5.05-6.27,2.5-3.11,4.82-6.39,7.55-9.27a28.58,28.58,0,0,0,5.78-9.93c4.48-11.91,7-24.22,6.39-37a49.56,49.56,0,0,0-1.17-6.26l-3.65,3.2c-1.84,1.62-3.19,1.59-3.76-.64a41.81,41.81,0,0,1-1.29-10.2c0-1.12,1.65-2.76,2.9-3.25a25.57,25.57,0,0,1,7.44-1.6c2.08-.15,3.37,2,2.65,4.13-.62,1.81-1.54,3.51-2.42,5.47,2.06,2.36,2.45,5.43,2.48,8.52A112.62,112.62,0,0,1,150.94,91c-.35,1.83-.63,3.68-1,6.12,4.57-1.27,8.58-1.14,11.62-4.78,4.77-5.71,10.07-11,15.16-16.42a7.75,7.75,0,0,1,1.66-1.58c3.37-1.95,4.87-5.15,6-8.64,3.51-10.63,4.55-21.34,1.09-32.21a23.14,23.14,0,0,0-1-2.51,12.76,12.76,0,0,0-1-1.58,19,19,0,0,0-1.92,1.76c-.65.77-1.13,1.69-1.77,2.48-1.29,1.62-3,1.43-4.54.63s-2.12-2.44-1.7-4.27c.68-2.91,2.81-5.22,5.24-5.6,2.72-.44,6.84,1.81,8.14,4.84a40,40,0,0,1,2.57,8,53.55,53.55,0,0,1-.68,24.47c-.3,1.1-.4,2.26-.65,3.76a6.38,6.38,0,0,0,1.89-.45c4-2.76,8-5.58,12.05-8.36,3-2.09,4.4-5.2,5.64-8.51a92.27,92.27,0,0,0,5-18.61c.56-3.62,2.26-7,1.85-10.83-.17-1.62-.28-3.25-.41-4.87-.67,0-1,0-1.15.09-4.21,2.36-5,1.85-6.33-2.67-1.14-3.92,0-7,2.35-9.93,1.26-1.58,2.68-1.75,4.41-.77,2,1.14,3.82,2.64,3.37,5.1a24.43,24.43,0,0,0,.37,8.41,35.15,35.15,0,0,1-.69,12.27q-2,10.43-4,20.85a3.89,3.89,0,0,0,.17,1.07,13.57,13.57,0,0,0,2-.74c1.57-.87,3.13-1.76,4.63-2.75a28.86,28.86,0,0,0,3.64-2.77C229.48,36,236,29.79,242.65,23.7c2-1.83,4.28-2.86,7.42-1.23.61-1.52,1.46-2.86,1.62-4.27.37-3,3.07-2.74,4.85-3.67,1.62-.85,2.53.44,3.47,1.57,2.06,2.5,2.51,4.88,1.19,7-1.84,2.9-3.87,3.82-7.19,2.76a3.3,3.3,0,0,0-3.77.85,59.84,59.84,0,0,1-4.84,3.83c-3.77,2.84-3.78,2.83-4.39,7.41-5.11.49-9,3.6-13.08,6.6-5.25,3.91-10.59,7.71-15.88,11.59a18.8,18.8,0,0,0-1.85,2,58.48,58.48,0,0,0,6.42-.62,43.69,43.69,0,0,1,24.28,1.79,10.31,10.31,0,0,0,6.79.3c3.24-1,6.38.26,9.33,1.45.89.36,1.69,1.94,1.81,3,.33,3.16-2.42,7.11-5.38,8.21A4.88,4.88,0,0,1,247.83,70a14.4,14.4,0,0,1-1.7-4.26,3.38,3.38,0,0,0-2.61-2.87A52.74,52.74,0,0,0,223,59.76c-7.48.45-14.78,1.93-21.32,5.87a31,31,0,0,0-3.35,2.6L177.08,85.37c-2.38,1.91-4.78,3.8-7.69,6.11,2.84.84,4.8.1,6.85-.27,8.34-1.47,16.64-3.31,25.22-2.14,3.76.51,7,1.55,8.83,5.37,1.89-.17,3.66-.42,5.43-.47,3.33-.1,4.75,1.9,3.58,5a13.94,13.94,0,0,1-5.7,6.61,4.79,4.79,0,0,1-7-5.35,13,13,0,0,0,.73-3.33c-.15-2.38-1.77-4.13-4.6-4.48a47.86,47.86,0,0,0-11.13-.52c-7.27.84-14.45,2.39-21.69,3.47-5.8.86-9.3,4.39-12,9.26a23.89,23.89,0,0,1-4.25,5.38c-7,6.8-14.09,13.54-20,21.39-.65.86-1.16,1.83-2,3.2,4-1.34,7.32-2.41,10.64-3.61A56,56,0,0,1,164,128.1c4.5.2,8.93.55,13.21-1.6,1.12-.56,3,0,4.36.43a14.65,14.65,0,0,1,3.24,2.08,15.56,15.56,0,0,1-3.65,7.61c-1.35,1.73-3.22,1.95-5.25,1.45s-2.48-2-2.79-3.74c-.57-3.24-.6-3.18-4.15-3.12-4.36.08-8.72-.05-13.08.1-9.78.34-18.42,4.28-26.89,8.76-3.29,1.74-5.2,4.65-7.33,7.58-3.53,4.88-7.65,9.33-11.52,14-.71.84-1.42,1.67-2.67,3.12,2.19.06,3.55.17,4.9.12,6-.24,12.1-.75,18,.82a32.78,32.78,0,0,1,4.08,1.64c-1.49,4.36-6.56,7.45-10.3,6.56a5.6,5.6,0,0,1-3.9-3.46,20.75,20.75,0,0,1-.74-2.81c-4.57.21-9,.28-13.5.66a7.3,7.3,0,0,0-5.38,3.33c-2.8,3.83-6,7.39-9,11.09-.79,1-1.47,2-2.65,3.68,2.22,0,3.81.13,5.39.08,3.93-.12,7.7.32,11,2.8,2,1.53,2.22,3,.34,4.65a7.93,7.93,0,0,1-3.38,1.65,60.77,60.77,0,0,1-7.24,1.08c-5.2.5-7.24-.71-9.64-5.9-2.85,4.24-6.3,7.74-7.13,13.34,1.95-.14,3.54,0,4.94-.4,5.77-1.73,11.69-1.63,17.6-1.61,2.17,0,4.35.32,6.53.51,3.67.32,7.18,1.95,11,1.05,1.7-.4,3.49,1.47,3.63,3.2.17,2.06-2.77,6-4.8,6.44-3,.65-5.67-.46-6.4-3.44-.93-3.76-3.31-4.81-6.7-5a72.81,72.81,0,0,0-28.15,3.55c-3.33,1.12-6.51,3.85-8.8,6.63a196.7,196.7,0,0,0-12.08,16.93c-2,3-3.33,6.34-5,9.52-1.54,3-3.13,5.89-4.63,8.87a28.62,28.62,0,0,0-1.18,3.17Zm10.53-32.45c5.88-5.17,10.65-11.24,15.25-17.78-1.69-.88-2.69-.47-3.44.52C63.16,209.86,58.64,215.21,55.55,221.56Zm196.27-152c3.31-1.53,4.67-3.6,3.77-5.44-.76-1.54-2.5-1.78-5.38-.68C249.93,65.6,249.93,67.69,251.82,69.58ZM98,140.2c.65-4.59-.09-7-2.2-7.69-2.5-.8-3.56,1.12-5.24,3.24C94.52,134.85,96,137.32,98,140.2Zm45.64-83.41c3.17,2.3,4.1,1.83,4.93-2.49A4.32,4.32,0,0,0,143.65,56.79ZM76.82,194c-5.86,5.36-5.86,5.36-4.77,8.26ZM4.68,226.76c-.52,2.17-.86,3.56-1.35,5.56l4-1Zm64.81,21.66c2.12-.69,3.22-1.78,3.53-3.8C69.13,244.62,68.94,244.82,69.49,248.42ZM90.36,192c2.17,1.6,3.63,1.75,5.37.5C93.8,191.19,93.8,191.19,90.36,192Zm-2.13-11.46c-2.85,2.11-2.88,2.17-2.76,5.34C86.56,184,88.89,183.16,88.23,180.51ZM53,160.22l.63.61c1.34-1.18,3-2.18,2.46-5.4Zm126-28.46c-.75.68-1.4,1.05-1.66,1.6-.12.25.51.86.8,1.31a9.76,9.76,0,0,0,1.5-1.44C179.76,133.05,179.33,132.49,179,131.76Zm-28.63-29.92.7,1a24.3,24.3,0,0,0,1.92-1.57c.11-.1-.13-.56-.31-1.21Z"/></g></g></svg>