<svg xmlns="http://www.w3.org/2000/svg" viewBox="0 0 80.48 282.03"><defs><style>.cls-1{fill:#282230;}</style></defs><title>Asset 14</title><g id="Layer_2" data-name="Layer 2"><g id="GRID"><path class="cls-1" d="M64.53,106.16c0-1.39-.19-2.79-.15-4.18.08-3.12.2-6.25.39-9.38a10.76,10.76,0,0,1,2.94-7c-.57-.35-1-.62-1.51-.92a1.78,1.78,0,0,1-.77-2.41,2.2,2.2,0,0,1,2.91-.67,3.77,3.77,0,0,1,1.2,1.28c.88,1.71.15,4.5-1.27,6a4.89,4.89,0,0,0-1.21,2.37,23.59,23.59,0,0,0-.31,4c-.07,3.72-.27,7.45-.09,11.16.15,2.94.93,5.84,1.19,8.78A61.35,61.35,0,0,0,70.41,128a75.81,75.81,0,0,1,1.53,7.72,51.42,51.42,0,0,0,1.46,6.67,10.36,10.36,0,0,0,2.42,3.14c.67.72,1.1,1.19.09,2s-.4,1.83.07,2.7a5.2,5.2,0,0,0,1,1.15,1.74,1.74,0,0,1,.31,2.47,3.76,3.76,0,0,0-.5,2.31c.38,2.68,1,5.32,1.4,8a162.92,162.92,0,0,1,2,25.82c0,.77,0,1.53,0,2.29a59.8,59.8,0,0,0,.16,14c.48,3.83-.11,7.59-.47,11.37-.25,2.61-.63,5.2-.9,7.81-.51,5-.93,9.93-1.49,14.88-.22,1.93-.74,3.81-1,5.73-.64,4.26-1.19,8.53-1.83,12.79s-1.34,8.65-2.07,13a14,14,0,0,1-.72,1.88c-.5,1.6-.91,3.23-1.43,4.82-.45,1.36-.45,3.1-2.81,3.54.29-1.07.5-1.93.76-2.78a3.86,3.86,0,0,0-.55-3.81A4.55,4.55,0,0,1,66.46,272c.06-.45-.55-1-1-1.71l2.15-1.9a57.13,57.13,0,0,1,.39-6.78c1.44-8.33,3.23-16.59,4.54-24.94a156.45,156.45,0,0,0,2.21-21.18c.1-4.57.58-9.13.74-13.7.22-6.09.42-12.19.37-18.29a64,64,0,0,0-.92-10.34c-1.42-8.35-2.92-16.69-4.7-25a98.34,98.34,0,0,0-3.6-11.1,5,5,0,0,0-1.09-1.7c-2.53-2.71-4.79-5.65-8.19-7.5A55,55,0,0,1,50.6,123c-2.89-2.2-5.68-4.49-9.14-5.83a29.37,29.37,0,0,1-4.64-2.58,5,5,0,0,1-1.57-5.26,3.11,3.11,0,0,1,4.82-.53,15.1,15.1,0,0,0,5.28,3.78,6.06,6.06,0,0,1,2.25,2c1.4,2.26,3.65,3.45,5.66,5a24,24,0,0,1,4.26,3.91,23.54,23.54,0,0,0,6.74,5.77c-.84-2.45-1.64-4.91-2.52-7.35q-4.93-13.73-9.93-27.44a58.6,58.6,0,0,0-13-20.72,32.07,32.07,0,0,1-2.22-2.45c-3.05-3.86-7.39-6.12-11.16-9.1-.73-.57-1.54-1-2.24-1.66a22.3,22.3,0,0,0-7.35-4.31A19.54,19.54,0,0,1,5.77,47.69,15,15,0,0,0,3.84,45c-1-1-.9-2.34-1.07-3.52a1.54,1.54,0,0,1,2.45-1.38A3.77,3.77,0,0,1,6.73,42a3.16,3.16,0,0,0,2.35,2.41,5.5,5.5,0,0,1,3.15,2.38,25.52,25.52,0,0,0,3,3.42,4.89,4.89,0,0,0,1.69,1c2.9,1.14,5.86,2.15,8.74,3.36,2.66,1.11,4.26,3.53,6.23,5.48A21.31,21.31,0,0,0,35.09,63a22.32,22.32,0,0,0-1.31-2.9c-3.69-5.91-6.16-12.42-9.21-18.65C23.2,38.65,22,35.75,20.47,33c-2.51-4.49-5.19-8.89-7.83-13.3-1.22-2-2.51-4-3.83-6.12-3.64,1-5.32-1.36-6.69-4a25.07,25.07,0,0,1-2-5.21A9.45,9.45,0,0,1,.21.94a1.24,1.24,0,0,1,2-.67C3.63,1.2,5,2.15,6.36,3.17a3.37,3.37,0,0,1,1,1.38,47.71,47.71,0,0,0,6.74,11.57c1,1.34,1.48,3.06,2.41,4.45,1.17,1.73,2.68,3.24,3.86,5,3.29,4.81,6.48,9.69,9.72,14.53,1.53,2.28,3.08,4.55,4.78,7.06.24-.58.46-.84.4-1C33.88,42.73,33.6,39.08,33,35.5a6.29,6.29,0,0,0-1.8-3.69C28.53,29,28,25.36,28.38,21.61c.12-1.34,1.43-1.53,2.37-2s1.63.05,2.23.67a4.88,4.88,0,0,1,1.58,3.34c.18,5.77,1.43,11.37,2.56,17,1,4.73,1.87,9.47,2.69,14.22,1,5.84,3.57,11.07,6.37,16.19.84,1.54,2,2.87,3,4.35a10.83,10.83,0,0,1,1.17,2.45c.52,1.49.81,3,1.38,4.52.95,2.44,2,4.86,3.1,7.22,1.28,2.67,2.68,5.28,4.08,7.89s2.95,5.29,4.44,7.93a6.41,6.41,0,0,0,.73.92ZM16.13,53.07,16,53.6c.75.34,1.52.66,2.25,1A40.7,40.7,0,0,1,23,57.35c2.5,1.81,4.83,3.85,7.26,5.76A10.81,10.81,0,0,0,32.1,64C28.18,57.67,22.72,54.5,16.13,53.07ZM62.45,110c.55-2-.7-2.69-1.44-3.66C61.37,107.48,61.25,108.8,62.45,110Z"/></g></g></svg>