<svg xmlns="http://www.w3.org/2000/svg" viewBox="0 0 429.45 494.66"><defs><style>.cls-1{fill:#282230;}</style></defs><title>Asset 13</title><g id="Layer_2" data-name="Layer 2"><g id="GRID"><path class="cls-1" d="M87.64,88.24l23.73,16.7c3.89-.67,7.55-1.12,11.11-2,1.73-.43,3.27-1.64,4.89-2.51a6.45,6.45,0,0,1,1.22-.69c5.66-1.47,8.91-6.07,12.84-9.8,5.23-5,10.36-10.06,15.77-14.82a77.86,77.86,0,0,1,9.17-6.41Q174,63.77,181.72,59c1.28-.79,2.88-1.1,4.1-2,3-2.13,5.86-4.46,9-6.9l1.33,1c3.81-3.15,7.65-6.35,11.52-9.5a148.79,148.79,0,0,1,21.2-14.72c1.85-1,3.75-1.91,6.38-1.1a8.54,8.54,0,0,1-.54,2.51c-2.19,3.84-4.68,7.52-6.7,11.44-3,5.74-7.77,9.84-12.14,14.34-5.18,5.34-10.6,10.46-15.6,16C191,80.34,181.18,90.11,170.14,98.6c-3.3,2.54-6.2,5.61-9.35,8.35a34.07,34.07,0,0,1-9.86,5.89,30.12,30.12,0,0,0-6.86,4.1c-3.18,2.4-6.33,4.78-10.09,6.22a7.73,7.73,0,0,0-1.42,1l4.29,4.48c2.09-1.24,4.07-2.21,5.82-3.49,7.16-5.21,14.15-10.64,21.37-15.75,7.5-5.31,15.2-10.35,22.8-15.52,3.18-2.16,6.31-4.39,9.53-6.49a53.44,53.44,0,0,1,8.1-4.83c6.33-2.67,12-6.85,18.85-8.33,6.61-1.43,13.21-3.07,19.9-3.94,5.28-.68,10.7-.34,16.06-.44a7.43,7.43,0,0,1,1.46.41,22.91,22.91,0,0,1-1.11,2.91,52.34,52.34,0,0,1-15.55,17.29q-11.13,7.89-22.77,15c-3.74,2.28-8,3.7-12,5.48-3.32,1.45-6.64,2.89-10,4.29-7.55,3.14-15.17,6.12-22.64,9.43-6.72,3-13.31,6.24-19.92,9.47-2.26,1.11-4.39,2.49-6.91,3.93,1.87,2.1,3.67,3.6,4.78,5.49s1.57,4.24,2.22,6.1l6.28-1.79c.79-.22,1.58-.41,2.36-.67,6.85-2.31,13.92-4.13,20.5-7.06,8-3.56,16.39-5.32,24.79-7.27,5-1.16,9.95-2.58,15-3.48a75.77,75.77,0,0,1,12.83-1.25,101.83,101.83,0,0,1,17.39.9c7.09,1.19,14,3.44,21,5.09,5.3,1.26,10.65,2.29,16,3.46a20.14,20.14,0,0,1,2.33.8c.16,1.7-.11,2.79-2.05,3A14.67,14.67,0,0,0,284.7,145c-3.41,3-7.86,3.94-11.92,5.63-5,2.11-10.07,4.25-14.45,7.63a2.31,2.31,0,0,1-.63.31c-9.74,3.25-18.61,8.61-28.63,11.36-8.56,2.34-17.06,4-25.88,3.37a77.44,77.44,0,0,1-16.84-2.9,43.19,43.19,0,0,0-6.86-.89l-9.86-1.2c3,4.92,5.6,9.41,8.31,13.85,1,1.69,2.51,3.17,3.25,5,1.32,3.19,3.93,4.07,6.87,4.57,7,1.21,14,2.57,21,3.47a149.64,149.64,0,0,0,17.05,1.18c11.16.15,22.32,0,33.49-.11a85,85,0,0,0,11.49-.92c7-1.05,14-2.38,21-3.59,2.54-2.69,6.2-1.71,9.19-2.85,6.05-2.29,12.37-3.33,18.67-4.51.23,0,.54-.2.68-.11a4.94,4.94,0,0,1,1.7,1.36c.13.24-.54,1.26-1,1.48-2.56,1.16-5.17,2.19-7.77,3.23-4.21,1.68-8.44,3.34-12.65,5-2,.8-4.35,1.15-4.93,3.95-1-.61-1.68-1.37-2.43-1.42a6.58,6.58,0,0,0-2.63.82c-3.89,1.55-7.78,3.08-11.63,4.71-2.47,1.05-4.82,2.4-7.31,3.37-7.51,2.94-15.07,5.76-22.6,8.63-.76.29-1.48.68-2.22,1a11.5,11.5,0,0,1-3.08,1.24c-4.63.46-9.3,1.17-13.93,1-5-.18-9.89-1.25-14.83-1.93-.11,0-.22-.09-.33-.1-7.09-.71-12.84-5-19.42-7.12-.41-.13-.81-.29-2-.73.82,1.94,1.32,3.27,1.94,4.55q5.1,10.53,10.25,21a12,12,0,0,0,.84,1.54c.91,1.36,1.52,3.49,3.83,1.7,3.2,1.24,6.34-.34,9.53-.24a79.8,79.8,0,0,0,8.71-.52c4.05-.3,8.1-.85,12.15-.9,6.4-.1,12.81.16,19.21.22A89.8,89.8,0,0,1,280.64,239c9.05,2.24,18,4.84,27.08,7a113.37,113.37,0,0,0,14.41,2.39c7.16.75,14.36,1.13,21.54,1.63.8.06,1.63-.2,2.43-.13a31.6,31.6,0,0,1,3.28.61c-.71,1-1,1.86-1.48,2.07-2.48,1-5,1.91-7.55,2.74-1.65.54-3.37.9-5.07,1.29-2.15.49-4.31.92-6.47,1.37-1.14.23-2.32.33-3.43.67a99.91,99.91,0,0,1-25.46,4.2c-5.57.21-11.13.8-16.68,1.38-8.34.87-16.65,2.1-25,2.79-10.35.85-20.72,1.24-30.85-1.93-2.27-.71-4.65-1.11-7.43-1.76a20.91,20.91,0,0,0,1.16,3.27c4.14,7.18,8.26,14.37,12.54,21.47,1.64,2.71,5.38,3.36,8.18,2.29,2.45-.94,5.14-1.88,7.68-1.79q17.11.64,34.21,2c4.15.31,8.23,1.42,12.34,2.15,2.06.37,4.15.61,6.18,1.09,5,1.2,9.87,2.8,14.9,3.71,5.82,1,11.75,1.57,17.64,2.22,3.59.39,7.2.65,10.81.83,3.45.18,6.9.2,10.35.28.24,0,.52-.1.69,0,.65.35,1.25.76,1.88,1.14-.4.62-.66,1.52-1.23,1.8-6.23,3-12.35,6.35-19,8.59-1.2.42-2.44.74-3.66,1.13a7.28,7.28,0,0,0-2.62.93c-4.09,3.67-9.44,3.66-14.3,5s-9.7,2.61-14.62,3.6a161,161,0,0,1-26.74,2.78c-3.57.11-7.17-.65-10.75-1.07-1.95-.24-3.87-.69-5.81-.89-1.54-.16-2.93-.16-3.73-2-.4-.91-1.59-1.47-2.9-1.79a8.63,8.63,0,0,0,.75,2.09,135.5,135.5,0,0,0,11.59,14.88,8.08,8.08,0,0,0,4.61,3,6.62,6.62,0,0,1,2.29.82c5.59,3.41,11.72,3.32,17.92,2.85,4.07-.3,8.16-.44,12.2-.93,4.51-.54,9-1.51,13.48-2.09,8.11-1,15.35-4.8,23-7.18,5.68-1.75,11.38-3.48,17-5.49a45.88,45.88,0,0,0,7.41-3.8c2.43-1.41,3.62-1.53,5.61-.09,0,1.59-1.18,2-2.32,2.67-2.86,1.58-5.73,3.16-8.46,4.93-1.63,1-3.25,2.24-3.29,4.61,0,.57-.89,1.45-1.53,1.64-3.28,1-5.5,3.3-7.89,5.57-3.58,3.41-8,5.54-12.54,7.47-2.58,1.1-5.3,1.84-7.9,2.88-6.71,2.69-13.8,3.56-20.87,3.77-5.53.17-11.1-.91-16.65-1.49a47,47,0,0,0-5.61-.54c7.36,8.44,14.6,16.9,24.23,22.78l.5-.54c-.75-.57-1.53-1.09-2.23-1.71s-1.19-1.28-1.91-2.06a3.24,3.24,0,0,1,3.88-.16,7.52,7.52,0,0,0,6.76.08c2.54-1.13,5-2.48,7.51-3.63a8.07,8.07,0,0,1,3.63-1.08A7.77,7.77,0,0,0,329,368c9.59-5.15,18.39-11.51,27.13-17.91a66.91,66.91,0,0,0,10.52-9.66c4.51-5.1,8.54-10.63,12.76-16,1.22-1.54,2.34-3.05,4.58-3.44.91-.16,1.73-1.38,2.39-2.27a37.56,37.56,0,0,0,2-3.41c1.84.18,2,1.18,1.74,2.29a48.53,48.53,0,0,1-1.72,5.32c-2.57,6.38-5.22,12.7-9.73,18.08-5.36,6.41-10.27,13.23-15.8,19.48a130.87,130.87,0,0,1-13.33,12.78c-4.68,4-9.74,7.51-14.69,11.16-3,2.2-6.1,4.25-9.59,6.67,6,4,12.48,6.38,18.65,9,1.77-4.08,3.21-8.12,5.21-11.86a77.46,77.46,0,0,1,18.13-22.8,69.93,69.93,0,0,1,17.89-11.38A89.55,89.55,0,0,1,397.8,350c3.49-.91,7.12-1.3,10.67-2,1-.2,1.95-.72,3-.95q3.85-.9,7.76-1.61c.35-.07.79.39,1.6.82-.77,1.73-1.37,3.46-2.26,5-3.75,6.63-8.75,12.31-13.85,17.91-8.61,9.47-19,16.83-29.18,24.4-5.31,3.95-11.16,7.15-17,10.84a7.41,7.41,0,0,0,1.76,1c6.07,1.65,12.13,3.3,18.24,4.81a13.59,13.59,0,0,0,3.71-.12c3.59-7.92,9.4-14,14.8-20.36a178.62,178.62,0,0,1,24.39-23.39,44.69,44.69,0,0,0,5-5.28c.8-.9.73-1,2.52-1.35.17.26.52.54.52.82,0,10-1.06,19.88-6.95,28.43a72.89,72.89,0,0,1-13.31,14.27l-10.45,8.76a63,63,0,0,0,12.35.9c2,0,4-.2,5.94-.22a9.08,9.08,0,0,1,2.76.31,1.69,1.69,0,0,1,.95,1.25,1.68,1.68,0,0,1-.78,1.36,10.43,10.43,0,0,1-3,.51c-3.57.08-7.14.08-11.06.11a17.16,17.16,0,0,0,.89,2.21c3.66,6.37,7.15,12.85,11.11,19,3.23,5,4.19,10.86,6.47,16.21.18.41.42,1.11.23,1.32-1.81,2.11-1,4.67-1.35,7a4.42,4.42,0,0,1-.61,1.18c-1.7.37-2.36-.63-3-1.84a164.47,164.47,0,0,0-15.17-22.62c-4.63-5.84-9.4-11.58-14-17.44a31.11,31.11,0,0,1-3-5.09c-.75-1.48-1.56-2.26-3.41-1l2.42,2.34c-.19,1.92-1.51,2.21-2.8,1.9-2.76-.69-2.49-3.31-2.91-5.51-2.66-.58-5.09-1.67-7.78-1.14,1.94,5.57,3.8,10.95,5.68,16.33,2.51,7.18,5,14.34,6.23,21.89a28.82,28.82,0,0,1-1.93,16.41c-.74,1.73-2.17,2.44-3.58,3.13s-2.83-.84-3.67-3c-1.72-4.34-3.22-8.79-5.31-12.94-4.1-8.12-8.58-16.06-12.84-24.11-2.13-4-4.1-8.13-6.19-12.18s-2.1-8.33-2.12-12.84L334.54,400a7,7,0,0,0,.53,1.93c5.75,7.7,9,16.63,12.33,25.47a132.63,132.63,0,0,1,7.67,28.36,87.86,87.86,0,0,1-2.51,37.09,8.92,8.92,0,0,1-1,1.79c-1.75-.26-2.15-1.52-2.57-2.71-1.57-4.5-2.95-9.09-4.69-13.53-4.35-11.09-8.89-22.12-13.3-33.19-2.73-6.84-5.49-13.66-8-20.59s-4.66-14-7-20.93c-.85-2.53-1.43-5.2-3.57-7.12-.35-.31-.31-1-.46-1.58-.78-2.81-1.47-5.64-2.41-8.4a6.52,6.52,0,0,0-2-2.83c-5.42-4.37-10.92-8.63-16.71-13.18-.32,1.8.34,3.15.72,4.51,1.26,4.5,2.59,9,3.85,13.47,1.55,5.56,1.91,11.27,2.15,17A154.94,154.94,0,0,1,295.27,439c-.66,3.78-1.91,7.45-2.87,11.17a35.33,35.33,0,0,0-1,4.38c-.17,1.42-.77,2.14-2.6,2.12a20.46,20.46,0,0,1-1.13-2.61c-2.1-7.52-4.31-15-6.21-22.59a230.52,230.52,0,0,1-5.85-31.31c-.66-6-1.68-12-2.54-18-.39-2.78-.7-5.57-1.19-8.33-1.31-7.22-2.74-14.43-4-21.66-.33-1.82-.17-3.72-.38-5.56a6.19,6.19,0,0,0-.91-2.89c-2-2.7-4.36-5.18-6.35-7.91-3.57-4.89-7-9.89-10.45-14.86-.74-1.05-1.35-2.19-2.07-3.25-1.08-1.6-2.49-1.93-4.42-.91.44,2.52.88,5,1.32,7.52,1.67,9.55,2.83,19.11,2.33,28.87A104.32,104.32,0,0,1,238.21,389c-1.42,3.32-2.6,6.77-4.31,9.93-2.59,4.81-5.52,9.44-8.39,14.09-.36.58-1.26.81-2.2,1.38a16,16,0,0,1-1.07-3.17c-.83-7.77-1.79-15.54-2.3-23.33-.78-12-1.52-24-1.74-36-.17-8.95-.81-17.94.66-26.9,1.39-8.47,3.53-16.66,7.67-24.21,1.66-3,3.57-5.92,5.31-8.77-2.66-6-16.79-30.3-18.73-32a6.87,6.87,0,0,0-1,2,115.29,115.29,0,0,1-7.5,29.07,180.43,180.43,0,0,1-16.95,33.25c-7.53,11.57-16.86,21.65-25.41,32.38a59.79,59.79,0,0,0-3.38,5.27c-.92,1.45-1.55,3.27-3.91,3-1.29-.95-1.08-2.25-.29-3.33,2.36-3.21,2.69-6.82,2.65-10.64-.07-5.94,0-11.89.2-17.83.33-9.86,2.72-19.37,5.2-28.86,1.08-4.17,1.83-8.45,3.25-12.49a127.45,127.45,0,0,1,19.5-35.74,97.17,97.17,0,0,1,14.75-14.84l.27-.23c1-1,3.33-.77,3.3-2.71a10.32,10.32,0,0,0-1.36-3.92c-3.06-6.29-6.17-12.56-9.27-18.83q-3-6.12-6.06-12.22c-.5-1-1.09-1.95-2.08-3.69-.77,2.57-1.36,4.29-1.79,6.06-1.78,7.25-3.35,14.56-5.27,21.77-4.75,17.85-11.95,34.59-23,49.54a77.39,77.39,0,0,1-14.86,14.68c-3.38,2.65-6.8,5.28-10.26,7.84a9.51,9.51,0,0,1-3.08,1.55c-1.54.43-1.93,0-2.77-2.09.12-.19.22-.53.37-.56,2.92-.55,3.8-2.62,4-5.26.53-6,.9-12.09,1.71-18.09,1.5-11.08,2.8-22.27,6.81-32.78,5.62-14.74,13.32-28.23,25.46-38.78,5-4.34,9.44-9.3,14.93-13.07a7.49,7.49,0,0,0,1.2-1.46c-.38-.72-.71-1.45-1.12-2.12-3.67-6-7.3-11.92-11.08-17.81-1.36-2.12-3.08-4-4.65-6-.21-.27-.61-.5-.66-.79-.56-3-3-4.23-5.49-5.49-1.75,4.81-3.55,9.58-5.22,14.4-3.15,9.09-8.24,17.22-12.74,25.65-2.52,4.72-5.2,9.37-7.91,14a364.19,364.19,0,0,1-21.32,31.94,161.5,161.5,0,0,1-26,28.23,83.52,83.52,0,0,1-9.75,6.78A53.74,53.74,0,0,1,64,282.26a10.35,10.35,0,0,1-5.11.19A1.93,1.93,0,0,1,58,279c5.56-4.63,8-11.29,11.36-17.33,2.82-5.06,5.42-10.25,7.92-15.48a76.1,76.1,0,0,0,3-8.14c2.42-6.93,4.5-14,7.26-20.8,3.41-8.41,7.25-16.66,11.15-24.86,2.8-5.86,5.73-11.7,9.08-17.26a80.89,80.89,0,0,1,19.18-22.47c.64-.5,1.39-.85,2.07-1.3,2.53-1.65,5.06-3.17,6.68-6a9.87,9.87,0,0,1,5.25-4.41,8.53,8.53,0,0,0,1.84-1.34l-14.18-14.52c-1.66,3-3.29,5.21-4.29,7.72a141.82,141.82,0,0,1-13,24.29c-8.8,13.59-18.6,26.46-28.67,39.13-5.59,7-12.15,13.17-18.48,19.52a171.89,171.89,0,0,1-18,15.52,25.37,25.37,0,0,1-11.69,5.31,23.09,23.09,0,0,1-5.19.11c-1.79-.16-2.36-1.4-1.48-2.93a10.78,10.78,0,0,1,1.33-1.63c6.55-7.5,11.32-16.19,16.37-24.7C52.6,195.48,56.41,182.2,61,169.25c4.74-13.45,10.22-26.5,18.36-38.33a49.67,49.67,0,0,1,9.37-9.83c3.46-2.9,7.05-5.69,10.75-8.27,1.8-1.25,4-1.91,6-2.86,1.16-.55,2.29-1.14,3.91-1.94a12.59,12.59,0,0,0-1.87-2.09Q95.85,97.92,84.09,90a4.12,4.12,0,0,0-2.87-.59c-2.21.5-4.28,1.6-6-1.14-.59-1-2.26-1.18-3-2.09-1.57-1.78-2.86-3.79-4.34-5.83a13.67,13.67,0,0,0,.76,5.94,23,23,0,0,1,.91,13.07c-1.06,5-1.35,10.21-2.61,15.16-3.43,13.5-8.14,26.52-15.26,38.59a188.7,188.7,0,0,1-18.72,26.43c-5.95,7-11.85,14-17.6,21.19A83.85,83.85,0,0,0,4.27,218.94c-1,2.17-.6,4.35-.23,6.54a24.43,24.43,0,0,0,.76,3.06c.36,1.15.24,2.2-.88,2.71-1.36.63-2.36-.27-2.76-1.4A16.33,16.33,0,0,1,0,224.76c-.06-10.49,0-21,1.89-31.37,1.93-10.79,4-21.54,7.13-32,2.5-8.25,4.65-16.62,8.38-24.43,2.8-5.88,5.51-11.82,8.8-17.43,2.94-5,6.72-9.52,9.94-14.38,4.3-6.5,8.51-13.06,12.54-19.73a15.15,15.15,0,0,0,1.77-6c.36-3,2.63-5.53,1.45-9.22L40.34,66.8a2.62,2.62,0,0,1,2.7-1,20.46,20.46,0,0,1,5.17.82c3.75,1.49,7.68,2.34,11.38,4.19,3.42,1.7,6.65,3.63,9.89,5.59a8.18,8.18,0,0,0,1.45.48c1.06-3,3.31-4.46,6.13-5.63a61,61,0,0,0,9.14-5.07c10.48-6.65,19.27-15.33,28.54-23.45,8.5-7.44,17.29-14.6,26.41-21.26,5.12-3.74,10.45-7.39,16.61-9.61,5.48-2,10.69-4.68,16.09-6.92A65.22,65.22,0,0,1,197.41.07c11.54-.28,23,.2,34.4,2.55a22.42,22.42,0,0,1,3.07.7c1.05.38,2.45.65,2.25,2.22s-1.4,1.66-2.63,1.75a33.45,33.45,0,0,0-5.21.53c-4.86,1.14-9.73,2.29-14.52,3.73-3.57,1.08-7,2.57-10.49,4A104,104,0,0,0,182.44,28c-7.08,5.12-14.05,10.39-21,15.68-7.42,5.64-14.76,11.39-22.16,17.06-1.29,1-2.79,1.71-4.05,2.74-1.78,1.46-3.32,3.23-5.15,4.62-2.67,2-5.5,3.83-8.28,5.71-.86.59-1.78,1.1-2.64,1.69C112.8,79.78,106.72,84.58,98.89,86c-3.2.58-6.42,1.11-9.62,1.68A14.57,14.57,0,0,0,87.64,88.24Zm7.78-23.53-3.2,2,.49.64c.88-.88,2.44-.88,2.67-2.61l2.94-1-.16-.34C97.24,63.79,96.33,64.25,95.42,64.71Zm31,1.21-3.18,1.86c1.42-.07,3.07.07,3.11-1.88l3.6-1.55-.41-.71ZM263.63,307.68a144.4,144.4,0,0,0-16.82-1.4C250.46,308.45,260.25,309.3,263.63,307.68ZM335,447.75l.54-.06a2.2,2.2,0,0,0,0-.68c-1.82-5-3.63-9.95-5.53-14.89-.16-.42-.95-.6-1.45-.9l-.56.45Q331.48,439.71,335,447.75ZM121.12,189.38c2.45.31,2.85-.18,3.68-4.52C121.85,184.35,121.85,184.35,121.12,189.38Zm-16.57-27.3-.89-.74c-2.17,3-4.91,5.64-5.66,9.66Q101.27,166.53,104.55,162.08ZM352.6,469.18l.71-.05q-.37-5.7-.74-11.42l-.74.05C352.06,461.57,351.29,465.44,352.6,469.18ZM192.05,60.43c-2.75,1.75-5.73,3.24-7.29,6.35C187.89,65.45,189.76,62.7,192.05,60.43ZM94.74,213.15a19.36,19.36,0,0,0-3.38,8.63C93.59,219.36,94.31,216.31,94.74,213.15ZM358.59,388.93l.72.4c2.26-2.84,4.71-5.55,5.79-9.21ZM143,177.88c2.91-3.64,4.1-6.63,3.95-9.88Q144.94,173,143,177.88Zm-22.42,16.78c-3.21,1.69-4.55,4.53-3.79,7.18C118.12,199.27,119.33,197,120.55,194.66ZM286.91,314.94c3.22,2,4.71,2,7.81.16Zm31.95,61.71c-.09.51-.17,1-.26,1.51a6.6,6.6,0,0,0,1.73-.07c1.17-.36,2.54-2.3,3.24-4.65ZM228.46,33.33l1.07-3.12-.59-.27-4.06,2.77ZM153.73,46.26l-.48-.68c-1.49,1.7-4.26,1.8-5.46,5Zm-25.35,65.61.39,1,4.08-2-.36-.74ZM351.9,333.66c-3-.49-3.42-.24-3.78,2.42Zm-73.39-77c-2.52-.69-2.52-.69-2.38,2.21ZM197.91,53.39l.49.49L201.28,51l-.44-.45ZM408.49,381.86l.56.57,3.08-3.06-.67-.66ZM15.36,167.7c-1.81,1.49-1.81,1.49-.52,3.71C15,170.23,15.14,169.27,15.36,167.7Zm202.21,2c-2-1-2.91-.44-3.75.72ZM333,369l.51.72c1.48,0,2.2-1,3-3ZM88.16,127.5l.38.49,2.59-2.65-.57-.53Zm73.59,26.55c-1-1.39-1-1.39-2.38-.48Zm5.87-82.68.52.39,2.18-1.94-.32-.36ZM48.87,212.61l.76.4.93-2.6-.29-.16ZM172.11,226l-.45-.18c-.27.67-.55,1.35-.68,1.65Zm51-85.32-.13-.63-2.06.46.12.51ZM413.7,350.79c-1.87.17-1.87.17-1.5,1.63C412.76,351.8,413.23,351.3,413.7,350.79Zm-320.52-115,.93.44.75-2.1-.74-.3ZM226.9,167.6l0-.48-1.57.14c0,.19.06.53.07.53C225.88,167.75,226.39,167.67,226.9,167.6Zm-85.45-37.82.28.7,1.49-.94-.25-.47Zm-107,102.53-.9-.64c-.32.57-.64,1.15-1,1.72l.66.45Zm196.05,90.36c-1,1.92-1,1.92-.24,3.09C230.37,324.75,230.42,324.05,230.53,322.67ZM197.8,143.57l-.14-.74-1.31.58Zm-130,16.8-.46-.22c-.18.53-.35,1-.52,1.58l.35.12Zm42.7-43.22-.4-.64c-.4.31-.81.61-1.18.94,0,0,.18.32.28.49ZM220.42,169l.07.19,1.72-.44-.1-.34ZM203.31,285.16l.35.13.47-1.36-.32-.11Zm-1.14,4c-.66.48-1,.59-1,.73a5.41,5.41,0,0,0,.08,1.06Zm132-36.61,0,.62c.58,0,1.16.06,1.73.06a3.15,3.15,0,0,0,0-.53C335.35,252.62,334.78,252.58,334.2,252.54ZM221.29,331.08h.56c0-.53,0-1.06,0-1.59h-.53C221.3,330,221.29,330.55,221.29,331.08Zm164.22,51.34-.34-.44-1.37,1,.36.48Z"/></g></g></svg>