<svg xmlns="http://www.w3.org/2000/svg" viewBox="0 0 298.25 376.52"><defs><style>.cls-1{fill:#282230;}</style></defs><title>Asset 19</title><g id="Layer_2" data-name="Layer 2"><g id="GRID"><path class="cls-1" d="M71.55,349.86a30.76,30.76,0,0,0-3,2.69,38.44,38.44,0,0,1-10.6,8.51,7.5,7.5,0,0,0-1.46,1.11c-3.69,3.7-7.86,4-12.12.9a11.9,11.9,0,0,0-3.89-2c-4.3-1.1-7.21-4.06-9.16-7.6-2.92-5.31-4.94-11.11-3.54-17.32.55-2.44,2-4.67,3-7,1.45-3.37,2.86-6.76,4.28-10.14.89-2.13,1.42-4.52,2.73-6.34,1.8-2.49,1.92-5.21,2.41-7.85a13.21,13.21,0,0,0-9.61-4.39c-6.28-.43-12.62-.85-18.5-3.32A19.16,19.16,0,0,1,.89,285.52C-1.28,279.27.66,274,5,269.36a37.92,37.92,0,0,1,15.23-9.48c7.64-2.75,15.51-4.83,23.18-7.51A105.31,105.31,0,0,0,65.87,242c2.06-1.32,4.27-2.41,6.43-3.57,6.32-3.41,9.37-8.86,9.8-15.86a6.56,6.56,0,0,0-1-3.41,16.83,16.83,0,0,0-2.75-3.44c-4.06-4.05-7.29-8.84-12.34-12A33.59,33.59,0,0,1,57,195a21.83,21.83,0,0,1-3.22-20,13.32,13.32,0,0,1,5.33-6.93c3.23-2.26,6.45-4.54,9.74-6.71a10.11,10.11,0,0,1,3.34-1.48c9-2,17.22-5.89,25.43-9.87A196.18,196.18,0,0,0,126,132.78a9,9,0,0,0,1.93-1.71c1.72-2.26,1.52-4.28-.87-5.94-4.54-3.15-9-6.42-13.87-9.11-7.3-4.06-11.05-10.17-10.91-18.31.07-4,1.5-8,2.37-11.95a5.18,5.18,0,0,1,1-2C110.48,77.45,116.07,72,124,69.7a85.75,85.75,0,0,0,19.29-8.29c3.63-2.09,7.48-3.79,11.12-5.87,1.44-.82,2.54-2.21,3.85-3.26a8.72,8.72,0,0,1,2.14-1.22c1.24-.51,2.81-.57,3.75-1.39,3.44-3,7.78-4,11.84-5.58a54.22,54.22,0,0,0,7.2-3.77c13.15-7.72,27.31-13,41.77-17.61,5.54-1.76,11-3.42,15.36-7.66,3-2.86,6.83-3.39,10.74-2.48a10.54,10.54,0,0,0,6.12-.38c2.91-1,6-1.58,8.83-2.68a49.44,49.44,0,0,0,7.58-3.75c2.63-1.57,5.07-3.45,7.61-5.18a2.19,2.19,0,0,1,1-.46C287-.2,291.77,0,296,2.75c2.22,1.47,1.84,3.93,2.18,6a8.15,8.15,0,0,1-.84,4.31c-1.77,3.9-3.79,7.68-5.65,11.54-2.27,4.72-4.45,9.48-6.7,14.22-1.05,2.21-2.16,4.4-3.23,6.61-2.54,5.19-5.15,10.34-7.58,15.58-1.65,3.57-3,7.28-4.59,10.9-2.82,6.57-5.84,13-8.48,19.68A151.24,151.24,0,0,0,253.34,117c-.88,4.25-1,8.67-2.87,12.83-1.71,3.87-1.36,8.23-.18,12.34a66.55,66.55,0,0,0,3,8.72c.82,1.85,2.34,3.38,3.42,5.14,2,3.33,4.13,6.65,5.91,10.12,2.9,5.66,5.08,11.73,10.39,15.86,2.52,2,2.59,3,1.46,6.07-.94,2.53-1.7,5.14-2.87,7.55-3.83,7.83-10.46,10.94-18.9,11.18-6.49.18-13,.42-19.46,1.19-7.93,1-9.9,3.58-8.93,11.6.81,6.72,2,13.33,5.58,19.38,1.7,2.92,2.37,6.41,3.68,9.58a114.31,114.31,0,0,0,5,11,29.5,29.5,0,0,1,3.43,12c.54,6.71-4.38,14.77-10.76,17-4.5,1.55-9.21,2.93-13.93.45a13.41,13.41,0,0,1-1.61-.92c-3.62-2.67-7.26-5.32-10.82-8.07a14,14,0,0,1-3.1-3.14c-2.91-4.41-7.27-5-12-4.75a2.29,2.29,0,0,0-2.22,2.5c-.06,2.56-.2,5.14,0,7.7.36,5.4.75,10.81,1.41,16.18.89,7.32,2.18,14.6,3.05,21.92.61,5.16.59,10.34-1.62,15.26-1,2.22-1.6,4.7-3,6.66a27,27,0,0,1-9.62,8.37c-4.16,2.22-8.18.91-12.18-.32a27.52,27.52,0,0,1-11.23-6.88,12.13,12.13,0,0,1-2.35-3.67q-3.08-6.86-5.91-13.81c-.71-1.73-1.14-3.41-3.49-3.74-2.51-.34-4.74-.24-6.28,2a13.86,13.86,0,0,0-1.57,3.32c-2.05,5.89-4,11.81-6.05,17.71a5.11,5.11,0,0,0-.48,1.39c-.15,6.91-3.5,13-5.21,19.46a4.87,4.87,0,0,1-1.68,2.34c-6.54,5.24-13.77,8.66-22.4,8.05-8.41-.59-15.84-2.81-20.87-10.56C75,361.06,72.25,356.26,71.55,349.86ZM241.43,49.09a9,9,0,0,0-2,1c-4.16,4-8.7,7.72-12.32,12.18-7.14,8.79-13.81,18-20.57,27-6.31,8.5-12.5,17.09-18.7,25.68-4.34,6-8.35,12.22-10.3,19.48-1.45,5.44-2.56,11-5,16.12-1.93,4.1-3.67,8.29-5.42,12.47-1.26,3-2.8,5.87-3.44,9.2A53.7,53.7,0,0,1,159.51,185c-.51,1.09-.6,2.38-1.07,3.5-2,4.76-3.9,9.5-4.37,14.7a2.6,2.6,0,0,1-.48,1c-3.35,5.3-6.6,10.67-10.1,15.87-3.07,4.57-6.53,8.89-9.63,13.45-2.47,3.65-4.48,7.61-7,11.23-5.23,7.55-10.62,15-16,22.41a29.14,29.14,0,0,1-5,5.87c-3.8,3-5.35,7.3-7.34,11.35a4.52,4.52,0,0,0,.34,4.73l2.56-1.61c3.19-2,5.22-5.15,7.83-7.72,6.59-6.45,10.7-14.7,16.47-21.72,1.54-1.88,2.75-4.12,4.56-5.66a24.67,24.67,0,0,0,5.45-6.9c1.71-3,3.24-6.17,5.4-8.81,6.27-7.63,10.82-16.37,16.21-24.55,4.73-7.18,9.11-14.6,13.32-22.09,3.85-6.84,7.35-13.87,10.82-20.9,1-2.07,1.21-4.53,2.14-6.66,1.83-4.14,4-8.12,5.86-12.26,2.67-6.07,5.2-12.2,7.68-18.35,1.78-4.43,2.64-9.22,5.56-13.19a46.23,46.23,0,0,0,3-5c2.13-3.86,4.22-7.75,6.3-11.64,3.25-6.07,6.74-12,9.64-18.27A128.28,128.28,0,0,1,234.57,61.8,50.9,50.9,0,0,0,241.43,49.09ZM100.89,158.2l-.51-.74L97.63,159C99.9,160.75,100.41,159.5,100.89,158.2Zm84.88,153.6c.94-2.39.94-2.39-.27-4.08C185.61,309.35,185.69,310.58,185.77,311.8Zm6.85-208.26-.23-.3a2.9,2.9,0,0,0-.81.39,3.62,3.62,0,0,0-.49.86l.37.2Z"/></g></g></svg>