<svg xmlns="http://www.w3.org/2000/svg" viewBox="0 0 111.48 224.16"><defs><style>.cls-1{fill:#282230;}</style></defs><title>Asset 17</title><g id="Layer_2" data-name="Layer 2"><g id="GRID"><path class="cls-1" d="M62.92,224.1a12.53,12.53,0,0,0-5.48-4.62,24.88,24.88,0,0,1-6.23-4.78,171.51,171.51,0,0,1-27-33.19c-2.62-4.28-4.63-8.8-4.81-13.94,0-.61-.07-1.22,0-1.83.16-2.83.89-3.64,3.7-3.68A11.62,11.62,0,0,1,30,163.71c8.73,5.59,14.71,13.58,20.14,22.1C54,192,57.81,198.21,60.51,205a32.35,32.35,0,0,0,1.85,3.31,19.3,19.3,0,0,0,.64-2.61c.23-4.15.55-8.3.57-12.45a55,55,0,0,0-.7-8.4,4.78,4.78,0,0,0-1.7-2.33c-6.58-6-13.28-11.93-19.8-18a48.93,48.93,0,0,1-11.74-17.23A12.88,12.88,0,0,1,29,145.6a8.21,8.21,0,0,1,0-1.48c3.3,0,6.32-1.27,9.62.69,4.58,2.74,8.41,6.31,12.36,9.78,3.34,2.93,6.49,6.09,9.74,9.14.65.61,1.34,1.18,2,1.8,1.24-2.58,1.2-10,0-13.74-6-2.22-10.68-6.46-15.36-10.67a15.56,15.56,0,0,0-3.18-2.23c-3.1-1.62-5.05-4.39-7.07-7-3.7-4.83-7-9.94-10.82-14.7A67.33,67.33,0,0,1,17,100.55c-.83-2-1.11-4.29-1.79-6.4a4.21,4.21,0,0,1,.89-4c1-1.39,1.54-1.42,3-.61a27.18,27.18,0,0,0,4.36,2,14.54,14.54,0,0,1,6.74,4.5c2.92,3.5,5.76,7.08,8.54,10.69,4,5.22,8.09,10.41,11.9,15.79,2.75,3.88,5.09,8,7.62,12.08,1.23,1.95,2.48,3.88,3.82,6,1.23-4.35-2.34-37.17-4.51-41.66-2.39,1.23-3.78.23-5-2.06-.71-1.36-2.31-2.23-3.34-3.47a21,21,0,0,1-4.69-9.76,3.8,3.8,0,0,0-2.28-2.93c-1.77-.92-3.33-2.25-5-3.35a6.41,6.41,0,0,0-1.65-.72c-6.26-1.93-12.18-4.48-17.21-8.83-1.6-1.38-3.43-2.49-5.16-3.71-.24-.16-.58-.37-.82-.31-2.48.53-3.63-1.36-5-2.77-.77-.81-1.4-1.82-.37-2.95s2.89-1.63,3.83-1c2.41,1.66,4.89,3.33,6.42,5.92,2.1,3.57,5.33,5.83,8.87,7.61,2.46,1.24,4.85,2.89,8.17,3-.5-1.44-.9-2.66-1.34-3.86s-1.31-2.44-1.37-3.68c-.15-3.2-2.15-5.15-4.23-7.09a53,53,0,0,0-10-7.38,31.77,31.77,0,0,1-10.49-10C2.25,41.29,1,40.18.29,35.55c-.1-.6-.16-1.2-.24-1.81a4,4,0,0,1,4.59-4.8c3.7.35,5.7,2.68,4.54,6.25-1.3,4,.37,6.72,2.86,9.25a27.34,27.34,0,0,0,5.62,4.63,54.2,54.2,0,0,1,11.42,8.52,1.65,1.65,0,0,0,1.46.5c-.9-1.53-1.77-3.08-2.71-4.59-1.49-2.42-3-4.82-4.53-7.23a9.82,9.82,0,0,0-4-4c-1.05-.51-1.79-1.86-2.39-3-.74-1.38-1-3,.07-4.32s2.92-1.32,4.5-.79a2.85,2.85,0,0,1,1.65,1.48,11.43,11.43,0,0,1,1,4.72,8,8,0,0,0,1.49,5.66c1.67,2.51,3.37,5,5.26,7.76,1.56-2.41,2.92-4.49,4.37-6.74-.43-.81-.87-1.7-1.36-2.57-2.11-3.71-4.21-7.42-6.34-11.11-.66-1.14-1.43-2.22-2.16-3.31s-1.43-1.73-2.77-1.28a2.34,2.34,0,0,1-.91,0c-4.41-.59-6.51-3.74-4-8.38,1.69-3.1,4.16-4.64,7.67-4.31a3.94,3.94,0,0,1,2.11.91c2,1.77,2.07,2.66.88,5a11.68,11.68,0,0,1-.82,1.29c-1.4,2.12-1.68,3.95.14,6.25s3.11,5.45,4.7,8.16,3.18,5.15,4.94,8l2.93-1.57c-1.57-7.22-3-14.07-4.55-20.89C34.41,17.82,33,12.45,31.54,7.06a22.54,22.54,0,0,0-1.11-2.77,2.47,2.47,0,0,1,.95-3.2C32.88,0,35.13-.4,36.53.53c1.68,1.1,1.7,3,1.45,4.64a45.84,45.84,0,0,1-1.7,7.1,7.3,7.3,0,0,0-.14,4.14c1.9,7.66,3.69,15.35,5.55,23,.23,1,.63,1.9,1,3l7.44-1.7c.59-2.74.3-6-1-10.2-.71,1.21-1.23,2.21-1.83,3.14a2.16,2.16,0,0,1-3.89-.18,3.17,3.17,0,0,1-.53-1.42,84.06,84.06,0,0,1,.38-9.67,7,7,0,0,1,2.34-3.73c1.67-1.55,2.77-1.19,3.75.88,1.58,3.36,1.94,7,2.41,10.63.43,3.29.88,6.58,1.31,9.81,2.74.06,3.06,0,3-2.3-.11-4.44-.44-8.89-.78-13.32A39.43,39.43,0,0,0,54.5,20c-3.41.6-4.46,0-5.69-3.1A9.5,9.5,0,0,1,48,14c-.1-3,0-6,0-9.09a26.05,26.05,0,0,0,3.08-.36c3.92-1,6.4,2.36,6.22,6.16-.07,1.51-.5,3-.72,4.5a9.33,9.33,0,0,0-.22,3c1.44,7,1.73,14.05,2,21.14,0,.2.06.39.12.75l5.36,1.34a14.26,14.26,0,0,0,.61-2.05,58.77,58.77,0,0,0,0-19.67c-.24-1.28-.41-2.47-1.87-3.23s-1.45-5.06-.39-6.13a1.48,1.48,0,0,1,2.47.52,19.13,19.13,0,0,1,1.52,5.22c.48,5.44.8,10.9,1,16.36.08,2.1-.38,4.22-.51,6.34a8.35,8.35,0,0,0,.18,2.69,2.43,2.43,0,0,0,2.64,1.64c1.28,0,1.7-.91,1.85-2,.28-2,.61-4,.8-6q.81-8.79,1.51-17.59a23,23,0,0,0-.11-2.91c-3.61-2.07-5-7.81-2.32-10.52a6.53,6.53,0,0,1,4.69-1.41,2.73,2.73,0,0,0,2.28-.44c1-.74,2.18-1.67,3.54-.44,1.11,1,1.28,2.42.38,4.17-1.36,2.66-3,5.09-6.3,5.88-.08,3.09,0,6-.27,8.93-.64,6.45-1.46,12.89-2.23,19.33-.26,2.17.08,2.66,2.41,3.25,2.06.51,4.13,2,6.63,5,.49-1.35,1-2.52,1.33-3.73,1.45-4.86,3-9.69,4.22-14.6.5-2,.24-4.21.42-6.31.28-3.12.59-6.24,1-9.34a2.88,2.88,0,0,1,2.33-2.51,13,13,0,0,0,2.13-1.09c1.9-.94,3.06-.47,3.72,1.6,1,3,0,5.87-1.12,8.57s-2.5,5.33-5.35,6.8a2.9,2.9,0,0,0-1,1.69c-2,6.91-4.07,13.82-5.92,20.78-.43,1.6-.1,3.4-.21,5.11-.32,4.6-.69,9.2-1.06,14.14,3.65-1.79,6.33-5,9.44-7.53s5.91-5.53,9-8.44c-2.13-2.86-1.18-5.41.33-7.95a27.82,27.82,0,0,1,7.22-7.83,2.54,2.54,0,0,1,2.19-.16c.39.16.61,1.2.55,1.81a6.54,6.54,0,0,1-.77,2.59c-2.62,4.56-4.82,9.44-8.54,13.26-3.23,3.33-6.63,6.5-10.06,9.63-2.94,2.69-6,5.23-8.94,8a9.62,9.62,0,0,0,6.36-2.92,22.16,22.16,0,0,1,8.08-5.83c2.2-.87,2.62-.77,4.75.64,0,1.92-1.58,2.71-2.87,3.6A54.65,54.65,0,0,1,83.6,75.65c-2.87.82-5.49,2.52-8.2,3.87a2.41,2.41,0,0,0-1,1c-.77,1.62-1.45,3.28-2.29,5.22a21.1,21.1,0,0,0,3.19.42,47.4,47.4,0,0,0,13.47-2.1c1.89-.62,3.28-1.35,3.91-3.63.87-3.13,5.71-5.65,8.87-5.16,2.32.36,3.28,2.06,2.4,4.22-1.43,3.5-4.41,5.09-8.3,4.55a5.4,5.4,0,0,0-2.62.23c-2.43,1-4.8,2.07-7.11,3.08-.38,2.73-1.33,5.57-1,8.26.44,3.67-.71,6.8-1.67,10.14a35.41,35.41,0,0,0-1.14,7.48,28.65,28.65,0,0,1-2.44,9.06c-1.33,3.18-2.54,6.41-3.87,9.59-1.24,3-2.69,5.89-3.82,8.91a16.42,16.42,0,0,0-1.18,8c.19,1.44.34,3.05-1.48,3.94-.49.24-.69,1.2-.88,1.87A63.42,63.42,0,0,0,66.5,162a28.16,28.16,0,0,0,0,6,22.34,22.34,0,0,0,.93,3.64c.44-1.75.68-3,1.09-4.27,4.06-12.15,9.68-23.42,18.75-32.7a63.7,63.7,0,0,1,5.82-5.33,17.05,17.05,0,0,1,3.6-1.74c1.63,1.55,1.33,3,.87,4.51a189.77,189.77,0,0,1-8,22c-4.77,10.42-11.33,19.64-18.58,28.43a53.69,53.69,0,0,0-4.1,5.64,6.56,6.56,0,0,0-.41,2.79c-.52,6.05-1,12.1-1.18,18.28,2-4.88,4.16-9.52,8.05-13.17s8.42-5.89,12.93-8.46c1.73,1.65,2.71,3.23,1.7,5.51a22.13,22.13,0,0,0-.65,2.64,10.27,10.27,0,0,1-1,2.81c-3.15,4.7-6.28,9.42-9.63,14-2.33,3.17-5,6.09-7.51,9.13A6.45,6.45,0,0,1,62.92,224.1Zm23-67.63a6.88,6.88,0,0,0-1.74,1.32c-.72,1.07-1.18,2.32-1.84,3.45-2.17,3.68-4.38,7.34-6.57,11,3-2.62,4.89-6.06,6.92-9.36a66.45,66.45,0,0,0,3.18-6.51l1.34-2.5-.58-.22Zm-4-68.37c-3.76,0-6.89,0-10,.18a3.48,3.48,0,0,0-2.18,1.42c-2.68,3.67-5.27,7.39-7.82,11.14a3.23,3.23,0,0,0-.49,2c.4,4.23.89,8.44,1.34,12.66.56,5.23,1.09,10.45,1.64,15.67.25,2.36.53,4.72.79,7.08l.61,0c.94-3.77,2.37-7.5,2.74-11.33a107,107,0,0,1,7-29.81,29,29,0,0,1,3.27-5.43A44.86,44.86,0,0,1,81.89,88.1ZM25,173.1c-.69,4.41,6.37,17.39,11.63,21.22ZM94.37,16.52A7,7,0,0,0,92,23.3c3.43-3.89,4.52-8,2.72-10.52C92.68,13.75,94.11,15.11,94.37,16.52ZM24.16,164c-2.92.7-3.36,2.8-1.65,7C25.08,170,25.29,169.11,24.16,164Zm2.68,1.2c.05,3.87.05,3.87,2.24,5.46l2.82-1.41C29.86,166,29.75,166,26.84,165.21ZM52.6,17.58c.26-.84.86-1.75.72-2.53C53,13,52.7,10.8,50.79,9.2,49.56,12.31,50.39,14.88,52.6,17.58Zm-.37,71.68c-.58-1.49-1.06-3-1.75-4.44-.81-1.65-1.41-1.59-3,.09C49.39,89.51,49.84,90,52.23,89.26ZM78.77,106.8c.8-2.91,1.58-5.68,1.33-8.65-1.82,2.07-2.5,4.57-3.17,7.06C76.66,106.22,77.36,106.63,78.77,106.8ZM73,52.21c2.46.88,3.58-1,5.27-1.27-.5-2.46-1-4.64-3.89-5.54C76.54,49.18,76.54,49.18,73,52.21ZM35,59c1.27-2.29,3-4.25,3.37-7.29-2.11.93-3.62,2-4.13,3.53C33.92,56.28,34.73,57.72,35,59Zm67,19.73C99.64,77,98.5,77.63,96.84,81.6,99.6,82.29,100.67,80.37,102,78.71ZM46.82,202.65l.68-.5a25.55,25.55,0,0,0-5.85-8.43l-.65.47Zm16.23-30,.54-.38c-.44-3.11-2.36-4.81-5-5.81l-.5.46ZM61.92,83.63c1.73-3.33,1.72-3.57-.51-5.12l-1.1,4.39ZM40.05,56.44c-.58,2-2.67,3.39-1.76,5.94C41.16,60.23,41.71,58.43,40.05,56.44ZM50.29,68.72c1.62-1.35,3.42-2.63,2.38-5.31A4.84,4.84,0,0,0,50.29,68.72ZM79.57,2.93c-3,3.28-3,3.28-2.31,5.23,1.86-.51,2.09-2.32,2.85-3.66C80.25,4.25,79.85,3.69,79.57,2.93ZM33.84,149.34c1.24,3.06,2,6.33,5,8.22ZM19,93c-.2,3.41,0,3.69,3.6,4.74A10.19,10.19,0,0,0,19,93Zm27-68.78c-1.16,3.26-1.15,4.69-.1,7C47.13,29.08,47,27,46.05,24.26Zm6,117,.51-.49a7.14,7.14,0,0,0-4.9-4.75ZM48.9,53.46c1.17-1.46,2.74-2.82,2-5.32C48.86,49.59,49.2,51.64,48.9,53.46ZM44.05,185.64c-.59-2.45-1.63-4.56-4.06-5.64Zm-22.89-160,.48-.63L20.55,21.7c-1.73.78-1.29,2.06-.92,3.13C19.77,25.23,20.63,25.38,21.16,25.65Zm42.2,17.76c-1.78-.68-3.17-1-4.66-.39C60.15,43.18,61.29,45.19,63.36,43.41ZM45.25,126.25c.22-2.12-1-3.25-2.76-4Zm-3.31,25.28c1,2.94,1,2.94,3,2.05Zm23.8,2.92.67.08c.44-1.24,1-2.48-.7-3.64ZM68.2,62.76c-2.53.39-2.53.39-1.8,2.3C67.05,64.23,67.62,63.49,68.2,62.76Zm-9.26,25.1-.89,0,.18,3.53.77,0ZM54.8,45.4l.58-.13a9.19,9.19,0,0,0-.27-2.36c-.06-.18-1.11,0-2.24,0Zm9.06,12.25-.59-.19c-1.19,1.65-1.19,1.65-.91,4.17C63,59.86,63.44,58.75,63.86,57.65ZM69,51.17c-2.07.73-2.12.74-1.84,1.65.09.29.52.48,1,.9Zm35.44-6.43c-1.21,1.07-1.67,1.87-1.42,3.4C104,47.12,105.09,46.65,104.48,44.74Zm-37.1,1.37-.8.13c-.59,1.12-.37,2,1.39,2.91C67.72,47.83,67.55,47,67.38,46.11ZM60.91,216.23h1c0-.68,0-1.36-.15-2,0,0-.67,0-1,0ZM81.13,92.34c1.73.49,2.12,0,1.88-1.2,0-.13-.26-.23-.55-.47ZM56.36,60.66c.14-.81.28-1.61.52-3C55.25,58.74,55.14,59.59,56.36,60.66ZM53.51,207.52l-.7.32L54,210l.56-.31ZM86.1,193l-.52-.47-1.28,1.75.39.31ZM24.31,21.77l-.73-.11.12,1.41h.4Zm48-10.69c.4-.32.75-.48.75-.62a3.36,3.36,0,0,0-.33-1c-.22.12-.58.22-.61.38A4.35,4.35,0,0,0,72.34,11.08ZM92.51,139.2l-.7-.13-.33,1.72.47.12C92.14,140.34,92.32,139.77,92.51,139.2ZM50.67,195.52l.45-.29-1.06-1.53a5.06,5.06,0,0,0,.08,1.14A5,5,0,0,0,50.67,195.52Z"/></g></g></svg>