<svg xmlns="http://www.w3.org/2000/svg" viewBox="0 0 275.36 419.64"><defs><style>.cls-1{fill:#282230;}</style></defs><title>Asset 26</title><g id="Layer_2" data-name="Layer 2"><g id="GRID"><path class="cls-1" d="M192.84,223.42c5.93.84,6.14.64,8-4.47.53-1.43,1.8-2.58,2.31-4a71.2,71.2,0,0,0,2.47-8.46c1-4.41,2.22-8.78,2-13.43-.1-2.25.75-4.54,1.22-6.81s1-4.48,1.47-6.72a5.32,5.32,0,0,1,3-4.22,59.91,59.91,0,0,1,7.38-2.71,35.16,35.16,0,0,1,5.66-.68c6.37-.63,12.61.58,18.88,1.39a8,8,0,0,1,3.58,1.89,63.05,63.05,0,0,1,5.08,4.73,7.83,7.83,0,0,1,1.33,2.12c.37.75.51,1.64.95,2.34,2.63,4.19,2.72,8.79,2.29,13.49-.35,3.89-.59,7.8-1.1,11.67a16.27,16.27,0,0,1-4.3,8.68c-5.23,5.8-10.72,11.35-16.11,17a7.35,7.35,0,0,0-1.32,1.36c-2.26,4.42-6.27,7.35-9.29,11.11-2.24,2.79-4.48,5.6-6.55,8.52a7.45,7.45,0,0,0-1.19,6.59c.87,3.24.68,3.29-1.21,6.54a16.52,16.52,0,0,0,8.45,3.94c4.18.54,7.54-1.54,10.8-3.76s5.78-5.56,8.36-8.6a62.81,62.81,0,0,1,11.27-10.16,3.69,3.69,0,0,1,4.95,0,47,47,0,0,1,5.4,4.41,14.57,14.57,0,0,1,2.73,4.19c2.28,5,4.58,10,5.61,15.45A15.85,15.85,0,0,1,272.88,287c-4.19,6.58-7.94,13.44-11.88,20.19-.16.27-.28.62-.52.77-3.15,2.08-4.51,5.51-6.5,8.47-1.53,2.25-3.23,4.39-4.84,6.59-2.75,3.77-3.81,8.12-4.47,12.67-.51,3.5-1.5,6.93-2.18,10.42-1,4.94-1.07,9.74,1.33,14.48,1.46,2.88,2.09,6.17,3.35,9.17,1.82,4.35,3.85,8.62,5.84,12.9,1.65,3.54,3.36,7,5.07,10.55a12.46,12.46,0,0,0,1.1,1.91,39,39,0,0,1,5.46,11.39,20,20,0,0,1,.57,3.74,3.18,3.18,0,0,1-2.13,3.51q-6.56,2.85-13.12,5.64a2.45,2.45,0,0,1-3.41-1.42,20.55,20.55,0,0,0-4.72-5.86c-1.63-1.58-2.64-3.79-4-5.69q-5.24-7.5-10.53-15a63.61,63.61,0,0,0-4.89-6.57c-4.83-5.21-9.73-10.35-14.81-15.32a46.12,46.12,0,0,0-8.37-6.72A19,19,0,0,0,184,360.74c-3.23.89-6.57,1.43-9.72,2.54-4.08,1.44-8,3.38-12,4.94-7.7,3-15.4,5.9-23.17,8.67a137,137,0,0,1-13.56,4.18c-4.83,1.18-9.16.12-12.48-4a81.63,81.63,0,0,1-11.57-19.23,11.91,11.91,0,0,1-.74-5.87,6.46,6.46,0,0,1,5.51-5.69c3-.57,6-1.38,9-1.73,4.23-.48,7.65-2.93,11.51-4.26s6.45-4.28,9.5-6.64c1.47-1.13,2.8-2.67,1.93-4.93-.16-.43.09-1,.19-1.53.62-3-.2-4.41-2.92-5.58-5-2.17-10.41-2.61-15.75-3.31a4.76,4.76,0,0,0-1.55.24c-7.65,1.58-15.45,2.28-23,4.44-3.71,1.06-7.73,1-11.61,1.54-2.19.29-4.38.6-6.54,1.08a3.19,3.19,0,0,1-3.11-.84,13.41,13.41,0,0,1-5-10.51c-.09-3.48-.29-6.95-.38-10.42a4.06,4.06,0,0,1,.34-1.86c2.12-4.34,4.65-8.41,9.86-9.37a65,65,0,0,1,9.76-.88c6.25-.18,11.11-3,15-7.6a39.66,39.66,0,0,0,3.82-5.84,5.83,5.83,0,0,0-1.14-7.52,14.66,14.66,0,0,0-4.85-2.86c-3.62-1.15-7.4-1.78-11-2.86-2.61-.76-5.09-2-7.68-2.86-5.49-1.88-11-3.82-16.53-5.46-2.19-.64-4.6-.52-6.9-.81-4.81-.62-9.67-1-14.42-2-6.51-1.34-12.93-3-18.39-7.26a12,12,0,0,1-4.88-8.47,58.43,58.43,0,0,1,1.07-18.9c.72-3.56,2.54-6.92,4.09-10.28s4.84-3.74,7.95-4.31c.92-.17,2,.15,2.82-.14a11,11,0,0,1,6.24.14,16.33,16.33,0,0,0,7.42-.12c2.86-.6,6,0,9,.28,2.46.24,4.83.57,7-1.1,1.54-1.19,1.87-2.22.6-3.71-3.44-4.08-7.32-7.48-13.11-7.62a17.83,17.83,0,0,1-3.38-.75c-5.71-1.35-11.53-2-17.31-2.85-1.87-.29-3.66-1-5.51-1.38a22.48,22.48,0,0,0-5.27-.55,4.84,4.84,0,0,1-4-1.48C14.14,180,9,174.72,3,170.41A3.57,3.57,0,0,1,1.76,168c-.2-5-1.32-10,.17-14.94a50.19,50.19,0,0,1,3.76-9c1.23-2.3,3.76-2.37,6.15-2.44,5.08-.13,9.64,1.4,14.3,3.33,5.92,2.45,12.19,4.07,18.33,6,2.51.79,4.79-.11,7-1.31,1.24-.7,1.62-1.67.57-2.84a18.71,18.71,0,0,0-2-1.94,25.39,25.39,0,0,1-3.29-2.46c-1.67-1.86-3.43-3-6.08-2.39a5.27,5.27,0,0,1-2.69-.66c-5.5-2.23-10.33-5.66-15.35-8.75-4.13-2.55-8.35-5-12.59-7.33s-7.16-5.77-8.07-10.71a7,7,0,0,0-1.09-2.22,4.63,4.63,0,0,1,.12-5.34,28.05,28.05,0,0,1,15-11.52,5.05,5.05,0,0,1,2.49-.25c5.8,1.08,11.66,2,17.36,3.47,6.21,1.65,12.26,3.92,18.4,5.87,1.76.56,3.58,1,5.37,1.46l.54-.6a16.77,16.77,0,0,0-1.46-3.22A34.08,34.08,0,0,0,54.38,95a89.87,89.87,0,0,1-11.72-14c-2.13-3-4.69-5.7-7-8.56-1.27-1.55-2.41-3.21-3.72-4.73-2.67-3.12-5.49-6.11-8.1-9.28a48,48,0,0,1-6.34-9.4,26.56,26.56,0,0,0-2.6-3.94,21.42,21.42,0,0,1-4-9.54,3.93,3.93,0,0,1,2-4,39.86,39.86,0,0,1,18.09-7.16c4.52-.64,8.31,1.09,12.17,2.73,4.92,2.09,9,5.51,12.79,9.19a13.49,13.49,0,0,1,1.56,2.37c1.39,2.11,2.51,4.41,4.76,5.85a6.39,6.39,0,0,1,1.52,2c2.63,3.93,5.18,7.91,7.89,11.78a17,17,0,0,0,3.11,3.11c1.51,1.27,2.68.94,3.37-1a136.71,136.71,0,0,0,5.79-19.53c1.32-6.61.74-13.19,1.65-19.73.77-5.62,1.74-11,5.39-15.64C94.09,1.5,98.46.44,103.14,0a4.48,4.48,0,0,1,2.79,1.25A18.6,18.6,0,0,0,118.06,6a3.66,3.66,0,0,1,2.13.49A14.68,14.68,0,0,0,126,8.9a3.1,3.1,0,0,1,2.55,3.5c-.06,1.78-.5,3.54-.68,5.32a81.75,81.75,0,0,1-3.42,17.65c-.56,1.68-.63,3.52-1,5.26-1,4.26-2,8.49-2.93,12.75-.48,2.25-.69,4.55-1.08,6.82s-.9,4.56-1.31,6.84c-.77,4.29.27,8.37,1.83,12.26.78,1.94,2.79,2.69,5,2.78a11.7,11.7,0,0,0,9.7-4.5q7-8.16,13.87-16.45A31.51,31.51,0,0,1,160,52.53a10.75,10.75,0,0,1,11.4,1.15c3.9,2.86,8.07,5.37,12,8.14a17.17,17.17,0,0,1,2.81,2.9c1,1.1,1.81,2.3,2.79,3.38a4.37,4.37,0,0,1,1.27,4c-.88,5.93-3.75,10.87-6.82,15.87-2.8,4.56-6.29,8.7-8.32,13.76a11.61,11.61,0,0,1-4.83,5.33c-6.39,4-10.21,10-12.58,17-.73,2.15-1.06,4.4-1.94,6.58-1.54,3.81,1.16,12.51,7.37,12.36a6.68,6.68,0,0,0,3.51-1,26.7,26.7,0,0,0,8.84-10.09,128.1,128.1,0,0,1,7.26-12.6,11.77,11.77,0,0,1,4.42-3.93c3.39-1.68,6.88-3.28,10.78-3.59a24.7,24.7,0,0,0,3-.59c2.16-.44,3.87.49,5.57,1.68s3.52,2.22,5.31,3.29c2.43,1.46,4.89,2.89,7.32,4.35,1,.6,1.94,1.26,2.91,1.88,3.2,2.05,3.63,4.5,1.41,7.64a15,15,0,0,0-1.6,2.73q-3.18,7.41-6.25,14.87c-.59,1.45-.84,3-1.49,4.46-2.3,5-3.93,10.41-7.59,14.73a46.67,46.67,0,0,0-3.53,3.94,64.25,64.25,0,0,0-7.91,14.64c-1.28,3.63-3.64,6.88-5.5,10.31-.7,1.3-1.25,2.69-2,3.94-2.09,3.29-1.41,6.57.43,9.51s2.06,6.13,3.15,9.16C191.86,220.06,192.35,221.85,192.84,223.42ZM142,285.4c.93,2.12-.11,3.63-1.63,4.67a25.59,25.59,0,0,1-4.73,2.31c-1.64.67-1.95,1.28-1.2,2.86.86,1.77,1.92,3.22,4.1,3.5a8,8,0,0,1,2.34.91q5.67,2.75,11.3,5.54c2.51,1.23,2.89,2.58,1.58,5.11a4.93,4.93,0,0,0-.84,2.58c.62,4.6,3.16,8.18,6.56,11.13a3.84,3.84,0,0,0,2.94.59c4.38-1,8.37-2.28,9.45-7.71,1-4.95,1-9.81-1.28-14.14-2.43-4.69-5-9.51-9.66-12.6a3.14,3.14,0,0,1-.91-1.27c-1.32-2.73-4.3-3.63-6.24-5.66a1.7,1.7,0,0,0-1.17-.44C149.08,283,145.38,282.68,142,285.4ZM88.53,186.92c1.73-2.24,1.71-2.24,1.79-4.88.1-3.25.09-6.52.39-9.75a18.29,18.29,0,0,0-4.44-14c-1.82-2.16-4.86-2.95-6.77-1.94-3,1.62-6.13,3.18-9.19,4.77a2.94,2.94,0,0,0-1,.68c-1.55,2.13-3.18,4.21-4.54,6.45a3.58,3.58,0,0,0,1.17,5.05c2.24,1.5,4.5,2.93,6.69,4.52,3.65,2.65,7.62,4.87,11.52,7.16A38.3,38.3,0,0,0,88.53,186.92Zm78.86-19.06c-3.17,1.43-6.51,2.51-8.79,5.38s-4.49,5.34-6.64,8.09a8.88,8.88,0,0,0-2.23,5.47,6.84,6.84,0,0,1-.73,2c-.27.77-.6,1.53-.8,2.32-.63,2.54.11,4.91.93,7.74a20.52,20.52,0,0,0,2.8-1.48c8.92-6.69,14.2-15.7,16.72-26.45C169,169.68,169,168.43,167.39,167.86ZM100.56,93.23a26.32,26.32,0,0,0,1.62-2.77c1.81-4.46,1-9.1.67-13.66a26.71,26.71,0,0,0-1.52-6.44c-.61-1.78-.21-4-2.33-5.87a57.4,57.4,0,0,0-.83,8.41A31.68,31.68,0,0,1,98,78.25c-1,4.64.63,8.93,1.46,13.34C99.49,92,99.87,92.26,100.56,93.23ZM258.35,411.72c3.72-.53,3.82-.66,2.89-3.24ZM241.6,282c1-.8,2-1.51,1.07-2.78a1.68,1.68,0,0,0-1.63-.09C239.83,280.21,240.68,281,241.6,282ZM153,200c2.66-.45,2.66-.45,3.33-2.67Zm31.2,50.73.69-.24-1.14-3.75-.85.28Zm86.67,31.88.9.1c.22-1,.44-1.93.65-2.89l-.91-.2C271.31,280.62,271.09,281.62,270.88,282.61Zm-21.07-65.2c-1.83.36-1.83.36-1.93,2.45Zm-122,98.68c-.74-.75-1.4-1.8-3.07-.57Zm110.57-86.73c1.38-.52,1.38-.52,1.79-2.43ZM15.45,34.15c-.47-.07-.84-.24-.94-.13a1,1,0,0,0-.28.82c0,.19.4.32.62.48Z"/></g></g></svg>