<svg xmlns="http://www.w3.org/2000/svg" viewBox="0 0 276.81 523.64"><defs><style>.cls-1{fill:#282230;}</style></defs><title>Asset 20</title><g id="Layer_2" data-name="Layer 2"><g id="GRID"><path class="cls-1" d="M172.86,311.88c-.73-3.13-1.39-6-2.06-8.8-.27-1.18-.66-2.35-.84-3.55-.67-4.52-2.05-8.86-3.12-13.29-.23-.95-.45-1.91-.6-2.87a37.27,37.27,0,0,0-2.69-10.06,34.61,34.61,0,0,1-1.59-5.9c-.43-1.65-.89-3.29-1.28-5-.33-1.42-.57-2.87-.88-4.29q-.75-3.44-1.55-6.85c-.19-.88-.42-1.74-.63-2.61-.69-2.81-1.35-5.63-2.09-8.42a1.8,1.8,0,0,0-1.84-1.36c-.82,0-1.64-.08-2.45,0-2.66.25-5.31.78-8,.77a71.45,71.45,0,0,1-9.46-.81c-2.49-.35-4.9-1.27-7.39-1.52-3.31-.34-6-2.08-8.84-3.43s-5.42-2.62-8.13-3.94c-1.45-.71-2.92-1.39-4.36-2.13-2.32-1.19-4.62-2.42-6.93-3.63a3.2,3.2,0,0,0-.91-.36c-3.52-.58-6.54-2.48-9.85-3.62A19.14,19.14,0,0,1,85,219c-2.23-1.15-4.24-2.78-6.82-3.19a3.72,3.72,0,0,1-1.14-.45c-3.76-2.1-7.62-4.05-11.24-6.37-1.74-1.11-3-2.89-4.52-4.4-1.24-1.27-2.45-2.58-3.68-3.86-.27-.29-.71-.52-.81-.86-.82-2.54-2.5-4.82-2.4-7.63s.05-5.7.41-8.5a7.29,7.29,0,0,1,3.44-5.17,16.4,16.4,0,0,1,5.61-2.32,105.37,105.37,0,0,1,10.67-1.11,9,9,0,0,1,3.07.45c2.39.68,4.77,1.41,7.13,2.22a45.66,45.66,0,0,1,8.59,4c3,1.75,5.58,3.89,8.33,5.9,3.77,2.76,7.85,5.08,11.8,7.6,2.12,1.35,4.2,2.76,6.36,4a22.34,22.34,0,0,0,3.55,1.62c2.73,1.05,4.78,3.1,7.17,4.66a7.05,7.05,0,0,0,3.17,1.11c2.87.25,5.2,1.69,7.61,3a11,11,0,0,0,2.47.86c.27.08.85,0,.9-.17.49-1.52,2.58-2.24,2.14-4.2-.38-1.73-.59-3.51-1.63-5a1.94,1.94,0,0,1-.45-.86c-.22-3.81-2.26-7-3.3-10.59s-1.92-7.09-2.88-10.64a2.93,2.93,0,0,0-.36-1.15c-2.22-2.53-2.72-5.78-3.57-8.83-.92-3.28-2.75-6-4.5-8.81a9.38,9.38,0,0,1-.64-1c-1.42-3.35-3.7-6.14-5.83-9-1.89-2.55-3.75-5.13-5.62-7.7a48.81,48.81,0,0,0-3.79-5.07,15.94,15.94,0,0,0-3.68-2.26c-2.11,1.91-4.91,1.67-7.23,2.75S98.51,140,96,141a7.8,7.8,0,0,0-1.27-.85c-.9-.36-2-1.08-2.73-.84-3.69,1.19-7-.35-10.48-1.05-4.31-.87-8.54-2.12-12.86-2.86a39.45,39.45,0,0,1-8.05-2c-2.11-.82-4.18-1.74-6.31-2.49s-4.12-1.25-6.18-1.88c-1.79-.55-3.58-1.1-5.35-1.69q-4-1.29-7.88-2.65a6.85,6.85,0,0,1-1.73-.87c-1.11-.78-2.12-1.72-3.26-2.47a63.36,63.36,0,0,1-11.44-9.08c-2.07-2.17-4.46-4-6.52-6.21a28.87,28.87,0,0,1-6.19-8.66A43.28,43.28,0,0,0,3,92.5c-.24-.42-.63-.88-.62-1.31.07-2.49-1.3-4.51-2.09-6.73-.18-.5-.42-1.21-.21-1.6.8-1.49.23-3.07.48-4.56.51-3.17-.21-6.56,1.56-9.51,1.24-2.07,2.11-4.38,4.14-5.93a6.72,6.72,0,0,0,1.27-1.79,15.39,15.39,0,0,1,9.81-7.14,80.4,80.4,0,0,1,8.36-1.7c7.56-.79,15.1-.75,22.32,2.12,2,.82,3.92,2,5.87,3,.14.07.33.16.38.29,1,2.27,3.2,3.15,5,4.54A6.88,6.88,0,0,1,60.54,64c2,3.23,4.05,6.48,6.07,9.72a5.06,5.06,0,0,1,.75,1.25c.86,3.4,3.15,6.17,4.13,9.52a26.78,26.78,0,0,0,1.44,2.82,50.92,50.92,0,0,0,2.29,5.35c1.4,2.4,2.19,5.06,3.51,7.44.66,1.21,1.51,2.21,1.55,3.68a4.07,4.07,0,0,0,.55,1.6,47.83,47.83,0,0,0,3.58,6.94,36,36,0,0,0,5.19,6c2.41,2.14,5.4,3.27,8,5.11a8.65,8.65,0,0,0,5.44,1.76,25,25,0,0,1,4.08.62c1.52.23,3,.42,4.57.63A16.33,16.33,0,0,0,110,119c-.78-1.43-1.44-2.93-2.09-4.42a2.35,2.35,0,0,0-1.65-1.61c-2.17-.57-2.78-1.07-2.5-3.1.34-2.56-1-4.16-2.41-5.84-2.62-3-5.29-5.94-7.76-9.06-1.25-1.59-2.5-3.16-3.9-4.63-3.45-3.61-5.85-8-8.72-12-3.37-4.74-5.57-10.1-8.37-15.14a65.2,65.2,0,0,1-3.91-8.39,48.76,48.76,0,0,1-3-9.65c-.54-3.44-1-7.16.19-10.47.92-2.5.64-5.12,1.6-7.54a19.36,19.36,0,0,1,5.76-7.71c1-.83,2-1.67,3-2.42a31,31,0,0,1,10.25-5.14c3.2-.83,6.3-.6,8.86,1.94a7.54,7.54,0,0,0,1.63.91,2.94,2.94,0,0,1,1,.65c2,2.78,3.9,5.56,5.79,8.39.94,1.42,1.74,2.94,2.62,4.4a17.31,17.31,0,0,1,2.52,7.56,14.23,14.23,0,0,0,2.29,5.88,22.09,22.09,0,0,1,3.42,9.06,12.55,12.55,0,0,0,.54,1.85c.4,1.49,1.3,3.06,1.07,4.44-.51,3,1,5.79.33,8.72-.11.48.32,1.07.44,1.63a14.38,14.38,0,0,1,.39,5,50.21,50.21,0,0,0-.17,6.84,1,1,0,0,0,.23.66c1.31,1.31.83,2.9.57,4.36-.65,3.71-1.15,7.4-.33,11.15a2.52,2.52,0,0,1-.11,1.44,10.54,10.54,0,0,0,0,7.62,6.35,6.35,0,0,1,.22,1.45,70.94,70.94,0,0,0,.72,7.73,7.84,7.84,0,0,0,2.15,3.7,3.56,3.56,0,0,1,1.07,2.75,3.83,3.83,0,0,0,5.09,3.34c2-.73,4-1.59,6-2.42a3.75,3.75,0,0,0,2.17-2.78c.39-1.5.77-3,1.2-4.49.57-2,1.12-4,1.78-6,1.33-4,1.37-8.08,1.75-12.17.09-1-.34-2.3,1.18-2.22-.51-.55-1.19-1-1.3-1.46-.53-2.61-.61-5.34-1.43-7.85-.74-2.28-.76-4.7-2-6.92-1.09-1.9-1.24-4.35-1.71-6.58a15.13,15.13,0,0,0-1.39-3.86,33.76,33.76,0,0,1-1.85-5.52,8,8,0,0,0-.49-1.88,9.46,9.46,0,0,1-1.22-5.64c0-.25.08-.55,0-.73-1.55-2.46-1.06-5.41-1.92-8a6.46,6.46,0,0,1-.14-1.66,5.71,5.71,0,0,0-.11-1.67c-1.4-3.55-1-7.15-.53-10.78a41.5,41.5,0,0,0,.09-4.6c0-2.52-.12-5.05.14-7.54a17,17,0,0,1,1.47-4.38C130.36,9.6,133.12,5.83,138,4c1.8-.69,3.34-2.14,5.17-2.68A25.49,25.49,0,0,1,151.07,0c2.16.08,4.36,1.13,6.4,2.05,2.59,1.17,5,2.66,7.55,4a6.18,6.18,0,0,0,1.33.62,11.25,11.25,0,0,1,5.53,3.69c5.09,5.53,10,11.24,13.69,17.82A44.52,44.52,0,0,1,190.32,41c.53,2.63,1.18,5.24,1.76,7.86a3.2,3.2,0,0,1,.15,1c-.16,2.65-.41,5.29-.52,7.94-.07,1.45.14,2.92.12,4.37a14.17,14.17,0,0,1-1.34,6.35c-1.1,2.18-1.75,4.58-2.84,6.75-1.49,3-3.21,5.84-4.84,8.74-.2.35-.59.64-.68,1-.58,2.6-2.6,4-4.4,5.64a53.49,53.49,0,0,0-4.9,5.7c-1.53,1.86-2.49,4.19-4.81,5.39a8.66,8.66,0,0,0-1.91,1.87,104.51,104.51,0,0,1-16.19,13.65c-2.23,1.5-4.51,2.91-6.77,4.34a10.42,10.42,0,0,0-3.68,3.46,6.31,6.31,0,0,1-2.3,2.14c-2.12,1.19-4.34,2.2-6.5,3.29a9.77,9.77,0,0,0-1,.76l1.73,1.7a21.66,21.66,0,0,1,4.49,6.92q2.16,4.78,4.24,9.62c.32.74.44,1.57.74,2.32a29.73,29.73,0,0,0,1.88,4.23,4.87,4.87,0,0,1,.86,2.71,4.26,4.26,0,0,0,.62,2,23.43,23.43,0,0,1,2.54,5.76c.77,2.71,2.37,5.17,3.32,7.84.87,2.43,1.35,5,2,7.51a11.34,11.34,0,0,0,.3,1.43,100.54,100.54,0,0,0,4.28,10.56c.78,1.5,1.38,3.1,2.12,4.8,1.57-.21,2.53-1.24,3.54-2.32A60.84,60.84,0,0,0,171,183.41c.57-1,1.37-2,1.93-3,1.52-2.83,2.91-5.74,4.47-8.55.9-1.63,2.08-3.11,3.07-4.69,1.67-2.66,3.2-5.41,4.95-8,2.64-3.93,5.43-7.74,8.11-11.63s5.51-7.6,7.88-11.66a7.55,7.55,0,0,1,1.39-1.69c1.07-1,2.25-1.88,3.28-2.91a17.61,17.61,0,0,1,10-5.07,15.63,15.63,0,0,1,8.81.91,9.14,9.14,0,0,1,2.9,2.15,22.84,22.84,0,0,1,5.4,11.31,13.43,13.43,0,0,1-.68,7.12c-.76,2.3-1,4.77-1.8,7.07-.91,2.78-2.15,5.45-3.19,8.18-1,2.51-1.8,5-2.74,7.56-1,2.74-1.93,5.54-3.21,8.17-1.81,3.72-3.82,7.35-5.93,10.92a58.07,58.07,0,0,1-3.83,5.07,26.18,26.18,0,0,0-1.72,2.35c-1,1.71-2,3.46-3,5.19a.72.72,0,0,1-.14.2c-3.25,2.14-4.52,5.86-6.94,8.65-1.63,1.89-3,4.12-4.86,5.63-3.91,3.23-7.26,7.33-12.39,9-1.1.34-2,1.39-3,2.12a45.75,45.75,0,0,1-9,4.85c-2.3,1-2.59,1.53-2,4,.83,3.65,1.79,7.27,2.65,10.92.5,2.13.86,4.29,1.4,6.41.37,1.48,1,2.91,1.44,4.36.11.3.41.61.37.88-.4,3.2,1,6.06,1.67,9.06.68,3.18,1.45,6.35,2.18,9.52.1.4.07,1,.32,1.16,1.89,1.52.76,3.58,1,5.37.15.94.13,1.91.29,2.86.32,1.91.77,3.81,1.05,5.73.37,2.47.34,5,1,7.44a55.13,55.13,0,0,0,3,7,68.69,68.69,0,0,0,14-12.26c2.24-2.52,3.84-5.64,5.58-8.58a24.6,24.6,0,0,1,4.51-5.74,31.23,31.23,0,0,0,3.29-3.94c2.5-3.19,4.72-6.64,7.51-9.54,3.64-3.8,7.57-7.41,12.33-9.84,2.51-1.29,5.19-2.27,7.8-3.35a3.19,3.19,0,0,1,1.42-.28,17.06,17.06,0,0,1,14.74,10.37c1.27,3,.92,6.26,2.29,9.14-.49,1.37-1,2.74-1.48,4.11-.39,1.06-.8,2.11-1.19,3.16-.79,2.13-1.51,4.29-2.39,6.38-.82,1.92-2,3.69-2.69,5.66a27.09,27.09,0,0,1-4.71,8.2,8.61,8.61,0,0,0-1.13,1.6c-2.22,4.95-6,8.6-9.69,12.46-2.74,2.91-5.3,6-8.55,8.33-.87,2.16-2.82,3.29-4.52,4.63a54,54,0,0,1-7.25,5.32c-2.73,1.5-5,3.65-8.17,4.63-2.93.93-5.58,2.68-8.4,4a34.49,34.49,0,0,1-3.47,1.17c-1.8.62-2.24,1.31-1.94,3.1.75,4.5,1.19,9.09,3.52,13.17.83,5.44,3.83,10.2,4.81,15.59.36,2,.93,3.95,1.4,5.92,0,.16,0,.41.07.48,2.1,1.5,1.45,4,2.18,6,.9,2.42,1.89,4.8,2.84,7.2.18.45.56.87.59,1.32.19,3,1.72,5.49,3.27,8,1,1.57,1.56,3.38,2.38,5.05.22.46.68,1.13,1,1.11s.94-.55,1.19-1a13.57,13.57,0,0,0,.45-1.64,3.59,3.59,0,0,1,.89-1.3c2.06-1.75,3.67-3.63,3.76-6.61a47.8,47.8,0,0,1,1.1-8.15c.16-.76,1.16-1.54,2-1.93a2.91,2.91,0,0,0,1.64-1.64c.74-2,1.57-3.92,2.28-5.9.41-1.14.51-2.39,1-3.48a51.73,51.73,0,0,1,2.84-5.67,46.44,46.44,0,0,1,4.74-7.23,61.85,61.85,0,0,1,6.75-5.93c.36-.31.95-.45,1.18-.82,1.18-1.93,3.18-2.9,5-3.7,3-1.3,6.32-2.58,9.32.07a11.91,11.91,0,0,1,2.22,3.36,29,29,0,0,1,1.72,3.76,21.31,21.31,0,0,1,1.37,4.42c.82,5.95,1.5,11.92,2.22,17.88,0,.32.17.72,0,.95-1.52,2.58-.82,5.57-1.58,8.27-1.46,5.15-2.09,10.64-5.38,15.08-1.33,1.79-2,3.82-3,5.71-.12.22-.34.44-.33.65.21,2.46-1.74,4-2.68,5.9a5,5,0,0,1-2.77,2.22c-3.06,1-4.79,3.28-6.35,5.75a8.73,8.73,0,0,1-3.86,3.41,11.14,11.14,0,0,0-5.56,5.48c-.63,1.48-1,3.11-2.6,4a1.86,1.86,0,0,0-.51,1.48,5.73,5.73,0,0,0,.59,1.84,93.47,93.47,0,0,0,6.76,12,123.2,123.2,0,0,1,7,11.66,22.67,22.67,0,0,0,1.56,2.16c.38.58.69,1.21,1,1.83a7.9,7.9,0,0,0,.54,1.09c2.72,3.74,4.7,8,7.76,11.5a7.73,7.73,0,0,1,1.08,1.9c.77,1.71,1.19,3.68,2.31,5.1,1.48,1.88,1.61,4.26,3,6.18,2.47,3.31,4.73,6.78,7.51,9.87,1.46,1.62,2.14,3.87,4.13,5.08a1.58,1.58,0,0,1,.53,1.07c.27,2.17.59,4.34.67,6.52,0,1.19-1.44,2.48-2.84,2.69a2.91,2.91,0,0,1-2.76-1.19c-1.25-1.48-2.64-2.84-3.94-4.28-.37-.41-.89-1-.83-1.42.18-1.47-.79-2.16-1.6-3.07a63.81,63.81,0,0,1-6.42-8.23c-.64-1-1.59-1.83-2.33-2.79-1.38-1.8-2.69-3.64-4.06-5.45a54.58,54.58,0,0,0-4-5c-1.51-1.53-2.31-3.55-3.74-5-2.59-2.67-3.71-6.28-6.2-9a40.75,40.75,0,0,1-3.13-4.66c-.91-1.32-1.89-2.6-2.86-3.88a95.28,95.28,0,0,1-5.54-8.73c-2.52-4.18-5.16-8.28-7.73-12.44a20.52,20.52,0,0,1-1.37-2.58,2,2,0,0,0-2.32-1.37c-2.32.4-4.63.91-7,1.27a26.88,26.88,0,0,1-3.81.22c-.73,0-1.46-.22-2.18-.21-3.57.06-7.14.18-10.71.23a5.33,5.33,0,0,1-1.91-.27c-1.83-.69-3.62-1.47-5.42-2.24a18.67,18.67,0,0,0-3.09-1.43c-4-.94-7.1-3.18-10.12-5.71a4,4,0,0,0-1.43-.91,16.31,16.31,0,0,1-6.47-3.33,1.16,1.16,0,0,0-.46-.17c-3.73-1-6.32-4.08-9.84-5.6a66.75,66.75,0,0,1-9.81-5.81,74.53,74.53,0,0,1-5.89-4.64,47.05,47.05,0,0,1-3.86-3.31c-1.43-1.44-2.65-3.07-4-4.55a10.92,10.92,0,0,1-2.81-5.54c-.34-1.72-1.66-3.08-1.44-5.08.57-5.2,2-10.08,6.53-13a10.66,10.66,0,0,1,10.76-.81c2.42,1.16,5,2.08,7.27,3.44,3.16,1.85,6.1,4.06,9.19,6,1.92,1.23,3.94,2.3,5.92,3.44,4.37,2.5,8.8,4.9,13.11,7.51,3.12,1.9,6.1,4,9.1,6.14,1.19.83,2.19,2,3.43,2.73,3.23,2,6.49,4,9.86,5.75,1.2.63,2.73.63,4.18.93.87-.59.86-1.39.46-2.32-1.17-2.69-2.27-5.42-3.48-8.09s-2.8-5.51-3.91-8.37C196,397.4,195,394,194,390.56c-1.47-4.66-2.58-9.47-4.44-14-1.79-4.35-2.25-9-3.77-13.39-.62-1.77-.45-3.8-.76-5.69-.43-2.56-.88-5.12-1.53-7.62-.22-.86-1.1-1.55-1.77-2.44-1.62-.1-3.32-.25-5-.3-4.78-.11-9-2.31-13.37-3.75-2.77-.92-5.43-2.21-8.23-3-5.09-1.44-10-3.42-15-5.06-3.24-1.07-6.48-2.13-9.64-3.38a53.36,53.36,0,0,1-6.35-3.12,56.52,56.52,0,0,0-7.18-3.58c-3.6-1.4-6.66-3.73-9.78-5.95a40.71,40.71,0,0,1-4.82-4.37A69.56,69.56,0,0,1,94,304.77a17.53,17.53,0,0,1-3.22-9.56,6.83,6.83,0,0,0-.24-1.69c-.72-2.42,0-4.65.89-6.83a6.27,6.27,0,0,1,3.17-3.28,29,29,0,0,1,11-3.14,26.72,26.72,0,0,1,6.81.17A62.6,62.6,0,0,1,124.55,284a40,40,0,0,1,10.17,5.73c1.78,1.48,4.4,1.93,5.41,4.33,3,1.06,4.59,3.77,6.75,5.83,1.7,1.61,3.78,2.83,5.61,4.32,1.39,1.12,2.58,2.5,4,3.55,3.57,2.63,7.74,3.83,12,4.53C169.76,312.5,171.1,312.07,172.86,311.88Zm17.5-134.65a17.72,17.72,0,0,0-2.09,8.6c.91-3.2,2.31-5.7,2-8.63,1.8-1.86,1.83-2,.27-3.18ZM161.69,12.15c-2.19-2.85-5.33-3.87-8.18-5.3a1.56,1.56,0,0,0-2.33.9C154.08,11.63,157.7,13.18,161.69,12.15Zm74.87,250.46c1,.56,1.81,1,2.65,1.5,1.62.89,2.7.54,3.48-1.2.35-.79.57-1.63.85-2.44C240.57,259.26,237.72,260.15,236.56,262.61Zm-67.09-36.67a7.27,7.27,0,0,0,5.17-4.47,1.75,1.75,0,0,0-.48-1.61c-.42-.27-1.53-.27-1.73,0C171.22,221.69,169.09,223.05,169.47,225.94ZM44.3,88.13l.48-.17c-1.25-4.59-5.64-14.79-7.23-16.17ZM259.83,376.94c-.11,2.07.13,4.1-.77,6-.8,1.65-.37,3.22-.2,5,1.62-.46,1.73-1.75,1.85-2.75C261.07,382.35,260.27,379.63,259.83,376.94ZM133.93,22.75c.72-3.73,3.4-6.75,4-10.94C135,14.39,133.13,19.39,133.93,22.75Zm-12,297.37a5,5,0,0,0,4.1,2.42c.08-2.62-.69-4.15-2.69-5.35Zm38.19-260c.48,2,.92,4,1.49,6,.1.32.79.48,1.25.73C163.77,64.47,162.78,61.71,160.13,60.08Zm39.1,141.79c-3.62.48-4,3.65-5.29,6.09C196.31,206.46,197.63,204.05,199.23,201.87Zm-20.39,138.2a8.82,8.82,0,0,0-4.19-.79,2,2,0,0,1-1.28-.24c-1-1-1.87-.43-2.86.11C172.81,340.84,177.32,341.37,178.84,340.07Zm27-199.93c3.09-.52,4.75-2.24,5-5.12C208,135.63,207.52,138.32,205.81,140.14Zm-120.62,45a16.18,16.18,0,0,0-7-2.77,2.68,2.68,0,0,0,2.18,2.07A38,38,0,0,0,85.19,185.09ZM86.27,72.65c-.47-1.9-.74-3.26-1.15-4.57s-.76-1.4-2.26-.31C83.62,69.41,84.08,71.25,86.27,72.65Zm164,331.24c-.08,2.15-.16,4.26-.25,6.62.44-.35.88-.54.88-.72a16.75,16.75,0,0,1,1.07-5.05C252.14,404,251.47,403.62,250.25,403.89ZM173.16,284.53c-.06,1.93-.6,4,1.19,5.73C175.54,287.88,174,286.27,173.16,284.53ZM258.24,394.3l.55,0c.37-1.38.81-2.74,1-4.14.06-.35-.53-.81-.82-1.22-.35.37-1,.73-1,1.12C258,391.49,258.15,392.9,258.24,394.3ZM181.94,36.05a9,9,0,0,0,2.37,7.07ZM161.05,423.56c.54-1.25.21-1.85-.56-2.17a4.52,4.52,0,0,0-4.07.15Zm-69.64-385c.47-.3,1.13-.54,1.12-.75-.08-1.75.36-3.72-1.94-5.08ZM211.64,438.17c-1.46-1.76-2.83-1.74-4.37-.05A3.85,3.85,0,0,0,211.64,438.17ZM172.75,282c-.4-2.29-.52-4.71-2.09-6.69C170.46,277.79,172.08,279.77,172.75,282ZM35.23,117.63l4.15,2C38.13,116.46,37.66,116.21,35.23,117.63Zm152.41,300.1-.36.68c1.47.83,2.4,2.43,4.5,3.06-.21-.7-.2-1.2-.43-1.36C190.14,419.27,188.88,418.52,187.64,417.73Zm35.22-145.67c-.76,1.44-2.21,2.53-2.29,4.4C222.3,275.84,223.07,274.44,222.86,272.06Zm-67.38,125.3c.57,2.73,1.39,3.12,3.18,1.56ZM17.71,100.69l-.63.35a4.56,4.56,0,0,0,2.66,3.51ZM162,207.4l1.84-3.8C161.39,204.68,161,205.49,162,207.4ZM47.36,94.51c.52-2.17-.94-3.11-1.66-4.36A6.2,6.2,0,0,0,47.36,94.51Zm140.49,92.82c-1.75,1-2,1.82-1.24,4.17C187.08,189.9,187.43,188.74,187.85,187.33ZM171.23,45.58c.55,1,1.1,2,1.78,3.27C173.82,46.8,172.74,46.08,171.23,45.58ZM98.32,83c-.11-2.33-.11-2.33-1.38-3C97,81.78,97,81.78,98.32,83Zm25.74,208c-.46-.92-1-1.52-1.9-.86a1.34,1.34,0,0,0,0,1.27C123,292.29,123.54,291.62,124.06,291Zm21.52,37.46L142.9,327c0,1.18,0,1.83,0,2.87ZM106.47,66c0,1.26-.19,2.49,1.16,3.4A2.92,2.92,0,0,0,106.47,66ZM167.6,404.68c1.93,2.62,2.06,2.68,3.45,1.72Zm-18,10.68-.5.5c.31,1,1,1.47,2.63,1.45Zm36.3,1.65c-1.17-1.87-1.17-1.87-2.56-1.82Zm-6.19-5.45c.16,1.62.16,1.62,1.83,1.71Zm-37-178.15.12-.69c-.75-.36-1.49-1-2.78.33Zm33.45,98c-.06-1.54-.43-2.08-1.5-1.75-.17.06-.27.36-.51.69ZM29.33,62.15l-.64.58a13.5,13.5,0,0,0,1.14,1.13,4,4,0,0,0,.61-.5Zm208,211.79c-1.23.19-1.49.71-1.33,1.65C237.17,275.74,237.17,275,237.32,273.94ZM48.35,98.35l.39-.11-.42-1.43-.37.11C48.08,97.39,48.21,97.87,48.35,98.35Zm178.12,349.5-.35.22.82,1.39.38-.24ZM175.79,53c0,.41,0,.76.1.95s.49.09.75.12a2.9,2.9,0,0,0-.14-.84C176.45,53.1,176.15,53.1,175.79,53Zm33.14,135.18-.76-.29-.48,1.47.54.22ZM99.67,86.76l-.16.08.73,1.68.17-.08ZM193.09,168l.54.21c.13-.45.27-.91.41-1.37l-.31-.13C193.52,167.1,193.31,167.53,193.09,168Zm-24.26,157.7a3.33,3.33,0,0,0,.22-.7,2.33,2.33,0,0,0-.81-.34s-.28.46-.23.51A3.52,3.52,0,0,0,168.83,325.66ZM86.94,18.73l-.24-.22-.55.53c.11.08.29.25.3.23A5.07,5.07,0,0,0,86.94,18.73Zm64.74,213.73.13-.53a2.84,2.84,0,0,0-.66.07,3.51,3.51,0,0,0-.6.33l.11.25Z"/></g></g></svg>