<svg xmlns="http://www.w3.org/2000/svg" viewBox="0 0 111.69 268.34"><defs><style>.cls-1{fill:#282230;}</style></defs><title>Asset 16</title><g id="Layer_2" data-name="Layer 2"><g id="GRID"><path class="cls-1" d="M105.75,42,111,38.63c.33,1.29.79,2.09.66,2.79a20.65,20.65,0,0,1-1.5,5.61C105.39,56.45,100.9,66,97,75.82c-2.18,5.5-5.33,10.63-8.16,15.87-3.16,5.86-5.73,12-10,17.28-.82,1-.93,2.72-1,4.14-.61,6.88.57,13.61,2,20.27,2.65,12.11,5.45,24.19,8.23,36.28.49,2.12,1.2,4.18,1.88,6.54,1.68-1.12,1.67-2.75,1.89-4.18.7-4.57,1.32-9.16,2-13.73a53.57,53.57,0,0,1,8.09-22.08,22.88,22.88,0,0,1,2.27-2.83c2.72-3,2.74-3,7-2,0,.88.14,1.82.16,2.77.09,4.48.27,9,.22,13.44a53.45,53.45,0,0,1-4.1,18.79c-2.49,6.46-4.78,13-7.14,19.5A7,7,0,0,1,98,189.41c-3.55,2.77-4.78,12.43-2.24,16.21-1.91,3.53-1,7.21-.26,10.86a21.33,21.33,0,0,0,1.2,3.81c.83,2.05,1.62,4,.45,6.25a3,3,0,0,0,0,1.79c1.6,8.24,3.37,16.45,4.79,24.72.67,3.93.72,8,1,12a3.61,3.61,0,0,1-.25,1.79,7.61,7.61,0,0,1-1.3,1.51c-.53-.54-1.41-1-1.55-1.63-.59-2.73-1.07-5.49-1.39-8.26-1.16-9.91-2.07-19.85-4.36-29.59a44,44,0,0,0-1.6-4.52c-9.84,1.44-16.07-4.42-22-10.38a74.77,74.77,0,0,1-17.5-27.46c-.48-1.31-1-2.59-1.91-4.78,1.95.49,3.13.54,4,1.06A40.63,40.63,0,0,1,59.53,186a13.81,13.81,0,0,0,6.34,3.15c2.25.39,4.33,2.51,6.19,4.2,5.68,5.17,10.26,11.34,15.18,17.19,1,1.17,2.05,2.28,3.58,4a20.83,20.83,0,0,0,0-2.5c-2.17-11.84-4.71-23.64-6.42-35.55C83,166.75,80.45,157.39,78,148c-2.21-8.58-4.61-17.12-6.91-25.69a39.91,39.91,0,0,1-1.54-6.37c-.3-3-1.84-5.09-3.74-7.25A43.38,43.38,0,0,0,54,99.22c-7.53-4.17-14.49-9.38-21.8-14-9-5.66-16.55-13.14-24.48-20.11a17.23,17.23,0,0,1-6.1-12.06C1.26,48,.6,42.92.09,37.84-.6,31,2.75,26,8.13,22.53a57.25,57.25,0,0,1,12.74-6.18c6.32-2.12,11.77-5.8,17.67-8.63,4-1.89,8-3.61,12-5.43C57.5-.9,64.71-.26,72,1.19a10.09,10.09,0,0,0,1.79.34c5.86.12,11,2.71,16.19,5a21.45,21.45,0,0,1,11.74,12.83,44.32,44.32,0,0,1,3,15.62C104.68,37.21,105.36,39.48,105.75,42ZM72.08,4.77C70,4.13,68.15,3.19,66.31,3.11a57.54,57.54,0,0,0-9.82.43,7.42,7.42,0,0,0-5.56,3.74c-1.41,2.36-3,4.61-4.43,6.79-1.74.07-3.39-1-4.78.8l6.53,7.66.51-.3-.6-8.09c3.27-1,3.32,2.49,5.28,2.64h6.87c.42-4-.19-8.22,2-11.85,2.34,0,2.82,1.58,3.42,3s.53,3,2,4.2Zm6.79,5.08c-2.23.62-2.78,2-3.23,3.6-3.18,11.14-4.14,22.62-5.09,34.1,0,.45.32.93.71,2C78,36.7,81.48,24,78.87,9.85ZM45.51,53.12c-.17-2.82-.66-5.58-.44-8.28.47-5.66-1.26-10.85-3.09-16a55.27,55.27,0,0,0-4.33-8.41c-.35-.62-1.57-1.4-1.91-1.22a3.67,3.67,0,0,0-1.62,2.11,5.49,5.49,0,0,0,.08,2.87Q38,37.16,42,50.05C42.48,51.5,43.06,53.1,45.51,53.12Zm-14-37.9c-7.47,4.29-13.15,9.32-16.71,16.68l3.44,3.66c1.55-2.23,2.69-4.41,4.32-6.11,2.18-2.27,4.72-.47,7.18.24C31.83,25.14,30.76,20.44,31.52,15.22Zm58.23,6.89c-3,.95-3.74,3.08-4.19,5.14q-3.15,14.42-6,28.9a71.44,71.44,0,0,0-.71,7.62C85.24,50.67,88.08,36.78,89.75,22.11ZM3.29,46.78c2.81,0,3.09-1.37,2.82-3.19-.35-2.4-1.15-4.87-.86-7.21.73-5.87-1.31-7.12,7.06-5.85,1.13-1.71,2.28-3.55,3.53-5.33s2.49-3.33,3.74-5L19,19.6C13.47,21.9,8,24.21,4.56,29.7S2.27,40.84,3.29,46.78Zm26-.2c.18-5,.45-9.19.43-13.37,0-1.78-2.17-3.05-4-2.73-2.77.46-6,7.09-4.59,9.57a2.75,2.75,0,0,0,.71.81C24,42.61,26.3,44.33,29.24,46.58ZM76,52.41c-2,5.06-3.75,9.43-5.54,13.78-1.64,4-1.92,7.89,0,12a8.41,8.41,0,0,1,1.08,5.61c-.21.93.55,2.08,1,3.71C73.74,75.52,74.82,64.35,76,52.41ZM68.66,36.34l.73.08c2.11-9.9,1.33-20.51,7.23-29.51-2.36-.43-2.44-.48-3.11.52-.94,1.4-1.82,2.86-2.62,4.35-2,3.75-4,7.48-3.12,12a48.28,48.28,0,0,1,.31,5.79C68.23,31.85,68.46,34.09,68.66,36.34ZM92.22,24.8,86.83,51.45a4.18,4.18,0,0,0,.83,0c1-1.93,1.84-3.93,2.94-5.78A22.75,22.75,0,0,0,92.22,24.8ZM72.59,211.87c-.55-1.24-.88-2.1-1.3-2.89-3-5.53-6-11-8.9-16.59a8.69,8.69,0,0,0-4.74-4.18C57.55,193.17,66.75,207.88,72.59,211.87ZM58,35.91c2.78-4.78,2.48-9.18,2.33-13.51a5.28,5.28,0,0,0-1.42-2.82c-.91-1.09-2.14-.91-3.31-.28a2.13,2.13,0,0,0-1,2.8c.63,2.21,1.29,4.42,1.85,6.65S57.37,33,58,35.91ZM49.62,33c-2.4,5-.94,18.51,2.5,23.17C52.66,51.76,50.91,35.54,49.62,33Zm47.95-.65a5.83,5.83,0,0,0,2.18-7c-1.33-4.33-4.24-7.85-7.31-8.61ZM82.82,24.91l.41.19c1.87-3.8,3.75-7.6,5.7-11.55-2.12-1.08-3.41-2.87-6.11-2.65ZM22.23,63.83c-.11-3.31-1.57-5.59-2.5-8s-1.59-5.1-4.15-7C14.5,55.33,16.49,60.05,22.23,63.83Zm84.26,71.8c-1.63,1.63-3.75,2.89-3.31,5.76.15,1-.51,2.09-.8,3.14-1.28,4.54-2.59,9.06-3.79,13.61a8.24,8.24,0,0,0,.11,2.46l.89.05ZM46.14,32c2.66-3.84.7-6.86-1-9.85-2.21-3.83-5.06-6.05-7.81-6C41.9,20.47,43.48,26.37,46.14,32ZM7,49.09C4.37,50.6,4.07,50.93,5.39,53c2.46,3.87,5.2,7.56,7.88,11.29a10.29,10.29,0,0,0,1.8,1.59C12.37,60.3,9.73,54.82,7,49.09Zm7.19-15.22c-2.51,3.81-2.41,7.29-2.81,10.62,0,.34.45,1.06.7,1.06a2,2,0,0,0,1.46-.61c1.29-1.86,2.46-3.8,3.9-6.07C16.57,37.58,15.55,36,14.16,33.87Zm21.1,15.71a15.2,15.2,0,0,0-3.34-12.66c0,3.64-.17,6.73-.08,9.82C31.92,49.26,32.13,49.34,35.26,49.58Zm28.9,16C65,59,66.08,52.39,65.75,45.69,63.92,51.15,62,61.82,64.16,65.63Zm-36,.09-1,.56c-.47,3,2,4.81,3.4,7,1.17,1.77,2.42,3.68,5.75,3.28C33.38,72.69,30.76,69.21,28.15,65.72Zm10.93-6.13c-1.7,6-1.73,9.18,3.63,11.27-.62-1.6-1.09-2.76-1.51-3.94-.32-.9-1.08-2.28-.75-2.65C42.63,61.8,40.21,61.1,39.08,59.59ZM47.49,7c-4,.29-6.64,2.41-9.8,4.51C43.43,12.79,45.67,11.73,47.49,7Zm31.05,95.9c.67-.91,1.42-1.77,2-2.73,2.09-3.39,4.13-6.8,6.18-10.21.39-.65.73-1.32,1.42-2.57C84,90.33,79.1,98.05,78.54,102.89Zm-19-29.57c-2.75,3.42-2,7.55,1.93,10.47C60.84,80.12,60.25,76.88,59.59,73.32ZM11.25,33c-1.44-1.1-2.74-1.2-3.17.58A12.72,12.72,0,0,0,8.67,42C9.65,38.57,10.41,35.94,11.25,33ZM32.54,52.66c-.45,3.85-.44,7,2.87,9.54C36.25,58.42,36.54,55.18,32.54,52.66ZM24.72,75.74c-.08.15-.28.43-.23.5,2,2.36,8.17,6.43,10.5,6.91C32.81,79,28.77,77.33,24.72,75.74ZM52.29,24.79c-.72,3.55.93,10.51,3.12,13.43C54.66,33.6,54.19,29.26,52.29,24.79Zm-7,31.57-.78.48c1.54,3.89,2,8.26,5.5,11.28a91.58,91.58,0,0,0-3.57-9.79A18.7,18.7,0,0,0,45.25,56.36Zm51.34-3.6c4.17-3.95,4.87-5.9,3.58-9.86C99,46.16,97.13,48.91,96.59,52.76Zm-33-41.4c-.16,2.91-1.68,5.88-.07,9.36C65.67,17.33,64.64,14.37,63.62,11.36Zm8.87,189.7-.82.67a28.83,28.83,0,0,0,7,7.88l.67-.58ZM86.15,8l-.5.7,9.19,5.72A14.45,14.45,0,0,0,86.15,8ZM44.42,87.47c-2.48-2.65-4-6.23-7.43-8C38.22,83.22,41.44,85.24,44.42,87.47Zm26.75,5.75c-.93-2.41-.39-5.28-2.57-7.33C67,89.67,67.54,91.42,71.17,93.22ZM86.51,221.46l.66-.61-7.37-6.17A9.21,9.21,0,0,0,86.51,221.46ZM63.78,33.77l-.85-.15A19.53,19.53,0,0,0,63,44.3C63.27,40.3,63.53,37,63.78,33.77ZM73.21,111c.57-2.73,1.3-5-.48-7.15C70.76,106.6,70.82,108.53,73.21,111ZM58.35,61.28c-.45-3.2-.78-5.57-1.11-8C55.76,58.37,55.86,59.33,58.35,61.28Zm50.31-16.72c-3.61,1.48-3.85,2.07-2.9,6.53C106.91,48.5,107.78,46.53,108.66,44.56ZM27.07,56.5c-.77,3.06,1.35,4.22,3.12,6C30.91,59.35,29.29,57.91,27.07,56.5ZM99.38,36.67c-3,2-3.31,3.42-1.84,6.28C98.21,40.65,98.8,38.66,99.38,36.67Zm-64.12-1c-.53-2-1.07-3.9-1.78-6.48C31.34,32.51,33.39,34.1,35.26,35.63Zm-10,15,3.93,3.94C29.39,51,29.33,51,25.29,50.67Zm16.91,27-.76.68,3.87,4.63.57-.46C45,80.63,44.22,78.64,42.2,77.63ZM61.94,98.05l1-.28c-.58-1.66-1.15-3.31-1.72-5l-.77.25A6.84,6.84,0,0,0,61.94,98.05ZM37.85,70.49l-.63.45c.62,2.75,1.33,3.55,3.58,3.65ZM38,54.42,41.71,58C41.18,54.33,41.18,54.33,38,54.42ZM90.81,196.93l1-.24-1.32-5.19-.8.19ZM59.06,46l.85-.06c.15-1.37.74-2.8-1-4C58.93,43.31,59,44.65,59.06,46ZM85.22,67.71l-.93-.3L82.67,72l.65.24Zm-46.39-20c-1.15,1.49-1.17,2.61,1.24,3.64ZM56.35,67.31C58,65.25,58,65.25,56,64.22Zm17.82,50.37-.92.08.51,3.64c.68-.36.88-.68.84-1C74.51,119.51,74.32,118.6,74.17,117.68ZM69.92,58.07l.59.38c.35-.87.72-1.73,1-2.61,0,0-.3-.21-.6-.41C70.6,56.33,70.26,57.2,69.92,58.07ZM68,95.12c-.63,1.64-.26,2.4,1,2.65.14,0,.35-.21.77-.49Zm23.07,83.73-.43.18.79,2.35a8.52,8.52,0,0,0,.14-1.76C91.52,179.34,91.25,179.11,91.08,178.85Z"/></g></g></svg>