<svg xmlns="http://www.w3.org/2000/svg" viewBox="0 0 119.39 323.05"><defs><style>.cls-1{fill:#282230;}</style></defs><title>Asset 8</title><g id="Layer_2" data-name="Layer 2"><g id="GRID"><path class="cls-1" d="M104.67,95.24a31.82,31.82,0,0,1,0,9.29c-.41,4.08-.66,8.18-1.07,12.25a48,48,0,0,1-1.85,7.73c-.29,1-1.26,1.22-2.11.53a3.12,3.12,0,0,1-.94-1.08c-.54-1.24-.8-2.56-2.73-2.46-.4,0-1.14-1.48-1.27-2.35a30.2,30.2,0,0,1-.12-4.57c0-1.82,0-3.65,0-6-2.27,1.9-3.19,4.16-4.76,5.89s-3.21,3.94-5.21,5.36S82.47,124.24,80,125l-3.84-2.43a2,2,0,0,1,.76-2.3A5.66,5.66,0,0,0,78.66,117a26.14,26.14,0,0,1,5.27-10.44c2.31-2.69,4.45-5.52,6.63-8.31a6.12,6.12,0,0,0,.92-1.68q2.1-6,4.13-12c.15-.45.09-1,.2-1.43.34-1.47.74-2.93,1.07-4.4.21-1,.35-2,.53-3l-.49-.17C96,76.89,95,78.21,94.2,79.63a25.58,25.58,0,0,1-9.31,9,6.89,6.89,0,0,1-6.49.63A42.14,42.14,0,0,1,79.54,85a78,78,0,0,1,7.31-14.37C87.92,69,88.61,67,89.61,65.29a127,127,0,0,1,14.08-19,6.93,6.93,0,0,0,1.74-3.87q1.66-13.75,3.34-27.51a6.39,6.39,0,0,0-.18-1.45,7.54,7.54,0,0,0-1.36,1.21,37.83,37.83,0,0,0-3.16,5.13,37.35,37.35,0,0,1-8.22,11.26c-3,3-6,6-9.11,9-2.88,2.81-5.81,5.57-8.73,8.35A112.22,112.22,0,0,0,64.87,63.25c-2.39,3.23-5,6.32-7.53,9.45-3.67,4.52-7.17,9.14-8.28,15.07a4.05,4.05,0,0,1-.46,1.36c-3.36,5.38-5.3,11.35-7.36,17.29a77.35,77.35,0,0,0-3.59,16.71c-.38,3.35-.45,6.74-.94,10.08a47.34,47.34,0,0,0-.51,7.43c0,2.48-.43,5-.59,7.45-.25,3.61-.42,7.22-.63,10.83a36.41,36.41,0,0,1-.32,4.57,87.17,87.17,0,0,0-1.39,12.7c-.12,3.45-.92,6.87-1.07,10.32C32,191.73,32,197,32,202.19c0,2.08,0,4.17.06,6.26a23.44,23.44,0,0,0,.31,3.35,2.83,2.83,0,0,0,2.71,2.63c.79.12,1.62.1,2.39.28a6.67,6.67,0,0,1,5.34,7c-.18,1.79-.86,2.4-2.62,2.38a6,6,0,0,1-5-2.36,3,3,0,0,0-1.79-1.06,30,30,0,0,0,0,3,59.3,59.3,0,0,0,.81,6.23c.55,2.72,1.42,5.38,2,8.11a64.16,64.16,0,0,0,3.06,9.85c.74,1.95.51,4.26.69,6.41.35,4.08.66,8.16,1,12.24a2.62,2.62,0,0,0,.51,1.32c2.19,2.67,4.36,5.35,6.64,7.94,1.71,1.94,3.59,3.71,6.54,3.77,0,1.52-.09,2.94-.14,4.41-.82.68-1.91.77-2.17-.24-.44-1.74-1.82-2.63-2.88-3.72a33.38,33.38,0,0,1-5.22-6,12.57,12.57,0,0,0-2-2,10.15,10.15,0,0,0,0,2.07c2.38,9.77,2.78,19.72,2.93,29.7a13.4,13.4,0,0,0,.88,5.39c1.07,2.45.44,5.07-.1,7.6,0,.15-.1.37-.21.42-1.93.8-1.77,2.64-2.15,4.22-.43,1.78-1.35,2.11-2.66.9a8.64,8.64,0,0,1-2.53-6.82c.07-3.05.44-6.12,2.37-8.71a2.18,2.18,0,0,0,.13-2.72c-1.55-1.83-1.28-4-1.15-6,.47-7.62.39-5-2.19-12.7-3.14,4.93-4.77,10.3-7.4,15.08,2.08,2.13,2.13,3.3.31,5.25a9.42,9.42,0,0,1-2.34,2,2.39,2.39,0,0,1-3.11-.29,2.48,2.48,0,0,1-.33-3.1,1.37,1.37,0,0,1,.13-.2c2.58-3.06,3.6-6.95,5.49-10.38,2-3.64,3.64-7.49,5.45-11.25a6,6,0,0,0,.49-4,38.75,38.75,0,0,1-.77-6.7,43.23,43.23,0,0,0-1.49-9.72c-1.35-5.53-2.34-11.15-3.51-16.73-.33-1.56-.77-3.1-1.27-5.12-1.44,1.35-2.73,2.38-3.79,3.6s-2.55,1.31-3.91,1.66A1.31,1.31,0,0,1,19.79,244,8.8,8.8,0,0,1,21,241.47a33.38,33.38,0,0,0,2.34-3.91,10.72,10.72,0,0,1,4.86-5.49c-.22-1.53-.33-3.21-.72-4.82-1.23-5-1.22-10.2-1.55-15.32-.2-3.12-.52-6.23-.72-9.36a25.93,25.93,0,0,1,.05-3.84,132.85,132.85,0,0,0,0-14,37.25,37.25,0,0,1,.94-8.59,54.09,54.09,0,0,0,1.15-9.31c.05-1.56.34-3.12.58-5.15-1.57,1.34-2.74,2.39-4,3.35a3.59,3.59,0,0,1-1.7.77A1.81,1.81,0,0,1,20.42,163,18.82,18.82,0,0,1,24,158.75a11.94,11.94,0,0,0,4.9-9c.68-8.4,2.18-16.73,3.32-25.08.42-3,.84-6,1.16-9.07.16-1.5.11-3,.16-4.92a13.56,13.56,0,0,0-1.57,1c-.84.75-1.67,1.52-2.46,2.32a67.47,67.47,0,0,1-11.25,9.06c-2.55,1.66-4,4.17-5.77,6.39-.91,1.12-1.75,2.3-2.63,3.44s-2.21,2.36-1.9,4.19a1.4,1.4,0,0,1-.23.93c-1.09,1.43-1.12,3.1-1.33,4.78A5.2,5.2,0,0,1,4.9,145.4c-.76.81-1.77,1.51-3,.88A3.58,3.58,0,0,1,.3,142.73,8.67,8.67,0,0,1,2.56,138a42.7,42.7,0,0,0,3.86-4.31c2-2.5,3.86-5.07,5.68-7.84-2.19.45-4.47,0-6.46,1.64A10.45,10.45,0,0,1,1.86,129a1.42,1.42,0,0,1-1.8-1.2,1.34,1.34,0,0,1,1-1.7c2.55-1.13,5-2.68,7.94-2.42a3.28,3.28,0,0,0,1.65-.35c5.33-2.65,10.68-5.28,15-9.5,2.59-2.52,5.27-5,7.85-7.49a7.41,7.41,0,0,0,1.23-2c2.8-5.54,4.47-11.52,6.81-17.24.85-2.07,1.74-4.13,2.68-6.16,1.86-4,5.4-6.55,8.42-9.55.86-.85,1.74-1.68,2.52-2.59C59.78,63.4,64.36,58,69,52.6c2.9-3.35,5.81-6.69,8.79-10,4.39-4.84,8.73-9.72,13.3-14.39s8.58-9.83,12.71-14.88c1.27-1.56,2.75-3,4-4.5,1.06-1.25,2.6-2.17,2.77-4.07,0-.39.53-1,.86-1.06,1.9-.2,2.69-1.88,4-2.81.85-.59,1.71-1.39,2.81-.57.75.55.58,1.91-.43,3-1.47,1.6-3,3.14-4.53,4.68a3.57,3.57,0,0,0-1.11,3.52l3.22-1a33.42,33.42,0,0,1-1.82,5.26,15,15,0,0,0-1.07,12.35c.76,2.45,1.23,5-.33,7.57,1.44,1,1.73,2.35,2.05,3.9A108.82,108.82,0,0,0,117.67,53a30.84,30.84,0,0,1,1.14,15.2c-.67,4.37-1.38,8.74-2,13.12a2.15,2.15,0,0,1-1.2,1.92c-.83.39-1.59.08-1.71-.73-.67-4.8-3-9.1-4.21-13.71-1.19-4.41-2.42-8.81-3.64-13.21a7.79,7.79,0,0,0-.42-.92,11.46,11.46,0,0,0-.61,1.25c-1.07,3.29-2.18,6.57-3.15,9.89a7,7,0,0,0-.2,3.06,22.1,22.1,0,0,1-.19,8.15,4.32,4.32,0,0,0,1.73,4.83,12.68,12.68,0,0,1,4.33,6.84,10.2,10.2,0,0,0,4.3,6.11c3.28,2.16,5,5.68,5.94,9.39a82,82,0,0,1,1.6,9.25,7.14,7.14,0,0,1-.45,2.25c-.9-.21-2.09-.12-2.65-.68a20.56,20.56,0,0,1-3.53-4.52c-1.39-2.51-2.4-5.23-3.68-7.8-1.12-2.23-2.39-4.37-3.62-6.54A5.16,5.16,0,0,0,104.67,95.24ZM32.9,140.62l-.52,1.49.44.1v-1.6a1,1,0,0,0-.36-1.67C32.61,139.5,32.75,140.06,32.9,140.62Zm80.2-67.95c.3,1.39.31,2.91,1.65,4.22.26-1.24.47-2.2.66-3.14L113,72.67c.14-.41.46-.87.38-1.24-.45-2.1-.94-4.2-1.54-6.26A10.68,10.68,0,0,0,110.61,63l-.48.24C110.5,66.56,111.93,69.57,113.1,72.67Zm1.61,30.79c.13,2.06.22,4.13.41,6.19a3.8,3.8,0,0,0,2,3.44,25.64,25.64,0,0,0-1.73-9.15c-.1-.23-.52-.32-.79-.47.12-.42.48-1,.34-1.24-1-1.89-2.13-3.75-3.32-5.55-.31-.46-1-.65-1.74-1.07-.11.86,0,1.64-.3,2.07-1,1.32-.29,2.2.45,3.16,2.36-.7,2.36-.7,3.82,1.43C114.14,102.67,114.41,103.06,114.71,103.46ZM99.23,56.17c-3.29,3-8.78,11.42-9.77,15.12C92.48,66.29,96.41,61.89,99.23,56.17ZM43.43,92.35l-1-.31c-1.35,4.46-3.6,8.64-3.48,13.55C40.22,101.11,42.91,97.08,43.43,92.35ZM33.21,157.57l-.53-.08q-.82,3.48-1.66,7c-.54,2.24-.82,4.47.49,6.7Q32.35,164.36,33.21,157.57ZM99.09,23.44,85.85,37.53C90.35,32.91,95.47,28.87,99.09,23.44Zm9.63,20.42c.26,2.75.5,5.24.74,7.72H110c.24-2,.5-4.07.7-6.11C110.78,44.46,110.11,44.07,108.72,43.86Zm-6.5,52.41c-.82,4.6-.72,6.41.46,8C103,101.4,103.12,98.83,102.22,96.27ZM31.63,233.07c-.38,2.29.32,6.77,1.26,8.14C32.83,238.42,33.09,235.75,31.63,233.07Zm77.56-197.7c-.79,2.15.69,3.59,1.53,5.23C111.67,38.45,109.53,37.15,109.19,35.37ZM115,66.73c.32,3.45.32,3.45,1.16,4.33.13-1.27.25-2.42.37-3.62ZM38.05,274.36c1.33-1.77.45-3.23-.67-4.66C37.6,271.26,37.83,272.81,38.05,274.36ZM52.13,75.19,52,75.05l-5,5.31.16.14Zm33.12,2.45c1.43-.73,2.38-1.8,2-3.59Zm11.87,26.93a6,6,0,0,0-.2,4.41C97.83,106.93,97.83,106.93,97.12,104.57ZM101,119c-1.53.26-1.53.26-1,2.1C100.38,120.31,100.66,119.71,101,119ZM35.5,217.38l2.1,2C37.21,217.72,37.22,217.71,35.5,217.38ZM105,89.84c.21-1.53.21-1.53-.62-2.28Zm-2.48.49.52-.07L102.33,88l-.45.13C102.09,88.89,102.29,89.61,102.5,90.33ZM29.19,195.42l.52,0c0-.63,0-1.26,0-1.89l-.19,0C29.38,194.16,29.29,194.79,29.19,195.42ZM109,57.62l-.32,0,.14,1.12.37-.06C109.09,58.35,109,58,109,57.62ZM30.19,182.31l-.53,0c0,.43.08.87.13,1.3l.34,0Z"/></g></g></svg>