<svg xmlns="http://www.w3.org/2000/svg" viewBox="0 0 358.82 335.92"><defs><style>.cls-1{fill:#282230;}</style></defs><title>Asset 7</title><g id="Layer_2" data-name="Layer 2"><g id="GRID"><path class="cls-1" d="M266.51,106.79a45.87,45.87,0,0,1-7.33,11.4c-3.75,4.67-7.31,9.47-11.06,14.12-2.41,3-5.51,5.42-8.41,8-1.16,1-2.51.48-3-1a4.53,4.53,0,0,1-.3-2.07c.33-1.94,1.07-3.77-1.37-5.17-.51-.29-.22-2.73.31-3.9a45.83,45.83,0,0,1,3.49-5.68c1.45-2.24,2.93-4.45,4.81-7.32-4.28.52-7.22,2.55-10.5,3.42-3.53.93-7.07,2.26-10.65,2.41s-6.22,3.62-9.87,2.57l-2.77-6a2.91,2.91,0,0,1,2.77-2.2c2-.18,3.33-1.36,4.79-2.66a38.11,38.11,0,0,1,14.76-8.57c5-1.46,9.84-3.22,14.73-4.9a8.42,8.42,0,0,0,2.45-1.32q7.37-5.67,14.64-11.44c.54-.43.87-1.1,1.37-1.59,1.59-1.53,3.24-3,4.82-4.53,1-1,2-2.13,3-3.19l-.46-.6c-2.2,1-4.47,1.76-6.59,2.86-5.84,3-12.12,3.74-18.52,3.57a10.13,10.13,0,0,1-8.45-4.41c1.64-1.47,3.08-3,4.74-4.22a114.66,114.66,0,0,1,20.38-11.76c2.66-1.22,5-3,7.65-4.37,10.32-5.24,21.28-8.82,32.35-12.05a10.17,10.17,0,0,0,5.21-3.34q13-15.51,26-31a10.65,10.65,0,0,0,.94-1.92,11.41,11.41,0,0,0-2.63.4A54.62,54.62,0,0,0,325.83,14c-5.85,3.81-12.3,5.82-19,7.23-6.1,1.28-12.2,2.58-18.32,3.79-5.76,1.14-11.55,2.19-17.32,3.26A164.49,164.49,0,0,0,243.29,36c-5.5,2.05-11.13,3.77-16.73,5.57-8.09,2.61-16,5.47-22.12,11.83a5.71,5.71,0,0,1-1.64,1.31C194.41,58.6,187.29,64.35,180,70a112.63,112.63,0,0,0-17.68,17.58c-3.14,3.8-5.92,7.89-9.17,11.58a69,69,0,0,0-6.55,8.68c-1.95,3.05-4.46,5.73-6.65,8.64-3.17,4.22-6.26,8.5-9.39,12.75a54.39,54.39,0,0,1-4,5.34A128.55,128.55,0,0,0,114.76,149c-2.89,4.13-6.59,7.68-9.52,11.79-4.43,6.2-8.51,12.65-12.72,19q-2.52,3.81-4.91,7.71a34,34,0,0,0-2.29,4.35c-1,2.23-.56,3.76,1.23,5.36.87.78,1.89,1.41,2.69,2.25,3.52,3.71,3.91,9.13,1,12.78-1.64,2-3,2.24-5.1.81a8.71,8.71,0,0,1-4.29-6.89,4.3,4.3,0,0,0-1.34-2.72,42.4,42.4,0,0,0-2.37,3.67,89.57,89.57,0,0,0-4,8.27c-1.49,3.77-2.55,7.71-4.05,11.48A92.33,92.33,0,0,0,65,241.32c-.65,3-2.77,5.61-4.26,8.38-2.82,5.27-5.68,10.51-8.48,15.79a3.67,3.67,0,0,0-.42,2c.55,5,1.07,10,1.8,15,.54,3.74,1.43,7.4,5,9.82L55,297.6c-1.54.19-3-.57-2.47-2,.85-2.48-.13-4.68-.56-6.85-.75-3.81-1.79-7.52-1.64-11.46,0-1.11-.5-2.24-.93-4a14.89,14.89,0,0,0-1.66,2.53c-4.87,13.83-12.29,26.33-20.06,38.65a19.78,19.78,0,0,0-3.2,7.29c-.65,3.85-3.5,6.56-6.17,9.22-.16.16-.43.38-.6.34-3-.55-4.27,1.83-6,3.46-1.93,1.83-3.33,1.51-4-1-.94-3.81.24-7.32,2.32-10.35,2.52-3.68,5.42-7.13,9.84-8.76a3.18,3.18,0,0,0,2.32-3.23c-.44-3.48,1.6-5.87,3.36-8.25,6.64-8.94,4.45-5.79,7.43-17.28-7.76,3.54-14,8.82-21,12.56.84,4.26,0,5.73-3.8,6.67a14.28,14.28,0,0,1-4.5.64c-1.62-.15-3.2-.81-3.57-2.83-.31-1.7.3-3,2.06-4.05a1.54,1.54,0,0,1,.32-.15c5.59-1.69,9.94-5.63,15-8.32,5.35-2.86,10.42-6.27,15.62-9.42a8.83,8.83,0,0,0,3.74-4.45,56.53,56.53,0,0,1,4.39-8.81,63.15,63.15,0,0,0,5.92-13.08c2.75-7.83,6-15.49,9-23.24.85-2.18,1.54-4.41,2.52-7.28a75.7,75.7,0,0,0-7.5,1.39c-2.3.66-4.15-.42-6.09-1.08a1.93,1.93,0,0,1-.76-3.21A12.65,12.65,0,0,1,47.77,219c2-1,4.18-1.67,6-2.92a15.69,15.69,0,0,1,10.33-2.85c.94-2,2.14-4.19,2.94-6.47,2.51-7.14,6.63-13.44,10.31-20,2.23-4,4.31-8,6.55-12A41.58,41.58,0,0,1,87,170.14a193.83,193.83,0,0,0,11.14-17.08,54.68,54.68,0,0,1,8-9.75,79.36,79.36,0,0,0,8.82-10.47c1.31-1.88,2.9-3.55,4.81-5.85-3,.39-5.25.75-7.53.94a5.09,5.09,0,0,1-2.69-.41c-2.24-1.19-2.27-4,0-4.93a27.28,27.28,0,0,1,7.7-2.34c5.49-.57,9.56-2.46,13.18-7.16,7.52-9.72,16-18.72,24-28,2.91-3.36,5.83-6.72,8.63-10.17,1.39-1.7,2.54-3.61,4.11-5.9a23.61,23.61,0,0,0-2.72,0c-1.63.24-3.26.53-4.86.88a97.52,97.52,0,0,1-21,2.12c-4.44,0-8.15,2-12.14,3.24-2,.64-4,1.41-6,2.11-2.16.76-4.56,1.12-5.66,3.61a1.93,1.93,0,0,1-1,1c-2.48.88-3.85,2.9-5.44,4.8a7.69,7.69,0,0,1-3.89,2c-1.57.38-3.37.43-4.38-1.33a5.23,5.23,0,0,1,.88-5.6c1.85-1.8,3.76-3.46,6.51-4a61,61,0,0,0,8.16-2.19c4.41-1.48,8.75-3.13,13.18-5.07-3-1.19-5.49-3.52-9.2-3.13-1.87.19-3.9-.64-5.79-1.25a2.06,2.06,0,0,1-1.23-2.9c.4-1.21,1.3-1.51,2.52-1.31,4,.64,8.2.67,11.64,3.36a4.81,4.81,0,0,0,2.29.89c8.63,1,17.27,2,26,.33,5.17-1,10.39-1.86,15.56-2.9a10.82,10.82,0,0,0,3.08-1.45c7.83-4.54,14.64-10.53,22.06-15.66,2.68-1.86,5.41-3.67,8.17-5.4,5.47-3.44,11.82-3.72,17.9-5,1.72-.35,3.46-.67,5.14-1.16,9.95-2.9,19.86-5.88,29.81-8.77,6.21-1.8,12.43-3.57,18.69-5.21,9.21-2.42,18.41-4.93,27.71-7s18.32-5.19,27.39-8.09c2.8-.89,5.71-1.43,8.53-2.28,2.28-.69,4.9-.59,6.62-2.77a2.11,2.11,0,0,1,1.9-.62c2.48,1.27,4.79-.15,7.17-.22,1.52,0,3.2-.34,3.9,1.54.48,1.27-.81,2.8-2.93,3.35-3.07.79-6.17,1.45-9.27,2.12a5.19,5.19,0,0,0-4.16,3.42l4.74,1.34c-2.56,2-4.3,3.86-6.42,5-5.89,3.13-9.35,7.92-11.14,14.25-1,3.61-2.5,7.14-6.42,9,1,2.3.24,4.24-.6,6.4a159.14,159.14,0,0,0-6.45,19A45,45,0,0,1,305.36,84.9c-4.3,4.82-8.64,9.59-12.88,14.45a3.17,3.17,0,0,1-3,1.4c-1.33-.19-2-1.18-1.51-2.26,3-6.41,3.61-13.48,5.76-20.12,2-6.34,4-12.7,6-19.06a11.57,11.57,0,0,0,.23-1.45,14.57,14.57,0,0,0-1.75,1c-3.93,3.17-7.89,6.29-11.72,9.58a10.08,10.08,0,0,0-2.68,3.59,32.24,32.24,0,0,1-6.73,9.81c-2,2.13-2.84,4.3-1.73,7.29,1.45,3.87,1,7.93-.14,11.81a14.93,14.93,0,0,0,.4,10.89c2.29,5.26,1.56,10.91-.2,16.21a123.44,123.44,0,0,1-5.41,12.6c-.44.95-1.54,1.6-2.34,2.39-.94-1-2.46-1.82-2.7-2.94a30.42,30.42,0,0,1-.72-8.34c.3-4.18,1.23-8.31,1.7-12.48.41-3.61.56-7.24.78-10.87A7.44,7.44,0,0,0,266.51,106.79Zm-123.9-1.63c-.6.48-1.21,1-1.82,1.42l.47.47,1.26-2c.95-.44,1.5-1.1.89-2.33C143.15,103.57,142.88,104.37,142.61,105.16ZM294.78,85.88c-.73,2-1.93,3.81-1.33,6.48l3.31-3.31-2.09-3.23c.49-.4,1.25-.7,1.45-1.22,1.12-2.93,2.19-5.88,3.09-8.89a15.52,15.52,0,0,0,.22-3.63l-.76-.09C296.46,76.34,295.81,81.17,294.78,85.88Zm-22.53,39c-1.48,2.62-3,5.22-4.43,7.89-.85,1.62-1.55,3.34-.27,5.82,2.52-4.25,4.38-8.18,5.16-12.57.06-.36-.38-.81-.59-1.21.49-.42,1.37-.8,1.4-1.25.24-3.14.39-6.28.36-9.42,0-.81-.74-1.62-1.28-2.7-.81,1-1.27,2-2,2.29-2.29.81-2.11,2.46-2,4.22,3.45,1,3.45,1,3.55,4.8C272.18,123.41,272.21,124.11,272.25,124.83ZM291,54.66c-6.39,1-19.84,7-24,10.72C274.64,61.68,283,59.42,291,54.66Zm-97-.14-1-1.18c-5.2,4.38-11.28,7.7-15.05,13.8C183,62.66,189.51,59.89,193.91,54.52Zm-64.4,71.64-.58-.53-7.58,7.19c-2.44,2.31-4.56,4.82-4.74,8.58ZM316.83,14.52l-27.4,6.7C298.6,19.15,308.08,18.29,316.83,14.52Zm-4.48,32.65-5.23,10,.63.41c1.91-2.3,3.85-4.58,5.72-6.91C314.4,49.53,313.89,48.53,312.35,47.17ZM262.7,106.09c-4.67,5-6,7.27-5.79,10.13C259.5,113,261.76,109.94,262.7,106.09ZM67.48,217.23c-2.28,2.51-5,8.54-4.93,11C64.7,224.74,67.14,221.68,67.48,217.23ZM319.69,37.15c-2.68,2-2,4.94-2.3,7.62C320.27,42.89,318.69,39.61,319.69,37.15Zm-17.88,43c-2.36,4.48-2.36,4.48-2,6.23l3.34-4.14ZM42.47,272.85c3-1.11,3.13-3.59,2.9-6.23ZM218.21,40.46l-.07-.3-10.33,2.52.07.3ZM256.76,69.8c2.33.24,4.35-.3,5.3-2.81Zm-6.91,42.39a8.81,8.81,0,0,0-3.75,5.23C248.84,115.64,248.84,115.64,249.85,112.19Zm-6.71,20.73c-2.06-.89-2.06-.89-2.91,1.76ZM84.7,201.13l1,4.1C86.53,202.9,86.54,202.9,84.7,201.13Zm186.5-100.7c1.47-1.71,1.47-1.71,1.05-3.29C271.85,98.38,271.52,99.4,271.2,100.43Zm-3.43-1.38.68.33c.31-1.09.63-2.18.94-3.27l-.66-.19ZM94.47,169.24l.65.39,1.45-2.33-.24-.14ZM301.71,64.18l-.44-.2-.72,1.48.51.23C301.27,65.18,301.49,64.68,301.71,64.18ZM106.12,154l-.66-.4-.89,1.69.44.25Z"/></g></g></svg>