<svg xmlns="http://www.w3.org/2000/svg" viewBox="0 0 237.42 370.53"><defs><style>.cls-1{fill:#282230;}</style></defs><title>Asset 9</title><g id="Layer_2" data-name="Layer 2"><g id="GRID"><path class="cls-1" d="M167.59,202.34c2.47,0,5,.14,7.48.06a3.91,3.91,0,0,0,2.21-.89c1.77-1.46,3.81-2.8,5.05-4.65,1.72-2.56,4.07-4.32,6.28-6.3,2-1.75,4-3.47,5.75-5.39,4.36-4.71,10.15-6.54,16-8.44a14.79,14.79,0,0,1,10.41.6c2.77,1.06,4.32,3.09,5.69,5.25,2.09,3.28,3.73,6.85,5.55,10.3a5,5,0,0,1,.4,1c1.62,5.74,3.25,11.48,4.83,17.24a4.46,4.46,0,0,1,.13,2c-1.36,6-3.77,11.35-8.84,15.16a39.54,39.54,0,0,0-7.3,6.81,24.83,24.83,0,0,1-5.73,4.91,55.88,55.88,0,0,0-15.07,15.08c-2.68,3.88-5.65,7.57-8.5,11.33-3.11,4.11-5,8.62-3.92,13.83a62.94,62.94,0,0,0,3,9.53c1.33,3.43,3,6.7,4.47,10.1.8,1.9,1.25,3.95,2,5.87,1.23,3.1,2.55,6.16,3.91,9.21,1.07,2.43,2.47,4.73,3.33,7.22,2.23,6.43,4.24,12.94,6.35,19.41a10.08,10.08,0,0,0,.91,2.61c2.53,3.69,3.17,8.14,5,12.09,2.91,6.33-1.3,13.76-9.73,14-2,.07-3.92.09-5.87.19a16.78,16.78,0,0,1-16.61-11.12,29.94,29.94,0,0,0-2.27-4.66c-3.58-6.17-7.29-12.26-10.83-18.46-1.31-2.29-2.29-4.77-3.39-7.18-1.43-3.14-2.81-6.31-4.24-9.45-1.18-2.59-3.22-4.39-5.35-6.2a122.66,122.66,0,0,1-9-8.5c-5.47-5.75-12.14-6.48-19.45-5.14-3.17.58-6.36,1-9.54,1.56a12.81,12.81,0,0,0-3.66.95c-6.32,3.27-12.54,6.74-18.88,10-3.77,1.94-7.69,3.6-11.56,5.36-2.08.94-4.25,1.71-6.27,2.77-6.61,3.47-13.78,5.13-21,6.58-3.15.63-6.37,1-9.58,1.28a18.19,18.19,0,0,1-13.61-3.87,20.84,20.84,0,0,0-2.25-1.6,7.51,7.51,0,0,1-3.92-7.4c.36-7.32,2.12-14.32,4.12-21.31.56-2,.4-4.09.68-6.14.49-3.65,1.34-7.07,3.77-10.15s5.47-4,9-4.09c3.91-.1,7.82-.17,11.73-.08,2.52.05,5,.43,7.55.64s4.81.39,7.22.46a4.76,4.76,0,0,0,2.28-.6q4.42-2.34,8.79-4.8a15.13,15.13,0,0,0,7-8.27,6.33,6.33,0,0,0,.1-4.33c-1.38-3-3.13-6-6.31-7.55A28.85,28.85,0,0,0,75,245.93a17.74,17.74,0,0,1-4.42-.71c-3.23-1.05-6.35-.63-9.52.21a43.35,43.35,0,0,1-5.08,1c-10.7,1.63-21.4,3.26-32.11,4.82a29.48,29.48,0,0,1-5.85.4c-3.9-.22-6.92-2.5-9.66-4.94a14.68,14.68,0,0,1-5.3-10.07C2.63,231,1.56,225.44.93,219.84a63.18,63.18,0,0,1-.2-7.91c.05-3.22.31-6.45.37-9.68.12-6,2.69-6.94,8.11-8.47,8,.9,15.28-1.92,22.62-4.14,5.17-1.57,10.26-2.72,15.6-2,4.45.59,8.73-.37,13.06-.83,1.95-.21,3.88-.54,5.8-.86,2.62-.45,4-2.07,4.41-4.65A13.41,13.41,0,0,0,60.44,166a44.69,44.69,0,0,1-5.31-1.53,25.28,25.28,0,0,0-17.3.14c-3.46,1.17-6.79,2.56-10.52,3a25.68,25.68,0,0,1-20.82-6.25c-1-.89-2.09-1.81-3.16-2.69a8.49,8.49,0,0,1-3-9A127.28,127.28,0,0,1,4.5,134.76c2.1-5.67,6.59-8.9,12.41-10.57,5.18-1.49,10.2-3.51,15.35-5.09,2.84-.87,5.8-1.35,8.71-1.94,1.88-.38,3.81-.56,5.68-1,5-1.14,5-2.44,6.05-6.47.26-1,.19-2.07.36-3.09.7-4.22-2.19-6.37-6-5.56-3.09.64-6.25,1-9.31,2.26-5.48,2.23-10.83-.44-13.41-5.89C21.2,90.86,18,84.33,15,77.71a26.74,26.74,0,0,1-2-7c-.37-2.52.53-4.67,2-7,2.79-4.46,7-6.17,11.48-7.7,2.52-.85,5.06-1.62,7.57-2.47,2.73-.92,3.61-1.82,3.08-4.52a101.17,101.17,0,0,0-3.31-12.31c-.75-2.26-2.21-4.29-3.33-6.43-1.66-3.2-1-5.43,1.52-7.94,3.13-3.07,7.13-4.17,11.06-5.42A7.3,7.3,0,0,1,47.2,17C52,18.46,57,19.84,60.66,23.67a16.27,16.27,0,0,0,3.06,2.24C65.45,27,65.94,26.84,67,25c1.93-3.41,3.92-6.78,5.72-10.26,3-5.74,7.67-9.89,12.92-13.19a10.73,10.73,0,0,1,10.61-.33c7.08,3.57,14.19,7.1,21.16,10.88a14.67,14.67,0,0,1,4.45,4.26,4.08,4.08,0,0,1,.08,4.83c-2.45,4.14-4.52,8.5-6.92,12.68-1.78,3.09-3.74,6.08-5.78,9A42.4,42.4,0,0,0,101.86,59c-1.08,5.42-.73,11-2.21,16.33a5.11,5.11,0,0,0,1.21,5.07c3-1.29,5.86-2.84,7.81-5.59a67.56,67.56,0,0,1,9.12-10.24c3.27-3,5.71-7,8.68-10.32a44.74,44.74,0,0,1,17.85-12.62c3.85-1.45,7.71-.14,10.54,3.18,1.94,2.26,4,4.42,5.9,6.72,3.83,4.68,7,9.68,7.77,15.9.41,3.32,1,6.61,1.71,9.88.91,4.42-.91,8.13-3.06,11.66a18.74,18.74,0,0,1-4.24,4.52c-5.33,4.31-9.55,9.62-13.81,14.91-.79,1-1.65,1.93-2.47,2.89a13,13,0,0,0-2.4,2.91c-1.43,3.38-4.44,5.5-6.38,8.41-2.33,3.49-4.72,7.13-4.48,11.67a6.71,6.71,0,0,0,.51,1.62c2.09.38,3.67-.51,5.16-1.63q7.05-5.3,14.07-10.62c6.06-4.59,12.08-9.25,19.53-11.52a23,23,0,0,0,4-2c3.12-1.69,6.26-1.11,9.38-.07,2,.67,3.44,2,3.53,4.23.21,5.18,2.48,9.81,3.71,14.71q.92,3.69,1.56,7.43c.68,4,1.21,7.95,1.86,11.91a7.87,7.87,0,0,1-2.05,6.35c-1.66,2.07-3.53,4-5.22,6-1.46,1.76-3.26,3.43-4.11,5.47-1.84,4.42-5,8-7.37,12-1.29,2.23-3.55,3.87-5.29,5.85-3,3.45-4.49,7.72-5.78,12A7.7,7.7,0,0,0,167.59,202.34Zm-54.5,76.91c3.22-.41,6.52-.38,9.53-1.31a134,134,0,0,0,13.48-5.35,2.15,2.15,0,0,0,.63-2c-.8-2.09-4.64-4.18-7-4.07-2.53.11-5.07.07-7.58.34a6.15,6.15,0,0,0-3.41,1.28,64.51,64.51,0,0,0-5.29,5.9C112.34,275.4,112.09,276.94,113.09,279.25ZM59.34,218.07a20.15,20.15,0,0,0,2.57,2c5.35,2.68,11.16,3.48,17,3.83,4.91.29,9.89-.39,14.71,1.13.21.06.55-.28,1.09-.57-1.75-2.15-3.46-4.19-6.17-4.57-5.36-.75-9.79-3.7-14.56-5.82-2.14-.95-3.82-1.25-5.62.53a9,9,0,0,1-6.07,2.8A23.38,23.38,0,0,0,59.34,218.07ZM53.6,144.32c3.15,1.83,21.31,4.24,24.54,3.27,1.3-5.83-1.27-8.88-7.13-8.46a12.46,12.46,0,0,0-1.37.13c-4.26.82-8.53,1.6-12.78,2.51C55.44,142.07,53.9,142.48,53.6,144.32Zm97.14,23.55a7.1,7.1,0,0,0-5.61,2.72A34.88,34.88,0,0,0,137,191.43a3,3,0,0,0,1.14,2.17c1,.7,1.79-.13,2.23-1a36.31,36.31,0,0,0,3-6.17c1.69-5.35,2.84-10.87,6.19-15.56A14.63,14.63,0,0,0,150.74,167.87Zm20.71,73.69a6,6,0,0,0-1.19-1c-.2-.11-1,.28-1.06.57a44.73,44.73,0,0,0-1.26,5.23c-.06.36.53,1.06.95,1.2a1.65,1.65,0,0,0,1.43-.47C171.41,245.69,172.74,244.28,171.45,241.56Zm35.83,119.33c2.12-2,2.19-2.29,1-4.5C206.42,358.54,206.42,358.54,207.28,360.89ZM166.54,259.32l-3.94-.81,1,3.18Zm-30.49,22.07c-.09.23-.19.46-.29.69.8.65,1.6,1.33,3.43.3Z"/></g></g></svg>