<svg xmlns="http://www.w3.org/2000/svg" viewBox="0 0 399.25 329.68"><defs><style>.cls-1{fill:#282230;}</style></defs><title>Asset 21</title><g id="Layer_2" data-name="Layer 2"><g id="GRID"><path class="cls-1" d="M320,227.4c6.42,5,12.77,9.28,20.77,12.12a31.86,31.86,0,0,0-.54-3.91c-2.77-10-3.37-20.17-3.74-30.48-.48-13.63.67-27.17.78-40.76,0-6.5,0-13,.06-19.5a57.33,57.33,0,0,1,.58-6.91c.82-6,1.74-12,2.62-18a11,11,0,0,1,.27-1.72c1.6-4.81,5.8-7.44,9.27-10.61,2.65-2.41,6.25-2,9.56-1.83,4.18.27,6.25,3.59,7.94,6.71a116.77,116.77,0,0,1,7.74,16.5c1.8,5.11,2.49,10.61,3.64,15.94.55,2.55.75,5.21,1.6,7.64a28.2,28.2,0,0,1,1.21,9.42,52.16,52.16,0,0,0,.77,9c1.93,10.43,2.1,20.91,1.61,31.46a28.42,28.42,0,0,0,.91,8.15c1.85,7.41,3.93,14.77,6,22.12,1,3.6,2.2,7.14,3.27,10.72a6.57,6.57,0,0,1,.51,2.53c-1,8.27,2.35,15.74,4.17,23.5.75,3.18.18,4.37-2.38,4.91-6.94,1.45-13.9,2.83-20.81,4.41-6.63,1.51-13.23,3.19-19.83,4.88-8.86,2.26-17.2,5.88-25.44,9.79-6.15,2.92-12.47,5.47-18.61,8.41a205.54,205.54,0,0,0-25.78,15,72.73,72.73,0,0,1-52.11,12,25.47,25.47,0,0,1-7.25-2.77c-1.77-.87-2.28-2.56-1.49-4.46a23.25,23.25,0,0,1,1.79-4c4.06-6.18,8-12.44,12.4-18.4a87.89,87.89,0,0,1,17.08-18.18c4.22-3.24,8-7,12.11-10.42a50,50,0,0,1,5.54-3.39c6.36-4,12.51-8.37,19.13-11.85,4.82-2.53,10.22-4,15.43-5.72s10.52-3.15,15.74-4.84c2.23-.73,4-1.49,6.36.37,2.06,1.61,4.18-.28,6.26-1.89-3.25-1.9-6.13-3.78-9.18-5.34-5.17-2.64-10.48-5-15.67-7.62-1.84-.92-3.4-.4-5,.39-5.16,2.63-10.32,5.27-15.43,8-6.76,3.59-13.61,7-20.17,11-6.31,3.79-12.46,7.9-18.4,12.25-10.14,7.44-19.92,15.37-30.12,22.73-7.61,5.49-15.37,10.81-24.87,12.89-5.9,1.29-11.72,1.26-17-1.32-2.7-1.32-4.4-4.77-6.41-7.37-1.52-2-.37-4.1.46-5.77,2.3-4.62,4.38-9.29,7.52-13.59,7.92-10.8,18.85-17.72,29.62-25,4.8-3.23,9.5-6.61,14.21-10a32.22,32.22,0,0,1,13.37-5.94c6.44-1.07,11.75-4.78,17.57-7.32,3-1.31,6.21-2.2,9.27-3.42,2.39-1,4.68-2.11,8-3.63-6.65-3.72-12.45-6.91-18.52-9.22-.54.42-1,.61-1,.76.48,4.62-2.67,5.86-6.22,6.66-6.5,1.47-13,3-19.52,4.26A139.56,139.56,0,0,0,206,223.74c-12.41,4.72-24.19,11.12-37.39,13.8-8.51,1.72-16.87,4.24-25.38,6-7.28,1.48-14.66,1.87-21.88-.82a19.58,19.58,0,0,0-5.07-.94c-2.82-.25-3.55-.77-4.23-3.41-.32-1.24-.8-2.45-1-3.7a13.19,13.19,0,0,1-.36-4.56,18.38,18.38,0,0,1,7.55-11.33c5.73-4.14,11.63-8,17.6-11.83a56.85,56.85,0,0,1,18.88-7.46c9.75-2.09,19.33-5,29.12-6.81,9.51-1.78,19.2-2.64,28.8-4,2.23-.31,4.42-.94,6.63-1.42.08-.34.17-.68.25-1l-27.15-18.5c-.8,1-1.37,1.79-2,2.5-1.08,1.16-2.3,1.77-3.82.71-2.31-1.6-4.83-1.5-7.48-1-8.42,1.44-16.87,2.74-25.29,4.18-11.18,1.9-21,7.23-31.06,12.09-6.24,3-12.48,6.32-19.09,8.25-7.84,2.29-15.79,5-24.19,4.52S64,195.09,60.07,187.06c-2.29-4.71-1.18-9.17,2.44-13,4.06-4.31,9.26-6.45,14.5-8.5,12.52-4.88,25.11-9.54,37.71-14.22,6.35-2.35,12.71-4.69,19.16-6.74,4.24-1.36,8.64-2.17,13-3.3a11.26,11.26,0,0,0,2.35-1.33c-2.32-3.31-5.12-2.66-8.09-1.29L138.62,135c-4.74.54-9.73.61-14.45,1.75-10.69,2.56-21.62,4.21-32,8.08a116,116,0,0,1-11.64,3.42,35.67,35.67,0,0,1-26.95-3.37,22.18,22.18,0,0,1-10.95-13.46c-1.4-4.66.21-8.61,3.25-12,6.84-7.67,15.72-11,25.73-12a110.5,110.5,0,0,0,14.17-2.09c3.13-.72,6-2.41,9.94-4-1.59-1-2.23-1.67-2.88-1.68A120.39,120.39,0,0,0,64,102.2a158.7,158.7,0,0,1-31.84,4.13c-5.76.14-10.82-1.45-15.83-3.9-3.85-1.88-7.19-4.27-9.49-8A5.91,5.91,0,0,1,7.2,87c1.16-1.46,2.25-3,3.48-4.37,3.82-4.33,9.16-5.27,14.43-6.36,3.25-.66,6.46-1.47,9.68-2.23,5.34-1.26,10.68-2.55,16-3.82L56.1,69c-4-3.18-8.18-4-12.11-5.14-9.46-2.75-19-5.12-28.49-7.93A29.77,29.77,0,0,1,4.06,49.79C.23,46.39-1,42,.88,37.31a47.44,47.44,0,0,1,2.79-5.9C6,27.27,9.83,25.62,14.34,27.19A52.64,52.64,0,0,1,25,32.09,65.38,65.38,0,0,1,39.44,44.45a8.18,8.18,0,0,0,3.42,2.47A12.88,12.88,0,0,1,49.64,52c1.68,2.28,3.24,4.82,6.32,6.12,1-1.81.24-3.51,0-5.08a100.4,100.4,0,0,1-.63-23.75c.89-9.08,5-16.58,11-23.19C69.49,2.59,72.48,3.06,75,7.32c5.17,8.89,8.18,18.56,10,28.62,1.52,8.39,2.63,16.86,4.27,25.23,1.32,6.8,3,13.53,4.8,20.24.94,3.64,2.48,7.15.2,10.83-.25.39.06,1.12.15,2.06l5,1.77c0-2.07.08-3.7-.08-5.29-.84-8.5-2-17-2.53-25.49s.68-17.12,5.38-24.61c3.69-5.89,8.26-10.8,16-11.21,2.5-.12,4.32.4,5.35,2.67a43.58,43.58,0,0,1,2.94,7.22c1.66,6.45,3.34,12.92,4.45,19.47,1.25,7.41,2,14.92,2.77,22.4.89,8.48,1.19,17,2.53,25.46,1.09,6.81,3.19,13.47,5.19,20.1a8.7,8.7,0,0,0,3.61,4.15c3.36,2.18,7,4,10.57,6,0-.17.33-.76.2-.88-2.64-2.39-3-5.4-2.56-8.7,1.17-9.47,2.18-19,3.46-28.41.83-6.16,1.93-12.29,3.09-18.39.81-4.26,2.06-8.43,2.89-12.69C163.87,61.58,165,55.31,166,49a22.59,22.59,0,0,1,6.7-12.87c2.5-2.52,5.14-2.43,6.83.69a53,53,0,0,1,4.67,11.54c3.18,11.91,4,24.19,5.09,36.41.81,9.36,1.49,18.74,2.12,28.11.73,11,1.42,21.9,2,32.86.27,5.33.17,10.68.37,16a4.29,4.29,0,0,0,1.06,3A199.74,199.74,0,0,0,222.18,183c.7-4.12-.55-7.71-1.14-11.29-1.51-9-3.44-17.88-5-26.85-1.1-6.4-2-12.84-2.77-19.28-1-8.46-2.27-16.92-2.71-25.41-.37-7.19.27-14.43.45-21.65.09-3.47.06-6.94.24-10.41.11-2.31.46-4.61.8-6.9a3,3,0,0,1,.86-1.95c3.39-2.29,5-6.25,8-8.78,4.42-3.63,9.39-2.75,11.91,2.3,4.44,8.89,7.41,18.17,7.51,28.28a143.38,143.38,0,0,0,4.33,32.65c.65,2.65,2.18,5.1,2.65,7.76,1.38,8,2.47,16,3.61,24,1.11,7.72,2.24,15.44,3.15,23.18.85,7.15,3,14.14,2.59,21.45,0,.85.32,1.71.37,2.58a31.92,31.92,0,0,1-.06,5.7c.76,3.13,3,4.59,6.08,5.79,5,1.93,9.64,4.65,14.4,7.09,1.71.88,3.27,1.18,5.05-.88-.67-5.89-1.3-12.19-2.1-18.48-1.52-12-3.33-24-4.65-36.1-1.22-11.06-2-22.17-2.88-33.26-.64-8.08,1-15.86,3.4-23.51,1.34-4.29,2.48-8.66,4.11-12.84,2.22-5.73,6.8-9.69,12.73-9.3,3.93.26,6.33,2.15,7.55,5.49,3.86,10.58,7.64,21.21,9.48,32.37,1,6,1.49,12,2.23,18,.9,7.3,1.94,14.59,2.72,21.91,1.12,10.46,2,21,3.06,31.42.69,7,1.54,14,2.06,21C320.74,213.79,321.67,220.57,320,227.4ZM165.88,153.13l2.83,0c-.06-.27-.12-.53-.17-.79l-2.62,1a2.16,2.16,0,0,0-3.24,1.3Zm-2.42,76.94,3,.39.08-.66-3,.39-3.17.35c.12.36.23.72.34,1.08C161.6,231.09,162.53,230.57,163.46,230.07ZM352,178.88l.71,6.36c1.78-3.87,1.56-5-.73-6.37,1.09-.8,2.29-1.58.61-3.38Zm-64-34.49c-1.65,3.92-.55,7.74.27,11.57.77-3.89,1.7-7.79-.39-11.55l.72-3.75-1-.07C287.71,141.85,287.85,143.12,288,144.39Zm80.95,146.07,15.4-2.29C378.73,285.08,374.81,285.59,368.93,290.46ZM94.75,73.6l1.44-.18c-.72-7.47-.65-15-2.61-22.34l-.91.08Q93.71,62.38,94.75,73.6ZM257,250.77c-.1-.25-.2-.51-.29-.77-2.88.77-5.73,1.7-8.65,2.27-2.52.49-2.67,2.26-3.42,4.87Zm-6.31,42.13c-.13-.3-.25-.61-.38-.91-5.47,1.54-10.36,4.12-14.16,8.63Zm85.9-74c-.3,6.37-1.28,11.86,0,18C337.86,232.7,338,222.51,336.58,218.92ZM266.22,231.4c-5.14.78-5.92,1.09-8.62,3.25,1.75.88,1.75.88,6.79.13Zm87.67-20.33c1.71-2.64,1.29-8.63-.78-12.22C353.41,203.58,353.65,207.33,353.89,211.07ZM300,307.74a11.85,11.85,0,0,0-10,4.36ZM66.49,164.8c-3.17,1.39-3.17,1.39-3,4.95C66.46,168.28,66.46,168.28,66.49,164.8ZM341.6,170l1.19.23c1.29-2.84.61-5.79-.37-8.78Q342,165.7,341.6,170ZM87.78,9.36l-.36-1.27c-.89-.2-2.12-.87-2.6-.51-1.28.95-2,2.39-.93,4.76ZM28.13,16l-.43.6,6.64,3.61.36-.64Zm207,40c1.23,1.24,1.49,3.92,4.52,2.82C239.76,55.31,237.26,55.93,235.16,56Zm70.18,40.89c-1.62,6.1-1.62,6.1,1.56,6.2C306.35,100.9,305.85,98.87,305.34,96.85ZM28.93,69.37c-2.81-2.89-3.42-2.86-6.22,0Zm49-48.22a12.51,12.51,0,0,0-.07-8.54C76.4,16,77.17,18.58,77.93,21.15ZM83.34,0C79,3.21,79,3.21,79.9,6.3Zm106,210.81c-1.9.95-2.38,2.18-1.52,3.58.31.49,1.56.38,3,.68C190.21,213.23,189.82,212.14,189.35,210.81ZM281,303.61c-2.51.22-5.24.07-8.16,2.6Zm96-119c-.79,2.49-.71,3.42.75,6.5C377.21,189.05,378.71,186.84,377,184.6Zm-1.71,87.11-1.57-.2a22.44,22.44,0,0,0-.26,3.16c0,.14,1.17.23,1.8.35ZM182.61,47.57c2.49-2.46,2.49-2.46,2-5C183.8,44.55,183.2,46.06,182.61,47.57Zm48.65,16.52c3.2-1.32,3.2-1.32,1.75-4C232.33,61.67,231.79,62.88,231.26,64.09Zm-96.4,61c-.45-2.15-.42-3.79-2.75-4.76C132.4,122.33,132,124.05,134.86,125.07Zm133.85,195.4.18,1.23c2.07,1.32,2.82-1,4.24-1.53-.09-.26-.17-.53-.25-.8ZM308.17,146.1H307c0,1.73,0,3.46,0,5.2h1.14Zm-230.34-33c.19,1,.39,2,.67,3.4C80.72,114.74,80.31,113.74,77.83,113.09ZM35.07,88.19c.1-.35.2-.7.31-1l-4-1.14-.25.87ZM348.4,139.48l.85.37c.46-1.79.91-3.59,1.36-5.38l-.59-.17ZM130.54,211.19l-.45-1.44-4.21,1.53.33,1Zm-21.12,13.46c.57.83,1.13,1.67,2,2.89C113,224.93,111.45,224.63,109.42,224.65ZM364.24,129.1c-1.21,1.32-1.32,2.31-.25,3.16.29.23.94,0,1.94,0C365.25,131,364.8,130.14,364.24,129.1Zm-287.2,5c3,1.06,3,1.06,4.25-1ZM294.53,238c.14.28.28.57.41.86,1.46-.07,2.8-.35,3.24-2.48ZM308.78,184l1.17-.19c.11-.49.4-1,.28-1.44s-.63-.9-1.4-1.89C308.81,182.19,308.79,183.08,308.78,184ZM280.13,289.29a7.17,7.17,0,0,0-1.81.33A8,8,0,0,0,276.9,291C278.88,291.72,279.62,291.13,280.13,289.29Zm28.44-58,.61.34,1-1.79-.61-.34Zm40.92,57.91c0-.21-.05-.43-.07-.65a5.51,5.51,0,0,0-1.29.06,10.18,10.18,0,0,0-1.53.65l.25.63Zm6.11-6.52c-.07-.27-.13-.54-.2-.81l-2.77.68.18.7Zm-186.81.84c-1.1,1.89-.5,2.71,1.1,4.1C169.44,285.9,169.19,285,168.79,283.49ZM137.6,61.54l1-.2c-.11-.51-.21-1-.31-1.52-.23.08-.64.13-.66.24A12.21,12.21,0,0,0,137.6,61.54ZM61.1,104.19l.26.72c.62-.23,1.25-.45,1.85-.72a3.94,3.94,0,0,0-.21-.68ZM92.38,21.87l.62-.16-.35-1.94-1,.25ZM377.21,197.32h1c0-.56-.06-1.12-.1-1.69l-.53,0Zm-78.92-80.91-.63-.15c-.12.63-.24,1.26-.32,1.9a5,5,0,0,0,.62.15Z"/></g></g></svg>