<svg xmlns="http://www.w3.org/2000/svg" viewBox="0 0 208.47 291.58"><defs><style>.cls-1{fill:#282230;}</style></defs><title>Asset 18</title><g id="Layer_2" data-name="Layer 2"><g id="GRID"><path class="cls-1" d="M72.8,80.91c-1.52,4.23-1.29,7.65-1.19,11,.26,9,.85,17.89.7,26.83-.12,7.4-2.13,14.45-7.24,20.2-5.53,6.21-12.56,7.56-20.35,5.87-3-.65-4.55-3.21-5.45-5.78a37.29,37.29,0,0,1-2.11-9.64,43.82,43.82,0,0,1,.63-10.28c2.1-12.46,4.6-24.82,9-36.77,2.26-6.18,3.6-12.69,5.49-19,.54-1.8.39-3.41-.84-4.62-5.61-5.47-11.32-10.83-17-16.21-.16-.15-.51-.08-1.38-.2-.26,2.51-.69,5-.75,7.52-.19,7.57,0,15.18-1.71,22.6A35.94,35.94,0,0,1,27,82.06c-2.82,5-8.82,7.12-15,5.93A9.48,9.48,0,0,1,4.15,78.4,98.7,98.7,0,0,1,5.94,56.7c1.15-5.65,2.42-11.28,3.6-16.93.33-1.6.46-3.25.77-4.85.75-3.9,1.56-7.79,2.42-12.07-2.09-2.13-4.56-4.52-6.87-7C4.2,14,2.7,12,1.22,10-.52,7.72-.51,5.5,2,3.5c2.25-.59,4.22.37,6,1.72,3.73,2.83,7.4,5.75,11.1,8.62.64.5,1.32,1,2.3,1.67A36.16,36.16,0,0,0,24.53,13C32.78,5,42.9,1.05,54.2.13c7.92-.64,15.57,1.13,23,3.9A47.11,47.11,0,0,1,91.74,12.5c4.21,3.62,4,7.11-.12,11a12.31,12.31,0,0,1-8,3.44,21.82,21.82,0,0,0-10.32,3.83A30.15,30.15,0,0,1,67,33.68a57.66,57.66,0,0,1-17.31,3.7,20.16,20.16,0,0,0-2.71.58,13.37,13.37,0,0,0,1.55,2.61C52.29,44.36,56.2,48,60,51.85c2,2,4.43,2.16,6.9,1.56,4.38-1.06,8.72-2.32,13.07-3.52,6-1.64,11.84-3.87,17.91-4.83,8.34-1.32,16.61,0,24.75,2.36,6.05,1.76,11.63,4.2,16.19,8.65a25.21,25.21,0,0,1,6,8.79c2.72,6.92.63,11.15-5.47,16a17.51,17.51,0,0,1-6.31,3c-8,2.13-16,4-24,6a13.44,13.44,0,0,1-8.46-1c-1.43-.57-2.8-1.27-4.39.28.08.36,0,1,.33,1.34,2.79,3.57,5.51,7.22,8.54,10.58a6.91,6.91,0,0,0,4.27,2c4.78.33,9.59.28,14.38.38,13.48.28,26.92.84,39.84,5.32a49.58,49.58,0,0,1,18.74,11c6.29,6.16,7.15,15.29,1.11,20.94a14.3,14.3,0,0,1-11.72,4c-6.55-.79-13.11-1.61-19.59-2.81a85,85,0,0,1-11-3.29,40.27,40.27,0,0,0-7.4-1.49c-2.5-.32-4.84-1.72-7.3-2.48a9.38,9.38,0,0,0-2.82.08,6,6,0,0,0,0,1.91c2.81,6.88,5.59,13.77,8.53,20.6a7.9,7.9,0,0,0,7.2,4.73,103,103,0,0,0,11.52.22c6.89-.31,13.62.25,20.07,2.9a7.41,7.41,0,0,0,2.32.82c6.59.31,12.05,3.63,17.62,6.59a28,28,0,0,1,8.49,7c2.34,2.85,4.87,5.44,6.89,8.65,3.28,5.24,2.65,10.37.5,15.34a103.08,103.08,0,0,1-8,14.4c-5.42,8.49-17.17,8.79-24.27,2.73-6-5.08-11.56-10.55-17.26-15.92a22.35,22.35,0,0,1-3-3.81,2.71,2.71,0,0,0-3.62-1c-.65.32-1.08,1.8-1,2.73a28.92,28.92,0,0,0,4.61,14.7c1.91,2.91,2.71,6.57,3.88,9.93,2.12,6.08,4.1,12.21,6.27,18.27a14.56,14.56,0,0,0,2.21,3.4c2.18,3,3.3,6,2.32,10-1.39,5.57-2.2,11.3-3.12,17a22.52,22.52,0,0,1-4.33,10.52,14,14,0,0,1-20.24,1.43c-5.91-5.17-8.57-12-9.54-19.59-.61-4.75-1.54-9.5-1.06-14.35.74-7.64,1.3-15.3,2.18-22.93.48-4.21,1.46-8.36,2.2-12.53,1.07-6,.44-11.73-3.08-17.21-2,2.08-2.12,4.76-2.3,7.21a104.6,104.6,0,0,1-4.17,24.37c-1.88,5.93-4.27,11.58-9.52,15.58-6.16,4.7-13.84,4.73-18.73,1.14-2.3-1.68-4.14-4-6.14-6.06-4.91-5.06-4.55-11-2.28-16.9,2.1-5.5,4.65-10.85,7.14-16.2,3.6-7.72,7.48-15.32,10.94-23.11a91.53,91.53,0,0,0,4-12c.44-1.51,0-3.27.35-4.82a16,16,0,0,1,4.15-8c2.48-2.45,3.24-5.17,1.81-8.6-1.84-4.43-3.29-9-4.94-13.52-.27-.73-.69-1.39-1.5-3-.74,2.06-1.46,3.24-1.55,4.47a109.82,109.82,0,0,1-5.77,27.7c-2.78,8-7.61,15-13.38,21.13-4.4,4.67-10.43,5.75-16.79,5.09-3.7-.39-6.7-2.37-9.78-4-2.51-1.37-3.43-4-3.24-7C60.91,172.38,65.26,161,71,150.08c2.21-4.25,4.33-8.56,6.23-13,2.89-6.73,5.73-13.5,8.25-20.38,1.69-4.62,2.87-9.44,4.11-14.21a3.5,3.5,0,0,0-.75-2.58Q82.6,92,76.23,84.14A40.18,40.18,0,0,0,72.8,80.91Z"/></g></g></svg>