<svg xmlns="http://www.w3.org/2000/svg" viewBox="0 0 234.94 236.56"><defs><style>.cls-1{fill:#ed6c64;}</style></defs><title>Asset 1</title><g id="Layer_2" data-name="Layer 2"><g id="Layer_1-2" data-name="Layer 1"><path class="cls-1" d="M234,118.48c0,1.09.79.7.94.86C234.71,117.5,233.79,118.53,234,118.48Z"/><polygon class="cls-1" points="230.63 100.78 231.02 101.03 229.74 98.59 230.63 100.78"/><path class="cls-1" d="M228.9,93.33l-.21.55,1.42,1.06c-.51-1.75-1.15-3.73-1.83-5.56a24.31,24.31,0,0,1-1.43-4.8C225.9,86.5,228.8,90.28,228.9,93.33Z"/><path class="cls-1" d="M227.32,76.71c-.14-.34-.33-.81-.61-1.63-.31.73-1.16-1.65.62,2A3,3,0,0,1,227.32,76.71Z"/><path class="cls-1" d="M227.32,76.71c.7,1.66,0-1.26,0,0Z"/><path class="cls-1" d="M225.22,71.15c.1-.58-.71-2.55-.17-1.93-1.26-2.12-1.34-1.51-1.26,0Z"/><path class="cls-1" d="M221.9,67.63c.25.32.5.66.72,1C222.66,68.37,222.57,68.05,221.9,67.63Z"/><path class="cls-1" d="M223.25,69.64c-.47,0,.11.28.84,1.16l-1.47-2.17C222.55,69,222.15,69.26,223.25,69.64Z"/><path class="cls-1" d="M223.85,73.22c1,2,1.55,2.8,1.73,2.55s-.07-1.54-1.09-3.55C224.77,73.54,225.19,75.19,223.85,73.22Z"/><path class="cls-1" d="M225.17,84.22c.05.59.1,1.17.11,1.76l.87,1.28a6.49,6.49,0,0,1-.48-1.85C225.53,84.7,225.36,84.11,225.17,84.22Z"/><path class="cls-1" d="M217.39,55.88c-.33,0-.25,1.1-.49,1.45.42.42.8.87,1.19,1.31C217.85,57.74,217.07,56.22,217.39,55.88Z"/><path class="cls-1" d="M216.9,57.33l-1.84-1.91C216.25,57.4,216.69,57.63,216.9,57.33Z"/><path class="cls-1" d="M223.07,71.31c-1-1.39-2-2.76-3.16-4.07l.38.71C221.28,69,222.13,70.18,223.07,71.31Z"/><path class="cls-1" d="M213.2,48.36c-.79-.52-1.6-1-2.44-1.49l1,.7C212.25,47.82,212.72,48.1,213.2,48.36Z"/><path class="cls-1" d="M207.52,42.44c1.17.47-.24-1.78.8-1.12a17,17,0,0,0-3.93-2.9A12,12,0,0,1,207.52,42.44Z"/><path class="cls-1" d="M202.3,37.18a21.8,21.8,0,0,0,2.09,1.24A10.11,10.11,0,0,0,202.3,37.18Z"/><path class="cls-1" d="M212.24,49.5l-.1,1.33.58.84A3.09,3.09,0,0,0,212.24,49.5Z"/><path class="cls-1" d="M212.14,50.88v-.05L210.9,49C211.06,49.24,211.43,49.81,212.14,50.88Z"/><path class="cls-1" d="M212.87,51.88l-.15-.21C212.71,51.8,212.72,51.86,212.87,51.88Z"/><path class="cls-1" d="M215.53,61.13c1,.64.54-1.08,2.29.53C216.65,60.58,214.66,58.15,215.53,61.13Z"/><path class="cls-1" d="M214,55.91c.17-.17.17-.76.78-.26-.71-.71-1.38-1.44-2.1-2.13C213.19,54.3,213.6,55.12,214,55.91Z"/><polygon class="cls-1" points="211.72 52.58 212.72 53.52 212.19 52.65 211.72 52.58"/><path class="cls-1" d="M204.91,41.22A9.15,9.15,0,0,1,203.42,40c-.49-.44-1-.92-1.51-1.43,1,1.23,2,2.52,3,3.69C205.23,42.28,206.05,42.48,204.91,41.22Z"/><path class="cls-1" d="M208.49,45.87l-.2-.18C208.33,45.87,208.4,46,208.49,45.87Z"/><path class="cls-1" d="M191.41,28.67l.08.27.13-.08Z"/><path class="cls-1" d="M204.94,42.59a4.64,4.64,0,0,0,1.91,1.74c-.64-.62-1.3-1.29-2-2C204.73,42.29,204.66,42.33,204.94,42.59Z"/><path class="cls-1" d="M199.17,34.55c.33.55.73,1.15,1.13,1.79C200.09,35.7,199.49,34.54,199.17,34.55Z"/><path class="cls-1" d="M208.23,45.23l.14.12C208.27,44.93,208.23,45,208.23,45.23Z"/><path class="cls-1" d="M208.29,45.69a1.88,1.88,0,0,1-.06-.46,8.71,8.71,0,0,0-1.38-.9A16,16,0,0,0,208.29,45.69Z"/><path class="cls-1" d="M195.33,32.4l.88.7A20.23,20.23,0,0,1,194,29.71c-1.67-.94-2.15-1-2.42-.85,1.36,1.24,2.75,2.44,4.07,3.72Z"/><path class="cls-1" d="M199.81,36.59c-1.19-.06-3.4-1.58-2.87.19C199.28,39,199,37.89,200.66,39c-3.78-3.65,1.39.76-.89-2.34a28.12,28.12,0,0,1,2.14,1.92c-.58-.77-1.13-1.52-1.61-2.26l0,.12,0,0h0c.08.25.09.35,0,.12l-.09-.07a.72.72,0,0,1-.39,0c-.94-1.23,0-.33.39,0,0,0,.1,0,.14-.05v0c-1.32-1.18-2.76-2.24-4.13-3.36A49.41,49.41,0,0,0,199.81,36.59Z"/><path class="cls-1" d="M212.54,59.73c0-.17,0-.2.08-.24C212.35,59.26,212.22,59.2,212.54,59.73Z"/><path class="cls-1" d="M212.15,54.63c0-.07,0-.15.07-.23S212.14,54.44,212.15,54.63Z"/><path class="cls-1" d="M212.62,59.49c.59.48,1.88,1.85,1-.32l-.3-.25a15.6,15.6,0,0,1-1.2-4.29,7.44,7.44,0,0,0-.31,3,3.14,3.14,0,0,1,1.35,1.4C213.53,60.1,212.83,59.29,212.62,59.49Z"/><path class="cls-1" d="M203.07,43.87l.86,2.14.27-.37c1.43,2,1.5,1.26,2,1.28C205.19,45.85,204.11,44.87,203.07,43.87Z"/><path class="cls-1" d="M192.33,27.7c-.91-.25-1.88-.42-2.81-.62l1.78.93Z"/><path class="cls-1" d="M187.35,24c-.5-.18-1-.34-1.52-.51l.88,1Z"/><path class="cls-1" d="M50,20l1,.4A9.73,9.73,0,0,1,53.7,18.8C51.72,19.19,49.27,19.4,50,20Z"/><path class="cls-1" d="M132.7,2.55a23.48,23.48,0,0,0-4-1C130.63,2.26,132.09,3.2,132.7,2.55Z"/><path class="cls-1" d="M12.79,176.12c.53.61.85.81,1,.7C13.27,176.19,12.89,175.87,12.79,176.12Z"/><path class="cls-1" d="M128.72,1.52a7.48,7.48,0,0,0-4.72-.4c.28.11.56.18.85.27A18.42,18.42,0,0,1,128.72,1.52Z"/><path class="cls-1" d="M231.68,137.14a9.77,9.77,0,0,0,.22-2.2C231.88,135.47,231.77,136.33,231.68,137.14Z"/><path class="cls-1" d="M167.07,12.21c1.13.49.22,0,0,0Z"/><path class="cls-1" d="M170.75,17.93c-.27,0-.5,0-.62.16A.85.85,0,0,1,170.75,17.93Z"/><path class="cls-1" d="M168.54,13.39a13.79,13.79,0,0,0-1.28-.94C167.46,12.62,167.85,12.92,168.54,13.39Z"/><path class="cls-1" d="M168.51,12.91l.91.57C169.63,13.42,169.54,13.27,168.51,12.91Z"/><path class="cls-1" d="M167.07,12.21l-1.57-.66a18,18,0,0,1,1.76.9C167.07,12.3,167,12.21,167.07,12.21Z"/><path class="cls-1" d="M232.08,126.37c.13-1.74.09-3.43-.51-3.79l.17,2.13c-.71-1.44-1.55-.47-2.49.74l-.28.36c.12-2.14.19-4.3.19-6.47a112.9,112.9,0,0,0-35.59-82.41l.1.06.24-.4c-1-.91-1.9-1.4-1.48-.73-.87-.8-1.75-1.58-2.65-2.35,2.06.82,2.49-2,1.71-4.57-.3.23-.47.42-2.88-.87.52.87,3.9,4.59,1.73,3.66a8.1,8.1,0,0,1-2.25-1.92,9.51,9.51,0,0,0-.87-1.52c.27.84-.84.43-2,0a3.65,3.65,0,0,0-2.37-.33q-2.12-1.56-4.3-3V23.79l-1.28.14,1.23,1a112.7,112.7,0,0,0-13.63-7.75c.17-.06.2-.17,0-.4L163,16.13c-1.29-1.54,3.87.43,1.77-1a34.48,34.48,0,0,1,4.27,1.06,19.25,19.25,0,0,1,2.29.89,17,17,0,0,1,2.28,1.45V20c.11-.35-1.76-1.86-2.86-2,.81.14,1.86,1.23,3,2.19a9.67,9.67,0,0,0,1.71,1.25,2.5,2.5,0,0,0,1.71.39c-.59-.71-1.17-1.45-1.8-2.11,1.34.39,2.83.85,4.38,1.4a12.36,12.36,0,0,1,4.33,2.48c-.57-1.88-.7-.34-1.89-2.9.79,2.59-7.31-4.75-5.44-1.37a7,7,0,0,0-2.43-2.72,17.34,17.34,0,0,1-3.11-2.8c-.09.4.67,1.21-1.79-.27a3.36,3.36,0,0,1-.72,0l-.16-.12.12.12c-.13,0-.15,0,.05,0a3.53,3.53,0,0,1,1,1.21,10.9,10.9,0,0,1-3.66-.88,26.87,26.87,0,0,0-3.62-1.07c-1.45-.86.82-.13.16-.91-.78-.1-1.57-.18-2.36-.22.14-.91-3.62-3,.29-2l-3.34-1.36a16.54,16.54,0,0,0-6.38-2.51c-1.59-.66-4.4-.22-2.79-.49-.93-.17-1.86-.35-2.79-.49l-2.81-.37V4.18A58.92,58.92,0,0,0,133.9,3a37.29,37.29,0,0,1-9.05-1.64c-.94.05-1.9.09-3,.09a26.76,26.76,0,0,1-3.93-.16l-.6-.79c-1.2.07-3-.05-4.66-.14S109.52.27,109,.74A6,6,0,0,0,106,0c-.65,0-1.36,0-2.1,0s-1.51.18-2.29.3c-1.56.27-3.18.52-4.65.86a33.16,33.16,0,0,1-3.88.7l0,1A29,29,0,0,0,88.8,4c-.73.23-1.47.48-2.25.74s-1.56.62-2.4,1l.46.8a22.85,22.85,0,0,1-5.5,1.64c-1.08.24-2.23.48-3.39.76a29.32,29.32,0,0,0-3.45,1.19c.18-.44,1.38-.82,2.27-.94a13,13,0,0,0-4.43,1.05,31.5,31.5,0,0,0-4,2.27c-1.3.79-2.5,1.72-3.75,2.45a16.15,16.15,0,0,1-3.84,1.67,6.33,6.33,0,0,1-2.79,1.59A1.37,1.37,0,0,0,56,18a3.4,3.4,0,0,0-.48.26,18.54,18.54,0,0,0-1.82.55,11.91,11.91,0,0,0,1.57-.4A25.41,25.41,0,0,0,52,20.88l-1.08-.46-.28.22c-1.46.51-.75,1,.32,1.2a8.29,8.29,0,0,0-1.32,1.61c-.93-.29-1.67.39-2.45,1.09a3.59,3.59,0,0,1-2.75,1.29c-.16.64-1.56,1.93-2.86,3.29-1.06,1.21-2,2.47-2.14,3.37A9.86,9.86,0,0,0,36,35.79l-1.37-.39-.74,1.85-.67,1.89c-2,1.07-3,1.46-2.17-.8-.67,1.22-1.16,2-1.55,2.67s-.65,1.08-.93,1.49a19.44,19.44,0,0,0-1.92,3.76l-.47-.68c-1,1.3-1.73,4-2.85,4.33a14.49,14.49,0,0,0-3.15,3.22,31.22,31.22,0,0,0-1.92,2.66c-.65,1-1.33,2-2.05,3.12-2.69,4.45-5.45,9.65-7.92,13.69,1.45-.36.74.51-.09,1.63s-1.76,2.52-1,3c-.71.31-1.48,1.42-1.37-.17a44.44,44.44,0,0,1-2,5.48,8,8,0,0,0-.7,4.69c-.69.38-.5-1.21-1-.83,0,.41.05,1.6-.41,2s-.25-.8-.27-1.61A12.2,12.2,0,0,0,1,89.73a4.36,4.36,0,0,0,.38,1.81A3.66,3.66,0,0,0,3.36,93.2,7.91,7.91,0,0,0,2.23,96a5.44,5.44,0,0,0,.42,2.58c-.66.73-1.45,2.05-1.1-.95-.1.42-.3,1.25-.54,2.28-.12.51-.25,1.08-.38,1.66s-.19,1.19-.27,1.78c-.32,2.38-.47,4.59.2,4.74a5.71,5.71,0,0,0-.16,2.8c-.19,1.88-.31,2.9-.34,3.92s-.07,2-.06,3.89l.24-1c1.47,1.47.34,3.06.6,6l-.16-.08a17.27,17.27,0,0,0-.23,3.47,6.13,6.13,0,0,0,.21,1.42,6,6,0,0,1,.17,1.41c0,.35,0,.78,0,1.34s0,1.24-.08,2.1l.9-.47c1.07.19,1,1.68.73,3.63s-.34,4.34.4,6.2l.28-1.5c.5,1,.17,2.56-.3,4.22s-1.06,3.38-.85,4.46c0,.51-.5-.65-.78-1.27.37,5.88,1.41.4,2.85,4.42-.42,1-2-.48-1.23,2.32,0,.77,1.16,2.61,2.38,4.72a26.76,26.76,0,0,1,1.82,3.26A11.77,11.77,0,0,1,7.55,165a8,8,0,0,1,.37,1.58c.12-1,.25-2,1.42-.34.72,1.32,1,3.42,1.71,5.33s1.4,3.78,2.83,4.54c.07.41,0,.6-.08.68.78.89,1.81,2.46,3,3.81a12.25,12.25,0,0,0,3,2.9c-.43.92,0,2,.8,3.24a22.71,22.71,0,0,0,3.16,3.65c1.21,1.16,2.32,2.28,3.07,3.17s1,1.63.45,2.12c.81.87,1.58,1.77,2.41,2.62l2.51,2.51-.35.08a15.58,15.58,0,0,0,3.74,3.3,10.6,10.6,0,0,0,2.67,1.17c.65.83-.11.55-.29.61a28.76,28.76,0,0,0,5,4.61,24.23,24.23,0,0,0,5.57,2.57l-.11,1.14a6.25,6.25,0,0,1,1.83,1.28c.81.7,1.87,1.55,3,2.51.6.47,1.22,1,1.89,1.45s1.39.92,2.12,1.36a20,20,0,0,0,4.6,2.13,1,1,0,0,1-.85.07c3.51,1.19,7.16,3.69,10.6,5.46s6.52,2.89,8.34,1.61c1.6.27,3.24.35,4.85.52-5.85-2,1.31-1.26-.95-2.52a9.51,9.51,0,0,1,3.35,1.46c.78.51.89.95-.56.65l-.4-.3c-1.57,1.63,7.28,2.45,6.87,3.6a179,179,0,0,0,18,2.56l4.46.31c1.49.05,3,.06,4.44.08s2.94,0,4.4-.1,2.92-.12,4.35-.31c-.49-.43-1-.85-1.47-1.31,1.33-.1,2.65-.27,4-.4,1.08.21,1.56,1-1.31,1.26,1.62.64,4.69-1.3,4.7-1.67,5.62-.4-1.88,2.06-.19,1.8l2.3-.52-.55-.08c.89-.46,1.34-.85,2-1.2a7,7,0,0,1,1.21-.49,18,18,0,0,1,2-.52c2.18-.2,1.29.63,2.14.49,0,.1.32.08,1.3-.26,1.65-.39,3.29-.83,4.94-1.25l-2.27-.56c2-1.14,4.56-1.26,2-1.85,1.9.47,6.46-.81,10.65-2.55,2.12-.83,4.1-1.85,5.74-2.57a21,21,0,0,1,3.37-1.48,20,20,0,0,1,1.86-1.5c.64-.49,1.29-.95,2-1.4,1.37-.89,2.89-1.69,4.5-2.71-.93.31-2.07-.49.74-2.11.21,1.43,1.68.92,3.41-.08s3.85-2.3,5.46-2.4c-1.33.23.48-1.29,2.11-2.75s2.94-3,1-2.45c2.21-1.63.77.65,2.77-.24,1.1-1.25,2.28-2.51,3.58-3.75.65-.61,1.34-1.21,2-1.84l2.07-1.93c.7-.65,1.44-1.29,2.13-2l2.08-2.13a38.08,38.08,0,0,0,3.87-4.67c-.2-.31-1.46.42-.81-1.26,1.37-.75,2.64-1.59,4-2.42a3.59,3.59,0,0,0,.23-1.93c.05-.62.31-1.28,1.6-2.19-.47.19-1.18.46-.69-.5,5.05-6.18,8.53-13.66,11.32-21.3s5-15.46,7.83-23.25c-1.06,2.07-.86.6-.6-1.05-.35,1.05-.85-.16-1.36,0,.72-2.15,1.48-4.32,2.14-6.53C231.85,129.91,232,128.1,232.08,126.37ZM188.26,31.82a8.37,8.37,0,0,1,1.06,1.29c-1.09-.92-2.18-1.82-3.3-2.7a5.06,5.06,0,0,1,.76.35A7.69,7.69,0,0,1,188.26,31.82Zm-3-2,0,0-.15-.12ZM154.38,7.88l-.1,0C152.52,6.9,153.14,7.27,154.38,7.88ZM133.87,5.75a31.79,31.79,0,0,1,3.84-.08c2.18.16,2.57.6,2.54.87s-.52.51-.13.48a18.41,18.41,0,0,0,4.56.73,15.85,15.85,0,0,0,2.87-.12,10.32,10.32,0,0,1,2.61,0A11.44,11.44,0,0,1,153.79,9c2.2,1.88-.59,2.06-.28,3a14.4,14.4,0,0,1-4-1.53,17.79,17.79,0,0,0-3.18-1.38L149,10.4a11,11,0,0,1-4.6-1,5,5,0,0,0,1,.56,112.24,112.24,0,0,0-16-3.08,9.43,9.43,0,0,1,1.36-.53A15.93,15.93,0,0,1,133.87,5.75Zm-22.63-.42c-.12.29.26.62.56.84-1.12,0-2.24.1-3.35.17A9.14,9.14,0,0,1,111.24,5.33ZM87.91,6.83c.22,0,1.88,0,3.65,0A19.43,19.43,0,0,1,96,7.41a.94.94,0,0,1,.48.35c-1.36.24-2.72.5-4.08.79L92,7.08l-.17,1.59q-2,.44-4,.93A3.54,3.54,0,0,1,87.91,6.83Zm-20.32,7,1.16.2c1.07-.75,2.13-1.54,3.25-2.22-.69,1-1.88,2.76-3.21,4.57-1.91.87-3.8,1.8-5.65,2.78A14.49,14.49,0,0,1,67.59,13.79ZM39.45,32.5a1,1,0,0,0,0,.43C39.29,32.8,38.91,33,39.45,32.5Zm-5.07,8.25c-.67.69-1.33,1.38-2,2.09.2-1.1.43-2.19.68-3.29A2.72,2.72,0,0,0,34.38,40.75ZM3.87,94.35c.33-.52.65.05,1,.92,0-.34-.07-.66-.11-.91.33-.59.6-.8.84-.77-.18.75-.34,1.51-.5,2.26l-.23-.58c0,.35.07.74.11,1.15l-.21,1.06a20,20,0,0,0-1.16,1.66C3.66,97.54,3.7,95.94,3.87,94.35ZM144,233.05l-.83-.07C144.81,232.31,144.38,232.67,144,233.05Z"/><path class="cls-1" d="M177.9,18.27c.06-.19-.1-.6.26-.47-.71-.37-1.43-.69-2.15-1A5.63,5.63,0,0,1,177.9,18.27Z"/><path class="cls-1" d="M178.16,17.8c.08,0,.18.08.26.13A1,1,0,0,0,178.16,17.8Z"/><path class="cls-1" d="M181.14,23.05a13.85,13.85,0,0,0-2.38-1.1c-.28.82,1.28,1.39,2.82,2.34a2.4,2.4,0,0,1-.26-.18C181.86,23.79,181.68,23.43,181.14,23.05Z"/><path class="cls-1" d="M183.31,25.47c.44-.25-.5-.48-1.37-1A13.41,13.41,0,0,1,183.31,25.47Z"/><path class="cls-1" d="M163.13,11.16c.72.56.93-.72,1.25-.21.66-.27-.82-.59-1.86-.65-.53,0-1,0-1,.14S162,10.79,163.13,11.16Z"/><path class="cls-1" d="M166.72,17.31l2.41,1.54c0-.16.41-.09.84,0C168.42,18.07,166.79,17,166.72,17.31Z"/><path class="cls-1" d="M172.06,19.89a14.8,14.8,0,0,0-2.09-1A9.39,9.39,0,0,0,172.06,19.89Z"/><path class="cls-1" d="M136.27,7.72c.77-.11,1.93,0,1.52-.44L134.68,7C134.31,7.3,135.11,7.65,136.27,7.72Z"/><path class="cls-1" d="M233.85,126.12c.22-.81.35-1.63.52-2.45l-.72,1.56C233.73,125.53,233.78,125.82,233.85,126.12Z"/><path class="cls-1" d="M233.81,120.82l-1.14-1.48a3.9,3.9,0,0,1-.18,2Z"/></g></g></svg>