<svg xmlns="http://www.w3.org/2000/svg" xmlns:xlink="http://www.w3.org/1999/xlink" viewBox="0 0 1332 730"><defs><style>.cls-1,.cls-2{fill:none;}.cls-2{stroke:#ee8680;stroke-linecap:round;stroke-linejoin:round;stroke-width:0.75px;}.cls-3{fill:url(#New_Pattern);}</style><pattern id="New_Pattern" data-name="New Pattern" width="70" height="70" patternTransform="translate(1817.9 677.21) scale(2.2)" patternUnits="userSpaceOnUse" viewBox="0 0 70 70"><rect class="cls-1" width="70" height="70"/><path class="cls-2" d="M69.76,52.07"/><path class="cls-2" d="M52.53,69.81a8.72,8.72,0,0,0,17.44,0h0c-8.63-1-8.75-8.13-8.75-8.13s-.13,7.13-8.75,8.13"/><path class="cls-2" d="M61.25,67.28a11.15,11.15,0,0,0,6.52,4.15,6.72,6.72,0,0,1-13,0A11.15,11.15,0,0,0,61.25,67.28Z"/><path class="cls-2" d="M61.25,74.52a4.72,4.72,0,0,1-3.78-1.89,13.27,13.27,0,0,0,3.78-2.39A13.13,13.13,0,0,0,65,72.63,4.72,4.72,0,0,1,61.25,74.52Z"/><path class="cls-2" d="M43.75,67.28a11.15,11.15,0,0,0,6.52,4.15,6.72,6.72,0,0,1-13,0A11.15,11.15,0,0,0,43.75,67.28Z"/><path class="cls-2" d="M43.75,74.52A4.72,4.72,0,0,1,40,72.63a13.27,13.27,0,0,0,3.78-2.39,13.13,13.13,0,0,0,3.78,2.39A4.72,4.72,0,0,1,43.75,74.52Z"/><path class="cls-2" d="M43.75,60.87"/><path class="cls-2" d="M43.78,60.87a8.72,8.72,0,0,0,17.44,0h0c-8.63-1-8.75-8.13-8.75-8.13"/><path class="cls-2" d="M52.5,58.34A11.15,11.15,0,0,0,59,62.49a6.72,6.72,0,0,1-13,0A11.15,11.15,0,0,0,52.5,58.34Z"/><path class="cls-2" d="M52.5,65.58a4.69,4.69,0,0,1-3.78-1.89,13.46,13.46,0,0,0,3.78-2.38,13.32,13.32,0,0,0,3.78,2.38A4.69,4.69,0,0,1,52.5,65.58Z"/><path class="cls-2" d="M52.5,52.07"/><path class="cls-2" d="M52.53,52.07"/><path class="cls-2" d="M61.25,49.54a11.11,11.11,0,0,0,6.52,4.16,6.72,6.72,0,0,1-13,0A11.11,11.11,0,0,0,61.25,49.54Z"/><path class="cls-2" d="M61.25,56.79a4.72,4.72,0,0,1-3.78-1.89,13.27,13.27,0,0,0,3.78-2.39A13.13,13.13,0,0,0,65,54.9,4.72,4.72,0,0,1,61.25,56.79Z"/><path class="cls-2" d="M61.28,60.87a8.72,8.72,0,0,0,17.44,0h0c-8.63-1-8.75-8.28-8.75-8.28,0,.46-.13,7.28-8.75,8.28"/><path class="cls-2" d="M70,58.34a11.15,11.15,0,0,0,6.52,4.15,6.72,6.72,0,0,1-13,0A11.15,11.15,0,0,0,70,58.34Z"/><path class="cls-2" d="M70,65.58a4.69,4.69,0,0,1-3.78-1.89A13.46,13.46,0,0,0,70,61.31a13.32,13.32,0,0,0,3.78,2.38A4.69,4.69,0,0,1,70,65.58Z"/><path class="cls-2" d="M34.76,52.07"/><path class="cls-2" d="M43.51,60.79a8.56,8.56,0,0,0,8.75-8.29h0"/><path class="cls-2" d="M43.51,49.54A11.11,11.11,0,0,0,50,53.7a6.71,6.71,0,0,1-13,0A11.17,11.17,0,0,0,43.51,49.54Z"/><path class="cls-2" d="M43.51,56.79a4.72,4.72,0,0,1-3.78-1.89,13.27,13.27,0,0,0,3.78-2.39,13.08,13.08,0,0,0,3.77,2.39A4.71,4.71,0,0,1,43.51,56.79Z"/><path class="cls-2" d="M17.53,69.81a8.72,8.72,0,0,0,17.44,0h0c-8.63-1-8.75-8.13-8.75-8.13s-.13,7.13-8.75,8.13"/><path class="cls-2" d="M26.25,67.28a11.15,11.15,0,0,0,6.52,4.15,6.72,6.72,0,0,1-13,0A11.15,11.15,0,0,0,26.25,67.28Z"/><path class="cls-2" d="M26.25,74.52a4.72,4.72,0,0,1-3.78-1.89,13.27,13.27,0,0,0,3.78-2.39A13.13,13.13,0,0,0,30,72.63,4.72,4.72,0,0,1,26.25,74.52Z"/><path class="cls-2" d="M8.75,67.28a11.15,11.15,0,0,0,6.52,4.15,6.72,6.72,0,0,1-13,0A11.15,11.15,0,0,0,8.75,67.28Z"/><path class="cls-2" d="M8.75,74.52A4.72,4.72,0,0,1,5,72.63a13.27,13.27,0,0,0,3.78-2.39,13.13,13.13,0,0,0,3.78,2.39A4.72,4.72,0,0,1,8.75,74.52Z"/><path class="cls-2" d="M8.75,60.87"/><path class="cls-2" d="M8.78,60.87a8.72,8.72,0,0,0,17.44,0h0c-8.63-1-8.75-8.13-8.75-8.13"/><path class="cls-2" d="M17.5,58.34A11.15,11.15,0,0,0,24,62.49a6.72,6.72,0,0,1-13,0A11.15,11.15,0,0,0,17.5,58.34Z"/><path class="cls-2" d="M17.5,65.58a4.69,4.69,0,0,1-3.78-1.89,13.46,13.46,0,0,0,3.78-2.38,13.32,13.32,0,0,0,3.78,2.38A4.69,4.69,0,0,1,17.5,65.58Z"/><path class="cls-2" d="M17.5,52.07"/><path class="cls-2" d="M17.53,52.07"/><path class="cls-2" d="M26.25,49.54a11.11,11.11,0,0,0,6.52,4.16,6.72,6.72,0,0,1-13,0A11.11,11.11,0,0,0,26.25,49.54Z"/><path class="cls-2" d="M26.25,56.79a4.72,4.72,0,0,1-3.78-1.89,13.27,13.27,0,0,0,3.78-2.39A13.13,13.13,0,0,0,30,54.9,4.72,4.72,0,0,1,26.25,56.79Z"/><path class="cls-2" d="M26.28,60.87a8.72,8.72,0,0,0,17.44,0h0c-8.63-1-8.75-8.28-8.75-8.28,0,.46-.13,7.28-8.75,8.28"/><path class="cls-2" d="M35,58.34a11.15,11.15,0,0,0,6.52,4.15,6.72,6.72,0,0,1-13,0A11.15,11.15,0,0,0,35,58.34Z"/><path class="cls-2" d="M35,65.58a4.69,4.69,0,0,1-3.78-1.89A13.46,13.46,0,0,0,35,61.31a13.32,13.32,0,0,0,3.78,2.38A4.69,4.69,0,0,1,35,65.58Z"/><path class="cls-2" d="M8.51,60.79a8.56,8.56,0,0,0,8.75-8.29h0"/><path class="cls-2" d="M8.51,49.54A11.11,11.11,0,0,0,15,53.7a6.71,6.71,0,0,1-13,0A11.17,11.17,0,0,0,8.51,49.54Z"/><path class="cls-2" d="M8.51,56.79A4.72,4.72,0,0,1,4.73,54.9a13.27,13.27,0,0,0,3.78-2.39,13.08,13.08,0,0,0,3.77,2.39A4.71,4.71,0,0,1,8.51,56.79Z"/><path class="cls-2" d="M-17.47,69.81a8.72,8.72,0,0,0,8.72,8.71A8.72,8.72,0,0,0,0,69.81H0c-8.63-1-8.75-8.13-8.75-8.13s-.13,7.13-8.75,8.13"/><path class="cls-2" d="M-8.72,60.87A8.72,8.72,0,0,0,0,69.58a8.72,8.72,0,0,0,8.72-8.71h0C.12,59.87,0,52.59,0,52.59c0,.46-.13,7.28-8.75,8.28"/><path class="cls-2" d="M0,58.34a11.15,11.15,0,0,0,6.52,4.15A6.74,6.74,0,0,1,0,67.58a6.74,6.74,0,0,1-6.52-5.09A11.15,11.15,0,0,0,0,58.34Z"/><path class="cls-2" d="M0,65.58a4.69,4.69,0,0,1-3.78-1.89A13.46,13.46,0,0,0,0,61.31a13.32,13.32,0,0,0,3.78,2.38A4.69,4.69,0,0,1,0,65.58Z"/><path class="cls-2" d="M61.28,43.54a8.72,8.72,0,0,0,17.44,0h0c-8.63-1-8.75-8.12-8.75-8.12s-.13,7.12-8.75,8.12"/><path class="cls-2" d="M70,41a11.15,11.15,0,0,0,6.52,4.15,6.72,6.72,0,0,1-13,0A11.15,11.15,0,0,0,70,41Z"/><path class="cls-2" d="M70,48.26a4.72,4.72,0,0,1-3.78-1.89A13.27,13.27,0,0,0,70,44a13.13,13.13,0,0,0,3.78,2.39A4.72,4.72,0,0,1,70,48.26Z"/><path class="cls-2" d="M70,34.81a8.72,8.72,0,0,0,17.44,0h0c-8.63-1-8.75-8.13-8.75-8.13s-.13,7.13-8.75,8.13"/><path class="cls-2" d="M61.25,32.28a11.15,11.15,0,0,0,6.52,4.15,6.72,6.72,0,0,1-13,0A11.15,11.15,0,0,0,61.25,32.28Z"/><path class="cls-2" d="M61.25,39.52a4.72,4.72,0,0,1-3.78-1.89,13.27,13.27,0,0,0,3.78-2.39A13.13,13.13,0,0,0,65,37.63,4.72,4.72,0,0,1,61.25,39.52Z"/><path class="cls-2" d="M61.25,25.87"/><path class="cls-2" d="M61.28,25.87a8.72,8.72,0,0,0,17.44,0h0c-8.63-1-8.75-8.13-8.75-8.13"/><path class="cls-2" d="M70,23.34a11.15,11.15,0,0,0,6.52,4.15,6.72,6.72,0,0,1-13,0A11.15,11.15,0,0,0,70,23.34Z"/><path class="cls-2" d="M70,30.58a4.69,4.69,0,0,1-3.78-1.89A13.46,13.46,0,0,0,70,26.31a13.32,13.32,0,0,0,3.78,2.38A4.69,4.69,0,0,1,70,30.58Z"/><path class="cls-2" d="M52.26,17.07"/><path class="cls-2" d="M61,25.79a8.56,8.56,0,0,0,8.75-8.29h0"/><path class="cls-2" d="M61,14.54a11.11,11.11,0,0,0,6.51,4.16,6.71,6.71,0,0,1-13,0A11.17,11.17,0,0,0,61,14.54Z"/><path class="cls-2" d="M61,21.79a4.72,4.72,0,0,1-3.78-1.89A13.27,13.27,0,0,0,61,17.51a13.08,13.08,0,0,0,3.77,2.39A4.71,4.71,0,0,1,61,21.79Z"/><path class="cls-2" d="M26.28,43.54a8.72,8.72,0,0,0,17.44,0h0c-8.63-1-8.75-8.12-8.75-8.12s-.13,7.12-8.75,8.12"/><path class="cls-2" d="M35,41a11.15,11.15,0,0,0,6.52,4.15,6.72,6.72,0,0,1-13,0A11.15,11.15,0,0,0,35,41Z"/><path class="cls-2" d="M35,48.26a4.72,4.72,0,0,1-3.78-1.89A13.27,13.27,0,0,0,35,44a13.13,13.13,0,0,0,3.78,2.39A4.72,4.72,0,0,1,35,48.26Z"/><path class="cls-2" d="M35,34.81a8.72,8.72,0,0,0,17.44,0h0c-8.63-1-8.75-8.13-8.75-8.13s-.13,7.13-8.75,8.13"/><path class="cls-2" d="M43.75,32.28a11.15,11.15,0,0,0,6.52,4.15,6.72,6.72,0,0,1-13,0A11.15,11.15,0,0,0,43.75,32.28Z"/><path class="cls-2" d="M43.75,39.52A4.72,4.72,0,0,1,40,37.63a13.27,13.27,0,0,0,3.78-2.39,13.13,13.13,0,0,0,3.78,2.39A4.72,4.72,0,0,1,43.75,39.52Z"/><path class="cls-2" d="M43.78,43.54a8.72,8.72,0,0,0,17.44,0h0c-8.63-1-8.75-8.12-8.75-8.12s-.13,7.12-8.75,8.12"/><path class="cls-2" d="M52.5,41A11.15,11.15,0,0,0,59,45.17a6.72,6.72,0,0,1-13,0A11.15,11.15,0,0,0,52.5,41Z"/><path class="cls-2" d="M52.5,48.26a4.72,4.72,0,0,1-3.78-1.89A13.27,13.27,0,0,0,52.5,44a13.13,13.13,0,0,0,3.78,2.39A4.72,4.72,0,0,1,52.5,48.26Z"/><path class="cls-2" d="M26.25,32.28a11.15,11.15,0,0,0,6.52,4.15,6.72,6.72,0,0,1-13,0A11.15,11.15,0,0,0,26.25,32.28Z"/><path class="cls-2" d="M26.25,39.52a4.72,4.72,0,0,1-3.78-1.89,13.27,13.27,0,0,0,3.78-2.39A13.13,13.13,0,0,0,30,37.63,4.72,4.72,0,0,1,26.25,39.52Z"/><path class="cls-2" d="M26.25,25.87"/><path class="cls-2" d="M26.28,25.87a8.72,8.72,0,0,0,17.44,0h0c-8.63-1-8.75-8.13-8.75-8.13"/><path class="cls-2" d="M35,23.34a11.15,11.15,0,0,0,6.52,4.15,6.72,6.72,0,0,1-13,0A11.15,11.15,0,0,0,35,23.34Z"/><path class="cls-2" d="M35,30.58a4.69,4.69,0,0,1-3.78-1.89A13.46,13.46,0,0,0,35,26.31a13.32,13.32,0,0,0,3.78,2.38A4.69,4.69,0,0,1,35,30.58Z"/><path class="cls-2" d="M35,17.07"/><path class="cls-2" d="M35,17.07"/><path class="cls-2" d="M43.75,14.54a11.11,11.11,0,0,0,6.52,4.16,6.72,6.72,0,0,1-13,0A11.11,11.11,0,0,0,43.75,14.54Z"/><path class="cls-2" d="M43.75,21.79A4.72,4.72,0,0,1,40,19.9a13.27,13.27,0,0,0,3.78-2.39,13.13,13.13,0,0,0,3.78,2.39A4.72,4.72,0,0,1,43.75,21.79Z"/><path class="cls-2" d="M43.78,25.87a8.72,8.72,0,0,0,17.44,0h0c-8.63-1-8.75-8.28-8.75-8.28,0,.46-.13,7.28-8.75,8.28"/><path class="cls-2" d="M52.5,23.34A11.15,11.15,0,0,0,59,27.49a6.72,6.72,0,0,1-13,0A11.15,11.15,0,0,0,52.5,23.34Z"/><path class="cls-2" d="M52.5,30.58a4.69,4.69,0,0,1-3.78-1.89,13.46,13.46,0,0,0,3.78-2.38,13.32,13.32,0,0,0,3.78,2.38A4.69,4.69,0,0,1,52.5,30.58Z"/><path class="cls-2" d="M17.26,17.07"/><path class="cls-2" d="M26,25.79a8.56,8.56,0,0,0,8.75-8.29h0"/><path class="cls-2" d="M26,14.54a11.11,11.11,0,0,0,6.51,4.16,6.71,6.71,0,0,1-13,0A11.17,11.17,0,0,0,26,14.54Z"/><path class="cls-2" d="M26,21.79a4.72,4.72,0,0,1-3.78-1.89A13.27,13.27,0,0,0,26,17.51a13.08,13.08,0,0,0,3.77,2.39A4.71,4.71,0,0,1,26,21.79Z"/><path class="cls-2" d="M-8.72,43.54A8.72,8.72,0,0,0,0,52.26a8.72,8.72,0,0,0,8.72-8.72h0C.12,42.54,0,35.42,0,35.42s-.13,7.12-8.75,8.12"/><path class="cls-2" d="M0,41a11.15,11.15,0,0,0,6.52,4.15A6.74,6.74,0,0,1,0,50.26a6.74,6.74,0,0,1-6.52-5.09A11.15,11.15,0,0,0,0,41Z"/><path class="cls-2" d="M0,48.26a4.72,4.72,0,0,1-3.78-1.89A13.27,13.27,0,0,0,0,44a13.13,13.13,0,0,0,3.78,2.39A4.72,4.72,0,0,1,0,48.26Z"/><path class="cls-2" d="M0,34.81a8.72,8.72,0,0,0,17.44,0h0c-8.63-1-8.75-8.13-8.75-8.13S8.62,33.81,0,34.81"/><path class="cls-2" d="M8.75,32.28a11.15,11.15,0,0,0,6.52,4.15,6.72,6.72,0,0,1-13,0A11.15,11.15,0,0,0,8.75,32.28Z"/><path class="cls-2" d="M8.75,39.52A4.72,4.72,0,0,1,5,37.63a13.27,13.27,0,0,0,3.78-2.39,13.13,13.13,0,0,0,3.78,2.39A4.72,4.72,0,0,1,8.75,39.52Z"/><path class="cls-2" d="M8.78,43.54a8.72,8.72,0,1,0,17.44,0h0c-8.63-1-8.75-8.12-8.75-8.12s-.13,7.12-8.75,8.12"/><path class="cls-2" d="M17.5,41A11.15,11.15,0,0,0,24,45.17a6.72,6.72,0,0,1-13,0A11.15,11.15,0,0,0,17.5,41Z"/><path class="cls-2" d="M17.5,48.26a4.72,4.72,0,0,1-3.78-1.89A13.27,13.27,0,0,0,17.5,44a13.13,13.13,0,0,0,3.78,2.39A4.72,4.72,0,0,1,17.5,48.26Z"/><path class="cls-2" d="M-8.72,25.87A8.72,8.72,0,0,0,0,34.58a8.72,8.72,0,0,0,8.72-8.71h0C.12,24.87,0,17.74,0,17.74"/><path class="cls-2" d="M0,23.34a11.15,11.15,0,0,0,6.52,4.15A6.74,6.74,0,0,1,0,32.58a6.74,6.74,0,0,1-6.52-5.09A11.15,11.15,0,0,0,0,23.34Z"/><path class="cls-2" d="M0,30.58a4.69,4.69,0,0,1-3.78-1.89A13.46,13.46,0,0,0,0,26.31a13.32,13.32,0,0,0,3.78,2.38A4.69,4.69,0,0,1,0,30.58Z"/><path class="cls-2" d="M0,17.07"/><path class="cls-2" d="M8.75,14.54a11.11,11.11,0,0,0,6.52,4.16,6.72,6.72,0,0,1-13,0A11.11,11.11,0,0,0,8.75,14.54Z"/><path class="cls-2" d="M8.75,21.79A4.72,4.72,0,0,1,5,19.9a13.27,13.27,0,0,0,3.78-2.39,13.13,13.13,0,0,0,3.78,2.39A4.72,4.72,0,0,1,8.75,21.79Z"/><path class="cls-2" d="M8.78,25.87a8.72,8.72,0,0,0,17.44,0h0c-8.63-1-8.75-8.28-8.75-8.28,0,.46-.13,7.28-8.75,8.28"/><path class="cls-2" d="M17.5,23.34A11.15,11.15,0,0,0,24,27.49a6.72,6.72,0,0,1-13,0A11.15,11.15,0,0,0,17.5,23.34Z"/><path class="cls-2" d="M17.5,30.58a4.69,4.69,0,0,1-3.78-1.89,13.46,13.46,0,0,0,3.78-2.38,13.32,13.32,0,0,0,3.78,2.38A4.69,4.69,0,0,1,17.5,30.58Z"/><path class="cls-2" d="M-9,25.79A8.56,8.56,0,0,0-.24,17.5h0"/><path class="cls-2" d="M43.78,8.54a8.72,8.72,0,1,0,17.44,0h0C52.62,7.54,52.5.42,52.5.42s-.13,7.12-8.75,8.12"/><path class="cls-2" d="M52.5,6A11.15,11.15,0,0,0,59,10.17a6.72,6.72,0,0,1-13,0A11.15,11.15,0,0,0,52.5,6Z"/><path class="cls-2" d="M52.5,13.26a4.72,4.72,0,0,1-3.78-1.89A13.27,13.27,0,0,0,52.5,9a13.13,13.13,0,0,0,3.78,2.39A4.72,4.72,0,0,1,52.5,13.26Z"/><path class="cls-2" d="M52.53-.19a8.72,8.72,0,0,0,8.72,8.71A8.72,8.72,0,0,0,70-.19h0c-8.63-1-8.75-8.13-8.75-8.13S61.12-1.19,52.5-.19"/><path class="cls-2" d="M61.25-2.72a11.15,11.15,0,0,0,6.52,4.15,6.74,6.74,0,0,1-6.52,5.09,6.74,6.74,0,0,1-6.52-5.09A11.15,11.15,0,0,0,61.25-2.72Z"/><path class="cls-2" d="M61.25,4.52a4.72,4.72,0,0,1-3.78-1.89A13.27,13.27,0,0,0,61.25.24,13.13,13.13,0,0,0,65,2.63,4.72,4.72,0,0,1,61.25,4.52Z"/><path class="cls-2" d="M61.28,8.54a8.72,8.72,0,1,0,17.44,0h0C70.12,7.54,70,.42,70,.42s-.13,7.12-8.75,8.12"/><path class="cls-2" d="M70,6a11.15,11.15,0,0,0,6.52,4.15,6.72,6.72,0,0,1-13,0A11.15,11.15,0,0,0,70,6Z"/><path class="cls-2" d="M70,13.26a4.72,4.72,0,0,1-3.78-1.89A13.27,13.27,0,0,0,70,9a13.13,13.13,0,0,0,3.78,2.39A4.72,4.72,0,0,1,70,13.26Z"/><path class="cls-2" d="M43.75-2.72a11.15,11.15,0,0,0,6.52,4.15,6.74,6.74,0,0,1-6.52,5.09,6.74,6.74,0,0,1-6.52-5.09A11.15,11.15,0,0,0,43.75-2.72Z"/><path class="cls-2" d="M43.75,4.52A4.72,4.72,0,0,1,40,2.63,13.27,13.27,0,0,0,43.75.24a13.13,13.13,0,0,0,3.78,2.39A4.72,4.72,0,0,1,43.75,4.52Z"/><path class="cls-2" d="M8.78,8.54a8.72,8.72,0,1,0,17.44,0h0C17.62,7.54,17.5.42,17.5.42s-.13,7.12-8.75,8.12"/><path class="cls-2" d="M17.5,6A11.15,11.15,0,0,0,24,10.17a6.72,6.72,0,0,1-13,0A11.15,11.15,0,0,0,17.5,6Z"/><path class="cls-2" d="M17.5,13.26a4.72,4.72,0,0,1-3.78-1.89A13.27,13.27,0,0,0,17.5,9a13.13,13.13,0,0,0,3.78,2.39A4.72,4.72,0,0,1,17.5,13.26Z"/><path class="cls-2" d="M17.53-.19a8.72,8.72,0,0,0,8.72,8.71A8.72,8.72,0,0,0,35-.19h0c-8.63-1-8.75-8.13-8.75-8.13S26.12-1.19,17.5-.19"/><path class="cls-2" d="M26.25-2.72a11.15,11.15,0,0,0,6.52,4.15,6.74,6.74,0,0,1-6.52,5.09,6.74,6.74,0,0,1-6.52-5.09A11.15,11.15,0,0,0,26.25-2.72Z"/><path class="cls-2" d="M26.25,4.52a4.72,4.72,0,0,1-3.78-1.89A13.27,13.27,0,0,0,26.25.24,13.13,13.13,0,0,0,30,2.63,4.72,4.72,0,0,1,26.25,4.52Z"/><path class="cls-2" d="M26.28,8.54a8.72,8.72,0,0,0,17.44,0h0C35.12,7.54,35,.42,35,.42s-.13,7.12-8.75,8.12"/><path class="cls-2" d="M35,6a11.15,11.15,0,0,0,6.52,4.15,6.72,6.72,0,0,1-13,0A11.15,11.15,0,0,0,35,6Z"/><path class="cls-2" d="M35,13.26a4.72,4.72,0,0,1-3.78-1.89A13.27,13.27,0,0,0,35,9a13.13,13.13,0,0,0,3.78,2.39A4.72,4.72,0,0,1,35,13.26Z"/><path class="cls-2" d="M8.75-2.72a11.15,11.15,0,0,0,6.52,4.15A6.74,6.74,0,0,1,8.75,6.52,6.74,6.74,0,0,1,2.23,1.43,11.15,11.15,0,0,0,8.75-2.72Z"/><path class="cls-2" d="M8.75,4.52A4.72,4.72,0,0,1,5,2.63,13.27,13.27,0,0,0,8.75.24a13.13,13.13,0,0,0,3.78,2.39A4.72,4.72,0,0,1,8.75,4.52Z"/><path class="cls-2" d="M-17.47-.19A8.72,8.72,0,0,0-8.75,8.52,8.72,8.72,0,0,0,0-.19H0c-8.63-1-8.75-8.13-8.75-8.13S-8.88-1.19-17.5-.19"/><path class="cls-2" d="M-8.72,8.54A8.72,8.72,0,0,0,0,17.26,8.72,8.72,0,0,0,8.72,8.54h0C.12,7.54,0,.42,0,.42S-.13,7.54-8.75,8.54"/><path class="cls-2" d="M0,6a11.15,11.15,0,0,0,6.52,4.15A6.74,6.74,0,0,1,0,15.26a6.74,6.74,0,0,1-6.52-5.09A11.15,11.15,0,0,0,0,6Z"/><path class="cls-2" d="M0,13.26a4.72,4.72,0,0,1-3.78-1.89A13.27,13.27,0,0,0,0,9a13.13,13.13,0,0,0,3.78,2.39A4.72,4.72,0,0,1,0,13.26Z"/></pattern></defs><title>Asset 9</title><g id="Layer_2" data-name="Layer 2"><g id="TABLET_MOCK_UP" data-name="TABLET MOCK UP"><rect class="cls-3" width="1332" height="730"/></g></g></svg>