<svg xmlns="http://www.w3.org/2000/svg" xmlns:xlink="http://www.w3.org/1999/xlink" viewBox="0 0 386.12 346.23"><defs><style>.cls-1,.cls-4{fill:none;}.cls-2{clip-path:url(#clip-path);}.cls-3{clip-path:url(#clip-path-2);}.cls-4{stroke:#ee8680;stroke-linecap:round;stroke-linejoin:round;stroke-width:1.65px;}.cls-5{clip-path:url(#clip-path-3);}.cls-6{clip-path:url(#clip-path-4);}.cls-7{clip-path:url(#clip-path-5);}</style><clipPath id="clip-path"><rect class="cls-1" x="231.5" y="101.53" width="77.25" height="77.25"/></clipPath><clipPath id="clip-path-2"><rect class="cls-1" x="193.06" y="19.1" width="153.79" height="153.79"/></clipPath><clipPath id="clip-path-3"><rect class="cls-1" x="193.06" y="172.89" width="153.79" height="153.79"/></clipPath><clipPath id="clip-path-4"><rect class="cls-1" x="39.27" y="19.1" width="153.79" height="153.79"/></clipPath><clipPath id="clip-path-5"><rect class="cls-1" x="39.27" y="172.89" width="153.79" height="153.79"/></clipPath></defs><title>Asset 7</title><g id="Layer_2" data-name="Layer 2"><g id="TABLET_MOCK_UP" data-name="TABLET MOCK UP"><g class="cls-2"><g class="cls-3"><path class="cls-4" d="M308.48,172.46a19.15,19.15,0,1,0,38.3,0h.07c-19-2.19-19.22-17.85-19.22-17.85s-.28,15.66-19.23,17.85"/><path class="cls-4" d="M313.31,176a14.75,14.75,0,0,0,28.63,0,24.55,24.55,0,0,1-14.31-9.12A24.61,24.61,0,0,1,313.31,176Z"/><path class="cls-4" d="M327.63,182.83a10.34,10.34,0,0,1-8.3-4.16,29,29,0,0,0,8.3-5.24,28.69,28.69,0,0,0,8.3,5.24A10.34,10.34,0,0,1,327.63,182.83Z"/><path class="cls-4" d="M274.87,176a14.75,14.75,0,0,0,28.62,0,24.59,24.59,0,0,1-14.31-9.12A24.59,24.59,0,0,1,274.87,176Z"/><path class="cls-4" d="M289.18,182.83a10.34,10.34,0,0,1-8.3-4.16,28.69,28.69,0,0,0,8.3-5.24,28.82,28.82,0,0,0,8.3,5.24A10.34,10.34,0,0,1,289.18,182.83Z"/><path class="cls-4" d="M289.25,152.82a19.15,19.15,0,0,0,38.3,0h.08C308.68,150.63,308.4,135,308.4,135"/><path class="cls-4" d="M294.09,156.4a14.75,14.75,0,0,0,28.63,0,24.61,24.61,0,0,1-14.32-9.12A24.55,24.55,0,0,1,294.09,156.4Z"/><path class="cls-4" d="M308.4,163.18a10.33,10.33,0,0,1-8.3-4.15,28.69,28.69,0,0,0,8.3-5.24,29,29,0,0,0,8.3,5.24A10.32,10.32,0,0,1,308.4,163.18Z"/><path class="cls-4" d="M313.31,137.08a14.75,14.75,0,0,0,28.63,0A24.51,24.51,0,0,1,327.63,128,24.58,24.58,0,0,1,313.31,137.08Z"/><path class="cls-4" d="M327.63,143.86a10.36,10.36,0,0,1-8.3-4.15,29.4,29.4,0,0,0,8.3-5.24,29.12,29.12,0,0,0,8.3,5.24A10.36,10.36,0,0,1,327.63,143.86Z"/><path class="cls-4" d="M327.7,152.82a19.15,19.15,0,1,0,38.3,0h.08c-18.95-2.19-19.23-18.18-19.23-18.18.09,1-.27,16-19.22,18.18"/><path class="cls-4" d="M332.54,156.4a14.75,14.75,0,0,0,28.63,0,24.61,24.61,0,0,1-14.32-9.12A24.55,24.55,0,0,1,332.54,156.4Z"/><path class="cls-4" d="M346.85,163.18a10.33,10.33,0,0,1-8.3-4.15,28.69,28.69,0,0,0,8.3-5.24,29,29,0,0,0,8.3,5.24A10.33,10.33,0,0,1,346.85,163.18Z"/><path class="cls-4" d="M288.64,152.65a18.8,18.8,0,0,0,19.23-18.21h0"/><path class="cls-4" d="M274.33,137.08a14.75,14.75,0,0,0,28.63,0A24.58,24.58,0,0,1,288.64,128,24.51,24.51,0,0,1,274.33,137.08Z"/><path class="cls-4" d="M288.64,143.86a10.36,10.36,0,0,1-8.3-4.15,29.12,29.12,0,0,0,8.3-5.24,29.31,29.31,0,0,0,8.31,5.24A10.38,10.38,0,0,1,288.64,143.86Z"/><path class="cls-4" d="M231.58,172.46a19.15,19.15,0,0,0,38.3,0H270c-18.95-2.19-19.23-17.85-19.23-17.85s-.27,15.66-19.22,17.85"/><path class="cls-4" d="M236.42,176a14.75,14.75,0,0,0,28.63,0,24.61,24.61,0,0,1-14.32-9.12A24.55,24.55,0,0,1,236.42,176Z"/><path class="cls-4" d="M250.73,182.83a10.34,10.34,0,0,1-8.3-4.16,28.69,28.69,0,0,0,8.3-5.24,29,29,0,0,0,8.3,5.24A10.34,10.34,0,0,1,250.73,182.83Z"/><path class="cls-4" d="M198,176a14.75,14.75,0,0,0,28.63,0,24.55,24.55,0,0,1-14.31-9.12A24.61,24.61,0,0,1,198,176Z"/><path class="cls-4" d="M212.29,182.83a10.36,10.36,0,0,1-8.31-4.16,28.87,28.87,0,0,0,8.31-5.24,28.69,28.69,0,0,0,8.3,5.24A10.36,10.36,0,0,1,212.29,182.83Z"/><path class="cls-4" d="M212.36,152.82a19.15,19.15,0,0,0,38.3,0h.07C231.78,150.63,231.51,135,231.51,135"/><path class="cls-4" d="M217.19,156.4a14.75,14.75,0,0,0,28.63,0,24.55,24.55,0,0,1-14.31-9.12A24.61,24.61,0,0,1,217.19,156.4Z"/><path class="cls-4" d="M231.51,163.18a10.33,10.33,0,0,1-8.3-4.15,28.82,28.82,0,0,0,8.3-5.24,28.69,28.69,0,0,0,8.3,5.24A10.33,10.33,0,0,1,231.51,163.18Z"/><path class="cls-4" d="M236.42,137.08a14.75,14.75,0,0,0,28.63,0A24.58,24.58,0,0,1,250.73,128,24.51,24.51,0,0,1,236.42,137.08Z"/><path class="cls-4" d="M250.73,143.86a10.36,10.36,0,0,1-8.3-4.15,29.12,29.12,0,0,0,8.3-5.24,29.4,29.4,0,0,0,8.3,5.24A10.36,10.36,0,0,1,250.73,143.86Z"/><path class="cls-4" d="M250.81,152.82a19.15,19.15,0,0,0,38.3,0h.07C270.23,150.63,270,134.64,270,134.64c.08,1-.28,16-19.23,18.18"/><path class="cls-4" d="M255.64,156.4a14.75,14.75,0,0,0,28.63,0A24.55,24.55,0,0,1,270,147.28,24.61,24.61,0,0,1,255.64,156.4Z"/><path class="cls-4" d="M270,163.18a10.33,10.33,0,0,1-8.3-4.15,29,29,0,0,0,8.3-5.24,28.69,28.69,0,0,0,8.3,5.24A10.33,10.33,0,0,1,270,163.18Z"/><path class="cls-4" d="M211.75,152.65A18.79,18.79,0,0,0,231,134.44h0"/><path class="cls-4" d="M197.43,137.08a14.75,14.75,0,0,0,28.63,0A24.55,24.55,0,0,1,211.75,128,24.54,24.54,0,0,1,197.43,137.08Z"/><path class="cls-4" d="M211.75,143.86a10.36,10.36,0,0,1-8.3-4.15,29.26,29.26,0,0,0,8.3-5.24,29.12,29.12,0,0,0,8.3,5.24A10.36,10.36,0,0,1,211.75,143.86Z"/><path class="cls-4" d="M154.69,172.46a19.15,19.15,0,0,0,38.3,0h.07c-18.95-2.19-19.22-17.85-19.22-17.85s-.28,15.66-19.23,17.85"/><path class="cls-4" d="M173.91,152.82a19.15,19.15,0,0,0,38.3,0h.08c-18.95-2.19-19.23-18.18-19.23-18.18.09,1-.27,16-19.22,18.18"/><path class="cls-4" d="M178.75,156.4a14.75,14.75,0,0,0,28.63,0,24.61,24.61,0,0,1-14.32-9.12A24.55,24.55,0,0,1,178.75,156.4Z"/><path class="cls-4" d="M193.06,163.18a10.33,10.33,0,0,1-8.3-4.15,28.69,28.69,0,0,0,8.3-5.24,29,29,0,0,0,8.3,5.24A10.33,10.33,0,0,1,193.06,163.18Z"/><path class="cls-4" d="M327.7,114.77a19.15,19.15,0,1,0,38.3,0h.08c-18.95-2.2-19.23-17.85-19.23-17.85s-.27,15.65-19.22,17.85"/><path class="cls-4" d="M332.54,118.34a14.75,14.75,0,0,0,28.63,0,24.57,24.57,0,0,1-14.32-9.12A24.51,24.51,0,0,1,332.54,118.34Z"/><path class="cls-4" d="M346.85,125.13a10.36,10.36,0,0,1-8.3-4.15,28.93,28.93,0,0,0,8.3-5.25,29.2,29.2,0,0,0,8.3,5.25A10.36,10.36,0,0,1,346.85,125.13Z"/><path class="cls-4" d="M346.93,95.57a19.15,19.15,0,1,0,38.29,0h.08c-18.95-2.2-19.22-17.85-19.22-17.85s-.28,15.65-19.23,17.85"/><path class="cls-4" d="M313.31,99.15a14.76,14.76,0,0,0,28.63,0A24.51,24.51,0,0,1,327.63,90,24.58,24.58,0,0,1,313.31,99.15Z"/><path class="cls-4" d="M327.63,105.93a10.36,10.36,0,0,1-8.3-4.15,29.2,29.2,0,0,0,8.3-5.25,28.93,28.93,0,0,0,8.3,5.25A10.36,10.36,0,0,1,327.63,105.93Z"/><path class="cls-4" d="M327.7,75.93a19.15,19.15,0,1,0,38.3,0h.08c-18.95-2.2-19.23-17.85-19.23-17.85"/><path class="cls-4" d="M332.54,79.51a14.76,14.76,0,0,0,28.63,0,24.58,24.58,0,0,1-14.32-9.13A24.51,24.51,0,0,1,332.54,79.51Z"/><path class="cls-4" d="M346.85,86.29a10.36,10.36,0,0,1-8.3-4.15,28.93,28.93,0,0,0,8.3-5.25,29.2,29.2,0,0,0,8.3,5.25A10.36,10.36,0,0,1,346.85,86.29Z"/><path class="cls-4" d="M327.09,75.75a18.8,18.8,0,0,0,19.23-18.2h0"/><path class="cls-4" d="M312.78,60.18a14.75,14.75,0,0,0,28.63,0,24.61,24.61,0,0,1-14.32-9.12A24.55,24.55,0,0,1,312.78,60.18Z"/><path class="cls-4" d="M327.09,67a10.34,10.34,0,0,1-8.3-4.16,28.69,28.69,0,0,0,8.3-5.24,29,29,0,0,0,8.3,5.24A10.34,10.34,0,0,1,327.09,67Z"/><path class="cls-4" d="M250.81,114.77a19.15,19.15,0,0,0,38.3,0h.07C270.23,112.57,270,96.92,270,96.92s-.28,15.65-19.23,17.85"/><path class="cls-4" d="M255.64,118.34a14.75,14.75,0,0,0,28.63,0A24.51,24.51,0,0,1,270,109.22,24.57,24.57,0,0,1,255.64,118.34Z"/><path class="cls-4" d="M270,125.13a10.36,10.36,0,0,1-8.3-4.15,29.2,29.2,0,0,0,8.3-5.25,28.93,28.93,0,0,0,8.3,5.25A10.36,10.36,0,0,1,270,125.13Z"/><path class="cls-4" d="M270,95.57a19.15,19.15,0,1,0,38.3,0h.07c-18.95-2.2-19.22-17.85-19.22-17.85S288.91,93.37,270,95.57"/><path class="cls-4" d="M274.87,99.15a14.75,14.75,0,0,0,28.62,0A24.55,24.55,0,0,1,289.18,90,24.55,24.55,0,0,1,274.87,99.15Z"/><path class="cls-4" d="M289.18,105.93a10.36,10.36,0,0,1-8.3-4.15,28.93,28.93,0,0,0,8.3-5.25,29.07,29.07,0,0,0,8.3,5.25A10.36,10.36,0,0,1,289.18,105.93Z"/><path class="cls-4" d="M289.25,114.77a19.15,19.15,0,0,0,38.3,0h.08c-18.95-2.2-19.23-17.85-19.23-17.85s-.27,15.65-19.22,17.85"/><path class="cls-4" d="M294.09,118.34a14.75,14.75,0,0,0,28.63,0,24.57,24.57,0,0,1-14.32-9.12A24.51,24.51,0,0,1,294.09,118.34Z"/><path class="cls-4" d="M308.4,125.13a10.36,10.36,0,0,1-8.3-4.15,28.93,28.93,0,0,0,8.3-5.25,29.2,29.2,0,0,0,8.3,5.25A10.35,10.35,0,0,1,308.4,125.13Z"/><path class="cls-4" d="M236.42,99.15a14.76,14.76,0,0,0,28.63,0A24.58,24.58,0,0,1,250.73,90,24.51,24.51,0,0,1,236.42,99.15Z"/><path class="cls-4" d="M250.73,105.93a10.36,10.36,0,0,1-8.3-4.15,28.93,28.93,0,0,0,8.3-5.25,29.2,29.2,0,0,0,8.3,5.25A10.36,10.36,0,0,1,250.73,105.93Z"/><path class="cls-4" d="M250.81,75.93a19.15,19.15,0,0,0,38.3,0h.07C270.23,73.73,270,58.08,270,58.08"/><path class="cls-4" d="M255.64,79.51a14.76,14.76,0,0,0,28.63,0A24.51,24.51,0,0,1,270,70.38,24.58,24.58,0,0,1,255.64,79.51Z"/><path class="cls-4" d="M270,86.29a10.36,10.36,0,0,1-8.3-4.15,29.2,29.2,0,0,0,8.3-5.25,28.93,28.93,0,0,0,8.3,5.25A10.36,10.36,0,0,1,270,86.29Z"/><path class="cls-4" d="M274.87,60.18a14.75,14.75,0,0,0,28.62,0,24.59,24.59,0,0,1-14.31-9.12A24.59,24.59,0,0,1,274.87,60.18Z"/><path class="cls-4" d="M289.18,67a10.34,10.34,0,0,1-8.3-4.16,28.69,28.69,0,0,0,8.3-5.24,28.82,28.82,0,0,0,8.3,5.24A10.34,10.34,0,0,1,289.18,67Z"/><path class="cls-4" d="M289.25,75.93a19.15,19.15,0,0,0,38.3,0h.08c-18.95-2.2-19.23-18.18-19.23-18.18.09,1-.27,16-19.22,18.18"/><path class="cls-4" d="M294.09,79.51a14.76,14.76,0,0,0,28.63,0,24.58,24.58,0,0,1-14.32-9.13A24.51,24.51,0,0,1,294.09,79.51Z"/><path class="cls-4" d="M308.4,86.29a10.36,10.36,0,0,1-8.3-4.15,28.93,28.93,0,0,0,8.3-5.25,29.2,29.2,0,0,0,8.3,5.25A10.35,10.35,0,0,1,308.4,86.29Z"/><path class="cls-4" d="M250.2,75.75a18.8,18.8,0,0,0,19.22-18.2h0"/><path class="cls-4" d="M235.88,60.18a14.75,14.75,0,0,0,28.63,0,24.55,24.55,0,0,1-14.31-9.12A24.61,24.61,0,0,1,235.88,60.18Z"/><path class="cls-4" d="M250.2,67a10.34,10.34,0,0,1-8.3-4.16,29,29,0,0,0,8.3-5.24,28.69,28.69,0,0,0,8.3,5.24A10.34,10.34,0,0,1,250.2,67Z"/><path class="cls-4" d="M173.91,114.77a19.15,19.15,0,1,0,38.3,0h.08c-18.95-2.2-19.23-17.85-19.23-17.85s-.27,15.65-19.22,17.85"/><path class="cls-4" d="M178.75,118.34a14.75,14.75,0,0,0,28.63,0,24.57,24.57,0,0,1-14.32-9.12A24.51,24.51,0,0,1,178.75,118.34Z"/><path class="cls-4" d="M193.06,125.13a10.36,10.36,0,0,1-8.3-4.15,28.93,28.93,0,0,0,8.3-5.25,29.2,29.2,0,0,0,8.3,5.25A10.36,10.36,0,0,1,193.06,125.13Z"/><path class="cls-4" d="M193.14,95.57a19.15,19.15,0,1,0,38.29,0h.08c-18.95-2.2-19.22-17.85-19.22-17.85S212,93.37,193.06,95.57"/><path class="cls-4" d="M198,99.15a14.76,14.76,0,0,0,28.63,0A24.51,24.51,0,0,1,212.29,90,24.58,24.58,0,0,1,198,99.15Z"/><path class="cls-4" d="M212.29,105.93a10.38,10.38,0,0,1-8.31-4.15,29.12,29.12,0,0,0,8.31-5.25,28.93,28.93,0,0,0,8.3,5.25A10.38,10.38,0,0,1,212.29,105.93Z"/><path class="cls-4" d="M212.36,114.77a19.15,19.15,0,0,0,38.3,0h.07c-18.95-2.2-19.22-17.85-19.22-17.85s-.28,15.65-19.22,17.85"/><path class="cls-4" d="M217.19,118.34a14.75,14.75,0,0,0,28.63,0,24.51,24.51,0,0,1-14.31-9.12A24.57,24.57,0,0,1,217.19,118.34Z"/><path class="cls-4" d="M231.51,125.13a10.36,10.36,0,0,1-8.3-4.15,29.07,29.07,0,0,0,8.3-5.25,28.93,28.93,0,0,0,8.3,5.25A10.36,10.36,0,0,1,231.51,125.13Z"/><path class="cls-4" d="M173.91,75.93a19.15,19.15,0,0,0,38.3,0h.08c-18.95-2.2-19.23-17.85-19.23-17.85"/><path class="cls-4" d="M178.75,79.51a14.76,14.76,0,0,0,28.63,0,24.58,24.58,0,0,1-14.32-9.13A24.51,24.51,0,0,1,178.75,79.51Z"/><path class="cls-4" d="M193.06,86.29a10.36,10.36,0,0,1-8.3-4.15,28.93,28.93,0,0,0,8.3-5.25,29.2,29.2,0,0,0,8.3,5.25A10.36,10.36,0,0,1,193.06,86.29Z"/><path class="cls-4" d="M198,60.18a14.75,14.75,0,0,0,28.63,0,24.55,24.55,0,0,1-14.31-9.12A24.61,24.61,0,0,1,198,60.18Z"/><path class="cls-4" d="M212.29,67A10.36,10.36,0,0,1,204,62.81a28.87,28.87,0,0,0,8.31-5.24,28.69,28.69,0,0,0,8.3,5.24A10.36,10.36,0,0,1,212.29,67Z"/><path class="cls-4" d="M212.36,75.93a19.15,19.15,0,0,0,38.3,0h.07c-18.95-2.2-19.22-18.18-19.22-18.18.09,1-.28,16-19.22,18.18"/><path class="cls-4" d="M217.19,79.51a14.76,14.76,0,0,0,28.63,0,24.51,24.51,0,0,1-14.31-9.13A24.58,24.58,0,0,1,217.19,79.51Z"/><path class="cls-4" d="M231.51,86.29a10.36,10.36,0,0,1-8.3-4.15,29.07,29.07,0,0,0,8.3-5.25,28.93,28.93,0,0,0,8.3,5.25A10.36,10.36,0,0,1,231.51,86.29Z"/><path class="cls-4" d="M173.3,75.75a18.8,18.8,0,0,0,19.23-18.2h0"/><path class="cls-4" d="M289.25,37.87a19.15,19.15,0,0,0,38.3,0h.08C308.68,35.67,308.4,20,308.4,20s-.27,15.65-19.22,17.85"/><path class="cls-4" d="M294.09,41.45a14.75,14.75,0,0,0,28.63,0,24.58,24.58,0,0,1-14.32-9.13A24.51,24.51,0,0,1,294.09,41.45Z"/><path class="cls-4" d="M308.4,48.23a10.33,10.33,0,0,1-8.3-4.15,28.9,28.9,0,0,0,8.3-5.24,29.18,29.18,0,0,0,8.3,5.24A10.32,10.32,0,0,1,308.4,48.23Z"/><path class="cls-4" d="M308.48,18.67a19.15,19.15,0,1,0,38.3,0h.07C327.9,16.48,327.63.82,327.63.82s-.28,15.66-19.23,17.85"/><path class="cls-4" d="M313.31,22.25a14.75,14.75,0,0,0,28.63,0,24.55,24.55,0,0,1-14.31-9.12A24.61,24.61,0,0,1,313.31,22.25Z"/><path class="cls-4" d="M327.63,29a10.34,10.34,0,0,1-8.3-4.16,29,29,0,0,0,8.3-5.24,28.69,28.69,0,0,0,8.3,5.24A10.34,10.34,0,0,1,327.63,29Z"/><path class="cls-4" d="M327.7,37.87a19.15,19.15,0,1,0,38.3,0h.08C347.13,35.67,346.85,20,346.85,20s-.27,15.65-19.22,17.85"/><path class="cls-4" d="M332.54,41.45a14.75,14.75,0,0,0,28.63,0,24.58,24.58,0,0,1-14.32-9.13A24.51,24.51,0,0,1,332.54,41.45Z"/><path class="cls-4" d="M346.85,48.23a10.33,10.33,0,0,1-8.3-4.15,28.9,28.9,0,0,0,8.3-5.24,29.18,29.18,0,0,0,8.3,5.24A10.33,10.33,0,0,1,346.85,48.23Z"/><path class="cls-4" d="M274.87,22.25a14.75,14.75,0,0,0,28.62,0,24.59,24.59,0,0,1-14.31-9.12A24.59,24.59,0,0,1,274.87,22.25Z"/><path class="cls-4" d="M289.18,29a10.34,10.34,0,0,1-8.3-4.16,28.69,28.69,0,0,0,8.3-5.24,28.82,28.82,0,0,0,8.3,5.24A10.34,10.34,0,0,1,289.18,29Z"/><path class="cls-4" d="M212.36,37.87a19.15,19.15,0,0,0,38.3,0h.07C231.78,35.67,231.51,20,231.51,20s-.28,15.65-19.22,17.85"/><path class="cls-4" d="M217.19,41.45a14.75,14.75,0,0,0,28.63,0,24.51,24.51,0,0,1-14.31-9.13A24.58,24.58,0,0,1,217.19,41.45Z"/><path class="cls-4" d="M231.51,48.23a10.33,10.33,0,0,1-8.3-4.15,29,29,0,0,0,8.3-5.24,28.9,28.9,0,0,0,8.3,5.24A10.33,10.33,0,0,1,231.51,48.23Z"/><path class="cls-4" d="M231.58,18.67a19.15,19.15,0,0,0,38.3,0H270C251,16.48,250.73.82,250.73.82s-.27,15.66-19.22,17.85"/><path class="cls-4" d="M236.42,22.25a14.75,14.75,0,0,0,28.63,0,24.61,24.61,0,0,1-14.32-9.12A24.55,24.55,0,0,1,236.42,22.25Z"/><path class="cls-4" d="M250.73,29a10.34,10.34,0,0,1-8.3-4.16,28.69,28.69,0,0,0,8.3-5.24,29,29,0,0,0,8.3,5.24A10.34,10.34,0,0,1,250.73,29Z"/><path class="cls-4" d="M250.81,37.87a19.15,19.15,0,0,0,38.3,0h.07C270.23,35.67,270,20,270,20s-.28,15.65-19.23,17.85"/><path class="cls-4" d="M255.64,41.45a14.75,14.75,0,0,0,28.63,0A24.51,24.51,0,0,1,270,32.32,24.58,24.58,0,0,1,255.64,41.45Z"/><path class="cls-4" d="M270,48.23a10.33,10.33,0,0,1-8.3-4.15,29.18,29.18,0,0,0,8.3-5.24,28.9,28.9,0,0,0,8.3,5.24A10.33,10.33,0,0,1,270,48.23Z"/><path class="cls-4" d="M198,22.25a14.75,14.75,0,0,0,28.63,0,24.55,24.55,0,0,1-14.31-9.12A24.61,24.61,0,0,1,198,22.25Z"/><path class="cls-4" d="M212.29,29A10.36,10.36,0,0,1,204,24.88a28.87,28.87,0,0,0,8.31-5.24,28.69,28.69,0,0,0,8.3,5.24A10.36,10.36,0,0,1,212.29,29Z"/><path class="cls-4" d="M154.69,18.67a19.15,19.15,0,0,0,38.3,0h.07C174.11,16.48,173.84.82,173.84.82s-.28,15.66-19.23,17.85"/><path class="cls-4" d="M173.91,37.87a19.15,19.15,0,1,0,38.3,0h.08C193.34,35.67,193.06,20,193.06,20s-.27,15.65-19.22,17.85"/><path class="cls-4" d="M178.75,41.45a14.75,14.75,0,0,0,28.63,0,24.58,24.58,0,0,1-14.32-9.13A24.51,24.51,0,0,1,178.75,41.45Z"/><path class="cls-4" d="M193.06,48.23a10.33,10.33,0,0,1-8.3-4.15,28.9,28.9,0,0,0,8.3-5.24,29.18,29.18,0,0,0,8.3,5.24A10.33,10.33,0,0,1,193.06,48.23Z"/></g><g class="cls-5"><path class="cls-4" d="M308.48,326.25a19.15,19.15,0,0,0,38.3,0h.07c-19-2.19-19.22-17.85-19.22-17.85s-.28,15.66-19.23,17.85"/><path class="cls-4" d="M313.31,329.83a14.75,14.75,0,0,0,28.63,0,24.55,24.55,0,0,1-14.31-9.12A24.61,24.61,0,0,1,313.31,329.83Z"/><path class="cls-4" d="M327.63,336.62a10.34,10.34,0,0,1-8.3-4.16,29,29,0,0,0,8.3-5.24,28.69,28.69,0,0,0,8.3,5.24A10.34,10.34,0,0,1,327.63,336.62Z"/><path class="cls-4" d="M274.87,329.83a14.75,14.75,0,0,0,28.62,0,24.59,24.59,0,0,1-14.31-9.12A24.59,24.59,0,0,1,274.87,329.83Z"/><path class="cls-4" d="M289.18,336.62a10.34,10.34,0,0,1-8.3-4.16,28.69,28.69,0,0,0,8.3-5.24,28.82,28.82,0,0,0,8.3,5.24A10.34,10.34,0,0,1,289.18,336.62Z"/><path class="cls-4" d="M289.25,306.61a19.15,19.15,0,1,0,38.3,0h.08c-18.95-2.19-19.23-17.85-19.23-17.85"/><path class="cls-4" d="M294.09,310.19a14.75,14.75,0,0,0,28.63,0,24.61,24.61,0,0,1-14.32-9.12A24.55,24.55,0,0,1,294.09,310.19Z"/><path class="cls-4" d="M308.4,317a10.33,10.33,0,0,1-8.3-4.15,28.69,28.69,0,0,0,8.3-5.24,29,29,0,0,0,8.3,5.24A10.32,10.32,0,0,1,308.4,317Z"/><path class="cls-4" d="M313.31,290.87a14.75,14.75,0,0,0,28.63,0,24.51,24.51,0,0,1-14.31-9.13A24.58,24.58,0,0,1,313.31,290.87Z"/><path class="cls-4" d="M327.63,297.65a10.36,10.36,0,0,1-8.3-4.15,29.4,29.4,0,0,0,8.3-5.24,29.12,29.12,0,0,0,8.3,5.24A10.36,10.36,0,0,1,327.63,297.65Z"/><path class="cls-4" d="M327.7,306.61a19.15,19.15,0,1,0,38.3,0h.08c-18.95-2.19-19.23-18.18-19.23-18.18.09,1-.27,16-19.22,18.18"/><path class="cls-4" d="M332.54,310.19a14.75,14.75,0,0,0,28.63,0,24.61,24.61,0,0,1-14.32-9.12A24.55,24.55,0,0,1,332.54,310.19Z"/><path class="cls-4" d="M346.85,317a10.33,10.33,0,0,1-8.3-4.15,28.69,28.69,0,0,0,8.3-5.24,29,29,0,0,0,8.3,5.24A10.33,10.33,0,0,1,346.85,317Z"/><path class="cls-4" d="M288.64,306.44a18.8,18.8,0,0,0,19.23-18.21h0"/><path class="cls-4" d="M274.33,290.87a14.75,14.75,0,0,0,28.63,0,24.58,24.58,0,0,1-14.32-9.13A24.51,24.51,0,0,1,274.33,290.87Z"/><path class="cls-4" d="M288.64,297.65a10.36,10.36,0,0,1-8.3-4.15,29.12,29.12,0,0,0,8.3-5.24A29.31,29.31,0,0,0,297,293.5,10.38,10.38,0,0,1,288.64,297.65Z"/><path class="cls-4" d="M231.58,326.25a19.15,19.15,0,0,0,38.3,0H270c-18.95-2.19-19.23-17.85-19.23-17.85s-.27,15.66-19.22,17.85"/><path class="cls-4" d="M236.42,329.83a14.75,14.75,0,0,0,28.63,0,24.61,24.61,0,0,1-14.32-9.12A24.55,24.55,0,0,1,236.42,329.83Z"/><path class="cls-4" d="M250.73,336.62a10.34,10.34,0,0,1-8.3-4.16,28.69,28.69,0,0,0,8.3-5.24,29,29,0,0,0,8.3,5.24A10.34,10.34,0,0,1,250.73,336.62Z"/><path class="cls-4" d="M198,329.83a14.75,14.75,0,0,0,28.63,0,24.55,24.55,0,0,1-14.31-9.12A24.61,24.61,0,0,1,198,329.83Z"/><path class="cls-4" d="M212.29,336.62a10.36,10.36,0,0,1-8.31-4.16,28.87,28.87,0,0,0,8.31-5.24,28.69,28.69,0,0,0,8.3,5.24A10.36,10.36,0,0,1,212.29,336.62Z"/><path class="cls-4" d="M212.36,306.61a19.15,19.15,0,0,0,38.3,0h.07c-18.95-2.19-19.22-17.85-19.22-17.85"/><path class="cls-4" d="M217.19,310.19a14.75,14.75,0,0,0,28.63,0,24.55,24.55,0,0,1-14.31-9.12A24.61,24.61,0,0,1,217.19,310.19Z"/><path class="cls-4" d="M231.51,317a10.33,10.33,0,0,1-8.3-4.15,28.82,28.82,0,0,0,8.3-5.24,28.69,28.69,0,0,0,8.3,5.24A10.33,10.33,0,0,1,231.51,317Z"/><path class="cls-4" d="M236.42,290.87a14.75,14.75,0,0,0,28.63,0,24.58,24.58,0,0,1-14.32-9.13A24.51,24.51,0,0,1,236.42,290.87Z"/><path class="cls-4" d="M250.73,297.65a10.36,10.36,0,0,1-8.3-4.15,29.12,29.12,0,0,0,8.3-5.24,29.4,29.4,0,0,0,8.3,5.24A10.36,10.36,0,0,1,250.73,297.65Z"/><path class="cls-4" d="M250.81,306.61a19.15,19.15,0,0,0,38.3,0h.07C270.23,304.42,270,288.43,270,288.43c.08,1-.28,16-19.23,18.18"/><path class="cls-4" d="M255.64,310.19a14.75,14.75,0,0,0,28.63,0A24.55,24.55,0,0,1,270,301.07,24.61,24.61,0,0,1,255.64,310.19Z"/><path class="cls-4" d="M270,317a10.33,10.33,0,0,1-8.3-4.15,29,29,0,0,0,8.3-5.24,28.69,28.69,0,0,0,8.3,5.24A10.33,10.33,0,0,1,270,317Z"/><path class="cls-4" d="M211.75,306.44A18.79,18.79,0,0,0,231,288.23h0"/><path class="cls-4" d="M197.43,290.87a14.75,14.75,0,0,0,28.63,0,24.55,24.55,0,0,1-14.31-9.13A24.54,24.54,0,0,1,197.43,290.87Z"/><path class="cls-4" d="M211.75,297.65a10.36,10.36,0,0,1-8.3-4.15,29.26,29.26,0,0,0,8.3-5.24,29.12,29.12,0,0,0,8.3,5.24A10.36,10.36,0,0,1,211.75,297.65Z"/><path class="cls-4" d="M154.69,326.25a19.15,19.15,0,0,0,38.3,0h.07c-18.95-2.19-19.22-17.85-19.22-17.85s-.28,15.66-19.23,17.85"/><path class="cls-4" d="M173.91,306.61a19.15,19.15,0,0,0,38.3,0h.08c-18.95-2.19-19.23-18.18-19.23-18.18.09,1-.27,16-19.22,18.18"/><path class="cls-4" d="M178.75,310.19a14.75,14.75,0,0,0,28.63,0,24.61,24.61,0,0,1-14.32-9.12A24.55,24.55,0,0,1,178.75,310.19Z"/><path class="cls-4" d="M193.06,317a10.33,10.33,0,0,1-8.3-4.15,28.69,28.69,0,0,0,8.3-5.24,29,29,0,0,0,8.3,5.24A10.33,10.33,0,0,1,193.06,317Z"/><path class="cls-4" d="M327.7,268.56a19.15,19.15,0,1,0,38.3,0h.08c-18.95-2.2-19.23-17.85-19.23-17.85s-.27,15.65-19.22,17.85"/><path class="cls-4" d="M332.54,272.13a14.75,14.75,0,0,0,28.63,0A24.57,24.57,0,0,1,346.85,263,24.51,24.51,0,0,1,332.54,272.13Z"/><path class="cls-4" d="M346.85,278.92a10.36,10.36,0,0,1-8.3-4.15,28.93,28.93,0,0,0,8.3-5.25,29.2,29.2,0,0,0,8.3,5.25A10.36,10.36,0,0,1,346.85,278.92Z"/><path class="cls-4" d="M346.93,249.36a19.15,19.15,0,1,0,38.29,0h.08c-18.95-2.2-19.22-17.85-19.22-17.85s-.28,15.65-19.23,17.85"/><path class="cls-4" d="M313.31,252.94a14.76,14.76,0,0,0,28.63,0,24.51,24.51,0,0,1-14.31-9.13A24.58,24.58,0,0,1,313.31,252.94Z"/><path class="cls-4" d="M327.63,259.72a10.36,10.36,0,0,1-8.3-4.15,29.2,29.2,0,0,0,8.3-5.25,28.93,28.93,0,0,0,8.3,5.25A10.36,10.36,0,0,1,327.63,259.72Z"/><path class="cls-4" d="M327.7,229.72a19.15,19.15,0,1,0,38.3,0h.08c-18.95-2.2-19.23-17.85-19.23-17.85"/><path class="cls-4" d="M332.54,233.3a14.76,14.76,0,0,0,28.63,0,24.58,24.58,0,0,1-14.32-9.13A24.51,24.51,0,0,1,332.54,233.3Z"/><path class="cls-4" d="M346.85,240.08a10.36,10.36,0,0,1-8.3-4.15,28.93,28.93,0,0,0,8.3-5.25,29.2,29.2,0,0,0,8.3,5.25A10.36,10.36,0,0,1,346.85,240.08Z"/><path class="cls-4" d="M327.09,229.54a18.8,18.8,0,0,0,19.23-18.2h0"/><path class="cls-4" d="M312.78,214a14.75,14.75,0,0,0,28.63,0,24.61,24.61,0,0,1-14.32-9.12A24.55,24.55,0,0,1,312.78,214Z"/><path class="cls-4" d="M327.09,220.76a10.34,10.34,0,0,1-8.3-4.16,28.69,28.69,0,0,0,8.3-5.24,29,29,0,0,0,8.3,5.24A10.34,10.34,0,0,1,327.09,220.76Z"/><path class="cls-4" d="M250.81,268.56a19.15,19.15,0,1,0,38.3,0h.07c-18.95-2.2-19.22-17.85-19.22-17.85s-.28,15.65-19.23,17.85"/><path class="cls-4" d="M255.64,272.13a14.75,14.75,0,0,0,28.63,0A24.51,24.51,0,0,1,270,263,24.57,24.57,0,0,1,255.64,272.13Z"/><path class="cls-4" d="M270,278.92a10.36,10.36,0,0,1-8.3-4.15,29.2,29.2,0,0,0,8.3-5.25,28.93,28.93,0,0,0,8.3,5.25A10.36,10.36,0,0,1,270,278.92Z"/><path class="cls-4" d="M270,249.36a19.15,19.15,0,1,0,38.3,0h.07c-18.95-2.2-19.22-17.85-19.22-17.85s-.27,15.65-19.22,17.85"/><path class="cls-4" d="M274.87,252.94a14.75,14.75,0,0,0,28.62,0,24.55,24.55,0,0,1-14.31-9.13A24.55,24.55,0,0,1,274.87,252.94Z"/><path class="cls-4" d="M289.18,259.72a10.36,10.36,0,0,1-8.3-4.15,28.93,28.93,0,0,0,8.3-5.25,29.07,29.07,0,0,0,8.3,5.25A10.36,10.36,0,0,1,289.18,259.72Z"/><path class="cls-4" d="M289.25,268.56a19.15,19.15,0,0,0,38.3,0h.08c-18.95-2.2-19.23-17.85-19.23-17.85s-.27,15.65-19.22,17.85"/><path class="cls-4" d="M294.09,272.13a14.75,14.75,0,0,0,28.63,0A24.57,24.57,0,0,1,308.4,263,24.51,24.51,0,0,1,294.09,272.13Z"/><path class="cls-4" d="M308.4,278.92a10.36,10.36,0,0,1-8.3-4.15,28.93,28.93,0,0,0,8.3-5.25,29.2,29.2,0,0,0,8.3,5.25A10.35,10.35,0,0,1,308.4,278.92Z"/><path class="cls-4" d="M236.42,252.94a14.76,14.76,0,0,0,28.63,0,24.58,24.58,0,0,1-14.32-9.13A24.51,24.51,0,0,1,236.42,252.94Z"/><path class="cls-4" d="M250.73,259.72a10.36,10.36,0,0,1-8.3-4.15,28.93,28.93,0,0,0,8.3-5.25,29.2,29.2,0,0,0,8.3,5.25A10.36,10.36,0,0,1,250.73,259.72Z"/><path class="cls-4" d="M250.81,229.72a19.15,19.15,0,0,0,38.3,0h.07c-18.95-2.2-19.22-17.85-19.22-17.85"/><path class="cls-4" d="M255.64,233.3a14.76,14.76,0,0,0,28.63,0A24.51,24.51,0,0,1,270,224.17,24.58,24.58,0,0,1,255.64,233.3Z"/><path class="cls-4" d="M270,240.08a10.36,10.36,0,0,1-8.3-4.15,29.2,29.2,0,0,0,8.3-5.25,28.93,28.93,0,0,0,8.3,5.25A10.36,10.36,0,0,1,270,240.08Z"/><path class="cls-4" d="M274.87,214a14.75,14.75,0,0,0,28.62,0,24.59,24.59,0,0,1-14.31-9.12A24.59,24.59,0,0,1,274.87,214Z"/><path class="cls-4" d="M289.18,220.76a10.34,10.34,0,0,1-8.3-4.16,28.69,28.69,0,0,0,8.3-5.24,28.82,28.82,0,0,0,8.3,5.24A10.34,10.34,0,0,1,289.18,220.76Z"/><path class="cls-4" d="M289.25,229.72a19.15,19.15,0,0,0,38.3,0h.08c-18.95-2.2-19.23-18.18-19.23-18.18.09,1-.27,16-19.22,18.18"/><path class="cls-4" d="M294.09,233.3a14.76,14.76,0,0,0,28.63,0,24.58,24.58,0,0,1-14.32-9.13A24.51,24.51,0,0,1,294.09,233.3Z"/><path class="cls-4" d="M308.4,240.08a10.36,10.36,0,0,1-8.3-4.15,28.93,28.93,0,0,0,8.3-5.25,29.2,29.2,0,0,0,8.3,5.25A10.35,10.35,0,0,1,308.4,240.08Z"/><path class="cls-4" d="M250.2,229.54a18.8,18.8,0,0,0,19.22-18.2h0"/><path class="cls-4" d="M235.88,214a14.75,14.75,0,0,0,28.63,0,24.55,24.55,0,0,1-14.31-9.12A24.61,24.61,0,0,1,235.88,214Z"/><path class="cls-4" d="M250.2,220.76a10.34,10.34,0,0,1-8.3-4.16,29,29,0,0,0,8.3-5.24,28.69,28.69,0,0,0,8.3,5.24A10.34,10.34,0,0,1,250.2,220.76Z"/><path class="cls-4" d="M173.91,268.56a19.15,19.15,0,0,0,38.3,0h.08c-18.95-2.2-19.23-17.85-19.23-17.85s-.27,15.65-19.22,17.85"/><path class="cls-4" d="M178.75,272.13a14.75,14.75,0,0,0,28.63,0A24.57,24.57,0,0,1,193.06,263,24.51,24.51,0,0,1,178.75,272.13Z"/><path class="cls-4" d="M193.06,278.92a10.36,10.36,0,0,1-8.3-4.15,28.93,28.93,0,0,0,8.3-5.25,29.2,29.2,0,0,0,8.3,5.25A10.36,10.36,0,0,1,193.06,278.92Z"/><path class="cls-4" d="M193.14,249.36a19.15,19.15,0,1,0,38.29,0h.08c-18.95-2.2-19.22-17.85-19.22-17.85s-.28,15.65-19.23,17.85"/><path class="cls-4" d="M198,252.94a14.76,14.76,0,0,0,28.63,0,24.51,24.51,0,0,1-14.31-9.13A24.58,24.58,0,0,1,198,252.94Z"/><path class="cls-4" d="M212.29,259.72a10.38,10.38,0,0,1-8.31-4.15,29.12,29.12,0,0,0,8.31-5.25,28.93,28.93,0,0,0,8.3,5.25A10.38,10.38,0,0,1,212.29,259.72Z"/><path class="cls-4" d="M212.36,268.56a19.15,19.15,0,0,0,38.3,0h.07c-18.95-2.2-19.22-17.85-19.22-17.85s-.28,15.65-19.22,17.85"/><path class="cls-4" d="M217.19,272.13a14.75,14.75,0,0,0,28.63,0A24.51,24.51,0,0,1,231.51,263,24.57,24.57,0,0,1,217.19,272.13Z"/><path class="cls-4" d="M231.51,278.92a10.36,10.36,0,0,1-8.3-4.15,29.07,29.07,0,0,0,8.3-5.25,28.93,28.93,0,0,0,8.3,5.25A10.36,10.36,0,0,1,231.51,278.92Z"/><path class="cls-4" d="M173.91,229.72a19.15,19.15,0,1,0,38.3,0h.08c-18.95-2.2-19.23-17.85-19.23-17.85"/><path class="cls-4" d="M178.75,233.3a14.76,14.76,0,0,0,28.63,0,24.58,24.58,0,0,1-14.32-9.13A24.51,24.51,0,0,1,178.75,233.3Z"/><path class="cls-4" d="M193.06,240.08a10.36,10.36,0,0,1-8.3-4.15,28.93,28.93,0,0,0,8.3-5.25,29.2,29.2,0,0,0,8.3,5.25A10.36,10.36,0,0,1,193.06,240.08Z"/><path class="cls-4" d="M198,214a14.75,14.75,0,0,0,28.63,0,24.55,24.55,0,0,1-14.31-9.12A24.61,24.61,0,0,1,198,214Z"/><path class="cls-4" d="M212.29,220.76A10.36,10.36,0,0,1,204,216.6a28.87,28.87,0,0,0,8.31-5.24,28.69,28.69,0,0,0,8.3,5.24A10.36,10.36,0,0,1,212.29,220.76Z"/><path class="cls-4" d="M212.36,229.72a19.15,19.15,0,0,0,38.3,0h.07c-18.95-2.2-19.22-18.18-19.22-18.18.09,1-.28,16-19.22,18.18"/><path class="cls-4" d="M217.19,233.3a14.76,14.76,0,0,0,28.63,0,24.51,24.51,0,0,1-14.31-9.13A24.58,24.58,0,0,1,217.19,233.3Z"/><path class="cls-4" d="M231.51,240.08a10.36,10.36,0,0,1-8.3-4.15,29.07,29.07,0,0,0,8.3-5.25,28.93,28.93,0,0,0,8.3,5.25A10.36,10.36,0,0,1,231.51,240.08Z"/><path class="cls-4" d="M173.3,229.54a18.8,18.8,0,0,0,19.23-18.2h0"/><path class="cls-4" d="M289.25,191.66a19.15,19.15,0,0,0,38.3,0h.08c-18.95-2.2-19.23-17.85-19.23-17.85s-.27,15.65-19.22,17.85"/><path class="cls-4" d="M294.09,195.24a14.75,14.75,0,0,0,28.63,0,24.58,24.58,0,0,1-14.32-9.13A24.51,24.51,0,0,1,294.09,195.24Z"/><path class="cls-4" d="M308.4,202a10.33,10.33,0,0,1-8.3-4.15,28.9,28.9,0,0,0,8.3-5.24,29.18,29.18,0,0,0,8.3,5.24A10.32,10.32,0,0,1,308.4,202Z"/><path class="cls-4" d="M308.48,172.46a19.15,19.15,0,1,0,38.3,0h.07c-19-2.19-19.22-17.85-19.22-17.85s-.28,15.66-19.23,17.85"/><path class="cls-4" d="M313.31,176a14.75,14.75,0,0,0,28.63,0,24.55,24.55,0,0,1-14.31-9.12A24.61,24.61,0,0,1,313.31,176Z"/><path class="cls-4" d="M327.63,182.83a10.34,10.34,0,0,1-8.3-4.16,29,29,0,0,0,8.3-5.24,28.69,28.69,0,0,0,8.3,5.24A10.34,10.34,0,0,1,327.63,182.83Z"/><path class="cls-4" d="M327.7,191.66a19.15,19.15,0,1,0,38.3,0h.08c-18.95-2.2-19.23-17.85-19.23-17.85s-.27,15.65-19.22,17.85"/><path class="cls-4" d="M332.54,195.24a14.75,14.75,0,0,0,28.63,0,24.58,24.58,0,0,1-14.32-9.13A24.51,24.51,0,0,1,332.54,195.24Z"/><path class="cls-4" d="M346.85,202a10.33,10.33,0,0,1-8.3-4.15,28.9,28.9,0,0,0,8.3-5.24,29.18,29.18,0,0,0,8.3,5.24A10.33,10.33,0,0,1,346.85,202Z"/><path class="cls-4" d="M274.87,176a14.75,14.75,0,0,0,28.62,0,24.59,24.59,0,0,1-14.31-9.12A24.59,24.59,0,0,1,274.87,176Z"/><path class="cls-4" d="M289.18,182.83a10.34,10.34,0,0,1-8.3-4.16,28.69,28.69,0,0,0,8.3-5.24,28.82,28.82,0,0,0,8.3,5.24A10.34,10.34,0,0,1,289.18,182.83Z"/><path class="cls-4" d="M212.36,191.66a19.15,19.15,0,0,0,38.3,0h.07c-18.95-2.2-19.22-17.85-19.22-17.85s-.28,15.65-19.22,17.85"/><path class="cls-4" d="M217.19,195.24a14.75,14.75,0,0,0,28.63,0,24.51,24.51,0,0,1-14.31-9.13A24.58,24.58,0,0,1,217.19,195.24Z"/><path class="cls-4" d="M231.51,202a10.33,10.33,0,0,1-8.3-4.15,29,29,0,0,0,8.3-5.24,28.9,28.9,0,0,0,8.3,5.24A10.33,10.33,0,0,1,231.51,202Z"/><path class="cls-4" d="M231.58,172.46a19.15,19.15,0,0,0,38.3,0H270c-18.95-2.19-19.23-17.85-19.23-17.85s-.27,15.66-19.22,17.85"/><path class="cls-4" d="M236.42,176a14.75,14.75,0,0,0,28.63,0,24.61,24.61,0,0,1-14.32-9.12A24.55,24.55,0,0,1,236.42,176Z"/><path class="cls-4" d="M250.73,182.83a10.34,10.34,0,0,1-8.3-4.16,28.69,28.69,0,0,0,8.3-5.24,29,29,0,0,0,8.3,5.24A10.34,10.34,0,0,1,250.73,182.83Z"/><path class="cls-4" d="M250.81,191.66a19.15,19.15,0,0,0,38.3,0h.07c-18.95-2.2-19.22-17.85-19.22-17.85s-.28,15.65-19.23,17.85"/><path class="cls-4" d="M255.64,195.24a14.75,14.75,0,0,0,28.63,0A24.51,24.51,0,0,1,270,186.11,24.58,24.58,0,0,1,255.64,195.24Z"/><path class="cls-4" d="M270,202a10.33,10.33,0,0,1-8.3-4.15,29.18,29.18,0,0,0,8.3-5.24,28.9,28.9,0,0,0,8.3,5.24A10.33,10.33,0,0,1,270,202Z"/><path class="cls-4" d="M198,176a14.75,14.75,0,0,0,28.63,0,24.55,24.55,0,0,1-14.31-9.12A24.61,24.61,0,0,1,198,176Z"/><path class="cls-4" d="M212.29,182.83a10.36,10.36,0,0,1-8.31-4.16,28.87,28.87,0,0,0,8.31-5.24,28.69,28.69,0,0,0,8.3,5.24A10.36,10.36,0,0,1,212.29,182.83Z"/><path class="cls-4" d="M154.69,172.46a19.15,19.15,0,0,0,38.3,0h.07c-18.95-2.19-19.22-17.85-19.22-17.85s-.28,15.66-19.23,17.85"/><path class="cls-4" d="M173.91,191.66a19.15,19.15,0,1,0,38.3,0h.08c-18.95-2.2-19.23-17.85-19.23-17.85s-.27,15.65-19.22,17.85"/><path class="cls-4" d="M178.75,195.24a14.75,14.75,0,0,0,28.63,0,24.58,24.58,0,0,1-14.32-9.13A24.51,24.51,0,0,1,178.75,195.24Z"/><path class="cls-4" d="M193.06,202a10.33,10.33,0,0,1-8.3-4.15,28.9,28.9,0,0,0,8.3-5.24,29.18,29.18,0,0,0,8.3,5.24A10.33,10.33,0,0,1,193.06,202Z"/></g><g class="cls-6"><path class="cls-4" d="M154.69,172.46a19.15,19.15,0,0,0,38.3,0h.07c-18.95-2.19-19.22-17.85-19.22-17.85s-.28,15.66-19.23,17.85"/><path class="cls-4" d="M159.52,176a14.75,14.75,0,0,0,28.63,0,24.55,24.55,0,0,1-14.31-9.12A24.61,24.61,0,0,1,159.52,176Z"/><path class="cls-4" d="M173.84,182.83a10.34,10.34,0,0,1-8.3-4.16,29,29,0,0,0,8.3-5.24,28.69,28.69,0,0,0,8.3,5.24A10.34,10.34,0,0,1,173.84,182.83Z"/><path class="cls-4" d="M121.08,176a14.75,14.75,0,0,0,28.62,0,24.59,24.59,0,0,1-14.31-9.12A24.59,24.59,0,0,1,121.08,176Z"/><path class="cls-4" d="M135.39,182.83a10.34,10.34,0,0,1-8.3-4.16,28.69,28.69,0,0,0,8.3-5.24,28.82,28.82,0,0,0,8.3,5.24A10.34,10.34,0,0,1,135.39,182.83Z"/><path class="cls-4" d="M135.46,152.82a19.15,19.15,0,0,0,38.3,0h.08c-19-2.19-19.23-17.85-19.23-17.85"/><path class="cls-4" d="M140.3,156.4a14.75,14.75,0,0,0,28.63,0,24.61,24.61,0,0,1-14.32-9.12A24.55,24.55,0,0,1,140.3,156.4Z"/><path class="cls-4" d="M154.61,163.18a10.33,10.33,0,0,1-8.3-4.15,28.69,28.69,0,0,0,8.3-5.24,29,29,0,0,0,8.3,5.24A10.32,10.32,0,0,1,154.61,163.18Z"/><path class="cls-4" d="M159.52,137.08a14.75,14.75,0,0,0,28.63,0A24.51,24.51,0,0,1,173.84,128,24.58,24.58,0,0,1,159.52,137.08Z"/><path class="cls-4" d="M173.84,143.86a10.36,10.36,0,0,1-8.3-4.15,29.4,29.4,0,0,0,8.3-5.24,29.12,29.12,0,0,0,8.3,5.24A10.36,10.36,0,0,1,173.84,143.86Z"/><path class="cls-4" d="M173.91,152.82a19.15,19.15,0,0,0,38.3,0h.08c-18.95-2.19-19.23-18.18-19.23-18.18.09,1-.27,16-19.22,18.18"/><path class="cls-4" d="M178.75,156.4a14.75,14.75,0,0,0,28.63,0,24.61,24.61,0,0,1-14.32-9.12A24.55,24.55,0,0,1,178.75,156.4Z"/><path class="cls-4" d="M193.06,163.18a10.33,10.33,0,0,1-8.3-4.15,28.69,28.69,0,0,0,8.3-5.24,29,29,0,0,0,8.3,5.24A10.33,10.33,0,0,1,193.06,163.18Z"/><path class="cls-4" d="M134.85,152.65a18.8,18.8,0,0,0,19.23-18.21h0"/><path class="cls-4" d="M120.54,137.08a14.75,14.75,0,0,0,28.63,0A24.58,24.58,0,0,1,134.85,128,24.51,24.51,0,0,1,120.54,137.08Z"/><path class="cls-4" d="M134.85,143.86a10.36,10.36,0,0,1-8.3-4.15,29.12,29.12,0,0,0,8.3-5.24,29.31,29.31,0,0,0,8.31,5.24A10.38,10.38,0,0,1,134.85,143.86Z"/><path class="cls-4" d="M77.79,172.46a19.15,19.15,0,0,0,38.3,0h.08c-19-2.19-19.23-17.85-19.23-17.85s-.27,15.66-19.22,17.85"/><path class="cls-4" d="M82.63,176a14.75,14.75,0,0,0,28.63,0,24.61,24.61,0,0,1-14.32-9.12A24.55,24.55,0,0,1,82.63,176Z"/><path class="cls-4" d="M96.94,182.83a10.34,10.34,0,0,1-8.3-4.16,28.69,28.69,0,0,0,8.3-5.24,29,29,0,0,0,8.3,5.24A10.34,10.34,0,0,1,96.94,182.83Z"/><path class="cls-4" d="M44.18,176a14.75,14.75,0,0,0,28.63,0,24.55,24.55,0,0,1-14.31-9.12A24.61,24.61,0,0,1,44.18,176Z"/><path class="cls-4" d="M58.5,182.83a10.36,10.36,0,0,1-8.31-4.16,28.87,28.87,0,0,0,8.31-5.24,28.69,28.69,0,0,0,8.3,5.24A10.36,10.36,0,0,1,58.5,182.83Z"/><path class="cls-4" d="M58.57,152.82a19.15,19.15,0,0,0,38.3,0h.07C78,150.63,77.72,135,77.72,135"/><path class="cls-4" d="M63.4,156.4a14.75,14.75,0,0,0,28.63,0,24.55,24.55,0,0,1-14.31-9.12A24.61,24.61,0,0,1,63.4,156.4Z"/><path class="cls-4" d="M77.72,163.18a10.33,10.33,0,0,1-8.3-4.15,28.82,28.82,0,0,0,8.3-5.24A28.69,28.69,0,0,0,86,159,10.33,10.33,0,0,1,77.72,163.18Z"/><path class="cls-4" d="M82.63,137.08a14.75,14.75,0,0,0,28.63,0A24.58,24.58,0,0,1,96.94,128,24.51,24.51,0,0,1,82.63,137.08Z"/><path class="cls-4" d="M96.94,143.86a10.36,10.36,0,0,1-8.3-4.15,29.12,29.12,0,0,0,8.3-5.24,29.4,29.4,0,0,0,8.3,5.24A10.36,10.36,0,0,1,96.94,143.86Z"/><path class="cls-4" d="M97,152.82a19.15,19.15,0,1,0,38.3,0h.07c-18.95-2.19-19.22-18.18-19.22-18.18.08,1-.28,16-19.23,18.18"/><path class="cls-4" d="M101.85,156.4a14.75,14.75,0,0,0,28.63,0,24.55,24.55,0,0,1-14.31-9.12A24.61,24.61,0,0,1,101.85,156.4Z"/><path class="cls-4" d="M116.17,163.18a10.33,10.33,0,0,1-8.3-4.15,29,29,0,0,0,8.3-5.24,28.69,28.69,0,0,0,8.3,5.24A10.33,10.33,0,0,1,116.17,163.18Z"/><path class="cls-4" d="M58,152.65a18.79,18.79,0,0,0,19.22-18.21h0"/><path class="cls-4" d="M43.64,137.08a14.75,14.75,0,0,0,28.63,0A24.55,24.55,0,0,1,58,128,24.54,24.54,0,0,1,43.64,137.08Z"/><path class="cls-4" d="M58,143.86a10.36,10.36,0,0,1-8.3-4.15,29.26,29.26,0,0,0,8.3-5.24,29.12,29.12,0,0,0,8.3,5.24A10.36,10.36,0,0,1,58,143.86Z"/><path class="cls-4" d="M.9,172.46a19.15,19.15,0,1,0,38.3,0h.07c-19-2.19-19.22-17.85-19.22-17.85S19.77,170.27.82,172.46"/><path class="cls-4" d="M20.12,152.82a19.15,19.15,0,0,0,38.3,0h.08c-19-2.19-19.23-18.18-19.23-18.18.09,1-.27,16-19.22,18.18"/><path class="cls-4" d="M25,156.4a14.75,14.75,0,0,0,28.63,0,24.61,24.61,0,0,1-14.32-9.12A24.55,24.55,0,0,1,25,156.4Z"/><path class="cls-4" d="M39.27,163.18A10.33,10.33,0,0,1,31,159a28.69,28.69,0,0,0,8.3-5.24,29,29,0,0,0,8.3,5.24A10.33,10.33,0,0,1,39.27,163.18Z"/><path class="cls-4" d="M173.91,114.77a19.15,19.15,0,1,0,38.3,0h.08c-18.95-2.2-19.23-17.85-19.23-17.85s-.27,15.65-19.22,17.85"/><path class="cls-4" d="M178.75,118.34a14.75,14.75,0,0,0,28.63,0,24.57,24.57,0,0,1-14.32-9.12A24.51,24.51,0,0,1,178.75,118.34Z"/><path class="cls-4" d="M193.06,125.13a10.36,10.36,0,0,1-8.3-4.15,28.93,28.93,0,0,0,8.3-5.25,29.2,29.2,0,0,0,8.3,5.25A10.36,10.36,0,0,1,193.06,125.13Z"/><path class="cls-4" d="M193.14,95.57a19.15,19.15,0,1,0,38.29,0h.08c-18.95-2.2-19.22-17.85-19.22-17.85S212,93.37,193.06,95.57"/><path class="cls-4" d="M159.52,99.15a14.76,14.76,0,0,0,28.63,0A24.51,24.51,0,0,1,173.84,90,24.58,24.58,0,0,1,159.52,99.15Z"/><path class="cls-4" d="M173.84,105.93a10.36,10.36,0,0,1-8.3-4.15,29.2,29.2,0,0,0,8.3-5.25,28.93,28.93,0,0,0,8.3,5.25A10.36,10.36,0,0,1,173.84,105.93Z"/><path class="cls-4" d="M173.91,75.93a19.15,19.15,0,0,0,38.3,0h.08c-18.95-2.2-19.23-17.85-19.23-17.85"/><path class="cls-4" d="M178.75,79.51a14.76,14.76,0,0,0,28.63,0,24.58,24.58,0,0,1-14.32-9.13A24.51,24.51,0,0,1,178.75,79.51Z"/><path class="cls-4" d="M193.06,86.29a10.36,10.36,0,0,1-8.3-4.15,28.93,28.93,0,0,0,8.3-5.25,29.2,29.2,0,0,0,8.3,5.25A10.36,10.36,0,0,1,193.06,86.29Z"/><path class="cls-4" d="M173.3,75.75a18.8,18.8,0,0,0,19.23-18.2h0"/><path class="cls-4" d="M159,60.18a14.75,14.75,0,0,0,28.63,0,24.61,24.61,0,0,1-14.32-9.12A24.55,24.55,0,0,1,159,60.18Z"/><path class="cls-4" d="M173.3,67a10.34,10.34,0,0,1-8.3-4.16,28.69,28.69,0,0,0,8.3-5.24,29,29,0,0,0,8.3,5.24A10.34,10.34,0,0,1,173.3,67Z"/><path class="cls-4" d="M97,114.77a19.15,19.15,0,1,0,38.3,0h.07c-18.95-2.2-19.22-17.85-19.22-17.85s-.28,15.65-19.23,17.85"/><path class="cls-4" d="M101.85,118.34a14.75,14.75,0,0,0,28.63,0,24.51,24.51,0,0,1-14.31-9.12A24.57,24.57,0,0,1,101.85,118.34Z"/><path class="cls-4" d="M116.17,125.13a10.36,10.36,0,0,1-8.3-4.15,29.2,29.2,0,0,0,8.3-5.25,28.93,28.93,0,0,0,8.3,5.25A10.36,10.36,0,0,1,116.17,125.13Z"/><path class="cls-4" d="M116.24,95.57a19.15,19.15,0,0,0,38.3,0h.07c-19-2.2-19.22-17.85-19.22-17.85s-.27,15.65-19.22,17.85"/><path class="cls-4" d="M121.08,99.15a14.75,14.75,0,0,0,28.62,0A24.55,24.55,0,0,1,135.39,90,24.55,24.55,0,0,1,121.08,99.15Z"/><path class="cls-4" d="M135.39,105.93a10.36,10.36,0,0,1-8.3-4.15,28.93,28.93,0,0,0,8.3-5.25,29.07,29.07,0,0,0,8.3,5.25A10.36,10.36,0,0,1,135.39,105.93Z"/><path class="cls-4" d="M135.46,114.77a19.15,19.15,0,1,0,38.3,0h.08c-19-2.2-19.23-17.85-19.23-17.85s-.27,15.65-19.22,17.85"/><path class="cls-4" d="M140.3,118.34a14.75,14.75,0,0,0,28.63,0,24.57,24.57,0,0,1-14.32-9.12A24.51,24.51,0,0,1,140.3,118.34Z"/><path class="cls-4" d="M154.61,125.13a10.36,10.36,0,0,1-8.3-4.15,28.93,28.93,0,0,0,8.3-5.25,29.2,29.2,0,0,0,8.3,5.25A10.35,10.35,0,0,1,154.61,125.13Z"/><path class="cls-4" d="M82.63,99.15a14.76,14.76,0,0,0,28.63,0A24.58,24.58,0,0,1,96.94,90,24.51,24.51,0,0,1,82.63,99.15Z"/><path class="cls-4" d="M96.94,105.93a10.36,10.36,0,0,1-8.3-4.15,28.93,28.93,0,0,0,8.3-5.25,29.2,29.2,0,0,0,8.3,5.25A10.36,10.36,0,0,1,96.94,105.93Z"/><path class="cls-4" d="M97,75.93a19.15,19.15,0,1,0,38.3,0h.07c-18.95-2.2-19.22-17.85-19.22-17.85"/><path class="cls-4" d="M101.85,79.51a14.76,14.76,0,0,0,28.63,0,24.51,24.51,0,0,1-14.31-9.13A24.58,24.58,0,0,1,101.85,79.51Z"/><path class="cls-4" d="M116.17,86.29a10.36,10.36,0,0,1-8.3-4.15,29.2,29.2,0,0,0,8.3-5.25,28.93,28.93,0,0,0,8.3,5.25A10.36,10.36,0,0,1,116.17,86.29Z"/><path class="cls-4" d="M121.08,60.18a14.75,14.75,0,0,0,28.62,0,24.59,24.59,0,0,1-14.31-9.12A24.59,24.59,0,0,1,121.08,60.18Z"/><path class="cls-4" d="M135.39,67a10.34,10.34,0,0,1-8.3-4.16,28.69,28.69,0,0,0,8.3-5.24,28.82,28.82,0,0,0,8.3,5.24A10.34,10.34,0,0,1,135.39,67Z"/><path class="cls-4" d="M135.46,75.93a19.15,19.15,0,1,0,38.3,0h.08c-19-2.2-19.23-18.18-19.23-18.18.09,1-.27,16-19.22,18.18"/><path class="cls-4" d="M140.3,79.51a14.76,14.76,0,0,0,28.63,0,24.58,24.58,0,0,1-14.32-9.13A24.51,24.51,0,0,1,140.3,79.51Z"/><path class="cls-4" d="M154.61,86.29a10.36,10.36,0,0,1-8.3-4.15,28.93,28.93,0,0,0,8.3-5.25,29.2,29.2,0,0,0,8.3,5.25A10.35,10.35,0,0,1,154.61,86.29Z"/><path class="cls-4" d="M96.41,75.75a18.8,18.8,0,0,0,19.22-18.2h0"/><path class="cls-4" d="M82.09,60.18a14.75,14.75,0,0,0,28.63,0,24.55,24.55,0,0,1-14.31-9.12A24.61,24.61,0,0,1,82.09,60.18Z"/><path class="cls-4" d="M96.41,67a10.34,10.34,0,0,1-8.3-4.16,29,29,0,0,0,8.3-5.24,28.69,28.69,0,0,0,8.3,5.24A10.34,10.34,0,0,1,96.41,67Z"/><path class="cls-4" d="M20.12,114.77a19.15,19.15,0,0,0,38.3,0h.08c-19-2.2-19.23-17.85-19.23-17.85S39,112.57,20.05,114.77"/><path class="cls-4" d="M25,118.34a14.75,14.75,0,0,0,28.63,0,24.57,24.57,0,0,1-14.32-9.12A24.51,24.51,0,0,1,25,118.34Z"/><path class="cls-4" d="M39.27,125.13A10.36,10.36,0,0,1,31,121a28.93,28.93,0,0,0,8.3-5.25,29.2,29.2,0,0,0,8.3,5.25A10.36,10.36,0,0,1,39.27,125.13Z"/><path class="cls-4" d="M39.35,95.57a19.15,19.15,0,1,0,38.29,0h.08C58.77,93.37,58.5,77.72,58.5,77.72s-.28,15.65-19.23,17.85"/><path class="cls-4" d="M44.18,99.15a14.76,14.76,0,0,0,28.63,0A24.51,24.51,0,0,1,58.5,90,24.58,24.58,0,0,1,44.18,99.15Z"/><path class="cls-4" d="M58.5,105.93a10.38,10.38,0,0,1-8.31-4.15,29.12,29.12,0,0,0,8.31-5.25,28.93,28.93,0,0,0,8.3,5.25A10.38,10.38,0,0,1,58.5,105.93Z"/><path class="cls-4" d="M58.57,114.77a19.15,19.15,0,0,0,38.3,0h.07c-19-2.2-19.22-17.85-19.22-17.85s-.28,15.65-19.22,17.85"/><path class="cls-4" d="M63.4,118.34a14.75,14.75,0,0,0,28.63,0,24.51,24.51,0,0,1-14.31-9.12A24.57,24.57,0,0,1,63.4,118.34Z"/><path class="cls-4" d="M77.72,125.13a10.36,10.36,0,0,1-8.3-4.15,29.07,29.07,0,0,0,8.3-5.25A28.93,28.93,0,0,0,86,121,10.36,10.36,0,0,1,77.72,125.13Z"/><path class="cls-4" d="M20.12,75.93a19.15,19.15,0,0,0,38.3,0h.08c-19-2.2-19.23-17.85-19.23-17.85"/><path class="cls-4" d="M25,79.51a14.76,14.76,0,0,0,28.63,0,24.58,24.58,0,0,1-14.32-9.13A24.51,24.51,0,0,1,25,79.51Z"/><path class="cls-4" d="M39.27,86.29A10.36,10.36,0,0,1,31,82.14a28.93,28.93,0,0,0,8.3-5.25,29.2,29.2,0,0,0,8.3,5.25A10.36,10.36,0,0,1,39.27,86.29Z"/><path class="cls-4" d="M44.18,60.18a14.75,14.75,0,0,0,28.63,0A24.55,24.55,0,0,1,58.5,51.06,24.61,24.61,0,0,1,44.18,60.18Z"/><path class="cls-4" d="M58.5,67a10.36,10.36,0,0,1-8.31-4.16,28.87,28.87,0,0,0,8.31-5.24,28.69,28.69,0,0,0,8.3,5.24A10.36,10.36,0,0,1,58.5,67Z"/><path class="cls-4" d="M58.57,75.93a19.15,19.15,0,0,0,38.3,0h.07c-19-2.2-19.22-18.18-19.22-18.18.09,1-.28,16-19.22,18.18"/><path class="cls-4" d="M63.4,79.51a14.76,14.76,0,0,0,28.63,0,24.51,24.51,0,0,1-14.31-9.13A24.58,24.58,0,0,1,63.4,79.51Z"/><path class="cls-4" d="M77.72,86.29a10.36,10.36,0,0,1-8.3-4.15,29.07,29.07,0,0,0,8.3-5.25A28.93,28.93,0,0,0,86,82.14,10.36,10.36,0,0,1,77.72,86.29Z"/><path class="cls-4" d="M19.51,75.75a18.8,18.8,0,0,0,19.23-18.2h0"/><path class="cls-4" d="M135.46,37.87a19.15,19.15,0,1,0,38.3,0h.08c-19-2.2-19.23-17.85-19.23-17.85s-.27,15.65-19.22,17.85"/><path class="cls-4" d="M140.3,41.45a14.75,14.75,0,0,0,28.63,0,24.58,24.58,0,0,1-14.32-9.13A24.51,24.51,0,0,1,140.3,41.45Z"/><path class="cls-4" d="M154.61,48.23a10.33,10.33,0,0,1-8.3-4.15,28.9,28.9,0,0,0,8.3-5.24,29.18,29.18,0,0,0,8.3,5.24A10.32,10.32,0,0,1,154.61,48.23Z"/><path class="cls-4" d="M154.69,18.67a19.15,19.15,0,0,0,38.3,0h.07C174.11,16.48,173.84.82,173.84.82s-.28,15.66-19.23,17.85"/><path class="cls-4" d="M159.52,22.25a14.75,14.75,0,0,0,28.63,0,24.55,24.55,0,0,1-14.31-9.12A24.61,24.61,0,0,1,159.52,22.25Z"/><path class="cls-4" d="M173.84,29a10.34,10.34,0,0,1-8.3-4.16,29,29,0,0,0,8.3-5.24,28.69,28.69,0,0,0,8.3,5.24A10.34,10.34,0,0,1,173.84,29Z"/><path class="cls-4" d="M173.91,37.87a19.15,19.15,0,1,0,38.3,0h.08C193.34,35.67,193.06,20,193.06,20s-.27,15.65-19.22,17.85"/><path class="cls-4" d="M178.75,41.45a14.75,14.75,0,0,0,28.63,0,24.58,24.58,0,0,1-14.32-9.13A24.51,24.51,0,0,1,178.75,41.45Z"/><path class="cls-4" d="M193.06,48.23a10.33,10.33,0,0,1-8.3-4.15,28.9,28.9,0,0,0,8.3-5.24,29.18,29.18,0,0,0,8.3,5.24A10.33,10.33,0,0,1,193.06,48.23Z"/><path class="cls-4" d="M121.08,22.25a14.75,14.75,0,0,0,28.62,0,24.59,24.59,0,0,1-14.31-9.12A24.59,24.59,0,0,1,121.08,22.25Z"/><path class="cls-4" d="M135.39,29a10.34,10.34,0,0,1-8.3-4.16,28.69,28.69,0,0,0,8.3-5.24,28.82,28.82,0,0,0,8.3,5.24A10.34,10.34,0,0,1,135.39,29Z"/><path class="cls-4" d="M58.57,37.87a19.15,19.15,0,0,0,38.3,0h.07C78,35.67,77.72,20,77.72,20S77.44,35.67,58.5,37.87"/><path class="cls-4" d="M63.4,41.45a14.75,14.75,0,0,0,28.63,0,24.51,24.51,0,0,1-14.31-9.13A24.58,24.58,0,0,1,63.4,41.45Z"/><path class="cls-4" d="M77.72,48.23a10.33,10.33,0,0,1-8.3-4.15,29,29,0,0,0,8.3-5.24A28.9,28.9,0,0,0,86,44.08,10.33,10.33,0,0,1,77.72,48.23Z"/><path class="cls-4" d="M77.79,18.67a19.15,19.15,0,0,0,38.3,0h.08C97.22,16.48,96.94.82,96.94.82s-.27,15.66-19.22,17.85"/><path class="cls-4" d="M82.63,22.25a14.75,14.75,0,0,0,28.63,0,24.61,24.61,0,0,1-14.32-9.12A24.55,24.55,0,0,1,82.63,22.25Z"/><path class="cls-4" d="M96.94,29a10.34,10.34,0,0,1-8.3-4.16,28.69,28.69,0,0,0,8.3-5.24,29,29,0,0,0,8.3,5.24A10.34,10.34,0,0,1,96.94,29Z"/><path class="cls-4" d="M97,37.87a19.15,19.15,0,1,0,38.3,0h.07C116.44,35.67,116.17,20,116.17,20s-.28,15.65-19.23,17.85"/><path class="cls-4" d="M101.85,41.45a14.75,14.75,0,0,0,28.63,0,24.51,24.51,0,0,1-14.31-9.13A24.58,24.58,0,0,1,101.85,41.45Z"/><path class="cls-4" d="M116.17,48.23a10.33,10.33,0,0,1-8.3-4.15,29.18,29.18,0,0,0,8.3-5.24,28.9,28.9,0,0,0,8.3,5.24A10.33,10.33,0,0,1,116.17,48.23Z"/><path class="cls-4" d="M44.18,22.25a14.75,14.75,0,0,0,28.63,0A24.55,24.55,0,0,1,58.5,13.13,24.61,24.61,0,0,1,44.18,22.25Z"/><path class="cls-4" d="M58.5,29a10.36,10.36,0,0,1-8.31-4.16,28.87,28.87,0,0,0,8.31-5.24,28.69,28.69,0,0,0,8.3,5.24A10.36,10.36,0,0,1,58.5,29Z"/><path class="cls-4" d="M.9,18.67a19.15,19.15,0,0,0,38.3,0h.07C20.32,16.48,20.05.82,20.05.82S19.77,16.48.82,18.67"/><path class="cls-4" d="M20.12,37.87a19.15,19.15,0,0,0,38.3,0h.08C39.55,35.67,39.27,20,39.27,20S39,35.67,20.05,37.87"/><path class="cls-4" d="M25,41.45a14.75,14.75,0,0,0,28.63,0,24.58,24.58,0,0,1-14.32-9.13A24.51,24.51,0,0,1,25,41.45Z"/><path class="cls-4" d="M39.27,48.23A10.33,10.33,0,0,1,31,44.08a28.9,28.9,0,0,0,8.3-5.24,29.18,29.18,0,0,0,8.3,5.24A10.33,10.33,0,0,1,39.27,48.23Z"/></g><g class="cls-7"><path class="cls-4" d="M154.69,326.25a19.15,19.15,0,0,0,38.3,0h.07c-18.95-2.19-19.22-17.85-19.22-17.85s-.28,15.66-19.23,17.85"/><path class="cls-4" d="M159.52,329.83a14.75,14.75,0,0,0,28.63,0,24.55,24.55,0,0,1-14.31-9.12A24.61,24.61,0,0,1,159.52,329.83Z"/><path class="cls-4" d="M173.84,336.62a10.34,10.34,0,0,1-8.3-4.16,29,29,0,0,0,8.3-5.24,28.69,28.69,0,0,0,8.3,5.24A10.34,10.34,0,0,1,173.84,336.62Z"/><path class="cls-4" d="M121.08,329.83a14.75,14.75,0,0,0,28.62,0,24.59,24.59,0,0,1-14.31-9.12A24.59,24.59,0,0,1,121.08,329.83Z"/><path class="cls-4" d="M135.39,336.62a10.34,10.34,0,0,1-8.3-4.16,28.69,28.69,0,0,0,8.3-5.24,28.82,28.82,0,0,0,8.3,5.24A10.34,10.34,0,0,1,135.39,336.62Z"/><path class="cls-4" d="M135.46,306.61a19.15,19.15,0,1,0,38.3,0h.08c-19-2.19-19.23-17.85-19.23-17.85"/><path class="cls-4" d="M140.3,310.19a14.75,14.75,0,0,0,28.63,0,24.61,24.61,0,0,1-14.32-9.12A24.55,24.55,0,0,1,140.3,310.19Z"/><path class="cls-4" d="M154.61,317a10.33,10.33,0,0,1-8.3-4.15,28.69,28.69,0,0,0,8.3-5.24,29,29,0,0,0,8.3,5.24A10.32,10.32,0,0,1,154.61,317Z"/><path class="cls-4" d="M159.52,290.87a14.75,14.75,0,0,0,28.63,0,24.51,24.51,0,0,1-14.31-9.13A24.58,24.58,0,0,1,159.52,290.87Z"/><path class="cls-4" d="M173.84,297.65a10.36,10.36,0,0,1-8.3-4.15,29.4,29.4,0,0,0,8.3-5.24,29.12,29.12,0,0,0,8.3,5.24A10.36,10.36,0,0,1,173.84,297.65Z"/><path class="cls-4" d="M173.91,306.61a19.15,19.15,0,0,0,38.3,0h.08c-18.95-2.19-19.23-18.18-19.23-18.18.09,1-.27,16-19.22,18.18"/><path class="cls-4" d="M178.75,310.19a14.75,14.75,0,0,0,28.63,0,24.61,24.61,0,0,1-14.32-9.12A24.55,24.55,0,0,1,178.75,310.19Z"/><path class="cls-4" d="M193.06,317a10.33,10.33,0,0,1-8.3-4.15,28.69,28.69,0,0,0,8.3-5.24,29,29,0,0,0,8.3,5.24A10.33,10.33,0,0,1,193.06,317Z"/><path class="cls-4" d="M134.85,306.44a18.8,18.8,0,0,0,19.23-18.21h0"/><path class="cls-4" d="M120.54,290.87a14.75,14.75,0,0,0,28.63,0,24.58,24.58,0,0,1-14.32-9.13A24.51,24.51,0,0,1,120.54,290.87Z"/><path class="cls-4" d="M134.85,297.65a10.36,10.36,0,0,1-8.3-4.15,29.12,29.12,0,0,0,8.3-5.24,29.31,29.31,0,0,0,8.31,5.24A10.38,10.38,0,0,1,134.85,297.65Z"/><path class="cls-4" d="M77.79,326.25a19.15,19.15,0,0,0,38.3,0h.08c-19-2.19-19.23-17.85-19.23-17.85s-.27,15.66-19.22,17.85"/><path class="cls-4" d="M82.63,329.83a14.75,14.75,0,0,0,28.63,0,24.61,24.61,0,0,1-14.32-9.12A24.55,24.55,0,0,1,82.63,329.83Z"/><path class="cls-4" d="M96.94,336.62a10.34,10.34,0,0,1-8.3-4.16,28.69,28.69,0,0,0,8.3-5.24,29,29,0,0,0,8.3,5.24A10.34,10.34,0,0,1,96.94,336.62Z"/><path class="cls-4" d="M44.18,329.83a14.75,14.75,0,0,0,28.63,0,24.55,24.55,0,0,1-14.31-9.12A24.61,24.61,0,0,1,44.18,329.83Z"/><path class="cls-4" d="M58.5,336.62a10.36,10.36,0,0,1-8.31-4.16,28.87,28.87,0,0,0,8.31-5.24,28.69,28.69,0,0,0,8.3,5.24A10.36,10.36,0,0,1,58.5,336.62Z"/><path class="cls-4" d="M58.57,306.61a19.15,19.15,0,0,0,38.3,0h.07c-19-2.19-19.22-17.85-19.22-17.85"/><path class="cls-4" d="M63.4,310.19a14.75,14.75,0,0,0,28.63,0,24.55,24.55,0,0,1-14.31-9.12A24.61,24.61,0,0,1,63.4,310.19Z"/><path class="cls-4" d="M77.72,317a10.33,10.33,0,0,1-8.3-4.15,28.82,28.82,0,0,0,8.3-5.24,28.69,28.69,0,0,0,8.3,5.24A10.33,10.33,0,0,1,77.72,317Z"/><path class="cls-4" d="M82.63,290.87a14.75,14.75,0,0,0,28.63,0,24.58,24.58,0,0,1-14.32-9.13A24.51,24.51,0,0,1,82.63,290.87Z"/><path class="cls-4" d="M96.94,297.65a10.36,10.36,0,0,1-8.3-4.15,29.12,29.12,0,0,0,8.3-5.24,29.4,29.4,0,0,0,8.3,5.24A10.36,10.36,0,0,1,96.94,297.65Z"/><path class="cls-4" d="M97,306.61a19.15,19.15,0,1,0,38.3,0h.07c-18.95-2.19-19.22-18.18-19.22-18.18.08,1-.28,16-19.23,18.18"/><path class="cls-4" d="M101.85,310.19a14.75,14.75,0,0,0,28.63,0,24.55,24.55,0,0,1-14.31-9.12A24.61,24.61,0,0,1,101.85,310.19Z"/><path class="cls-4" d="M116.17,317a10.33,10.33,0,0,1-8.3-4.15,29,29,0,0,0,8.3-5.24,28.69,28.69,0,0,0,8.3,5.24A10.33,10.33,0,0,1,116.17,317Z"/><path class="cls-4" d="M58,306.44a18.79,18.79,0,0,0,19.22-18.21h0"/><path class="cls-4" d="M43.64,290.87a14.75,14.75,0,0,0,28.63,0A24.55,24.55,0,0,1,58,281.74,24.54,24.54,0,0,1,43.64,290.87Z"/><path class="cls-4" d="M58,297.65a10.36,10.36,0,0,1-8.3-4.15,29.26,29.26,0,0,0,8.3-5.24,29.12,29.12,0,0,0,8.3,5.24A10.36,10.36,0,0,1,58,297.65Z"/><path class="cls-4" d="M.9,326.25a19.15,19.15,0,0,0,38.3,0h.07c-19-2.19-19.22-17.85-19.22-17.85S19.77,324.06.82,326.25"/><path class="cls-4" d="M20.12,306.61a19.15,19.15,0,0,0,38.3,0h.08c-19-2.19-19.23-18.18-19.23-18.18.09,1-.27,16-19.22,18.18"/><path class="cls-4" d="M25,310.19a14.75,14.75,0,0,0,28.63,0,24.61,24.61,0,0,1-14.32-9.12A24.55,24.55,0,0,1,25,310.19Z"/><path class="cls-4" d="M39.27,317a10.33,10.33,0,0,1-8.3-4.15,28.69,28.69,0,0,0,8.3-5.24,29,29,0,0,0,8.3,5.24A10.33,10.33,0,0,1,39.27,317Z"/><path class="cls-4" d="M173.91,268.56a19.15,19.15,0,0,0,38.3,0h.08c-18.95-2.2-19.23-17.85-19.23-17.85s-.27,15.65-19.22,17.85"/><path class="cls-4" d="M178.75,272.13a14.75,14.75,0,0,0,28.63,0A24.57,24.57,0,0,1,193.06,263,24.51,24.51,0,0,1,178.75,272.13Z"/><path class="cls-4" d="M193.06,278.92a10.36,10.36,0,0,1-8.3-4.15,28.93,28.93,0,0,0,8.3-5.25,29.2,29.2,0,0,0,8.3,5.25A10.36,10.36,0,0,1,193.06,278.92Z"/><path class="cls-4" d="M193.14,249.36a19.15,19.15,0,1,0,38.29,0h.08c-18.95-2.2-19.22-17.85-19.22-17.85s-.28,15.65-19.23,17.85"/><path class="cls-4" d="M159.52,252.94a14.76,14.76,0,0,0,28.63,0,24.51,24.51,0,0,1-14.31-9.13A24.58,24.58,0,0,1,159.52,252.94Z"/><path class="cls-4" d="M173.84,259.72a10.36,10.36,0,0,1-8.3-4.15,29.2,29.2,0,0,0,8.3-5.25,28.93,28.93,0,0,0,8.3,5.25A10.36,10.36,0,0,1,173.84,259.72Z"/><path class="cls-4" d="M173.91,229.72a19.15,19.15,0,1,0,38.3,0h.08c-18.95-2.2-19.23-17.85-19.23-17.85"/><path class="cls-4" d="M178.75,233.3a14.76,14.76,0,0,0,28.63,0,24.58,24.58,0,0,1-14.32-9.13A24.51,24.51,0,0,1,178.75,233.3Z"/><path class="cls-4" d="M193.06,240.08a10.36,10.36,0,0,1-8.3-4.15,28.93,28.93,0,0,0,8.3-5.25,29.2,29.2,0,0,0,8.3,5.25A10.36,10.36,0,0,1,193.06,240.08Z"/><path class="cls-4" d="M173.3,229.54a18.8,18.8,0,0,0,19.23-18.2h0"/><path class="cls-4" d="M159,214a14.75,14.75,0,0,0,28.63,0,24.61,24.61,0,0,1-14.32-9.12A24.55,24.55,0,0,1,159,214Z"/><path class="cls-4" d="M173.3,220.76a10.34,10.34,0,0,1-8.3-4.16,28.69,28.69,0,0,0,8.3-5.24,29,29,0,0,0,8.3,5.24A10.34,10.34,0,0,1,173.3,220.76Z"/><path class="cls-4" d="M97,268.56a19.15,19.15,0,0,0,38.3,0h.07c-18.95-2.2-19.22-17.85-19.22-17.85s-.28,15.65-19.23,17.85"/><path class="cls-4" d="M101.85,272.13a14.75,14.75,0,0,0,28.63,0A24.51,24.51,0,0,1,116.17,263,24.57,24.57,0,0,1,101.85,272.13Z"/><path class="cls-4" d="M116.17,278.92a10.36,10.36,0,0,1-8.3-4.15,29.2,29.2,0,0,0,8.3-5.25,28.93,28.93,0,0,0,8.3,5.25A10.36,10.36,0,0,1,116.17,278.92Z"/><path class="cls-4" d="M116.24,249.36a19.15,19.15,0,0,0,38.3,0h.07c-19-2.2-19.22-17.85-19.22-17.85s-.27,15.65-19.22,17.85"/><path class="cls-4" d="M121.08,252.94a14.75,14.75,0,0,0,28.62,0,24.55,24.55,0,0,1-14.31-9.13A24.55,24.55,0,0,1,121.08,252.94Z"/><path class="cls-4" d="M135.39,259.72a10.36,10.36,0,0,1-8.3-4.15,28.93,28.93,0,0,0,8.3-5.25,29.07,29.07,0,0,0,8.3,5.25A10.36,10.36,0,0,1,135.39,259.72Z"/><path class="cls-4" d="M135.46,268.56a19.15,19.15,0,1,0,38.3,0h.08c-19-2.2-19.23-17.85-19.23-17.85s-.27,15.65-19.22,17.85"/><path class="cls-4" d="M140.3,272.13a14.75,14.75,0,0,0,28.63,0A24.57,24.57,0,0,1,154.61,263,24.51,24.51,0,0,1,140.3,272.13Z"/><path class="cls-4" d="M154.61,278.92a10.36,10.36,0,0,1-8.3-4.15,28.93,28.93,0,0,0,8.3-5.25,29.2,29.2,0,0,0,8.3,5.25A10.35,10.35,0,0,1,154.61,278.92Z"/><path class="cls-4" d="M82.63,252.94a14.76,14.76,0,0,0,28.63,0,24.58,24.58,0,0,1-14.32-9.13A24.51,24.51,0,0,1,82.63,252.94Z"/><path class="cls-4" d="M96.94,259.72a10.36,10.36,0,0,1-8.3-4.15,28.93,28.93,0,0,0,8.3-5.25,29.2,29.2,0,0,0,8.3,5.25A10.36,10.36,0,0,1,96.94,259.72Z"/><path class="cls-4" d="M97,229.72a19.15,19.15,0,1,0,38.3,0h.07c-18.95-2.2-19.22-17.85-19.22-17.85"/><path class="cls-4" d="M101.85,233.3a14.76,14.76,0,0,0,28.63,0,24.51,24.51,0,0,1-14.31-9.13A24.58,24.58,0,0,1,101.85,233.3Z"/><path class="cls-4" d="M116.17,240.08a10.36,10.36,0,0,1-8.3-4.15,29.2,29.2,0,0,0,8.3-5.25,28.93,28.93,0,0,0,8.3,5.25A10.36,10.36,0,0,1,116.17,240.08Z"/><path class="cls-4" d="M121.08,214a14.75,14.75,0,0,0,28.62,0,24.59,24.59,0,0,1-14.31-9.12A24.59,24.59,0,0,1,121.08,214Z"/><path class="cls-4" d="M135.39,220.76a10.34,10.34,0,0,1-8.3-4.16,28.69,28.69,0,0,0,8.3-5.24,28.82,28.82,0,0,0,8.3,5.24A10.34,10.34,0,0,1,135.39,220.76Z"/><path class="cls-4" d="M135.46,229.72a19.15,19.15,0,1,0,38.3,0h.08c-19-2.2-19.23-18.18-19.23-18.18.09,1-.27,16-19.22,18.18"/><path class="cls-4" d="M140.3,233.3a14.76,14.76,0,0,0,28.63,0,24.58,24.58,0,0,1-14.32-9.13A24.51,24.51,0,0,1,140.3,233.3Z"/><path class="cls-4" d="M154.61,240.08a10.36,10.36,0,0,1-8.3-4.15,28.93,28.93,0,0,0,8.3-5.25,29.2,29.2,0,0,0,8.3,5.25A10.35,10.35,0,0,1,154.61,240.08Z"/><path class="cls-4" d="M96.41,229.54a18.8,18.8,0,0,0,19.22-18.2h0"/><path class="cls-4" d="M82.09,214a14.75,14.75,0,0,0,28.63,0,24.55,24.55,0,0,1-14.31-9.12A24.61,24.61,0,0,1,82.09,214Z"/><path class="cls-4" d="M96.41,220.76a10.34,10.34,0,0,1-8.3-4.16,29,29,0,0,0,8.3-5.24,28.69,28.69,0,0,0,8.3,5.24A10.34,10.34,0,0,1,96.41,220.76Z"/><path class="cls-4" d="M20.12,268.56a19.15,19.15,0,0,0,38.3,0h.08c-19-2.2-19.23-17.85-19.23-17.85S39,266.36,20.05,268.56"/><path class="cls-4" d="M25,272.13a14.75,14.75,0,0,0,28.63,0A24.57,24.57,0,0,1,39.27,263,24.51,24.51,0,0,1,25,272.13Z"/><path class="cls-4" d="M39.27,278.92a10.36,10.36,0,0,1-8.3-4.15,28.93,28.93,0,0,0,8.3-5.25,29.2,29.2,0,0,0,8.3,5.25A10.36,10.36,0,0,1,39.27,278.92Z"/><path class="cls-4" d="M39.35,249.36a19.15,19.15,0,1,0,38.29,0h.08c-18.95-2.2-19.22-17.85-19.22-17.85s-.28,15.65-19.23,17.85"/><path class="cls-4" d="M44.18,252.94a14.76,14.76,0,0,0,28.63,0,24.51,24.51,0,0,1-14.31-9.13A24.58,24.58,0,0,1,44.18,252.94Z"/><path class="cls-4" d="M58.5,259.72a10.38,10.38,0,0,1-8.31-4.15,29.12,29.12,0,0,0,8.31-5.25,28.93,28.93,0,0,0,8.3,5.25A10.38,10.38,0,0,1,58.5,259.72Z"/><path class="cls-4" d="M58.57,268.56a19.15,19.15,0,0,0,38.3,0h.07c-19-2.2-19.22-17.85-19.22-17.85s-.28,15.65-19.22,17.85"/><path class="cls-4" d="M63.4,272.13a14.75,14.75,0,0,0,28.63,0A24.51,24.51,0,0,1,77.72,263,24.57,24.57,0,0,1,63.4,272.13Z"/><path class="cls-4" d="M77.72,278.92a10.36,10.36,0,0,1-8.3-4.15,29.07,29.07,0,0,0,8.3-5.25,28.93,28.93,0,0,0,8.3,5.25A10.36,10.36,0,0,1,77.72,278.92Z"/><path class="cls-4" d="M20.12,229.72a19.15,19.15,0,1,0,38.3,0h.08c-19-2.2-19.23-17.85-19.23-17.85"/><path class="cls-4" d="M25,233.3a14.76,14.76,0,0,0,28.63,0,24.58,24.58,0,0,1-14.32-9.13A24.51,24.51,0,0,1,25,233.3Z"/><path class="cls-4" d="M39.27,240.08a10.36,10.36,0,0,1-8.3-4.15,28.93,28.93,0,0,0,8.3-5.25,29.2,29.2,0,0,0,8.3,5.25A10.36,10.36,0,0,1,39.27,240.08Z"/><path class="cls-4" d="M44.18,214a14.75,14.75,0,0,0,28.63,0,24.55,24.55,0,0,1-14.31-9.12A24.61,24.61,0,0,1,44.18,214Z"/><path class="cls-4" d="M58.5,220.76a10.36,10.36,0,0,1-8.31-4.16,28.87,28.87,0,0,0,8.31-5.24,28.69,28.69,0,0,0,8.3,5.24A10.36,10.36,0,0,1,58.5,220.76Z"/><path class="cls-4" d="M58.57,229.72a19.15,19.15,0,0,0,38.3,0h.07c-19-2.2-19.22-18.18-19.22-18.18.09,1-.28,16-19.22,18.18"/><path class="cls-4" d="M63.4,233.3a14.76,14.76,0,0,0,28.63,0,24.51,24.51,0,0,1-14.31-9.13A24.58,24.58,0,0,1,63.4,233.3Z"/><path class="cls-4" d="M77.72,240.08a10.36,10.36,0,0,1-8.3-4.15,29.07,29.07,0,0,0,8.3-5.25,28.93,28.93,0,0,0,8.3,5.25A10.36,10.36,0,0,1,77.72,240.08Z"/><path class="cls-4" d="M19.51,229.54a18.8,18.8,0,0,0,19.23-18.2h0"/><path class="cls-4" d="M135.46,191.66a19.15,19.15,0,1,0,38.3,0h.08c-19-2.2-19.23-17.85-19.23-17.85s-.27,15.65-19.22,17.85"/><path class="cls-4" d="M140.3,195.24a14.75,14.75,0,0,0,28.63,0,24.58,24.58,0,0,1-14.32-9.13A24.51,24.51,0,0,1,140.3,195.24Z"/><path class="cls-4" d="M154.61,202a10.33,10.33,0,0,1-8.3-4.15,28.9,28.9,0,0,0,8.3-5.24,29.18,29.18,0,0,0,8.3,5.24A10.32,10.32,0,0,1,154.61,202Z"/><path class="cls-4" d="M154.69,172.46a19.15,19.15,0,0,0,38.3,0h.07c-18.95-2.19-19.22-17.85-19.22-17.85s-.28,15.66-19.23,17.85"/><path class="cls-4" d="M159.52,176a14.75,14.75,0,0,0,28.63,0,24.55,24.55,0,0,1-14.31-9.12A24.61,24.61,0,0,1,159.52,176Z"/><path class="cls-4" d="M173.84,182.83a10.34,10.34,0,0,1-8.3-4.16,29,29,0,0,0,8.3-5.24,28.69,28.69,0,0,0,8.3,5.24A10.34,10.34,0,0,1,173.84,182.83Z"/><path class="cls-4" d="M173.91,191.66a19.15,19.15,0,1,0,38.3,0h.08c-18.95-2.2-19.23-17.85-19.23-17.85s-.27,15.65-19.22,17.85"/><path class="cls-4" d="M178.75,195.24a14.75,14.75,0,0,0,28.63,0,24.58,24.58,0,0,1-14.32-9.13A24.51,24.51,0,0,1,178.75,195.24Z"/><path class="cls-4" d="M193.06,202a10.33,10.33,0,0,1-8.3-4.15,28.9,28.9,0,0,0,8.3-5.24,29.18,29.18,0,0,0,8.3,5.24A10.33,10.33,0,0,1,193.06,202Z"/><path class="cls-4" d="M121.08,176a14.75,14.75,0,0,0,28.62,0,24.59,24.59,0,0,1-14.31-9.12A24.59,24.59,0,0,1,121.08,176Z"/><path class="cls-4" d="M135.39,182.83a10.34,10.34,0,0,1-8.3-4.16,28.69,28.69,0,0,0,8.3-5.24,28.82,28.82,0,0,0,8.3,5.24A10.34,10.34,0,0,1,135.39,182.83Z"/><path class="cls-4" d="M58.57,191.66a19.15,19.15,0,0,0,38.3,0h.07c-19-2.2-19.22-17.85-19.22-17.85s-.28,15.65-19.22,17.85"/><path class="cls-4" d="M63.4,195.24a14.75,14.75,0,0,0,28.63,0,24.51,24.51,0,0,1-14.31-9.13A24.58,24.58,0,0,1,63.4,195.24Z"/><path class="cls-4" d="M77.72,202a10.33,10.33,0,0,1-8.3-4.15,29,29,0,0,0,8.3-5.24,28.9,28.9,0,0,0,8.3,5.24A10.33,10.33,0,0,1,77.72,202Z"/><path class="cls-4" d="M77.79,172.46a19.15,19.15,0,0,0,38.3,0h.08c-19-2.19-19.23-17.85-19.23-17.85s-.27,15.66-19.22,17.85"/><path class="cls-4" d="M82.63,176a14.75,14.75,0,0,0,28.63,0,24.61,24.61,0,0,1-14.32-9.12A24.55,24.55,0,0,1,82.63,176Z"/><path class="cls-4" d="M96.94,182.83a10.34,10.34,0,0,1-8.3-4.16,28.69,28.69,0,0,0,8.3-5.24,29,29,0,0,0,8.3,5.24A10.34,10.34,0,0,1,96.94,182.83Z"/><path class="cls-4" d="M97,191.66a19.15,19.15,0,1,0,38.3,0h.07c-18.95-2.2-19.22-17.85-19.22-17.85s-.28,15.65-19.23,17.85"/><path class="cls-4" d="M101.85,195.24a14.75,14.75,0,0,0,28.63,0,24.51,24.51,0,0,1-14.31-9.13A24.58,24.58,0,0,1,101.85,195.24Z"/><path class="cls-4" d="M116.17,202a10.33,10.33,0,0,1-8.3-4.15,29.18,29.18,0,0,0,8.3-5.24,28.9,28.9,0,0,0,8.3,5.24A10.33,10.33,0,0,1,116.17,202Z"/><path class="cls-4" d="M44.18,176a14.75,14.75,0,0,0,28.63,0,24.55,24.55,0,0,1-14.31-9.12A24.61,24.61,0,0,1,44.18,176Z"/><path class="cls-4" d="M58.5,182.83a10.36,10.36,0,0,1-8.31-4.16,28.87,28.87,0,0,0,8.31-5.24,28.69,28.69,0,0,0,8.3,5.24A10.36,10.36,0,0,1,58.5,182.83Z"/><path class="cls-4" d="M.9,172.46a19.15,19.15,0,1,0,38.3,0h.07c-19-2.19-19.22-17.85-19.22-17.85S19.77,170.27.82,172.46"/><path class="cls-4" d="M20.12,191.66a19.15,19.15,0,1,0,38.3,0h.08c-19-2.2-19.23-17.85-19.23-17.85S39,189.46,20.05,191.66"/><path class="cls-4" d="M25,195.24a14.75,14.75,0,0,0,28.63,0,24.58,24.58,0,0,1-14.32-9.13A24.51,24.51,0,0,1,25,195.24Z"/><path class="cls-4" d="M39.27,202a10.33,10.33,0,0,1-8.3-4.15,28.9,28.9,0,0,0,8.3-5.24,29.18,29.18,0,0,0,8.3,5.24A10.33,10.33,0,0,1,39.27,202Z"/></g></g></g></g></svg>